<?xml version="1.0" encoding="utf-8" standalone="no"?>
<!DOCTYPE svg PUBLIC "-//W3C//DTD SVG 1.1//EN"
  "http://www.w3.org/Graphics/SVG/1.1/DTD/svg11.dtd">
<!-- Created with matplotlib (https://matplotlib.org/) -->
<svg height="504pt" version="1.1" viewBox="0 0 1080 504" width="1080pt" xmlns="http://www.w3.org/2000/svg" xmlns:xlink="http://www.w3.org/1999/xlink">
 <defs>
  <style type="text/css">
*{stroke-linecap:butt;stroke-linejoin:round;}
  </style>
 </defs>
 <g id="figure_1">
  <g id="patch_1">
   <path d="M 0 504 
L 1080 504 
L 1080 0 
L 0 0 
z
" style="fill:#ffffff;"/>
  </g>
  <g id="axes_1">
   <g id="patch_2">
    <path d="M 51.06125 437.9425 
L 534.6 437.9425 
L 534.6 32.8875 
L 51.06125 32.8875 
z
" style="fill:#ffffff;"/>
   </g>
   <g id="patch_3">
    <path clip-path="url(#pd4e5ca8840)" d="M 73.040284 437.9425 
L 87.816105 437.9425 
L 87.816105 413.702832 
L 73.040284 413.702832 
z
" style="fill:#1f77b4;"/>
   </g>
   <g id="patch_4">
    <path clip-path="url(#pd4e5ca8840)" d="M 91.510061 437.9425 
L 106.285882 437.9425 
L 106.285882 426.930898 
L 91.510061 426.930898 
z
" style="fill:#1f77b4;"/>
   </g>
   <g id="patch_5">
    <path clip-path="url(#pd4e5ca8840)" d="M 109.979837 437.9425 
L 124.755658 437.9425 
L 124.755658 430.812508 
L 109.979837 430.812508 
z
" style="fill:#1f77b4;"/>
   </g>
   <g id="patch_6">
    <path clip-path="url(#pd4e5ca8840)" d="M 128.449614 437.9425 
L 143.225435 437.9425 
L 143.225435 435.168524 
L 128.449614 435.168524 
z
" style="fill:#1f77b4;"/>
   </g>
   <g id="patch_7">
    <path clip-path="url(#pd4e5ca8840)" d="M 146.91939 437.9425 
L 161.695212 437.9425 
L 161.695212 434.915162 
L 146.91939 434.915162 
z
" style="fill:#1f77b4;"/>
   </g>
   <g id="patch_8">
    <path clip-path="url(#pd4e5ca8840)" d="M 165.389167 437.9425 
L 180.164988 437.9425 
L 180.164988 430.486581 
L 165.389167 430.486581 
z
" style="fill:#1f77b4;"/>
   </g>
   <g id="patch_9">
    <path clip-path="url(#pd4e5ca8840)" d="M 183.858943 437.9425 
L 198.634765 437.9425 
L 198.634765 416.007259 
L 183.858943 416.007259 
z
" style="fill:#1f77b4;"/>
   </g>
   <g id="patch_10">
    <path clip-path="url(#pd4e5ca8840)" d="M 202.32872 437.9425 
L 217.104541 437.9425 
L 217.104541 345.26547 
L 202.32872 345.26547 
z
" style="fill:#1f77b4;"/>
   </g>
   <g id="patch_11">
    <path clip-path="url(#pd4e5ca8840)" d="M 220.798496 437.9425 
L 235.574318 437.9425 
L 235.574318 202.456906 
L 220.798496 202.456906 
z
" style="fill:#1f77b4;"/>
   </g>
   <g id="patch_12">
    <path clip-path="url(#pd4e5ca8840)" d="M 239.268273 437.9425 
L 254.044094 437.9425 
L 254.044094 220.68685 
L 239.268273 220.68685 
z
" style="fill:#1f77b4;"/>
   </g>
   <g id="patch_13">
    <path clip-path="url(#pd4e5ca8840)" d="M 257.73805 437.9425 
L 272.513871 437.9425 
L 272.513871 204.11679 
L 257.73805 204.11679 
z
" style="fill:#1f77b4;"/>
   </g>
   <g id="patch_14">
    <path clip-path="url(#pd4e5ca8840)" d="M 276.207826 437.9425 
L 290.983647 437.9425 
L 290.983647 182.183831 
L 276.207826 182.183831 
z
" style="fill:#1f77b4;"/>
   </g>
   <g id="patch_15">
    <path clip-path="url(#pd4e5ca8840)" d="M 294.677603 437.9425 
L 309.453424 437.9425 
L 309.453424 245.104639 
L 294.677603 245.104639 
z
" style="fill:#1f77b4;"/>
   </g>
   <g id="patch_16">
    <path clip-path="url(#pd4e5ca8840)" d="M 313.147379 437.9425 
L 327.9232 437.9425 
L 327.9232 263.981988 
L 313.147379 263.981988 
z
" style="fill:#1f77b4;"/>
   </g>
   <g id="patch_17">
    <path clip-path="url(#pd4e5ca8840)" d="M 331.617156 437.9425 
L 346.392977 437.9425 
L 346.392977 224.558741 
L 331.617156 224.558741 
z
" style="fill:#1f77b4;"/>
   </g>
   <g id="patch_18">
    <path clip-path="url(#pd4e5ca8840)" d="M 350.086932 437.9425 
L 364.862754 437.9425 
L 364.862754 199.118827 
L 350.086932 199.118827 
z
" style="fill:#1f77b4;"/>
   </g>
   <g id="patch_19">
    <path clip-path="url(#pd4e5ca8840)" d="M 368.556709 437.9425 
L 383.33253 437.9425 
L 383.33253 177.046842 
L 368.556709 177.046842 
z
" style="fill:#1f77b4;"/>
   </g>
   <g id="patch_20">
    <path clip-path="url(#pd4e5ca8840)" d="M 387.026485 437.9425 
L 401.802307 437.9425 
L 401.802307 133.719846 
L 387.026485 133.719846 
z
" style="fill:#1f77b4;"/>
   </g>
   <g id="patch_21">
    <path clip-path="url(#pd4e5ca8840)" d="M 405.496262 437.9425 
L 420.272083 437.9425 
L 420.272083 161.438025 
L 405.496262 161.438025 
z
" style="fill:#1f77b4;"/>
   </g>
   <g id="patch_22">
    <path clip-path="url(#pd4e5ca8840)" d="M 423.966038 437.9425 
L 438.74186 437.9425 
L 438.74186 230.048753 
L 423.966038 230.048753 
z
" style="fill:#1f77b4;"/>
   </g>
   <g id="patch_23">
    <path clip-path="url(#pd4e5ca8840)" d="M 442.435815 437.9425 
L 457.211636 437.9425 
L 457.211636 247.438418 
L 442.435815 247.438418 
z
" style="fill:#1f77b4;"/>
   </g>
   <g id="patch_24">
    <path clip-path="url(#pd4e5ca8840)" d="M 460.905592 437.9425 
L 475.681413 437.9425 
L 475.681413 288.565723 
L 460.905592 288.565723 
z
" style="fill:#1f77b4;"/>
   </g>
   <g id="patch_25">
    <path clip-path="url(#pd4e5ca8840)" d="M 479.375368 437.9425 
L 494.151189 437.9425 
L 494.151189 383.354398 
L 479.375368 383.354398 
z
" style="fill:#1f77b4;"/>
   </g>
   <g id="patch_26">
    <path clip-path="url(#pd4e5ca8840)" d="M 497.845145 437.9425 
L 512.620966 437.9425 
L 512.620966 408.836079 
L 497.845145 408.836079 
z
" style="fill:#1f77b4;"/>
   </g>
   <g id="matplotlib.axis_1">
    <g id="xtick_1">
     <g id="line2d_1">
      <defs>
       <path d="M 0 0 
L 0 3.5 
" id="m88deab8661" style="stroke:#000000;stroke-width:0.8;"/>
      </defs>
      <g>
       <use style="stroke:#000000;stroke-width:0.8;" x="80.428195" xlink:href="#m88deab8661" y="437.9425"/>
      </g>
     </g>
     <g id="text_1">
      <!-- 00:00 -->
      <defs>
       <path d="M 3.125 29.296875 
Q 3.90625 50 6.4375 56.046875 
Q 8.984375 62.109375 13.671875 66.015625 
Q 18.359375 69.921875 25.1875 69.921875 
Q 32.03125 69.921875 37.109375 64.25 
Q 42.1875 58.59375 43.75 50 
Q 45.3125 41.40625 44.71875 30.265625 
Q 44.140625 19.140625 40.8125 12.109375 
Q 37.5 5.078125 30.859375 2.34375 
Q 24.21875 -0.390625 17.578125 2.921875 
Q 10.9375 6.25 8.203125 11.71875 
Q 5.46875 17.1875 4.296875 23.234375 
Q 3.125 29.296875 3.90625 50 
z
M 12.890625 52.734375 
Q 10.546875 31.25 12.5 22.84375 
Q 14.453125 14.453125 18.9375 10.9375 
Q 23.4375 7.421875 28.125 9.5625 
Q 32.8125 11.71875 34.953125 18.15625 
Q 37.109375 24.609375 37.109375 32.21875 
Q 37.109375 39.84375 36.515625 46.09375 
Q 35.9375 52.34375 33 57.421875 
Q 30.078125 62.5 25.1875 62.6875 
Q 20.3125 62.890625 16.59375 57.8125 
Q 12.890625 52.734375 10.546875 31.25 
z
" id="SimHei-48"/>
       <path d="M 28.515625 37.890625 
L 19.53125 37.890625 
L 19.53125 46.484375 
L 28.515625 46.484375 
z
M 28.515625 1.953125 
L 19.53125 1.953125 
L 19.53125 10.546875 
L 28.515625 10.546875 
z
" id="SimHei-58"/>
      </defs>
      <g transform="translate(77.053195 444.9425)rotate(-270)scale(0.12 -0.12)">
       <use xlink:href="#SimHei-48"/>
       <use x="50" xlink:href="#SimHei-48"/>
       <use x="100" xlink:href="#SimHei-58"/>
       <use x="150" xlink:href="#SimHei-48"/>
       <use x="200" xlink:href="#SimHei-48"/>
      </g>
     </g>
    </g>
    <g id="xtick_2">
     <g id="line2d_2">
      <g>
       <use style="stroke:#000000;stroke-width:0.8;" x="98.897971" xlink:href="#m88deab8661" y="437.9425"/>
      </g>
     </g>
     <g id="text_2">
      <!-- 01:00 -->
      <defs>
       <path d="M 21.875 56.25 
Q 16.796875 51.171875 8.984375 46.484375 
L 8.984375 53.90625 
Q 18.75 60.546875 25 69.53125 
L 29.6875 69.53125 
L 29.6875 2.34375 
L 21.875 2.34375 
z
" id="SimHei-49"/>
      </defs>
      <g transform="translate(95.522971 444.9425)rotate(-270)scale(0.12 -0.12)">
       <use xlink:href="#SimHei-48"/>
       <use x="50" xlink:href="#SimHei-49"/>
       <use x="100" xlink:href="#SimHei-58"/>
       <use x="150" xlink:href="#SimHei-48"/>
       <use x="200" xlink:href="#SimHei-48"/>
      </g>
     </g>
    </g>
    <g id="xtick_3">
     <g id="line2d_3">
      <g>
       <use style="stroke:#000000;stroke-width:0.8;" x="117.367748" xlink:href="#m88deab8661" y="437.9425"/>
      </g>
     </g>
     <g id="text_3">
      <!-- 02:00 -->
      <defs>
       <path d="M 4.6875 3.90625 
Q 5.078125 9.765625 10.15625 14.453125 
Q 15.234375 19.140625 23.046875 29.09375 
Q 30.859375 39.0625 33.203125 44.53125 
Q 35.546875 50 34.953125 53.90625 
Q 34.375 57.8125 31.25 60.34375 
Q 28.125 62.890625 24.015625 62.5 
Q 19.921875 62.109375 16.203125 59.375 
Q 12.5 56.640625 10.546875 51.171875 
L 3.125 52.34375 
Q 6.25 61.328125 11.125 65.421875 
Q 16.015625 69.53125 22.65625 69.921875 
Q 26.5625 70.3125 29.6875 69.71875 
Q 32.8125 69.140625 36.125 66.984375 
Q 39.453125 64.84375 41.59375 60.546875 
Q 43.75 56.25 43.15625 50.1875 
Q 42.578125 44.140625 37.109375 35.734375 
Q 31.640625 27.34375 16.015625 9.375 
L 44.140625 9.375 
L 44.140625 2.34375 
L 4.6875 2.34375 
z
" id="SimHei-50"/>
      </defs>
      <g transform="translate(113.992748 444.9425)rotate(-270)scale(0.12 -0.12)">
       <use xlink:href="#SimHei-48"/>
       <use x="50" xlink:href="#SimHei-50"/>
       <use x="100" xlink:href="#SimHei-58"/>
       <use x="150" xlink:href="#SimHei-48"/>
       <use x="200" xlink:href="#SimHei-48"/>
      </g>
     </g>
    </g>
    <g id="xtick_4">
     <g id="line2d_4">
      <g>
       <use style="stroke:#000000;stroke-width:0.8;" x="135.837524" xlink:href="#m88deab8661" y="437.9425"/>
      </g>
     </g>
     <g id="text_4">
      <!-- 03:00 -->
      <defs>
       <path d="M 3.90625 19.140625 
L 10.9375 20.3125 
Q 12.5 15.234375 16.015625 11.90625 
Q 19.53125 8.59375 24.796875 8.78125 
Q 30.078125 8.984375 33.203125 13.078125 
Q 36.328125 17.1875 35.9375 22.453125 
Q 35.546875 27.734375 31.828125 30.65625 
Q 28.125 33.59375 19.921875 34.765625 
L 19.921875 39.84375 
Q 28.125 40.625 31.828125 44.140625 
Q 35.546875 47.65625 35.15625 53.3125 
Q 34.765625 58.984375 30.078125 61.515625 
Q 25.390625 64.0625 20.109375 62.109375 
Q 14.84375 60.15625 11.71875 51.171875 
L 4.6875 52.34375 
Q 7.03125 59.375 11.125 64.0625 
Q 15.234375 68.75 22.265625 69.53125 
Q 29.296875 70.3125 34.5625 67.765625 
Q 39.84375 65.234375 41.984375 59.953125 
Q 44.140625 54.6875 42.578125 48.4375 
Q 41.015625 42.1875 33.59375 37.5 
Q 39.0625 35.15625 41.984375 30.46875 
Q 44.921875 25.78125 43.9375 18.15625 
Q 42.96875 10.546875 37.109375 5.859375 
Q 31.25 1.171875 23.828125 1.359375 
Q 16.40625 1.5625 10.9375 6.046875 
Q 5.46875 10.546875 3.90625 19.140625 
z
" id="SimHei-51"/>
      </defs>
      <g transform="translate(132.462524 444.9425)rotate(-270)scale(0.12 -0.12)">
       <use xlink:href="#SimHei-48"/>
       <use x="50" xlink:href="#SimHei-51"/>
       <use x="100" xlink:href="#SimHei-58"/>
       <use x="150" xlink:href="#SimHei-48"/>
       <use x="200" xlink:href="#SimHei-48"/>
      </g>
     </g>
    </g>
    <g id="xtick_5">
     <g id="line2d_5">
      <g>
       <use style="stroke:#000000;stroke-width:0.8;" x="154.307301" xlink:href="#m88deab8661" y="437.9425"/>
      </g>
     </g>
     <g id="text_5">
      <!-- 04:00 -->
      <defs>
       <path d="M 31.25 17.1875 
L 1.171875 17.1875 
L 1.171875 23.828125 
L 32.8125 69.53125 
L 38.671875 69.53125 
L 38.671875 23.828125 
L 48.046875 23.828125 
L 48.046875 17.1875 
L 38.671875 17.1875 
L 38.671875 2.34375 
L 31.25 2.34375 
z
M 31.25 23.828125 
L 31.25 54.6875 
L 9.375 23.828125 
z
" id="SimHei-52"/>
      </defs>
      <g transform="translate(150.932301 444.9425)rotate(-270)scale(0.12 -0.12)">
       <use xlink:href="#SimHei-48"/>
       <use x="50" xlink:href="#SimHei-52"/>
       <use x="100" xlink:href="#SimHei-58"/>
       <use x="150" xlink:href="#SimHei-48"/>
       <use x="200" xlink:href="#SimHei-48"/>
      </g>
     </g>
    </g>
    <g id="xtick_6">
     <g id="line2d_6">
      <g>
       <use style="stroke:#000000;stroke-width:0.8;" x="172.777077" xlink:href="#m88deab8661" y="437.9425"/>
      </g>
     </g>
     <g id="text_6">
      <!-- 05:00 -->
      <defs>
       <path d="M 8.59375 20.703125 
Q 11.328125 10.15625 17.96875 8.984375 
Q 24.609375 7.8125 28.703125 10.34375 
Q 32.8125 12.890625 34.5625 16.984375 
Q 36.328125 21.09375 36.125 26.171875 
Q 35.9375 31.25 33.390625 34.765625 
Q 30.859375 38.28125 26.953125 39.453125 
Q 23.046875 40.625 18.15625 39.453125 
Q 13.28125 38.28125 10.15625 33.984375 
L 3.515625 34.765625 
Q 4.296875 37.109375 10.9375 68.359375 
L 41.796875 68.359375 
L 41.796875 61.328125 
L 16.796875 61.328125 
Q 14.84375 50.78125 12.890625 44.53125 
Q 18.75 47.265625 23.828125 47.0625 
Q 28.90625 46.875 33.59375 44.71875 
Q 38.28125 42.578125 40.421875 38.859375 
Q 42.578125 35.15625 43.546875 31.4375 
Q 44.53125 27.734375 44.328125 23.4375 
Q 44.140625 19.140625 42.578125 14.640625 
Q 41.015625 10.15625 37.890625 7.21875 
Q 34.765625 4.296875 30.265625 2.53125 
Q 25.78125 0.78125 19.921875 1.171875 
Q 14.0625 1.5625 8.78125 5.46875 
Q 3.515625 9.375 1.5625 18.75 
z
" id="SimHei-53"/>
      </defs>
      <g transform="translate(169.402077 444.9425)rotate(-270)scale(0.12 -0.12)">
       <use xlink:href="#SimHei-48"/>
       <use x="50" xlink:href="#SimHei-53"/>
       <use x="100" xlink:href="#SimHei-58"/>
       <use x="150" xlink:href="#SimHei-48"/>
       <use x="200" xlink:href="#SimHei-48"/>
      </g>
     </g>
    </g>
    <g id="xtick_7">
     <g id="line2d_7">
      <g>
       <use style="stroke:#000000;stroke-width:0.8;" x="191.246854" xlink:href="#m88deab8661" y="437.9425"/>
      </g>
     </g>
     <g id="text_7">
      <!-- 06:00 -->
      <defs>
       <path d="M 3.515625 19.53125 
Q 4.296875 30.859375 6.046875 34.765625 
Q 7.8125 38.671875 11.328125 44.53125 
L 27.34375 69.53125 
L 36.328125 69.53125 
L 19.921875 43.75 
Q 30.46875 46.484375 36.71875 42.96875 
Q 42.96875 39.453125 45.109375 34.953125 
Q 47.265625 30.46875 47.453125 25.1875 
Q 47.65625 19.921875 45.890625 14.84375 
Q 44.140625 9.765625 39.640625 5.65625 
Q 35.15625 1.5625 27.140625 1.171875 
Q 19.140625 0.78125 13.46875 4.09375 
Q 7.8125 7.421875 5.65625 13.46875 
Q 3.515625 19.53125 4.296875 30.859375 
z
M 12.5 16.015625 
Q 19.53125 8.59375 25.390625 8.203125 
Q 31.25 7.8125 35.15625 12.109375 
Q 39.0625 16.40625 39.0625 24.609375 
Q 39.0625 32.8125 34.171875 35.9375 
Q 29.296875 39.0625 23.234375 38.28125 
Q 17.1875 37.5 14.453125 32.421875 
Q 11.71875 27.34375 12.109375 21.671875 
Q 12.5 16.015625 19.53125 8.59375 
z
" id="SimHei-54"/>
      </defs>
      <g transform="translate(187.871854 444.9425)rotate(-270)scale(0.12 -0.12)">
       <use xlink:href="#SimHei-48"/>
       <use x="50" xlink:href="#SimHei-54"/>
       <use x="100" xlink:href="#SimHei-58"/>
       <use x="150" xlink:href="#SimHei-48"/>
       <use x="200" xlink:href="#SimHei-48"/>
      </g>
     </g>
    </g>
    <g id="xtick_8">
     <g id="line2d_8">
      <g>
       <use style="stroke:#000000;stroke-width:0.8;" x="209.716631" xlink:href="#m88deab8661" y="437.9425"/>
      </g>
     </g>
     <g id="text_8">
      <!-- 07:00 -->
      <defs>
       <path d="M 13.28125 2.34375 
Q 20.3125 32.03125 37.890625 61.328125 
L 4.296875 61.328125 
L 4.296875 68.359375 
L 46.09375 68.359375 
L 46.09375 61.71875 
Q 27.734375 32.03125 21.875 2.34375 
L 13.28125 2.34375 
z
" id="SimHei-55"/>
      </defs>
      <g transform="translate(206.341631 444.9425)rotate(-270)scale(0.12 -0.12)">
       <use xlink:href="#SimHei-48"/>
       <use x="50" xlink:href="#SimHei-55"/>
       <use x="100" xlink:href="#SimHei-58"/>
       <use x="150" xlink:href="#SimHei-48"/>
       <use x="200" xlink:href="#SimHei-48"/>
      </g>
     </g>
    </g>
    <g id="xtick_9">
     <g id="line2d_9">
      <g>
       <use style="stroke:#000000;stroke-width:0.8;" x="228.186407" xlink:href="#m88deab8661" y="437.9425"/>
      </g>
     </g>
     <g id="text_9">
      <!-- 08:00 -->
      <defs>
       <path d="M 2.734375 16.796875 
Q 2.734375 26.171875 5.078125 30.65625 
Q 7.421875 35.15625 12.890625 37.890625 
Q 8.203125 40.625 6.640625 43.9375 
Q 5.078125 47.265625 4.875 51.5625 
Q 4.6875 55.859375 6.046875 58.984375 
Q 7.421875 62.109375 10.15625 64.84375 
Q 12.890625 67.578125 16.203125 68.546875 
Q 19.53125 69.53125 23.4375 69.53125 
Q 27.34375 69.53125 30.46875 68.75 
Q 33.59375 67.96875 37.109375 65.421875 
Q 40.625 62.890625 42.1875 58.203125 
Q 43.75 53.515625 41.984375 47.265625 
Q 40.234375 41.015625 32.8125 37.5 
Q 39.453125 35.546875 42.1875 31.4375 
Q 44.921875 27.34375 44.921875 21.484375 
Q 44.921875 15.625 43.15625 12.109375 
Q 41.40625 8.59375 39.25 6.25 
Q 37.109375 3.90625 33.390625 2.53125 
Q 29.6875 1.171875 24.015625 1.171875 
Q 18.359375 1.171875 14.25 2.53125 
Q 10.15625 3.90625 7.421875 6.640625 
Q 4.6875 9.375 3.703125 13.078125 
Q 2.734375 16.796875 2.734375 26.171875 
z
M 10.9375 26.5625 
Q 10.546875 17.1875 12.296875 13.671875 
Q 14.0625 10.15625 18.75 9.171875 
Q 23.4375 8.203125 28.515625 9.375 
Q 33.59375 10.546875 35.546875 14.84375 
Q 37.5 19.140625 36.90625 23.4375 
Q 36.328125 27.734375 32.03125 30.65625 
Q 27.734375 33.59375 22.65625 33.203125 
Q 17.578125 32.8125 14.25 29.6875 
Q 10.9375 26.5625 10.546875 17.1875 
z
M 12.109375 56.25 
Q 12.109375 48.4375 14.84375 44.921875 
Q 17.578125 41.40625 23.4375 41.40625 
Q 29.296875 41.40625 32.21875 44.921875 
Q 35.15625 48.4375 34.953125 53.3125 
Q 34.765625 58.203125 31.4375 60.546875 
Q 28.125 62.890625 22.453125 62.5 
Q 16.796875 62.109375 14.453125 59.171875 
Q 12.109375 56.25 12.109375 48.4375 
z
" id="SimHei-56"/>
      </defs>
      <g transform="translate(224.811407 444.9425)rotate(-270)scale(0.12 -0.12)">
       <use xlink:href="#SimHei-48"/>
       <use x="50" xlink:href="#SimHei-56"/>
       <use x="100" xlink:href="#SimHei-58"/>
       <use x="150" xlink:href="#SimHei-48"/>
       <use x="200" xlink:href="#SimHei-48"/>
      </g>
     </g>
    </g>
    <g id="xtick_10">
     <g id="line2d_10">
      <g>
       <use style="stroke:#000000;stroke-width:0.8;" x="246.656184" xlink:href="#m88deab8661" y="437.9425"/>
      </g>
     </g>
     <g id="text_10">
      <!-- 09:00 -->
      <defs>
       <path d="M 12.5 1.171875 
Q 21.09375 15.625 26.5625 27.34375 
Q 16.796875 25.78125 10.34375 29.875 
Q 3.90625 33.984375 2.53125 41.015625 
Q 1.171875 48.046875 2.734375 53.703125 
Q 4.296875 59.375 7.609375 63.078125 
Q 10.9375 66.796875 15.625 68.359375 
Q 20.3125 69.921875 24.015625 69.921875 
Q 27.734375 69.921875 31.640625 68.359375 
Q 35.546875 66.796875 38.671875 63.671875 
Q 41.796875 60.546875 42.96875 57.21875 
Q 44.140625 53.90625 44.140625 48.625 
Q 44.140625 43.359375 40.234375 35.15625 
Q 36.328125 26.953125 21.09375 1.171875 
z
M 9.765625 50 
Q 10.9375 39.84375 14.640625 36.515625 
Q 18.359375 33.203125 22.65625 33.59375 
Q 26.953125 33.984375 29.484375 35.9375 
Q 32.03125 37.890625 34.375 42.578125 
Q 35.9375 48.4375 35.15625 52.53125 
Q 34.375 56.640625 31.046875 59.375 
Q 27.734375 62.109375 23.828125 62.109375 
Q 21.484375 62.5 17.765625 60.9375 
Q 14.0625 59.375 11.90625 54.6875 
Q 9.765625 50 10.9375 39.84375 
z
" id="SimHei-57"/>
      </defs>
      <g transform="translate(243.281184 444.9425)rotate(-270)scale(0.12 -0.12)">
       <use xlink:href="#SimHei-48"/>
       <use x="50" xlink:href="#SimHei-57"/>
       <use x="100" xlink:href="#SimHei-58"/>
       <use x="150" xlink:href="#SimHei-48"/>
       <use x="200" xlink:href="#SimHei-48"/>
      </g>
     </g>
    </g>
    <g id="xtick_11">
     <g id="line2d_11">
      <g>
       <use style="stroke:#000000;stroke-width:0.8;" x="265.12596" xlink:href="#m88deab8661" y="437.9425"/>
      </g>
     </g>
     <g id="text_11">
      <!-- 10:00 -->
      <g transform="translate(261.75096 444.9425)rotate(-270)scale(0.12 -0.12)">
       <use xlink:href="#SimHei-49"/>
       <use x="50" xlink:href="#SimHei-48"/>
       <use x="100" xlink:href="#SimHei-58"/>
       <use x="150" xlink:href="#SimHei-48"/>
       <use x="200" xlink:href="#SimHei-48"/>
      </g>
     </g>
    </g>
    <g id="xtick_12">
     <g id="line2d_12">
      <g>
       <use style="stroke:#000000;stroke-width:0.8;" x="283.595737" xlink:href="#m88deab8661" y="437.9425"/>
      </g>
     </g>
     <g id="text_12">
      <!-- 11:00 -->
      <g transform="translate(280.220737 444.9425)rotate(-270)scale(0.12 -0.12)">
       <use xlink:href="#SimHei-49"/>
       <use x="50" xlink:href="#SimHei-49"/>
       <use x="100" xlink:href="#SimHei-58"/>
       <use x="150" xlink:href="#SimHei-48"/>
       <use x="200" xlink:href="#SimHei-48"/>
      </g>
     </g>
    </g>
    <g id="xtick_13">
     <g id="line2d_13">
      <g>
       <use style="stroke:#000000;stroke-width:0.8;" x="302.065513" xlink:href="#m88deab8661" y="437.9425"/>
      </g>
     </g>
     <g id="text_13">
      <!-- 12:00 -->
      <g transform="translate(298.690513 444.9425)rotate(-270)scale(0.12 -0.12)">
       <use xlink:href="#SimHei-49"/>
       <use x="50" xlink:href="#SimHei-50"/>
       <use x="100" xlink:href="#SimHei-58"/>
       <use x="150" xlink:href="#SimHei-48"/>
       <use x="200" xlink:href="#SimHei-48"/>
      </g>
     </g>
    </g>
    <g id="xtick_14">
     <g id="line2d_14">
      <g>
       <use style="stroke:#000000;stroke-width:0.8;" x="320.53529" xlink:href="#m88deab8661" y="437.9425"/>
      </g>
     </g>
     <g id="text_14">
      <!-- 13:00 -->
      <g transform="translate(317.16029 444.9425)rotate(-270)scale(0.12 -0.12)">
       <use xlink:href="#SimHei-49"/>
       <use x="50" xlink:href="#SimHei-51"/>
       <use x="100" xlink:href="#SimHei-58"/>
       <use x="150" xlink:href="#SimHei-48"/>
       <use x="200" xlink:href="#SimHei-48"/>
      </g>
     </g>
    </g>
    <g id="xtick_15">
     <g id="line2d_15">
      <g>
       <use style="stroke:#000000;stroke-width:0.8;" x="339.005066" xlink:href="#m88deab8661" y="437.9425"/>
      </g>
     </g>
     <g id="text_15">
      <!-- 14:00 -->
      <g transform="translate(335.630066 444.9425)rotate(-270)scale(0.12 -0.12)">
       <use xlink:href="#SimHei-49"/>
       <use x="50" xlink:href="#SimHei-52"/>
       <use x="100" xlink:href="#SimHei-58"/>
       <use x="150" xlink:href="#SimHei-48"/>
       <use x="200" xlink:href="#SimHei-48"/>
      </g>
     </g>
    </g>
    <g id="xtick_16">
     <g id="line2d_16">
      <g>
       <use style="stroke:#000000;stroke-width:0.8;" x="357.474843" xlink:href="#m88deab8661" y="437.9425"/>
      </g>
     </g>
     <g id="text_16">
      <!-- 15:00 -->
      <g transform="translate(354.099843 444.9425)rotate(-270)scale(0.12 -0.12)">
       <use xlink:href="#SimHei-49"/>
       <use x="50" xlink:href="#SimHei-53"/>
       <use x="100" xlink:href="#SimHei-58"/>
       <use x="150" xlink:href="#SimHei-48"/>
       <use x="200" xlink:href="#SimHei-48"/>
      </g>
     </g>
    </g>
    <g id="xtick_17">
     <g id="line2d_17">
      <g>
       <use style="stroke:#000000;stroke-width:0.8;" x="375.944619" xlink:href="#m88deab8661" y="437.9425"/>
      </g>
     </g>
     <g id="text_17">
      <!-- 16:00 -->
      <g transform="translate(372.569619 444.9425)rotate(-270)scale(0.12 -0.12)">
       <use xlink:href="#SimHei-49"/>
       <use x="50" xlink:href="#SimHei-54"/>
       <use x="100" xlink:href="#SimHei-58"/>
       <use x="150" xlink:href="#SimHei-48"/>
       <use x="200" xlink:href="#SimHei-48"/>
      </g>
     </g>
    </g>
    <g id="xtick_18">
     <g id="line2d_18">
      <g>
       <use style="stroke:#000000;stroke-width:0.8;" x="394.414396" xlink:href="#m88deab8661" y="437.9425"/>
      </g>
     </g>
     <g id="text_18">
      <!-- 17:00 -->
      <g transform="translate(391.039396 444.9425)rotate(-270)scale(0.12 -0.12)">
       <use xlink:href="#SimHei-49"/>
       <use x="50" xlink:href="#SimHei-55"/>
       <use x="100" xlink:href="#SimHei-58"/>
       <use x="150" xlink:href="#SimHei-48"/>
       <use x="200" xlink:href="#SimHei-48"/>
      </g>
     </g>
    </g>
    <g id="xtick_19">
     <g id="line2d_19">
      <g>
       <use style="stroke:#000000;stroke-width:0.8;" x="412.884173" xlink:href="#m88deab8661" y="437.9425"/>
      </g>
     </g>
     <g id="text_19">
      <!-- 18:00 -->
      <g transform="translate(409.509173 444.9425)rotate(-270)scale(0.12 -0.12)">
       <use xlink:href="#SimHei-49"/>
       <use x="50" xlink:href="#SimHei-56"/>
       <use x="100" xlink:href="#SimHei-58"/>
       <use x="150" xlink:href="#SimHei-48"/>
       <use x="200" xlink:href="#SimHei-48"/>
      </g>
     </g>
    </g>
    <g id="xtick_20">
     <g id="line2d_20">
      <g>
       <use style="stroke:#000000;stroke-width:0.8;" x="431.353949" xlink:href="#m88deab8661" y="437.9425"/>
      </g>
     </g>
     <g id="text_20">
      <!-- 19:00 -->
      <g transform="translate(427.978949 444.9425)rotate(-270)scale(0.12 -0.12)">
       <use xlink:href="#SimHei-49"/>
       <use x="50" xlink:href="#SimHei-57"/>
       <use x="100" xlink:href="#SimHei-58"/>
       <use x="150" xlink:href="#SimHei-48"/>
       <use x="200" xlink:href="#SimHei-48"/>
      </g>
     </g>
    </g>
    <g id="xtick_21">
     <g id="line2d_21">
      <g>
       <use style="stroke:#000000;stroke-width:0.8;" x="449.823726" xlink:href="#m88deab8661" y="437.9425"/>
      </g>
     </g>
     <g id="text_21">
      <!-- 20:00 -->
      <g transform="translate(446.448726 444.9425)rotate(-270)scale(0.12 -0.12)">
       <use xlink:href="#SimHei-50"/>
       <use x="50" xlink:href="#SimHei-48"/>
       <use x="100" xlink:href="#SimHei-58"/>
       <use x="150" xlink:href="#SimHei-48"/>
       <use x="200" xlink:href="#SimHei-48"/>
      </g>
     </g>
    </g>
    <g id="xtick_22">
     <g id="line2d_22">
      <g>
       <use style="stroke:#000000;stroke-width:0.8;" x="468.293502" xlink:href="#m88deab8661" y="437.9425"/>
      </g>
     </g>
     <g id="text_22">
      <!-- 21:00 -->
      <g transform="translate(464.918502 444.9425)rotate(-270)scale(0.12 -0.12)">
       <use xlink:href="#SimHei-50"/>
       <use x="50" xlink:href="#SimHei-49"/>
       <use x="100" xlink:href="#SimHei-58"/>
       <use x="150" xlink:href="#SimHei-48"/>
       <use x="200" xlink:href="#SimHei-48"/>
      </g>
     </g>
    </g>
    <g id="xtick_23">
     <g id="line2d_23">
      <g>
       <use style="stroke:#000000;stroke-width:0.8;" x="486.763279" xlink:href="#m88deab8661" y="437.9425"/>
      </g>
     </g>
     <g id="text_23">
      <!-- 22:00 -->
      <g transform="translate(483.388279 444.9425)rotate(-270)scale(0.12 -0.12)">
       <use xlink:href="#SimHei-50"/>
       <use x="50" xlink:href="#SimHei-50"/>
       <use x="100" xlink:href="#SimHei-58"/>
       <use x="150" xlink:href="#SimHei-48"/>
       <use x="200" xlink:href="#SimHei-48"/>
      </g>
     </g>
    </g>
    <g id="xtick_24">
     <g id="line2d_24">
      <g>
       <use style="stroke:#000000;stroke-width:0.8;" x="505.233055" xlink:href="#m88deab8661" y="437.9425"/>
      </g>
     </g>
     <g id="text_24">
      <!-- 23:00 -->
      <g transform="translate(501.858055 444.9425)rotate(-270)scale(0.12 -0.12)">
       <use xlink:href="#SimHei-50"/>
       <use x="50" xlink:href="#SimHei-51"/>
       <use x="100" xlink:href="#SimHei-58"/>
       <use x="150" xlink:href="#SimHei-48"/>
       <use x="200" xlink:href="#SimHei-48"/>
      </g>
     </g>
    </g>
    <g id="text_25">
     <!-- 时间 -->
     <defs>
      <path d="M 39.453125 71.484375 
Q 39.0625 57.421875 39.0625 37.5 
Q 39.0625 17.578125 39.453125 6.25 
L 31.25 6.25 
L 31.25 13.671875 
L 15.625 13.671875 
L 15.625 0.78125 
L 7.421875 0.78125 
Q 7.8125 18.75 7.8125 36.71875 
Q 7.8125 55.078125 7.421875 71.484375 
L 39.453125 71.484375 
z
M 76.171875 59.765625 
Q 76.171875 71.484375 75.78125 81.640625 
L 84.375 81.640625 
Q 83.984375 71.484375 83.984375 59.765625 
Q 89.84375 59.765625 96.484375 60.15625 
L 96.484375 52.734375 
Q 89.84375 53.125 83.984375 53.125 
L 83.984375 0.78125 
Q 83.984375 -5.078125 79.296875 -6.640625 
Q 74.609375 -8.203125 67.1875 -8.984375 
Q 67.1875 -4.296875 62.890625 0 
Q 70.3125 -0.78125 73.234375 -0.390625 
Q 76.171875 0 76.171875 4.6875 
L 76.171875 53.125 
Q 56.640625 53.125 43.359375 52.734375 
L 43.359375 60.15625 
Q 55.859375 59.765625 76.171875 59.765625 
z
M 31.25 20.3125 
L 31.25 39.84375 
L 15.625 39.84375 
L 15.625 20.3125 
z
M 31.25 46.484375 
L 31.25 64.84375 
L 15.625 64.84375 
L 15.625 46.484375 
z
M 55.46875 42.578125 
Q 60.546875 34.375 65.234375 25 
Q 61.328125 23.828125 57.03125 21.484375 
Q 53.90625 30.859375 48.046875 39.0625 
Q 51.5625 40.625 55.46875 42.578125 
z
" id="SimHei-26102"/>
      <path d="M 69.53125 55.46875 
Q 69.140625 48.046875 69.140625 42.578125 
L 69.140625 21.875 
Q 69.140625 16.796875 69.53125 9.765625 
L 30.078125 9.765625 
Q 30.46875 16.796875 30.46875 22.265625 
L 30.46875 42.578125 
Q 30.46875 48.046875 30.078125 55.46875 
L 69.53125 55.46875 
z
M 90.625 76.171875 
Q 90.234375 68.75 90.234375 61.328125 
L 90.234375 3.90625 
Q 90.625 -5.078125 85.34375 -7.03125 
Q 80.078125 -8.984375 73.828125 -9.765625 
Q 73.4375 -5.078125 70.703125 -0.390625 
Q 78.125 -0.78125 80.265625 0.390625 
Q 82.421875 1.5625 82.421875 5.46875 
L 82.421875 69.53125 
L 58.984375 69.53125 
Q 49.609375 69.53125 41.40625 69.140625 
L 41.40625 76.5625 
Q 49.609375 76.171875 58.984375 76.171875 
z
M 8.59375 -8.203125 
Q 9.375 -0.390625 9.375 8.203125 
L 9.375 49.21875 
Q 9.375 57.421875 8.59375 62.890625 
L 17.578125 62.890625 
Q 17.1875 57.03125 17.1875 51.5625 
L 17.1875 7.8125 
Q 17.1875 0 17.578125 -8.203125 
z
M 61.71875 16.015625 
L 61.71875 30.46875 
L 37.890625 30.46875 
L 37.890625 16.015625 
z
M 61.71875 36.71875 
L 61.71875 49.21875 
L 37.890625 49.21875 
L 37.890625 36.71875 
z
M 23.828125 82.8125 
Q 27.34375 78.125 34.765625 67.96875 
Q 30.46875 66.015625 26.5625 63.671875 
Q 22.65625 71.484375 16.796875 78.515625 
Q 21.09375 81.640625 23.828125 82.8125 
z
" id="SimHei-38388"/>
     </defs>
     <g transform="translate(277.830625 490.954219)scale(0.15 -0.15)">
      <use xlink:href="#SimHei-26102"/>
      <use x="100" xlink:href="#SimHei-38388"/>
     </g>
    </g>
   </g>
   <g id="matplotlib.axis_2">
    <g id="ytick_1">
     <g id="line2d_25">
      <defs>
       <path d="M 0 0 
L -3.5 0 
" id="m5d6b95ea7e" style="stroke:#000000;stroke-width:0.8;"/>
      </defs>
      <g>
       <use style="stroke:#000000;stroke-width:0.8;" x="51.06125" xlink:href="#m5d6b95ea7e" y="437.9425"/>
      </g>
     </g>
     <g id="text_26">
      <!-- 0 -->
      <g transform="translate(39.06125 441.38)scale(0.1 -0.1)">
       <use xlink:href="#SimHei-48"/>
      </g>
     </g>
    </g>
    <g id="ytick_2">
     <g id="line2d_26">
      <g>
       <use style="stroke:#000000;stroke-width:0.8;" x="51.06125" xlink:href="#m5d6b95ea7e" y="387.310625"/>
      </g>
     </g>
     <g id="text_27">
      <!-- 25 -->
      <g transform="translate(34.06125 390.748125)scale(0.1 -0.1)">
       <use xlink:href="#SimHei-50"/>
       <use x="50" xlink:href="#SimHei-53"/>
      </g>
     </g>
    </g>
    <g id="ytick_3">
     <g id="line2d_27">
      <g>
       <use style="stroke:#000000;stroke-width:0.8;" x="51.06125" xlink:href="#m5d6b95ea7e" y="336.67875"/>
      </g>
     </g>
     <g id="text_28">
      <!-- 50 -->
      <g transform="translate(34.06125 340.11625)scale(0.1 -0.1)">
       <use xlink:href="#SimHei-53"/>
       <use x="50" xlink:href="#SimHei-48"/>
      </g>
     </g>
    </g>
    <g id="ytick_4">
     <g id="line2d_28">
      <g>
       <use style="stroke:#000000;stroke-width:0.8;" x="51.06125" xlink:href="#m5d6b95ea7e" y="286.046875"/>
      </g>
     </g>
     <g id="text_29">
      <!-- 75 -->
      <g transform="translate(34.06125 289.484375)scale(0.1 -0.1)">
       <use xlink:href="#SimHei-55"/>
       <use x="50" xlink:href="#SimHei-53"/>
      </g>
     </g>
    </g>
    <g id="ytick_5">
     <g id="line2d_29">
      <g>
       <use style="stroke:#000000;stroke-width:0.8;" x="51.06125" xlink:href="#m5d6b95ea7e" y="235.415"/>
      </g>
     </g>
     <g id="text_30">
      <!-- 100 -->
      <g transform="translate(29.06125 238.8525)scale(0.1 -0.1)">
       <use xlink:href="#SimHei-49"/>
       <use x="50" xlink:href="#SimHei-48"/>
       <use x="100" xlink:href="#SimHei-48"/>
      </g>
     </g>
    </g>
    <g id="ytick_6">
     <g id="line2d_30">
      <g>
       <use style="stroke:#000000;stroke-width:0.8;" x="51.06125" xlink:href="#m5d6b95ea7e" y="184.783125"/>
      </g>
     </g>
     <g id="text_31">
      <!-- 125 -->
      <g transform="translate(29.06125 188.220625)scale(0.1 -0.1)">
       <use xlink:href="#SimHei-49"/>
       <use x="50" xlink:href="#SimHei-50"/>
       <use x="100" xlink:href="#SimHei-53"/>
      </g>
     </g>
    </g>
    <g id="ytick_7">
     <g id="line2d_31">
      <g>
       <use style="stroke:#000000;stroke-width:0.8;" x="51.06125" xlink:href="#m5d6b95ea7e" y="134.15125"/>
      </g>
     </g>
     <g id="text_32">
      <!-- 150 -->
      <g transform="translate(29.06125 137.58875)scale(0.1 -0.1)">
       <use xlink:href="#SimHei-49"/>
       <use x="50" xlink:href="#SimHei-53"/>
       <use x="100" xlink:href="#SimHei-48"/>
      </g>
     </g>
    </g>
    <g id="ytick_8">
     <g id="line2d_32">
      <g>
       <use style="stroke:#000000;stroke-width:0.8;" x="51.06125" xlink:href="#m5d6b95ea7e" y="83.519375"/>
      </g>
     </g>
     <g id="text_33">
      <!-- 175 -->
      <g transform="translate(29.06125 86.956875)scale(0.1 -0.1)">
       <use xlink:href="#SimHei-49"/>
       <use x="50" xlink:href="#SimHei-55"/>
       <use x="100" xlink:href="#SimHei-53"/>
      </g>
     </g>
    </g>
    <g id="ytick_9">
     <g id="line2d_33">
      <g>
       <use style="stroke:#000000;stroke-width:0.8;" x="51.06125" xlink:href="#m5d6b95ea7e" y="32.8875"/>
      </g>
     </g>
     <g id="text_34">
      <!-- 200 -->
      <g transform="translate(29.06125 36.325)scale(0.1 -0.1)">
       <use xlink:href="#SimHei-50"/>
       <use x="50" xlink:href="#SimHei-48"/>
       <use x="100" xlink:href="#SimHei-48"/>
      </g>
     </g>
    </g>
    <g id="text_35">
     <!-- 流量 -->
     <defs>
      <path d="M 58.203125 82.03125 
Q 62.109375 76.171875 66.015625 69.53125 
L 78.515625 69.53125 
Q 84.765625 69.53125 92.578125 69.921875 
L 92.578125 62.890625 
Q 83.203125 63.28125 78.515625 63.28125 
L 53.515625 63.28125 
Q 56.640625 60.9375 58.984375 59.765625 
Q 57.03125 58.203125 53.90625 54.296875 
Q 50.78125 50.390625 44.53125 43.359375 
Q 58.59375 43.75 74.609375 44.53125 
Q 70.703125 49.21875 66.796875 52.734375 
Q 70.703125 55.46875 72.265625 57.421875 
Q 83.203125 46.09375 90.625 37.109375 
Q 87.109375 34.375 84.375 32.03125 
Q 81.25 36.328125 78.90625 39.453125 
Q 70.3125 38.671875 55.65625 37.6875 
Q 41.015625 36.71875 35.9375 35.15625 
Q 34.765625 38.671875 32.421875 41.796875 
Q 36.328125 42.96875 41.796875 49.609375 
Q 47.265625 56.25 50.78125 63.28125 
L 46.484375 63.28125 
Q 39.453125 63.28125 32.03125 62.5 
L 32.03125 69.921875 
Q 39.453125 69.53125 46.484375 69.53125 
L 57.421875 69.53125 
Q 54.296875 75 51.953125 78.125 
Q 55.859375 80.078125 58.203125 82.03125 
z
M 78.515625 31.640625 
Q 78.125 26.5625 78.125 21.484375 
L 78.125 2.34375 
Q 78.125 -1.171875 81.640625 -1.171875 
L 85.546875 -1.171875 
Q 88.671875 -1.171875 89.0625 7.8125 
Q 92.1875 5.46875 96.875 4.296875 
Q 94.53125 -5.46875 91.984375 -6.640625 
Q 89.453125 -7.8125 85.9375 -7.8125 
L 78.515625 -7.8125 
Q 71.09375 -7.8125 71.09375 -0.390625 
L 71.09375 22.265625 
Q 71.09375 26.953125 70.703125 31.640625 
L 78.515625 31.640625 
z
M 48.828125 30.859375 
Q 48.046875 26.953125 47.453125 18.9375 
Q 46.875 10.9375 43.9375 3.515625 
Q 41.015625 -3.90625 30.46875 -10.9375 
Q 27.734375 -7.421875 24.609375 -5.078125 
Q 32.421875 -1.5625 36.125 4.484375 
Q 39.84375 10.546875 40.234375 18.15625 
Q 40.625 25.78125 40.234375 31.640625 
Q 44.140625 30.859375 48.828125 30.859375 
z
M 62.5 31.640625 
Q 62.109375 29.296875 62.109375 21.875 
L 62.109375 4.6875 
Q 62.109375 -0.390625 62.5 -7.8125 
L 54.296875 -7.8125 
Q 54.6875 -0.78125 54.6875 4.6875 
L 54.6875 21.875 
Q 54.6875 28.515625 54.296875 31.640625 
L 62.5 31.640625 
z
M 29.6875 25.390625 
Q 25.78125 18.75 21.09375 8.78125 
Q 16.40625 -1.171875 13.28125 -6.640625 
Q 9.765625 -3.90625 5.078125 -1.953125 
Q 8.984375 2.734375 14.0625 11.71875 
Q 19.140625 20.703125 22.65625 30.46875 
Q 25.78125 27.734375 29.6875 25.390625 
z
M 9.765625 53.90625 
Q 18.75 48.4375 26.953125 42.578125 
Q 23.828125 39.453125 21.484375 35.546875 
Q 14.453125 42.1875 5.078125 46.875 
Q 7.421875 50 9.765625 53.90625 
z
M 14.453125 77.734375 
Q 23.4375 72.265625 29.6875 67.1875 
Q 26.953125 63.671875 24.21875 60.546875 
Q 17.96875 66.796875 9.765625 71.484375 
Q 12.5 75 14.453125 77.734375 
z
" id="SimHei-27969"/>
      <path d="M 82.03125 39.0625 
Q 81.640625 34.375 81.640625 26.5625 
Q 81.640625 19.140625 82.03125 14.84375 
L 53.515625 14.84375 
L 53.515625 9.765625 
L 71.484375 9.765625 
Q 78.125 9.765625 83.984375 10.15625 
L 83.984375 4.296875 
Q 78.515625 4.6875 71.484375 4.6875 
L 53.515625 4.6875 
L 53.515625 -1.171875 
L 80.078125 -1.171875 
Q 86.328125 -1.171875 92.578125 -0.78125 
L 92.578125 -6.640625 
Q 86.328125 -6.25 80.078125 -6.25 
L 19.921875 -6.25 
Q 14.0625 -6.25 7.421875 -6.640625 
L 7.421875 -0.78125 
Q 14.453125 -0.78125 19.921875 -1.171875 
L 46.484375 -1.171875 
L 46.484375 4.6875 
L 26.953125 4.6875 
Q 21.09375 4.6875 15.234375 3.90625 
L 15.234375 10.15625 
Q 21.484375 9.765625 26.953125 9.765625 
L 46.484375 9.765625 
L 46.484375 14.84375 
L 17.96875 14.84375 
Q 18.359375 21.484375 18.359375 27.734375 
Q 18.359375 33.984375 17.96875 39.0625 
L 82.03125 39.0625 
z
M 81.25 77.34375 
Q 80.859375 71.484375 80.859375 66.40625 
Q 80.859375 61.328125 81.25 53.125 
L 18.75 53.125 
Q 19.140625 61.328125 19.140625 66.40625 
Q 19.140625 71.484375 18.75 77.34375 
L 81.25 77.34375 
z
M 76.5625 48.4375 
Q 85.9375 48.828125 93.75 49.21875 
L 93.75 42.96875 
Q 85.9375 43.359375 76.953125 43.359375 
L 25.78125 43.359375 
Q 15.234375 43.359375 5.078125 42.96875 
L 5.078125 49.21875 
Q 15.234375 48.828125 25.78125 48.4375 
z
M 73.828125 57.8125 
L 73.828125 62.890625 
L 26.171875 62.890625 
L 26.171875 57.8125 
z
M 73.828125 67.96875 
L 73.828125 72.65625 
L 26.171875 72.65625 
L 26.171875 67.96875 
z
M 74.21875 29.296875 
L 74.21875 33.984375 
L 53.515625 33.984375 
L 53.515625 29.296875 
z
M 46.484375 29.296875 
L 46.484375 33.984375 
L 25.78125 33.984375 
L 25.78125 29.296875 
z
M 46.484375 19.921875 
L 46.484375 24.21875 
L 25.78125 24.21875 
L 25.78125 19.921875 
z
M 74.21875 19.921875 
L 74.21875 24.21875 
L 53.515625 24.21875 
L 53.515625 19.921875 
z
" id="SimHei-37327"/>
     </defs>
     <g transform="translate(23.18625 250.415)rotate(-90)scale(0.15 -0.15)">
      <use xlink:href="#SimHei-27969"/>
      <use x="100" xlink:href="#SimHei-37327"/>
     </g>
    </g>
   </g>
   <g id="patch_27">
    <path d="M 51.06125 437.9425 
L 51.06125 32.8875 
" style="fill:none;stroke:#000000;stroke-linecap:square;stroke-linejoin:miter;stroke-width:0.8;"/>
   </g>
   <g id="patch_28">
    <path d="M 534.6 437.9425 
L 534.6 32.8875 
" style="fill:none;stroke:#000000;stroke-linecap:square;stroke-linejoin:miter;stroke-width:0.8;"/>
   </g>
   <g id="patch_29">
    <path d="M 51.06125 437.9425 
L 534.6 437.9425 
" style="fill:none;stroke:#000000;stroke-linecap:square;stroke-linejoin:miter;stroke-width:0.8;"/>
   </g>
   <g id="patch_30">
    <path d="M 51.06125 32.8875 
L 534.6 32.8875 
" style="fill:none;stroke:#000000;stroke-linecap:square;stroke-linejoin:miter;stroke-width:0.8;"/>
   </g>
   <g id="text_36">
    <!-- 11月12日的流量变化 ID=100 -->
    <defs>
     <path d="M 82.03125 75.390625 
Q 81.25 66.015625 81.25 58.59375 
L 81.25 3.125 
Q 81.25 -4.296875 77.34375 -5.859375 
Q 73.4375 -7.421875 62.109375 -8.203125 
Q 61.328125 -3.515625 58.59375 0.78125 
Q 67.1875 0.390625 70.5 0.78125 
Q 73.828125 1.171875 73.828125 6.25 
L 73.828125 25 
L 28.90625 25 
Q 26.953125 12.109375 22.65625 3.515625 
Q 18.359375 -5.078125 14.0625 -8.984375 
Q 10.9375 -6.25 6.25 -5.078125 
Q 12.5 0.390625 16.203125 8 
Q 19.921875 15.625 20.890625 23.046875 
Q 21.875 30.46875 21.875 39.453125 
L 21.875 56.640625 
Q 21.875 65.234375 21.484375 75.390625 
L 82.03125 75.390625 
z
M 73.828125 53.125 
L 73.828125 69.53125 
L 29.296875 69.53125 
L 29.296875 53.125 
z
M 73.828125 31.25 
L 73.828125 47.265625 
L 29.296875 47.265625 
L 29.296875 31.25 
z
" id="SimHei-26376"/>
     <path d="M 83.984375 78.125 
Q 83.59375 58.984375 83.59375 35.546875 
Q 83.59375 12.109375 83.984375 -7.03125 
L 75 -7.03125 
L 75 2.734375 
L 28.125 2.734375 
L 28.125 -8.984375 
L 19.53125 -8.984375 
Q 19.921875 8.984375 19.921875 33.203125 
Q 19.921875 57.421875 19.53125 78.125 
L 83.984375 78.125 
z
M 75 9.375 
L 75 37.109375 
L 28.125 37.109375 
L 28.125 9.375 
z
M 75 43.75 
L 75 71.09375 
L 28.125 71.09375 
L 28.125 43.75 
z
" id="SimHei-26085"/>
     <path d="M 32.8125 77.734375 
Q 30.859375 74.21875 27.34375 61.71875 
L 44.921875 61.71875 
Q 44.53125 55.078125 44.53125 44.921875 
L 44.53125 10.546875 
Q 44.53125 4.6875 44.921875 -6.25 
L 37.109375 -6.25 
L 37.109375 1.5625 
L 17.1875 1.5625 
L 17.1875 -7.03125 
L 9.375 -7.03125 
Q 9.765625 5.46875 9.765625 8.59375 
L 9.765625 44.53125 
Q 9.765625 55.078125 9.375 61.71875 
L 20.703125 61.71875 
Q 22.65625 70.703125 23.828125 80.46875 
Q 29.296875 78.515625 32.8125 77.734375 
z
M 91.015625 48.046875 
Q 90.625 24.21875 89.0625 2.734375 
Q 88.28125 -4.296875 81.640625 -6.640625 
Q 75 -8.984375 66.796875 -9.765625 
Q 66.40625 -5.46875 63.28125 -0.78125 
Q 71.09375 -1.171875 75.578125 -0.390625 
Q 80.078125 0.390625 81.25 3.125 
Q 82.421875 5.859375 83 19.140625 
Q 83.59375 32.421875 83.984375 56.25 
L 61.328125 56.25 
Q 58.203125 48.828125 52.34375 38.671875 
Q 49.609375 41.40625 45.703125 42.96875 
Q 49.21875 47.65625 52.34375 54.296875 
Q 55.46875 60.9375 57.8125 68.75 
Q 60.15625 76.5625 60.546875 80.859375 
Q 66.015625 78.515625 69.921875 77.34375 
Q 67.96875 74.21875 66.59375 70.5 
Q 65.234375 66.796875 63.671875 63.28125 
L 91.40625 63.28125 
Q 91.015625 55.078125 91.015625 48.046875 
z
M 37.109375 8.203125 
L 37.109375 28.90625 
L 17.1875 28.90625 
L 17.1875 8.203125 
z
M 37.109375 35.546875 
L 37.109375 55.078125 
L 17.1875 55.078125 
L 17.1875 35.546875 
z
M 67.96875 32.03125 
Q 70.3125 27.34375 73.4375 19.921875 
Q 70.703125 18.75 66.015625 16.015625 
Q 63.28125 23.4375 60.9375 28.703125 
Q 58.59375 33.984375 56.25 37.5 
Q 58.984375 39.0625 63.28125 41.40625 
z
" id="SimHei-30340"/>
     <path d="M 81.25 30.859375 
Q 77.34375 25 70.890625 17.765625 
Q 64.453125 10.546875 57.421875 5.859375 
Q 61.328125 3.515625 71.875 1.359375 
Q 82.421875 -0.78125 93.75 -1.171875 
Q 89.0625 -6.25 88.28125 -9.765625 
Q 75.78125 -8.203125 65.8125 -4.875 
Q 55.859375 -1.5625 50.390625 1.953125 
Q 43.75 -1.953125 33.59375 -5.078125 
Q 23.4375 -8.203125 10.9375 -10.546875 
Q 9.375 -6.640625 6.25 -2.734375 
Q 14.84375 -2.34375 26.359375 0.1875 
Q 37.890625 2.734375 44.140625 5.859375 
Q 35.546875 12.109375 26.171875 24.609375 
Q 21.09375 24.609375 15.625 24.21875 
L 15.625 31.25 
Q 22.65625 30.859375 32.421875 30.859375 
z
M 50.390625 82.421875 
Q 53.125 76.5625 55.46875 69.921875 
L 73.046875 69.921875 
Q 84.375 69.921875 93.359375 70.3125 
L 93.359375 62.890625 
Q 83.984375 63.28125 73.828125 63.28125 
L 64.453125 63.28125 
L 64.453125 46.09375 
Q 64.453125 39.84375 64.84375 33.59375 
L 56.25 33.59375 
Q 56.640625 39.84375 56.640625 46.09375 
L 56.640625 63.28125 
L 42.96875 63.28125 
L 42.96875 46.09375 
Q 42.96875 41.796875 43.359375 33.59375 
L 34.765625 33.59375 
Q 35.15625 41.796875 35.15625 46.09375 
L 35.15625 63.28125 
L 26.5625 63.28125 
Q 15.234375 63.28125 6.640625 62.890625 
L 6.640625 70.3125 
Q 14.84375 69.921875 26.5625 69.921875 
L 46.484375 69.921875 
Q 45.703125 73.046875 42.1875 80.078125 
Q 46.09375 80.46875 50.390625 82.421875 
z
M 34.375 24.609375 
Q 41.40625 15.234375 50.78125 9.375 
Q 60.15625 15.625 66.796875 24.609375 
L 34.375 24.609375 
z
M 75.78125 58.59375 
Q 83.984375 51.171875 92.96875 41.796875 
Q 89.84375 39.453125 85.9375 35.9375 
Q 79.296875 43.75 69.53125 53.125 
Q 73.046875 55.859375 75.78125 58.59375 
z
M 28.515625 54.6875 
Q 26.5625 52.734375 22.265625 47.265625 
Q 17.96875 41.796875 12.890625 35.9375 
Q 8.984375 38.671875 5.859375 40.625 
Q 15.234375 49.21875 20.3125 59.765625 
Q 23.828125 57.03125 28.515625 54.6875 
z
" id="SimHei-21464"/>
     <path d="M 61.328125 78.515625 
Q 60.9375 76.5625 60.9375 68.75 
L 60.9375 41.015625 
Q 68.359375 47.265625 74.609375 53.90625 
Q 80.859375 60.546875 84.375 67.1875 
Q 87.5 64.0625 92.1875 61.328125 
Q 89.0625 57.8125 81.640625 50.1875 
Q 74.21875 42.578125 70.109375 39.25 
Q 66.015625 35.9375 60.9375 31.640625 
L 60.9375 7.03125 
Q 60.9375 0.78125 66.015625 0.78125 
L 81.25 0.78125 
Q 84.375 1.171875 85.34375 4.09375 
Q 86.328125 7.03125 87.109375 13.28125 
Q 90.625 10.15625 96.09375 9.375 
Q 93.75 -1.5625 91.015625 -3.90625 
Q 88.28125 -6.25 83.59375 -6.25 
L 61.71875 -6.25 
Q 53.515625 -6.25 53.125 3.125 
L 53.125 26.171875 
Q 50.390625 23.828125 46.28125 21.09375 
Q 42.1875 18.359375 37.109375 15.234375 
Q 34.765625 19.140625 31.640625 21.875 
Q 36.71875 24.21875 42.765625 27.921875 
Q 48.828125 31.640625 53.125 35.15625 
L 53.125 70.3125 
Q 53.125 75 52.734375 78.515625 
L 61.328125 78.515625 
z
M 37.5 75.78125 
Q 33.984375 71.09375 32.421875 67.765625 
Q 30.859375 64.453125 28.515625 58.984375 
L 28.515625 10.546875 
Q 28.515625 -1.171875 28.90625 -8.59375 
L 20.703125 -8.59375 
Q 21.09375 -1.953125 21.09375 10.15625 
L 21.09375 47.65625 
Q 17.578125 42.578125 15.03125 39.453125 
Q 12.5 36.328125 10.546875 33.984375 
Q 7.8125 37.109375 4.296875 39.453125 
Q 9.765625 44.53125 13.671875 50.1875 
Q 17.578125 55.859375 20.5 61.125 
Q 23.4375 66.40625 25.390625 71.484375 
Q 27.34375 76.5625 28.515625 79.6875 
Q 30.859375 77.734375 37.5 75.78125 
z
" id="SimHei-21270"/>
     <path id="SimHei-32"/>
     <path d="M 28.90625 1.953125 
L 19.921875 1.953125 
L 19.921875 68.75 
L 28.90625 68.75 
z
" id="SimHei-73"/>
     <path d="M 45.703125 35.15625 
Q 45.703125 17.1875 38.078125 9.5625 
Q 30.46875 1.953125 17.578125 1.953125 
L 4.296875 1.953125 
L 4.296875 68.75 
L 17.578125 68.75 
Q 32.03125 68.75 38.859375 60.9375 
Q 45.703125 53.125 45.703125 35.15625 
z
M 36.328125 35.15625 
Q 36.328125 49.609375 31.640625 55.46875 
Q 26.953125 61.328125 17.578125 61.328125 
L 13.28125 61.328125 
L 13.28125 9.375 
L 17.578125 9.375 
Q 26.953125 9.375 31.640625 15.03125 
Q 36.328125 20.703125 36.328125 35.15625 
z
" id="SimHei-68"/>
     <path d="M 46.484375 45.3125 
L 1.953125 45.3125 
L 1.953125 51.5625 
L 46.484375 51.5625 
z
M 46.484375 21.484375 
L 1.953125 21.484375 
L 1.953125 27.734375 
L 46.484375 27.734375 
z
" id="SimHei-61"/>
    </defs>
    <g transform="translate(167.830625 26.8875)scale(0.2 -0.2)">
     <use xlink:href="#SimHei-49"/>
     <use x="50" xlink:href="#SimHei-49"/>
     <use x="100" xlink:href="#SimHei-26376"/>
     <use x="200" xlink:href="#SimHei-49"/>
     <use x="250" xlink:href="#SimHei-50"/>
     <use x="300" xlink:href="#SimHei-26085"/>
     <use x="400" xlink:href="#SimHei-30340"/>
     <use x="500" xlink:href="#SimHei-27969"/>
     <use x="600" xlink:href="#SimHei-37327"/>
     <use x="700" xlink:href="#SimHei-21464"/>
     <use x="800" xlink:href="#SimHei-21270"/>
     <use x="900" xlink:href="#SimHei-32"/>
     <use x="950" xlink:href="#SimHei-73"/>
     <use x="1000" xlink:href="#SimHei-68"/>
     <use x="1050" xlink:href="#SimHei-61"/>
     <use x="1100" xlink:href="#SimHei-49"/>
     <use x="1150" xlink:href="#SimHei-48"/>
     <use x="1200" xlink:href="#SimHei-48"/>
    </g>
   </g>
   <g id="legend_1">
    <g id="patch_31">
     <path d="M 523.6 45.8875 
L 527.6 45.8875 
Q 529.6 45.8875 529.6 43.8875 
L 529.6 39.8875 
Q 529.6 37.8875 527.6 37.8875 
L 523.6 37.8875 
Q 521.6 37.8875 521.6 39.8875 
L 521.6 43.8875 
Q 521.6 45.8875 523.6 45.8875 
z
" style="fill:#ffffff;opacity:0.8;stroke:#cccccc;stroke-linejoin:miter;"/>
    </g>
   </g>
  </g>
  <g id="axes_2">
   <g id="patch_32">
    <path d="M 585.66125 437.9425 
L 1069.2 437.9425 
L 1069.2 32.8875 
L 585.66125 32.8875 
z
" style="fill:#ffffff;"/>
   </g>
   <g id="patch_33">
    <path clip-path="url(#pd4bd8829e3)" d="M 607.640284 437.9425 
L 622.416105 437.9425 
L 622.416105 420.784441 
L 607.640284 420.784441 
z
" style="fill:#1f77b4;"/>
   </g>
   <g id="patch_34">
    <path clip-path="url(#pd4bd8829e3)" d="M 626.110061 437.9425 
L 640.885882 437.9425 
L 640.885882 409.168666 
L 626.110061 409.168666 
z
" style="fill:#1f77b4;"/>
   </g>
   <g id="patch_35">
    <path clip-path="url(#pd4bd8829e3)" d="M 644.579837 437.9425 
L 659.355658 437.9425 
L 659.355658 418.837098 
L 644.579837 418.837098 
z
" style="fill:#1f77b4;"/>
   </g>
   <g id="patch_36">
    <path clip-path="url(#pd4bd8829e3)" d="M 663.049614 437.9425 
L 677.825435 437.9425 
L 677.825435 430.571916 
L 663.049614 430.571916 
z
" style="fill:#1f77b4;"/>
   </g>
   <g id="patch_37">
    <path clip-path="url(#pd4bd8829e3)" d="M 681.51939 437.9425 
L 696.295212 437.9425 
L 696.295212 415.582109 
L 681.51939 415.582109 
z
" style="fill:#1f77b4;"/>
   </g>
   <g id="patch_38">
    <path clip-path="url(#pd4bd8829e3)" d="M 699.989167 437.9425 
L 714.764988 437.9425 
L 714.764988 418.386689 
L 699.989167 418.386689 
z
" style="fill:#1f77b4;"/>
   </g>
   <g id="patch_39">
    <path clip-path="url(#pd4bd8829e3)" d="M 718.458943 437.9425 
L 733.234765 437.9425 
L 733.234765 409.286723 
L 718.458943 409.286723 
z
" style="fill:#1f77b4;"/>
   </g>
   <g id="patch_40">
    <path clip-path="url(#pd4bd8829e3)" d="M 736.92872 437.9425 
L 751.704541 437.9425 
L 751.704541 367.650332 
L 736.92872 367.650332 
z
" style="fill:#1f77b4;"/>
   </g>
   <g id="patch_41">
    <path clip-path="url(#pd4bd8829e3)" d="M 755.398496 437.9425 
L 770.174318 437.9425 
L 770.174318 261.009974 
L 755.398496 261.009974 
z
" style="fill:#1f77b4;"/>
   </g>
   <g id="patch_42">
    <path clip-path="url(#pd4bd8829e3)" d="M 773.868273 437.9425 
L 788.644094 437.9425 
L 788.644094 211.195072 
L 773.868273 211.195072 
z
" style="fill:#1f77b4;"/>
   </g>
   <g id="patch_43">
    <path clip-path="url(#pd4bd8829e3)" d="M 792.33805 437.9425 
L 807.113871 437.9425 
L 807.113871 216.693688 
L 792.33805 216.693688 
z
" style="fill:#1f77b4;"/>
   </g>
   <g id="patch_44">
    <path clip-path="url(#pd4bd8829e3)" d="M 810.807826 437.9425 
L 825.583647 437.9425 
L 825.583647 203.560112 
L 810.807826 203.560112 
z
" style="fill:#1f77b4;"/>
   </g>
   <g id="patch_45">
    <path clip-path="url(#pd4bd8829e3)" d="M 829.277603 437.9425 
L 844.053424 437.9425 
L 844.053424 247.557656 
L 829.277603 247.557656 
z
" style="fill:#1f77b4;"/>
   </g>
   <g id="patch_46">
    <path clip-path="url(#pd4bd8829e3)" d="M 847.747379 437.9425 
L 862.5232 437.9425 
L 862.5232 251.188371 
L 847.747379 251.188371 
z
" style="fill:#1f77b4;"/>
   </g>
   <g id="patch_47">
    <path clip-path="url(#pd4bd8829e3)" d="M 866.217156 437.9425 
L 880.992977 437.9425 
L 880.992977 196.716273 
L 866.217156 196.716273 
z
" style="fill:#1f77b4;"/>
   </g>
   <g id="patch_48">
    <path clip-path="url(#pd4bd8829e3)" d="M 884.686932 437.9425 
L 899.462754 437.9425 
L 899.462754 253.605644 
L 884.686932 253.605644 
z
" style="fill:#1f77b4;"/>
   </g>
   <g id="patch_49">
    <path clip-path="url(#pd4bd8829e3)" d="M 903.156709 437.9425 
L 917.93253 437.9425 
L 917.93253 261.458554 
L 903.156709 261.458554 
z
" style="fill:#1f77b4;"/>
   </g>
   <g id="patch_50">
    <path clip-path="url(#pd4bd8829e3)" d="M 921.626485 437.9425 
L 936.402307 437.9425 
L 936.402307 269.967967 
L 921.626485 269.967967 
z
" style="fill:#1f77b4;"/>
   </g>
   <g id="patch_51">
    <path clip-path="url(#pd4bd8829e3)" d="M 940.096262 437.9425 
L 954.872083 437.9425 
L 954.872083 259.535394 
L 940.096262 259.535394 
z
" style="fill:#1f77b4;"/>
   </g>
   <g id="patch_52">
    <path clip-path="url(#pd4bd8829e3)" d="M 958.566038 437.9425 
L 973.34186 437.9425 
L 973.34186 311.732901 
L 958.566038 311.732901 
z
" style="fill:#1f77b4;"/>
   </g>
   <g id="patch_53">
    <path clip-path="url(#pd4bd8829e3)" d="M 977.035815 437.9425 
L 991.811636 437.9425 
L 991.811636 314.324973 
L 977.035815 314.324973 
z
" style="fill:#1f77b4;"/>
   </g>
   <g id="patch_54">
    <path clip-path="url(#pd4bd8829e3)" d="M 995.505592 437.9425 
L 1010.281413 437.9425 
L 1010.281413 374.334438 
L 995.505592 374.334438 
z
" style="fill:#1f77b4;"/>
   </g>
   <g id="patch_55">
    <path clip-path="url(#pd4bd8829e3)" d="M 1013.975368 437.9425 
L 1028.751189 437.9425 
L 1028.751189 395.451584 
L 1013.975368 395.451584 
z
" style="fill:#1f77b4;"/>
   </g>
   <g id="patch_56">
    <path clip-path="url(#pd4bd8829e3)" d="M 1032.445145 437.9425 
L 1047.220966 437.9425 
L 1047.220966 411.686946 
L 1032.445145 411.686946 
z
" style="fill:#1f77b4;"/>
   </g>
   <g id="matplotlib.axis_3">
    <g id="xtick_25">
     <g id="line2d_34">
      <g>
       <use style="stroke:#000000;stroke-width:0.8;" x="615.028195" xlink:href="#m88deab8661" y="437.9425"/>
      </g>
     </g>
     <g id="text_37">
      <!-- 00:00 -->
      <g transform="translate(611.653195 444.9425)rotate(-270)scale(0.12 -0.12)">
       <use xlink:href="#SimHei-48"/>
       <use x="50" xlink:href="#SimHei-48"/>
       <use x="100" xlink:href="#SimHei-58"/>
       <use x="150" xlink:href="#SimHei-48"/>
       <use x="200" xlink:href="#SimHei-48"/>
      </g>
     </g>
    </g>
    <g id="xtick_26">
     <g id="line2d_35">
      <g>
       <use style="stroke:#000000;stroke-width:0.8;" x="633.497971" xlink:href="#m88deab8661" y="437.9425"/>
      </g>
     </g>
     <g id="text_38">
      <!-- 01:00 -->
      <g transform="translate(630.122971 444.9425)rotate(-270)scale(0.12 -0.12)">
       <use xlink:href="#SimHei-48"/>
       <use x="50" xlink:href="#SimHei-49"/>
       <use x="100" xlink:href="#SimHei-58"/>
       <use x="150" xlink:href="#SimHei-48"/>
       <use x="200" xlink:href="#SimHei-48"/>
      </g>
     </g>
    </g>
    <g id="xtick_27">
     <g id="line2d_36">
      <g>
       <use style="stroke:#000000;stroke-width:0.8;" x="651.967748" xlink:href="#m88deab8661" y="437.9425"/>
      </g>
     </g>
     <g id="text_39">
      <!-- 02:00 -->
      <g transform="translate(648.592748 444.9425)rotate(-270)scale(0.12 -0.12)">
       <use xlink:href="#SimHei-48"/>
       <use x="50" xlink:href="#SimHei-50"/>
       <use x="100" xlink:href="#SimHei-58"/>
       <use x="150" xlink:href="#SimHei-48"/>
       <use x="200" xlink:href="#SimHei-48"/>
      </g>
     </g>
    </g>
    <g id="xtick_28">
     <g id="line2d_37">
      <g>
       <use style="stroke:#000000;stroke-width:0.8;" x="670.437524" xlink:href="#m88deab8661" y="437.9425"/>
      </g>
     </g>
     <g id="text_40">
      <!-- 03:00 -->
      <g transform="translate(667.062524 444.9425)rotate(-270)scale(0.12 -0.12)">
       <use xlink:href="#SimHei-48"/>
       <use x="50" xlink:href="#SimHei-51"/>
       <use x="100" xlink:href="#SimHei-58"/>
       <use x="150" xlink:href="#SimHei-48"/>
       <use x="200" xlink:href="#SimHei-48"/>
      </g>
     </g>
    </g>
    <g id="xtick_29">
     <g id="line2d_38">
      <g>
       <use style="stroke:#000000;stroke-width:0.8;" x="688.907301" xlink:href="#m88deab8661" y="437.9425"/>
      </g>
     </g>
     <g id="text_41">
      <!-- 04:00 -->
      <g transform="translate(685.532301 444.9425)rotate(-270)scale(0.12 -0.12)">
       <use xlink:href="#SimHei-48"/>
       <use x="50" xlink:href="#SimHei-52"/>
       <use x="100" xlink:href="#SimHei-58"/>
       <use x="150" xlink:href="#SimHei-48"/>
       <use x="200" xlink:href="#SimHei-48"/>
      </g>
     </g>
    </g>
    <g id="xtick_30">
     <g id="line2d_39">
      <g>
       <use style="stroke:#000000;stroke-width:0.8;" x="707.377077" xlink:href="#m88deab8661" y="437.9425"/>
      </g>
     </g>
     <g id="text_42">
      <!-- 05:00 -->
      <g transform="translate(704.002077 444.9425)rotate(-270)scale(0.12 -0.12)">
       <use xlink:href="#SimHei-48"/>
       <use x="50" xlink:href="#SimHei-53"/>
       <use x="100" xlink:href="#SimHei-58"/>
       <use x="150" xlink:href="#SimHei-48"/>
       <use x="200" xlink:href="#SimHei-48"/>
      </g>
     </g>
    </g>
    <g id="xtick_31">
     <g id="line2d_40">
      <g>
       <use style="stroke:#000000;stroke-width:0.8;" x="725.846854" xlink:href="#m88deab8661" y="437.9425"/>
      </g>
     </g>
     <g id="text_43">
      <!-- 06:00 -->
      <g transform="translate(722.471854 444.9425)rotate(-270)scale(0.12 -0.12)">
       <use xlink:href="#SimHei-48"/>
       <use x="50" xlink:href="#SimHei-54"/>
       <use x="100" xlink:href="#SimHei-58"/>
       <use x="150" xlink:href="#SimHei-48"/>
       <use x="200" xlink:href="#SimHei-48"/>
      </g>
     </g>
    </g>
    <g id="xtick_32">
     <g id="line2d_41">
      <g>
       <use style="stroke:#000000;stroke-width:0.8;" x="744.316631" xlink:href="#m88deab8661" y="437.9425"/>
      </g>
     </g>
     <g id="text_44">
      <!-- 07:00 -->
      <g transform="translate(740.941631 444.9425)rotate(-270)scale(0.12 -0.12)">
       <use xlink:href="#SimHei-48"/>
       <use x="50" xlink:href="#SimHei-55"/>
       <use x="100" xlink:href="#SimHei-58"/>
       <use x="150" xlink:href="#SimHei-48"/>
       <use x="200" xlink:href="#SimHei-48"/>
      </g>
     </g>
    </g>
    <g id="xtick_33">
     <g id="line2d_42">
      <g>
       <use style="stroke:#000000;stroke-width:0.8;" x="762.786407" xlink:href="#m88deab8661" y="437.9425"/>
      </g>
     </g>
     <g id="text_45">
      <!-- 08:00 -->
      <g transform="translate(759.411407 444.9425)rotate(-270)scale(0.12 -0.12)">
       <use xlink:href="#SimHei-48"/>
       <use x="50" xlink:href="#SimHei-56"/>
       <use x="100" xlink:href="#SimHei-58"/>
       <use x="150" xlink:href="#SimHei-48"/>
       <use x="200" xlink:href="#SimHei-48"/>
      </g>
     </g>
    </g>
    <g id="xtick_34">
     <g id="line2d_43">
      <g>
       <use style="stroke:#000000;stroke-width:0.8;" x="781.256184" xlink:href="#m88deab8661" y="437.9425"/>
      </g>
     </g>
     <g id="text_46">
      <!-- 09:00 -->
      <g transform="translate(777.881184 444.9425)rotate(-270)scale(0.12 -0.12)">
       <use xlink:href="#SimHei-48"/>
       <use x="50" xlink:href="#SimHei-57"/>
       <use x="100" xlink:href="#SimHei-58"/>
       <use x="150" xlink:href="#SimHei-48"/>
       <use x="200" xlink:href="#SimHei-48"/>
      </g>
     </g>
    </g>
    <g id="xtick_35">
     <g id="line2d_44">
      <g>
       <use style="stroke:#000000;stroke-width:0.8;" x="799.72596" xlink:href="#m88deab8661" y="437.9425"/>
      </g>
     </g>
     <g id="text_47">
      <!-- 10:00 -->
      <g transform="translate(796.35096 444.9425)rotate(-270)scale(0.12 -0.12)">
       <use xlink:href="#SimHei-49"/>
       <use x="50" xlink:href="#SimHei-48"/>
       <use x="100" xlink:href="#SimHei-58"/>
       <use x="150" xlink:href="#SimHei-48"/>
       <use x="200" xlink:href="#SimHei-48"/>
      </g>
     </g>
    </g>
    <g id="xtick_36">
     <g id="line2d_45">
      <g>
       <use style="stroke:#000000;stroke-width:0.8;" x="818.195737" xlink:href="#m88deab8661" y="437.9425"/>
      </g>
     </g>
     <g id="text_48">
      <!-- 11:00 -->
      <g transform="translate(814.820737 444.9425)rotate(-270)scale(0.12 -0.12)">
       <use xlink:href="#SimHei-49"/>
       <use x="50" xlink:href="#SimHei-49"/>
       <use x="100" xlink:href="#SimHei-58"/>
       <use x="150" xlink:href="#SimHei-48"/>
       <use x="200" xlink:href="#SimHei-48"/>
      </g>
     </g>
    </g>
    <g id="xtick_37">
     <g id="line2d_46">
      <g>
       <use style="stroke:#000000;stroke-width:0.8;" x="836.665513" xlink:href="#m88deab8661" y="437.9425"/>
      </g>
     </g>
     <g id="text_49">
      <!-- 12:00 -->
      <g transform="translate(833.290513 444.9425)rotate(-270)scale(0.12 -0.12)">
       <use xlink:href="#SimHei-49"/>
       <use x="50" xlink:href="#SimHei-50"/>
       <use x="100" xlink:href="#SimHei-58"/>
       <use x="150" xlink:href="#SimHei-48"/>
       <use x="200" xlink:href="#SimHei-48"/>
      </g>
     </g>
    </g>
    <g id="xtick_38">
     <g id="line2d_47">
      <g>
       <use style="stroke:#000000;stroke-width:0.8;" x="855.13529" xlink:href="#m88deab8661" y="437.9425"/>
      </g>
     </g>
     <g id="text_50">
      <!-- 13:00 -->
      <g transform="translate(851.76029 444.9425)rotate(-270)scale(0.12 -0.12)">
       <use xlink:href="#SimHei-49"/>
       <use x="50" xlink:href="#SimHei-51"/>
       <use x="100" xlink:href="#SimHei-58"/>
       <use x="150" xlink:href="#SimHei-48"/>
       <use x="200" xlink:href="#SimHei-48"/>
      </g>
     </g>
    </g>
    <g id="xtick_39">
     <g id="line2d_48">
      <g>
       <use style="stroke:#000000;stroke-width:0.8;" x="873.605066" xlink:href="#m88deab8661" y="437.9425"/>
      </g>
     </g>
     <g id="text_51">
      <!-- 14:00 -->
      <g transform="translate(870.230066 444.9425)rotate(-270)scale(0.12 -0.12)">
       <use xlink:href="#SimHei-49"/>
       <use x="50" xlink:href="#SimHei-52"/>
       <use x="100" xlink:href="#SimHei-58"/>
       <use x="150" xlink:href="#SimHei-48"/>
       <use x="200" xlink:href="#SimHei-48"/>
      </g>
     </g>
    </g>
    <g id="xtick_40">
     <g id="line2d_49">
      <g>
       <use style="stroke:#000000;stroke-width:0.8;" x="892.074843" xlink:href="#m88deab8661" y="437.9425"/>
      </g>
     </g>
     <g id="text_52">
      <!-- 15:00 -->
      <g transform="translate(888.699843 444.9425)rotate(-270)scale(0.12 -0.12)">
       <use xlink:href="#SimHei-49"/>
       <use x="50" xlink:href="#SimHei-53"/>
       <use x="100" xlink:href="#SimHei-58"/>
       <use x="150" xlink:href="#SimHei-48"/>
       <use x="200" xlink:href="#SimHei-48"/>
      </g>
     </g>
    </g>
    <g id="xtick_41">
     <g id="line2d_50">
      <g>
       <use style="stroke:#000000;stroke-width:0.8;" x="910.544619" xlink:href="#m88deab8661" y="437.9425"/>
      </g>
     </g>
     <g id="text_53">
      <!-- 16:00 -->
      <g transform="translate(907.169619 444.9425)rotate(-270)scale(0.12 -0.12)">
       <use xlink:href="#SimHei-49"/>
       <use x="50" xlink:href="#SimHei-54"/>
       <use x="100" xlink:href="#SimHei-58"/>
       <use x="150" xlink:href="#SimHei-48"/>
       <use x="200" xlink:href="#SimHei-48"/>
      </g>
     </g>
    </g>
    <g id="xtick_42">
     <g id="line2d_51">
      <g>
       <use style="stroke:#000000;stroke-width:0.8;" x="929.014396" xlink:href="#m88deab8661" y="437.9425"/>
      </g>
     </g>
     <g id="text_54">
      <!-- 17:00 -->
      <g transform="translate(925.639396 444.9425)rotate(-270)scale(0.12 -0.12)">
       <use xlink:href="#SimHei-49"/>
       <use x="50" xlink:href="#SimHei-55"/>
       <use x="100" xlink:href="#SimHei-58"/>
       <use x="150" xlink:href="#SimHei-48"/>
       <use x="200" xlink:href="#SimHei-48"/>
      </g>
     </g>
    </g>
    <g id="xtick_43">
     <g id="line2d_52">
      <g>
       <use style="stroke:#000000;stroke-width:0.8;" x="947.484173" xlink:href="#m88deab8661" y="437.9425"/>
      </g>
     </g>
     <g id="text_55">
      <!-- 18:00 -->
      <g transform="translate(944.109173 444.9425)rotate(-270)scale(0.12 -0.12)">
       <use xlink:href="#SimHei-49"/>
       <use x="50" xlink:href="#SimHei-56"/>
       <use x="100" xlink:href="#SimHei-58"/>
       <use x="150" xlink:href="#SimHei-48"/>
       <use x="200" xlink:href="#SimHei-48"/>
      </g>
     </g>
    </g>
    <g id="xtick_44">
     <g id="line2d_53">
      <g>
       <use style="stroke:#000000;stroke-width:0.8;" x="965.953949" xlink:href="#m88deab8661" y="437.9425"/>
      </g>
     </g>
     <g id="text_56">
      <!-- 19:00 -->
      <g transform="translate(962.578949 444.9425)rotate(-270)scale(0.12 -0.12)">
       <use xlink:href="#SimHei-49"/>
       <use x="50" xlink:href="#SimHei-57"/>
       <use x="100" xlink:href="#SimHei-58"/>
       <use x="150" xlink:href="#SimHei-48"/>
       <use x="200" xlink:href="#SimHei-48"/>
      </g>
     </g>
    </g>
    <g id="xtick_45">
     <g id="line2d_54">
      <g>
       <use style="stroke:#000000;stroke-width:0.8;" x="984.423726" xlink:href="#m88deab8661" y="437.9425"/>
      </g>
     </g>
     <g id="text_57">
      <!-- 20:00 -->
      <g transform="translate(981.048726 444.9425)rotate(-270)scale(0.12 -0.12)">
       <use xlink:href="#SimHei-50"/>
       <use x="50" xlink:href="#SimHei-48"/>
       <use x="100" xlink:href="#SimHei-58"/>
       <use x="150" xlink:href="#SimHei-48"/>
       <use x="200" xlink:href="#SimHei-48"/>
      </g>
     </g>
    </g>
    <g id="xtick_46">
     <g id="line2d_55">
      <g>
       <use style="stroke:#000000;stroke-width:0.8;" x="1002.893502" xlink:href="#m88deab8661" y="437.9425"/>
      </g>
     </g>
     <g id="text_58">
      <!-- 21:00 -->
      <g transform="translate(999.518502 444.9425)rotate(-270)scale(0.12 -0.12)">
       <use xlink:href="#SimHei-50"/>
       <use x="50" xlink:href="#SimHei-49"/>
       <use x="100" xlink:href="#SimHei-58"/>
       <use x="150" xlink:href="#SimHei-48"/>
       <use x="200" xlink:href="#SimHei-48"/>
      </g>
     </g>
    </g>
    <g id="xtick_47">
     <g id="line2d_56">
      <g>
       <use style="stroke:#000000;stroke-width:0.8;" x="1021.363279" xlink:href="#m88deab8661" y="437.9425"/>
      </g>
     </g>
     <g id="text_59">
      <!-- 22:00 -->
      <g transform="translate(1017.988279 444.9425)rotate(-270)scale(0.12 -0.12)">
       <use xlink:href="#SimHei-50"/>
       <use x="50" xlink:href="#SimHei-50"/>
       <use x="100" xlink:href="#SimHei-58"/>
       <use x="150" xlink:href="#SimHei-48"/>
       <use x="200" xlink:href="#SimHei-48"/>
      </g>
     </g>
    </g>
    <g id="xtick_48">
     <g id="line2d_57">
      <g>
       <use style="stroke:#000000;stroke-width:0.8;" x="1039.833055" xlink:href="#m88deab8661" y="437.9425"/>
      </g>
     </g>
     <g id="text_60">
      <!-- 23:00 -->
      <g transform="translate(1036.458055 444.9425)rotate(-270)scale(0.12 -0.12)">
       <use xlink:href="#SimHei-50"/>
       <use x="50" xlink:href="#SimHei-51"/>
       <use x="100" xlink:href="#SimHei-58"/>
       <use x="150" xlink:href="#SimHei-48"/>
       <use x="200" xlink:href="#SimHei-48"/>
      </g>
     </g>
    </g>
    <g id="text_61">
     <!-- 时间 -->
     <g transform="translate(812.430625 490.954219)scale(0.15 -0.15)">
      <use xlink:href="#SimHei-26102"/>
      <use x="100" xlink:href="#SimHei-38388"/>
     </g>
    </g>
   </g>
   <g id="matplotlib.axis_4">
    <g id="ytick_10">
     <g id="line2d_58">
      <g>
       <use style="stroke:#000000;stroke-width:0.8;" x="585.66125" xlink:href="#m5d6b95ea7e" y="437.9425"/>
      </g>
     </g>
     <g id="text_62">
      <!-- 0 -->
      <g transform="translate(573.66125 441.38)scale(0.1 -0.1)">
       <use xlink:href="#SimHei-48"/>
      </g>
     </g>
    </g>
    <g id="ytick_11">
     <g id="line2d_59">
      <g>
       <use style="stroke:#000000;stroke-width:0.8;" x="585.66125" xlink:href="#m5d6b95ea7e" y="387.310625"/>
      </g>
     </g>
     <g id="text_63">
      <!-- 25 -->
      <g transform="translate(568.66125 390.748125)scale(0.1 -0.1)">
       <use xlink:href="#SimHei-50"/>
       <use x="50" xlink:href="#SimHei-53"/>
      </g>
     </g>
    </g>
    <g id="ytick_12">
     <g id="line2d_60">
      <g>
       <use style="stroke:#000000;stroke-width:0.8;" x="585.66125" xlink:href="#m5d6b95ea7e" y="336.67875"/>
      </g>
     </g>
     <g id="text_64">
      <!-- 50 -->
      <g transform="translate(568.66125 340.11625)scale(0.1 -0.1)">
       <use xlink:href="#SimHei-53"/>
       <use x="50" xlink:href="#SimHei-48"/>
      </g>
     </g>
    </g>
    <g id="ytick_13">
     <g id="line2d_61">
      <g>
       <use style="stroke:#000000;stroke-width:0.8;" x="585.66125" xlink:href="#m5d6b95ea7e" y="286.046875"/>
      </g>
     </g>
     <g id="text_65">
      <!-- 75 -->
      <g transform="translate(568.66125 289.484375)scale(0.1 -0.1)">
       <use xlink:href="#SimHei-55"/>
       <use x="50" xlink:href="#SimHei-53"/>
      </g>
     </g>
    </g>
    <g id="ytick_14">
     <g id="line2d_62">
      <g>
       <use style="stroke:#000000;stroke-width:0.8;" x="585.66125" xlink:href="#m5d6b95ea7e" y="235.415"/>
      </g>
     </g>
     <g id="text_66">
      <!-- 100 -->
      <g transform="translate(563.66125 238.8525)scale(0.1 -0.1)">
       <use xlink:href="#SimHei-49"/>
       <use x="50" xlink:href="#SimHei-48"/>
       <use x="100" xlink:href="#SimHei-48"/>
      </g>
     </g>
    </g>
    <g id="ytick_15">
     <g id="line2d_63">
      <g>
       <use style="stroke:#000000;stroke-width:0.8;" x="585.66125" xlink:href="#m5d6b95ea7e" y="184.783125"/>
      </g>
     </g>
     <g id="text_67">
      <!-- 125 -->
      <g transform="translate(563.66125 188.220625)scale(0.1 -0.1)">
       <use xlink:href="#SimHei-49"/>
       <use x="50" xlink:href="#SimHei-50"/>
       <use x="100" xlink:href="#SimHei-53"/>
      </g>
     </g>
    </g>
    <g id="ytick_16">
     <g id="line2d_64">
      <g>
       <use style="stroke:#000000;stroke-width:0.8;" x="585.66125" xlink:href="#m5d6b95ea7e" y="134.15125"/>
      </g>
     </g>
     <g id="text_68">
      <!-- 150 -->
      <g transform="translate(563.66125 137.58875)scale(0.1 -0.1)">
       <use xlink:href="#SimHei-49"/>
       <use x="50" xlink:href="#SimHei-53"/>
       <use x="100" xlink:href="#SimHei-48"/>
      </g>
     </g>
    </g>
    <g id="ytick_17">
     <g id="line2d_65">
      <g>
       <use style="stroke:#000000;stroke-width:0.8;" x="585.66125" xlink:href="#m5d6b95ea7e" y="83.519375"/>
      </g>
     </g>
     <g id="text_69">
      <!-- 175 -->
      <g transform="translate(563.66125 86.956875)scale(0.1 -0.1)">
       <use xlink:href="#SimHei-49"/>
       <use x="50" xlink:href="#SimHei-55"/>
       <use x="100" xlink:href="#SimHei-53"/>
      </g>
     </g>
    </g>
    <g id="ytick_18">
     <g id="line2d_66">
      <g>
       <use style="stroke:#000000;stroke-width:0.8;" x="585.66125" xlink:href="#m5d6b95ea7e" y="32.8875"/>
      </g>
     </g>
     <g id="text_70">
      <!-- 200 -->
      <g transform="translate(563.66125 36.325)scale(0.1 -0.1)">
       <use xlink:href="#SimHei-50"/>
       <use x="50" xlink:href="#SimHei-48"/>
       <use x="100" xlink:href="#SimHei-48"/>
      </g>
     </g>
    </g>
    <g id="text_71">
     <!-- 流量 -->
     <g transform="translate(557.78625 250.415)rotate(-90)scale(0.15 -0.15)">
      <use xlink:href="#SimHei-27969"/>
      <use x="100" xlink:href="#SimHei-37327"/>
     </g>
    </g>
   </g>
   <g id="patch_57">
    <path d="M 585.66125 437.9425 
L 585.66125 32.8875 
" style="fill:none;stroke:#000000;stroke-linecap:square;stroke-linejoin:miter;stroke-width:0.8;"/>
   </g>
   <g id="patch_58">
    <path d="M 1069.2 437.9425 
L 1069.2 32.8875 
" style="fill:none;stroke:#000000;stroke-linecap:square;stroke-linejoin:miter;stroke-width:0.8;"/>
   </g>
   <g id="patch_59">
    <path d="M 585.66125 437.9425 
L 1069.2 437.9425 
" style="fill:none;stroke:#000000;stroke-linecap:square;stroke-linejoin:miter;stroke-width:0.8;"/>
   </g>
   <g id="patch_60">
    <path d="M 585.66125 32.8875 
L 1069.2 32.8875 
" style="fill:none;stroke:#000000;stroke-linecap:square;stroke-linejoin:miter;stroke-width:0.8;"/>
   </g>
   <g id="text_72">
    <!-- 11月12日的流量变化 ID=200 -->
    <g transform="translate(702.430625 26.8875)scale(0.2 -0.2)">
     <use xlink:href="#SimHei-49"/>
     <use x="50" xlink:href="#SimHei-49"/>
     <use x="100" xlink:href="#SimHei-26376"/>
     <use x="200" xlink:href="#SimHei-49"/>
     <use x="250" xlink:href="#SimHei-50"/>
     <use x="300" xlink:href="#SimHei-26085"/>
     <use x="400" xlink:href="#SimHei-30340"/>
     <use x="500" xlink:href="#SimHei-27969"/>
     <use x="600" xlink:href="#SimHei-37327"/>
     <use x="700" xlink:href="#SimHei-21464"/>
     <use x="800" xlink:href="#SimHei-21270"/>
     <use x="900" xlink:href="#SimHei-32"/>
     <use x="950" xlink:href="#SimHei-73"/>
     <use x="1000" xlink:href="#SimHei-68"/>
     <use x="1050" xlink:href="#SimHei-61"/>
     <use x="1100" xlink:href="#SimHei-50"/>
     <use x="1150" xlink:href="#SimHei-48"/>
     <use x="1200" xlink:href="#SimHei-48"/>
    </g>
   </g>
   <g id="legend_2">
    <g id="patch_61">
     <path d="M 1058.2 45.8875 
L 1062.2 45.8875 
Q 1064.2 45.8875 1064.2 43.8875 
L 1064.2 39.8875 
Q 1064.2 37.8875 1062.2 37.8875 
L 1058.2 37.8875 
Q 1056.2 37.8875 1056.2 39.8875 
L 1056.2 43.8875 
Q 1056.2 45.8875 1058.2 45.8875 
z
" style="fill:#ffffff;opacity:0.8;stroke:#cccccc;stroke-linejoin:miter;"/>
    </g>
   </g>
  </g>
 </g>
 <defs>
  <clipPath id="pd4e5ca8840">
   <rect height="405.055" width="483.53875" x="51.06125" y="32.8875"/>
  </clipPath>
  <clipPath id="pd4bd8829e3">
   <rect height="405.055" width="483.53875" x="585.66125" y="32.8875"/>
  </clipPath>
 </defs>
</svg>
