<?xml version="1.0" encoding="utf-8" standalone="no"?>
<!DOCTYPE svg PUBLIC "-//W3C//DTD SVG 1.1//EN"
  "http://www.w3.org/Graphics/SVG/1.1/DTD/svg11.dtd">
<!-- Created with matplotlib (https://matplotlib.org/) -->
<svg height="504pt" version="1.1" viewBox="0 0 1080 504" width="1080pt" xmlns="http://www.w3.org/2000/svg" xmlns:xlink="http://www.w3.org/1999/xlink">
 <defs>
  <style type="text/css">
*{stroke-linecap:butt;stroke-linejoin:round;}
  </style>
 </defs>
 <g id="figure_1">
  <g id="patch_1">
   <path d="M 0 504 
L 1080 504 
L 1080 0 
L 0 0 
z
" style="fill:#ffffff;"/>
  </g>
  <g id="axes_1">
   <g id="patch_2">
    <path d="M 56.10125 454.67125 
L 1069.2 454.67125 
L 1069.2 32.8875 
L 56.10125 32.8875 
z
" style="fill:#ffffff;"/>
   </g>
   <g id="matplotlib.axis_1">
    <g id="xtick_1">
     <g id="line2d_1">
      <defs>
       <path d="M 0 0 
L 0 3.5 
" id="m77b2d01aa4" style="stroke:#000000;stroke-width:0.8;"/>
      </defs>
      <g>
       <use style="stroke:#000000;stroke-width:0.8;" x="102.79122" xlink:href="#m77b2d01aa4" y="454.67125"/>
      </g>
     </g>
     <g id="text_1">
      <!-- 11月1日 -->
      <defs>
       <path d="M 21.875 56.25 
Q 16.796875 51.171875 8.984375 46.484375 
L 8.984375 53.90625 
Q 18.75 60.546875 25 69.53125 
L 29.6875 69.53125 
L 29.6875 2.34375 
L 21.875 2.34375 
z
" id="SimHei-49"/>
       <path d="M 82.03125 75.390625 
Q 81.25 66.015625 81.25 58.59375 
L 81.25 3.125 
Q 81.25 -4.296875 77.34375 -5.859375 
Q 73.4375 -7.421875 62.109375 -8.203125 
Q 61.328125 -3.515625 58.59375 0.78125 
Q 67.1875 0.390625 70.5 0.78125 
Q 73.828125 1.171875 73.828125 6.25 
L 73.828125 25 
L 28.90625 25 
Q 26.953125 12.109375 22.65625 3.515625 
Q 18.359375 -5.078125 14.0625 -8.984375 
Q 10.9375 -6.25 6.25 -5.078125 
Q 12.5 0.390625 16.203125 8 
Q 19.921875 15.625 20.890625 23.046875 
Q 21.875 30.46875 21.875 39.453125 
L 21.875 56.640625 
Q 21.875 65.234375 21.484375 75.390625 
L 82.03125 75.390625 
z
M 73.828125 53.125 
L 73.828125 69.53125 
L 29.296875 69.53125 
L 29.296875 53.125 
z
M 73.828125 31.25 
L 73.828125 47.265625 
L 29.296875 47.265625 
L 29.296875 31.25 
z
" id="SimHei-26376"/>
       <path d="M 83.984375 78.125 
Q 83.59375 58.984375 83.59375 35.546875 
Q 83.59375 12.109375 83.984375 -7.03125 
L 75 -7.03125 
L 75 2.734375 
L 28.125 2.734375 
L 28.125 -8.984375 
L 19.53125 -8.984375 
Q 19.921875 8.984375 19.921875 33.203125 
Q 19.921875 57.421875 19.53125 78.125 
L 83.984375 78.125 
z
M 75 9.375 
L 75 37.109375 
L 28.125 37.109375 
L 28.125 9.375 
z
M 75 43.75 
L 75 71.09375 
L 28.125 71.09375 
L 28.125 43.75 
z
" id="SimHei-26085"/>
      </defs>
      <g transform="translate(76.54122 472.862656)scale(0.15 -0.15)">
       <use xlink:href="#SimHei-49"/>
       <use x="50" xlink:href="#SimHei-49"/>
       <use x="100" xlink:href="#SimHei-26376"/>
       <use x="200" xlink:href="#SimHei-49"/>
       <use x="250" xlink:href="#SimHei-26085"/>
      </g>
     </g>
    </g>
    <g id="xtick_2">
     <g id="line2d_2">
      <g>
       <use style="stroke:#000000;stroke-width:0.8;" x="210.315757" xlink:href="#m77b2d01aa4" y="454.67125"/>
      </g>
     </g>
     <g id="text_2">
      <!-- 11月8日 -->
      <defs>
       <path d="M 2.734375 16.796875 
Q 2.734375 26.171875 5.078125 30.65625 
Q 7.421875 35.15625 12.890625 37.890625 
Q 8.203125 40.625 6.640625 43.9375 
Q 5.078125 47.265625 4.875 51.5625 
Q 4.6875 55.859375 6.046875 58.984375 
Q 7.421875 62.109375 10.15625 64.84375 
Q 12.890625 67.578125 16.203125 68.546875 
Q 19.53125 69.53125 23.4375 69.53125 
Q 27.34375 69.53125 30.46875 68.75 
Q 33.59375 67.96875 37.109375 65.421875 
Q 40.625 62.890625 42.1875 58.203125 
Q 43.75 53.515625 41.984375 47.265625 
Q 40.234375 41.015625 32.8125 37.5 
Q 39.453125 35.546875 42.1875 31.4375 
Q 44.921875 27.34375 44.921875 21.484375 
Q 44.921875 15.625 43.15625 12.109375 
Q 41.40625 8.59375 39.25 6.25 
Q 37.109375 3.90625 33.390625 2.53125 
Q 29.6875 1.171875 24.015625 1.171875 
Q 18.359375 1.171875 14.25 2.53125 
Q 10.15625 3.90625 7.421875 6.640625 
Q 4.6875 9.375 3.703125 13.078125 
Q 2.734375 16.796875 2.734375 26.171875 
z
M 10.9375 26.5625 
Q 10.546875 17.1875 12.296875 13.671875 
Q 14.0625 10.15625 18.75 9.171875 
Q 23.4375 8.203125 28.515625 9.375 
Q 33.59375 10.546875 35.546875 14.84375 
Q 37.5 19.140625 36.90625 23.4375 
Q 36.328125 27.734375 32.03125 30.65625 
Q 27.734375 33.59375 22.65625 33.203125 
Q 17.578125 32.8125 14.25 29.6875 
Q 10.9375 26.5625 10.546875 17.1875 
z
M 12.109375 56.25 
Q 12.109375 48.4375 14.84375 44.921875 
Q 17.578125 41.40625 23.4375 41.40625 
Q 29.296875 41.40625 32.21875 44.921875 
Q 35.15625 48.4375 34.953125 53.3125 
Q 34.765625 58.203125 31.4375 60.546875 
Q 28.125 62.890625 22.453125 62.5 
Q 16.796875 62.109375 14.453125 59.171875 
Q 12.109375 56.25 12.109375 48.4375 
z
" id="SimHei-56"/>
      </defs>
      <g transform="translate(184.065757 472.862656)scale(0.15 -0.15)">
       <use xlink:href="#SimHei-49"/>
       <use x="50" xlink:href="#SimHei-49"/>
       <use x="100" xlink:href="#SimHei-26376"/>
       <use x="200" xlink:href="#SimHei-56"/>
       <use x="250" xlink:href="#SimHei-26085"/>
      </g>
     </g>
    </g>
    <g id="xtick_3">
     <g id="line2d_3">
      <g>
       <use style="stroke:#000000;stroke-width:0.8;" x="317.840295" xlink:href="#m77b2d01aa4" y="454.67125"/>
      </g>
     </g>
     <g id="text_3">
      <!-- 11月15日 -->
      <defs>
       <path d="M 8.59375 20.703125 
Q 11.328125 10.15625 17.96875 8.984375 
Q 24.609375 7.8125 28.703125 10.34375 
Q 32.8125 12.890625 34.5625 16.984375 
Q 36.328125 21.09375 36.125 26.171875 
Q 35.9375 31.25 33.390625 34.765625 
Q 30.859375 38.28125 26.953125 39.453125 
Q 23.046875 40.625 18.15625 39.453125 
Q 13.28125 38.28125 10.15625 33.984375 
L 3.515625 34.765625 
Q 4.296875 37.109375 10.9375 68.359375 
L 41.796875 68.359375 
L 41.796875 61.328125 
L 16.796875 61.328125 
Q 14.84375 50.78125 12.890625 44.53125 
Q 18.75 47.265625 23.828125 47.0625 
Q 28.90625 46.875 33.59375 44.71875 
Q 38.28125 42.578125 40.421875 38.859375 
Q 42.578125 35.15625 43.546875 31.4375 
Q 44.53125 27.734375 44.328125 23.4375 
Q 44.140625 19.140625 42.578125 14.640625 
Q 41.015625 10.15625 37.890625 7.21875 
Q 34.765625 4.296875 30.265625 2.53125 
Q 25.78125 0.78125 19.921875 1.171875 
Q 14.0625 1.5625 8.78125 5.46875 
Q 3.515625 9.375 1.5625 18.75 
z
" id="SimHei-53"/>
      </defs>
      <g transform="translate(287.840295 472.862656)scale(0.15 -0.15)">
       <use xlink:href="#SimHei-49"/>
       <use x="50" xlink:href="#SimHei-49"/>
       <use x="100" xlink:href="#SimHei-26376"/>
       <use x="200" xlink:href="#SimHei-49"/>
       <use x="250" xlink:href="#SimHei-53"/>
       <use x="300" xlink:href="#SimHei-26085"/>
      </g>
     </g>
    </g>
    <g id="xtick_4">
     <g id="line2d_4">
      <g>
       <use style="stroke:#000000;stroke-width:0.8;" x="425.364832" xlink:href="#m77b2d01aa4" y="454.67125"/>
      </g>
     </g>
     <g id="text_4">
      <!-- 11月22日 -->
      <defs>
       <path d="M 4.6875 3.90625 
Q 5.078125 9.765625 10.15625 14.453125 
Q 15.234375 19.140625 23.046875 29.09375 
Q 30.859375 39.0625 33.203125 44.53125 
Q 35.546875 50 34.953125 53.90625 
Q 34.375 57.8125 31.25 60.34375 
Q 28.125 62.890625 24.015625 62.5 
Q 19.921875 62.109375 16.203125 59.375 
Q 12.5 56.640625 10.546875 51.171875 
L 3.125 52.34375 
Q 6.25 61.328125 11.125 65.421875 
Q 16.015625 69.53125 22.65625 69.921875 
Q 26.5625 70.3125 29.6875 69.71875 
Q 32.8125 69.140625 36.125 66.984375 
Q 39.453125 64.84375 41.59375 60.546875 
Q 43.75 56.25 43.15625 50.1875 
Q 42.578125 44.140625 37.109375 35.734375 
Q 31.640625 27.34375 16.015625 9.375 
L 44.140625 9.375 
L 44.140625 2.34375 
L 4.6875 2.34375 
z
" id="SimHei-50"/>
      </defs>
      <g transform="translate(395.364832 472.862656)scale(0.15 -0.15)">
       <use xlink:href="#SimHei-49"/>
       <use x="50" xlink:href="#SimHei-49"/>
       <use x="100" xlink:href="#SimHei-26376"/>
       <use x="200" xlink:href="#SimHei-50"/>
       <use x="250" xlink:href="#SimHei-50"/>
       <use x="300" xlink:href="#SimHei-26085"/>
      </g>
     </g>
    </g>
    <g id="xtick_5">
     <g id="line2d_5">
      <g>
       <use style="stroke:#000000;stroke-width:0.8;" x="532.889369" xlink:href="#m77b2d01aa4" y="454.67125"/>
      </g>
     </g>
     <g id="text_5">
      <!-- 11月29日 -->
      <defs>
       <path d="M 12.5 1.171875 
Q 21.09375 15.625 26.5625 27.34375 
Q 16.796875 25.78125 10.34375 29.875 
Q 3.90625 33.984375 2.53125 41.015625 
Q 1.171875 48.046875 2.734375 53.703125 
Q 4.296875 59.375 7.609375 63.078125 
Q 10.9375 66.796875 15.625 68.359375 
Q 20.3125 69.921875 24.015625 69.921875 
Q 27.734375 69.921875 31.640625 68.359375 
Q 35.546875 66.796875 38.671875 63.671875 
Q 41.796875 60.546875 42.96875 57.21875 
Q 44.140625 53.90625 44.140625 48.625 
Q 44.140625 43.359375 40.234375 35.15625 
Q 36.328125 26.953125 21.09375 1.171875 
z
M 9.765625 50 
Q 10.9375 39.84375 14.640625 36.515625 
Q 18.359375 33.203125 22.65625 33.59375 
Q 26.953125 33.984375 29.484375 35.9375 
Q 32.03125 37.890625 34.375 42.578125 
Q 35.9375 48.4375 35.15625 52.53125 
Q 34.375 56.640625 31.046875 59.375 
Q 27.734375 62.109375 23.828125 62.109375 
Q 21.484375 62.5 17.765625 60.9375 
Q 14.0625 59.375 11.90625 54.6875 
Q 9.765625 50 10.9375 39.84375 
z
" id="SimHei-57"/>
      </defs>
      <g transform="translate(502.889369 472.862656)scale(0.15 -0.15)">
       <use xlink:href="#SimHei-49"/>
       <use x="50" xlink:href="#SimHei-49"/>
       <use x="100" xlink:href="#SimHei-26376"/>
       <use x="200" xlink:href="#SimHei-50"/>
       <use x="250" xlink:href="#SimHei-57"/>
       <use x="300" xlink:href="#SimHei-26085"/>
      </g>
     </g>
    </g>
    <g id="xtick_6">
     <g id="line2d_6">
      <g>
       <use style="stroke:#000000;stroke-width:0.8;" x="640.413906" xlink:href="#m77b2d01aa4" y="454.67125"/>
      </g>
     </g>
     <g id="text_6">
      <!-- 12月6日 -->
      <defs>
       <path d="M 3.515625 19.53125 
Q 4.296875 30.859375 6.046875 34.765625 
Q 7.8125 38.671875 11.328125 44.53125 
L 27.34375 69.53125 
L 36.328125 69.53125 
L 19.921875 43.75 
Q 30.46875 46.484375 36.71875 42.96875 
Q 42.96875 39.453125 45.109375 34.953125 
Q 47.265625 30.46875 47.453125 25.1875 
Q 47.65625 19.921875 45.890625 14.84375 
Q 44.140625 9.765625 39.640625 5.65625 
Q 35.15625 1.5625 27.140625 1.171875 
Q 19.140625 0.78125 13.46875 4.09375 
Q 7.8125 7.421875 5.65625 13.46875 
Q 3.515625 19.53125 4.296875 30.859375 
z
M 12.5 16.015625 
Q 19.53125 8.59375 25.390625 8.203125 
Q 31.25 7.8125 35.15625 12.109375 
Q 39.0625 16.40625 39.0625 24.609375 
Q 39.0625 32.8125 34.171875 35.9375 
Q 29.296875 39.0625 23.234375 38.28125 
Q 17.1875 37.5 14.453125 32.421875 
Q 11.71875 27.34375 12.109375 21.671875 
Q 12.5 16.015625 19.53125 8.59375 
z
" id="SimHei-54"/>
      </defs>
      <g transform="translate(614.163906 472.862656)scale(0.15 -0.15)">
       <use xlink:href="#SimHei-49"/>
       <use x="50" xlink:href="#SimHei-50"/>
       <use x="100" xlink:href="#SimHei-26376"/>
       <use x="200" xlink:href="#SimHei-54"/>
       <use x="250" xlink:href="#SimHei-26085"/>
      </g>
     </g>
    </g>
    <g id="xtick_7">
     <g id="line2d_7">
      <g>
       <use style="stroke:#000000;stroke-width:0.8;" x="747.938444" xlink:href="#m77b2d01aa4" y="454.67125"/>
      </g>
     </g>
     <g id="text_7">
      <!-- 12月13日 -->
      <defs>
       <path d="M 3.90625 19.140625 
L 10.9375 20.3125 
Q 12.5 15.234375 16.015625 11.90625 
Q 19.53125 8.59375 24.796875 8.78125 
Q 30.078125 8.984375 33.203125 13.078125 
Q 36.328125 17.1875 35.9375 22.453125 
Q 35.546875 27.734375 31.828125 30.65625 
Q 28.125 33.59375 19.921875 34.765625 
L 19.921875 39.84375 
Q 28.125 40.625 31.828125 44.140625 
Q 35.546875 47.65625 35.15625 53.3125 
Q 34.765625 58.984375 30.078125 61.515625 
Q 25.390625 64.0625 20.109375 62.109375 
Q 14.84375 60.15625 11.71875 51.171875 
L 4.6875 52.34375 
Q 7.03125 59.375 11.125 64.0625 
Q 15.234375 68.75 22.265625 69.53125 
Q 29.296875 70.3125 34.5625 67.765625 
Q 39.84375 65.234375 41.984375 59.953125 
Q 44.140625 54.6875 42.578125 48.4375 
Q 41.015625 42.1875 33.59375 37.5 
Q 39.0625 35.15625 41.984375 30.46875 
Q 44.921875 25.78125 43.9375 18.15625 
Q 42.96875 10.546875 37.109375 5.859375 
Q 31.25 1.171875 23.828125 1.359375 
Q 16.40625 1.5625 10.9375 6.046875 
Q 5.46875 10.546875 3.90625 19.140625 
z
" id="SimHei-51"/>
      </defs>
      <g transform="translate(717.938444 472.862656)scale(0.15 -0.15)">
       <use xlink:href="#SimHei-49"/>
       <use x="50" xlink:href="#SimHei-50"/>
       <use x="100" xlink:href="#SimHei-26376"/>
       <use x="200" xlink:href="#SimHei-49"/>
       <use x="250" xlink:href="#SimHei-51"/>
       <use x="300" xlink:href="#SimHei-26085"/>
      </g>
     </g>
    </g>
    <g id="xtick_8">
     <g id="line2d_8">
      <g>
       <use style="stroke:#000000;stroke-width:0.8;" x="855.462981" xlink:href="#m77b2d01aa4" y="454.67125"/>
      </g>
     </g>
     <g id="text_8">
      <!-- 12月20日 -->
      <defs>
       <path d="M 3.125 29.296875 
Q 3.90625 50 6.4375 56.046875 
Q 8.984375 62.109375 13.671875 66.015625 
Q 18.359375 69.921875 25.1875 69.921875 
Q 32.03125 69.921875 37.109375 64.25 
Q 42.1875 58.59375 43.75 50 
Q 45.3125 41.40625 44.71875 30.265625 
Q 44.140625 19.140625 40.8125 12.109375 
Q 37.5 5.078125 30.859375 2.34375 
Q 24.21875 -0.390625 17.578125 2.921875 
Q 10.9375 6.25 8.203125 11.71875 
Q 5.46875 17.1875 4.296875 23.234375 
Q 3.125 29.296875 3.90625 50 
z
M 12.890625 52.734375 
Q 10.546875 31.25 12.5 22.84375 
Q 14.453125 14.453125 18.9375 10.9375 
Q 23.4375 7.421875 28.125 9.5625 
Q 32.8125 11.71875 34.953125 18.15625 
Q 37.109375 24.609375 37.109375 32.21875 
Q 37.109375 39.84375 36.515625 46.09375 
Q 35.9375 52.34375 33 57.421875 
Q 30.078125 62.5 25.1875 62.6875 
Q 20.3125 62.890625 16.59375 57.8125 
Q 12.890625 52.734375 10.546875 31.25 
z
" id="SimHei-48"/>
      </defs>
      <g transform="translate(825.462981 472.862656)scale(0.15 -0.15)">
       <use xlink:href="#SimHei-49"/>
       <use x="50" xlink:href="#SimHei-50"/>
       <use x="100" xlink:href="#SimHei-26376"/>
       <use x="200" xlink:href="#SimHei-50"/>
       <use x="250" xlink:href="#SimHei-48"/>
       <use x="300" xlink:href="#SimHei-26085"/>
      </g>
     </g>
    </g>
    <g id="xtick_9">
     <g id="line2d_9">
      <g>
       <use style="stroke:#000000;stroke-width:0.8;" x="962.987518" xlink:href="#m77b2d01aa4" y="454.67125"/>
      </g>
     </g>
     <g id="text_9">
      <!-- 12月27日 -->
      <defs>
       <path d="M 13.28125 2.34375 
Q 20.3125 32.03125 37.890625 61.328125 
L 4.296875 61.328125 
L 4.296875 68.359375 
L 46.09375 68.359375 
L 46.09375 61.71875 
Q 27.734375 32.03125 21.875 2.34375 
L 13.28125 2.34375 
z
" id="SimHei-55"/>
      </defs>
      <g transform="translate(932.987518 472.862656)scale(0.15 -0.15)">
       <use xlink:href="#SimHei-49"/>
       <use x="50" xlink:href="#SimHei-50"/>
       <use x="100" xlink:href="#SimHei-26376"/>
       <use x="200" xlink:href="#SimHei-50"/>
       <use x="250" xlink:href="#SimHei-55"/>
       <use x="300" xlink:href="#SimHei-26085"/>
      </g>
     </g>
    </g>
    <g id="text_10">
     <!-- 时间 -->
     <defs>
      <path d="M 39.453125 71.484375 
Q 39.0625 57.421875 39.0625 37.5 
Q 39.0625 17.578125 39.453125 6.25 
L 31.25 6.25 
L 31.25 13.671875 
L 15.625 13.671875 
L 15.625 0.78125 
L 7.421875 0.78125 
Q 7.8125 18.75 7.8125 36.71875 
Q 7.8125 55.078125 7.421875 71.484375 
L 39.453125 71.484375 
z
M 76.171875 59.765625 
Q 76.171875 71.484375 75.78125 81.640625 
L 84.375 81.640625 
Q 83.984375 71.484375 83.984375 59.765625 
Q 89.84375 59.765625 96.484375 60.15625 
L 96.484375 52.734375 
Q 89.84375 53.125 83.984375 53.125 
L 83.984375 0.78125 
Q 83.984375 -5.078125 79.296875 -6.640625 
Q 74.609375 -8.203125 67.1875 -8.984375 
Q 67.1875 -4.296875 62.890625 0 
Q 70.3125 -0.78125 73.234375 -0.390625 
Q 76.171875 0 76.171875 4.6875 
L 76.171875 53.125 
Q 56.640625 53.125 43.359375 52.734375 
L 43.359375 60.15625 
Q 55.859375 59.765625 76.171875 59.765625 
z
M 31.25 20.3125 
L 31.25 39.84375 
L 15.625 39.84375 
L 15.625 20.3125 
z
M 31.25 46.484375 
L 31.25 64.84375 
L 15.625 64.84375 
L 15.625 46.484375 
z
M 55.46875 42.578125 
Q 60.546875 34.375 65.234375 25 
Q 61.328125 23.828125 57.03125 21.484375 
Q 53.90625 30.859375 48.046875 39.0625 
Q 51.5625 40.625 55.46875 42.578125 
z
" id="SimHei-26102"/>
      <path d="M 69.53125 55.46875 
Q 69.140625 48.046875 69.140625 42.578125 
L 69.140625 21.875 
Q 69.140625 16.796875 69.53125 9.765625 
L 30.078125 9.765625 
Q 30.46875 16.796875 30.46875 22.265625 
L 30.46875 42.578125 
Q 30.46875 48.046875 30.078125 55.46875 
L 69.53125 55.46875 
z
M 90.625 76.171875 
Q 90.234375 68.75 90.234375 61.328125 
L 90.234375 3.90625 
Q 90.625 -5.078125 85.34375 -7.03125 
Q 80.078125 -8.984375 73.828125 -9.765625 
Q 73.4375 -5.078125 70.703125 -0.390625 
Q 78.125 -0.78125 80.265625 0.390625 
Q 82.421875 1.5625 82.421875 5.46875 
L 82.421875 69.53125 
L 58.984375 69.53125 
Q 49.609375 69.53125 41.40625 69.140625 
L 41.40625 76.5625 
Q 49.609375 76.171875 58.984375 76.171875 
z
M 8.59375 -8.203125 
Q 9.375 -0.390625 9.375 8.203125 
L 9.375 49.21875 
Q 9.375 57.421875 8.59375 62.890625 
L 17.578125 62.890625 
Q 17.1875 57.03125 17.1875 51.5625 
L 17.1875 7.8125 
Q 17.1875 0 17.578125 -8.203125 
z
M 61.71875 16.015625 
L 61.71875 30.46875 
L 37.890625 30.46875 
L 37.890625 16.015625 
z
M 61.71875 36.71875 
L 61.71875 49.21875 
L 37.890625 49.21875 
L 37.890625 36.71875 
z
M 23.828125 82.8125 
Q 27.34375 78.125 34.765625 67.96875 
Q 30.46875 66.015625 26.5625 63.671875 
Q 22.65625 71.484375 16.796875 78.515625 
Q 21.09375 81.640625 23.828125 82.8125 
z
" id="SimHei-38388"/>
     </defs>
     <g transform="translate(547.650625 490.749375)scale(0.15 -0.15)">
      <use xlink:href="#SimHei-26102"/>
      <use x="100" xlink:href="#SimHei-38388"/>
     </g>
    </g>
   </g>
   <g id="matplotlib.axis_2">
    <g id="ytick_1">
     <g id="line2d_10">
      <defs>
       <path d="M 0 0 
L -3.5 0 
" id="maa6bf22288" style="stroke:#000000;stroke-width:0.8;"/>
      </defs>
      <g>
       <use style="stroke:#000000;stroke-width:0.8;" x="56.10125" xlink:href="#maa6bf22288" y="435.524456"/>
      </g>
     </g>
     <g id="text_11">
      <!-- 0 -->
      <g transform="translate(44.10125 438.961956)scale(0.1 -0.1)">
       <use xlink:href="#SimHei-48"/>
      </g>
     </g>
    </g>
    <g id="ytick_2">
     <g id="line2d_11">
      <g>
       <use style="stroke:#000000;stroke-width:0.8;" x="56.10125" xlink:href="#maa6bf22288" y="388.076143"/>
      </g>
     </g>
     <g id="text_12">
      <!-- 200 -->
      <g transform="translate(34.10125 391.513643)scale(0.1 -0.1)">
       <use xlink:href="#SimHei-50"/>
       <use x="50" xlink:href="#SimHei-48"/>
       <use x="100" xlink:href="#SimHei-48"/>
      </g>
     </g>
    </g>
    <g id="ytick_3">
     <g id="line2d_12">
      <g>
       <use style="stroke:#000000;stroke-width:0.8;" x="56.10125" xlink:href="#maa6bf22288" y="340.62783"/>
      </g>
     </g>
     <g id="text_13">
      <!-- 400 -->
      <defs>
       <path d="M 31.25 17.1875 
L 1.171875 17.1875 
L 1.171875 23.828125 
L 32.8125 69.53125 
L 38.671875 69.53125 
L 38.671875 23.828125 
L 48.046875 23.828125 
L 48.046875 17.1875 
L 38.671875 17.1875 
L 38.671875 2.34375 
L 31.25 2.34375 
z
M 31.25 23.828125 
L 31.25 54.6875 
L 9.375 23.828125 
z
" id="SimHei-52"/>
      </defs>
      <g transform="translate(34.10125 344.06533)scale(0.1 -0.1)">
       <use xlink:href="#SimHei-52"/>
       <use x="50" xlink:href="#SimHei-48"/>
       <use x="100" xlink:href="#SimHei-48"/>
      </g>
     </g>
    </g>
    <g id="ytick_4">
     <g id="line2d_13">
      <g>
       <use style="stroke:#000000;stroke-width:0.8;" x="56.10125" xlink:href="#maa6bf22288" y="293.179516"/>
      </g>
     </g>
     <g id="text_14">
      <!-- 600 -->
      <g transform="translate(34.10125 296.617016)scale(0.1 -0.1)">
       <use xlink:href="#SimHei-54"/>
       <use x="50" xlink:href="#SimHei-48"/>
       <use x="100" xlink:href="#SimHei-48"/>
      </g>
     </g>
    </g>
    <g id="ytick_5">
     <g id="line2d_14">
      <g>
       <use style="stroke:#000000;stroke-width:0.8;" x="56.10125" xlink:href="#maa6bf22288" y="245.731203"/>
      </g>
     </g>
     <g id="text_15">
      <!-- 800 -->
      <g transform="translate(34.10125 249.168703)scale(0.1 -0.1)">
       <use xlink:href="#SimHei-56"/>
       <use x="50" xlink:href="#SimHei-48"/>
       <use x="100" xlink:href="#SimHei-48"/>
      </g>
     </g>
    </g>
    <g id="ytick_6">
     <g id="line2d_15">
      <g>
       <use style="stroke:#000000;stroke-width:0.8;" x="56.10125" xlink:href="#maa6bf22288" y="198.28289"/>
      </g>
     </g>
     <g id="text_16">
      <!-- 1000 -->
      <g transform="translate(29.10125 201.72039)scale(0.1 -0.1)">
       <use xlink:href="#SimHei-49"/>
       <use x="50" xlink:href="#SimHei-48"/>
       <use x="100" xlink:href="#SimHei-48"/>
       <use x="150" xlink:href="#SimHei-48"/>
      </g>
     </g>
    </g>
    <g id="ytick_7">
     <g id="line2d_16">
      <g>
       <use style="stroke:#000000;stroke-width:0.8;" x="56.10125" xlink:href="#maa6bf22288" y="150.834577"/>
      </g>
     </g>
     <g id="text_17">
      <!-- 1200 -->
      <g transform="translate(29.10125 154.272077)scale(0.1 -0.1)">
       <use xlink:href="#SimHei-49"/>
       <use x="50" xlink:href="#SimHei-50"/>
       <use x="100" xlink:href="#SimHei-48"/>
       <use x="150" xlink:href="#SimHei-48"/>
      </g>
     </g>
    </g>
    <g id="ytick_8">
     <g id="line2d_17">
      <g>
       <use style="stroke:#000000;stroke-width:0.8;" x="56.10125" xlink:href="#maa6bf22288" y="103.386264"/>
      </g>
     </g>
     <g id="text_18">
      <!-- 1400 -->
      <g transform="translate(29.10125 106.823764)scale(0.1 -0.1)">
       <use xlink:href="#SimHei-49"/>
       <use x="50" xlink:href="#SimHei-52"/>
       <use x="100" xlink:href="#SimHei-48"/>
       <use x="150" xlink:href="#SimHei-48"/>
      </g>
     </g>
    </g>
    <g id="ytick_9">
     <g id="line2d_18">
      <g>
       <use style="stroke:#000000;stroke-width:0.8;" x="56.10125" xlink:href="#maa6bf22288" y="55.937951"/>
      </g>
     </g>
     <g id="text_19">
      <!-- 1600 -->
      <g transform="translate(29.10125 59.375451)scale(0.1 -0.1)">
       <use xlink:href="#SimHei-49"/>
       <use x="50" xlink:href="#SimHei-54"/>
       <use x="100" xlink:href="#SimHei-48"/>
       <use x="150" xlink:href="#SimHei-48"/>
      </g>
     </g>
    </g>
    <g id="text_20">
     <!-- 流量 -->
     <defs>
      <path d="M 58.203125 82.03125 
Q 62.109375 76.171875 66.015625 69.53125 
L 78.515625 69.53125 
Q 84.765625 69.53125 92.578125 69.921875 
L 92.578125 62.890625 
Q 83.203125 63.28125 78.515625 63.28125 
L 53.515625 63.28125 
Q 56.640625 60.9375 58.984375 59.765625 
Q 57.03125 58.203125 53.90625 54.296875 
Q 50.78125 50.390625 44.53125 43.359375 
Q 58.59375 43.75 74.609375 44.53125 
Q 70.703125 49.21875 66.796875 52.734375 
Q 70.703125 55.46875 72.265625 57.421875 
Q 83.203125 46.09375 90.625 37.109375 
Q 87.109375 34.375 84.375 32.03125 
Q 81.25 36.328125 78.90625 39.453125 
Q 70.3125 38.671875 55.65625 37.6875 
Q 41.015625 36.71875 35.9375 35.15625 
Q 34.765625 38.671875 32.421875 41.796875 
Q 36.328125 42.96875 41.796875 49.609375 
Q 47.265625 56.25 50.78125 63.28125 
L 46.484375 63.28125 
Q 39.453125 63.28125 32.03125 62.5 
L 32.03125 69.921875 
Q 39.453125 69.53125 46.484375 69.53125 
L 57.421875 69.53125 
Q 54.296875 75 51.953125 78.125 
Q 55.859375 80.078125 58.203125 82.03125 
z
M 78.515625 31.640625 
Q 78.125 26.5625 78.125 21.484375 
L 78.125 2.34375 
Q 78.125 -1.171875 81.640625 -1.171875 
L 85.546875 -1.171875 
Q 88.671875 -1.171875 89.0625 7.8125 
Q 92.1875 5.46875 96.875 4.296875 
Q 94.53125 -5.46875 91.984375 -6.640625 
Q 89.453125 -7.8125 85.9375 -7.8125 
L 78.515625 -7.8125 
Q 71.09375 -7.8125 71.09375 -0.390625 
L 71.09375 22.265625 
Q 71.09375 26.953125 70.703125 31.640625 
L 78.515625 31.640625 
z
M 48.828125 30.859375 
Q 48.046875 26.953125 47.453125 18.9375 
Q 46.875 10.9375 43.9375 3.515625 
Q 41.015625 -3.90625 30.46875 -10.9375 
Q 27.734375 -7.421875 24.609375 -5.078125 
Q 32.421875 -1.5625 36.125 4.484375 
Q 39.84375 10.546875 40.234375 18.15625 
Q 40.625 25.78125 40.234375 31.640625 
Q 44.140625 30.859375 48.828125 30.859375 
z
M 62.5 31.640625 
Q 62.109375 29.296875 62.109375 21.875 
L 62.109375 4.6875 
Q 62.109375 -0.390625 62.5 -7.8125 
L 54.296875 -7.8125 
Q 54.6875 -0.78125 54.6875 4.6875 
L 54.6875 21.875 
Q 54.6875 28.515625 54.296875 31.640625 
L 62.5 31.640625 
z
M 29.6875 25.390625 
Q 25.78125 18.75 21.09375 8.78125 
Q 16.40625 -1.171875 13.28125 -6.640625 
Q 9.765625 -3.90625 5.078125 -1.953125 
Q 8.984375 2.734375 14.0625 11.71875 
Q 19.140625 20.703125 22.65625 30.46875 
Q 25.78125 27.734375 29.6875 25.390625 
z
M 9.765625 53.90625 
Q 18.75 48.4375 26.953125 42.578125 
Q 23.828125 39.453125 21.484375 35.546875 
Q 14.453125 42.1875 5.078125 46.875 
Q 7.421875 50 9.765625 53.90625 
z
M 14.453125 77.734375 
Q 23.4375 72.265625 29.6875 67.1875 
Q 26.953125 63.671875 24.21875 60.546875 
Q 17.96875 66.796875 9.765625 71.484375 
Q 12.5 75 14.453125 77.734375 
z
" id="SimHei-27969"/>
      <path d="M 82.03125 39.0625 
Q 81.640625 34.375 81.640625 26.5625 
Q 81.640625 19.140625 82.03125 14.84375 
L 53.515625 14.84375 
L 53.515625 9.765625 
L 71.484375 9.765625 
Q 78.125 9.765625 83.984375 10.15625 
L 83.984375 4.296875 
Q 78.515625 4.6875 71.484375 4.6875 
L 53.515625 4.6875 
L 53.515625 -1.171875 
L 80.078125 -1.171875 
Q 86.328125 -1.171875 92.578125 -0.78125 
L 92.578125 -6.640625 
Q 86.328125 -6.25 80.078125 -6.25 
L 19.921875 -6.25 
Q 14.0625 -6.25 7.421875 -6.640625 
L 7.421875 -0.78125 
Q 14.453125 -0.78125 19.921875 -1.171875 
L 46.484375 -1.171875 
L 46.484375 4.6875 
L 26.953125 4.6875 
Q 21.09375 4.6875 15.234375 3.90625 
L 15.234375 10.15625 
Q 21.484375 9.765625 26.953125 9.765625 
L 46.484375 9.765625 
L 46.484375 14.84375 
L 17.96875 14.84375 
Q 18.359375 21.484375 18.359375 27.734375 
Q 18.359375 33.984375 17.96875 39.0625 
L 82.03125 39.0625 
z
M 81.25 77.34375 
Q 80.859375 71.484375 80.859375 66.40625 
Q 80.859375 61.328125 81.25 53.125 
L 18.75 53.125 
Q 19.140625 61.328125 19.140625 66.40625 
Q 19.140625 71.484375 18.75 77.34375 
L 81.25 77.34375 
z
M 76.5625 48.4375 
Q 85.9375 48.828125 93.75 49.21875 
L 93.75 42.96875 
Q 85.9375 43.359375 76.953125 43.359375 
L 25.78125 43.359375 
Q 15.234375 43.359375 5.078125 42.96875 
L 5.078125 49.21875 
Q 15.234375 48.828125 25.78125 48.4375 
z
M 73.828125 57.8125 
L 73.828125 62.890625 
L 26.171875 62.890625 
L 26.171875 57.8125 
z
M 73.828125 67.96875 
L 73.828125 72.65625 
L 26.171875 72.65625 
L 26.171875 67.96875 
z
M 74.21875 29.296875 
L 74.21875 33.984375 
L 53.515625 33.984375 
L 53.515625 29.296875 
z
M 46.484375 29.296875 
L 46.484375 33.984375 
L 25.78125 33.984375 
L 25.78125 29.296875 
z
M 46.484375 19.921875 
L 46.484375 24.21875 
L 25.78125 24.21875 
L 25.78125 19.921875 
z
M 74.21875 19.921875 
L 74.21875 24.21875 
L 53.515625 24.21875 
L 53.515625 19.921875 
z
" id="SimHei-37327"/>
     </defs>
     <g transform="translate(23.22625 258.779375)rotate(-90)scale(0.15 -0.15)">
      <use xlink:href="#SimHei-27969"/>
      <use x="100" xlink:href="#SimHei-37327"/>
     </g>
    </g>
   </g>
   <g id="line2d_19">
    <path clip-path="url(#p8de99e4e6a)" d="M 102.151193 432.083703 
L 102.79122 433.670094 
L 103.431247 433.800173 
L 104.071274 433.644642 
L 104.711301 434.666929 
L 105.991355 432.652302 
L 106.631382 427.887943 
L 107.271409 421.243355 
L 107.911436 405.545196 
L 108.551463 403.51776 
L 109.19149 388.102113 
L 109.831517 404.876661 
L 111.111571 413.008566 
L 111.751598 414.075277 
L 112.391625 410.119923 
L 113.031652 404.589389 
L 113.671679 414.2765 
L 114.311706 410.604643 
L 114.951733 419.728491 
L 115.59176 424.756377 
L 116.231787 427.481689 
L 116.871814 428.618531 
L 117.511841 431.864431 
L 118.151868 433.33399 
L 118.791895 433.708214 
L 119.431922 433.508209 
L 120.071949 434.664683 
L 121.352003 432.240821 
L 121.99203 427.154974 
L 122.632057 419.269966 
L 123.272084 402.727636 
L 123.912111 400.679351 
L 124.552138 384.347442 
L 125.192165 401.008371 
L 125.832192 407.353802 
L 127.112246 411.244422 
L 127.752273 408.34734 
L 128.3923 399.888272 
L 129.032327 412.07769 
L 129.672354 408.673887 
L 130.312382 418.58499 
L 130.952409 424.555544 
L 131.592436 427.265421 
L 132.232463 427.950276 
L 132.87249 434.204697 
L 133.512517 434.328257 
L 134.152544 434.926314 
L 134.792571 434.777146 
L 135.432598 434.93173 
L 136.072625 434.931139 
L 136.712652 434.07876 
L 137.352679 432.663489 
L 137.992706 429.822903 
L 138.632733 422.98678 
L 139.27276 420.376763 
L 139.912787 417.118071 
L 140.552814 422.910893 
L 141.192841 422.6979 
L 141.832868 424.71471 
L 142.472895 426.356389 
L 143.112922 425.395609 
L 143.752949 421.165466 
L 144.392976 423.960967 
L 145.033003 423.718478 
L 145.67303 428.1487 
L 146.313057 430.689953 
L 146.953084 432.10314 
L 147.593111 433.127505 
L 148.233138 432.138959 
L 148.873165 433.763892 
L 149.513192 433.954458 
L 150.153219 433.947626 
L 150.793246 433.30262 
L 151.433273 434.187175 
L 152.0733 433.652998 
L 152.713327 432.394367 
L 153.353354 429.697951 
L 153.993381 424.130795 
L 155.273435 417.184121 
L 155.913462 422.937448 
L 156.553489 419.733615 
L 157.833543 424.457778 
L 158.47357 423.704664 
L 159.113597 422.081034 
L 159.753624 422.878753 
L 160.393651 426.032243 
L 161.033678 425.923683 
L 161.673705 430.54734 
L 162.313732 432.42951 
L 162.953759 432.62088 
L 163.593786 433.029272 
L 164.233813 433.992123 
L 165.513867 434.384911 
L 166.153894 434.060337 
L 166.793921 434.06915 
L 167.433948 433.344924 
L 168.073975 431.98166 
L 169.354029 420.82911 
L 169.994056 415.916387 
L 170.634083 412.864682 
L 171.27411 416.833829 
L 171.914137 417.658384 
L 172.554164 420.397035 
L 173.194191 421.164557 
L 174.474245 415.374299 
L 175.114272 419.155694 
L 175.754299 421.661263 
L 177.67438 431.510652 
L 178.314407 431.972075 
L 178.954434 433.544472 
L 179.594461 433.871035 
L 180.234488 433.969971 
L 180.874515 434.255357 
L 181.514542 434.883977 
L 182.154569 433.310472 
L 182.794596 433.206092 
L 183.434623 431.527282 
L 184.07465 425.82053 
L 184.714677 416.907821 
L 185.354704 413.758403 
L 185.994731 411.170963 
L 186.634758 412.824274 
L 187.274785 414.960636 
L 187.914812 417.584363 
L 188.554839 417.908685 
L 189.194866 413.824578 
L 189.834893 410.826827 
L 190.47492 414.692939 
L 191.114947 416.026529 
L 191.754974 422.251751 
L 192.395001 425.876625 
L 193.035028 431.50576 
L 193.675055 431.234219 
L 194.315082 433.041686 
L 194.955109 433.662529 
L 196.235163 434.116942 
L 196.87519 434.938458 
L 197.515217 433.390545 
L 198.155244 432.949971 
L 198.795271 430.872095 
L 199.435298 425.922357 
L 200.075325 414.449251 
L 200.715352 413.921892 
L 201.355379 411.524647 
L 201.995406 410.995362 
L 202.635433 414.278711 
L 203.27546 415.854538 
L 203.915487 416.0113 
L 204.555514 411.809026 
L 205.195541 410.495569 
L 205.835568 412.198449 
L 207.115622 419.411318 
L 208.395676 430.216355 
L 209.035703 430.190919 
L 209.67573 431.185296 
L 210.315757 432.499718 
L 210.955784 433.375951 
L 211.595811 433.686377 
L 212.235838 434.596506 
L 212.875865 434.02817 
L 213.515892 431.400357 
L 214.155919 427.492482 
L 214.795946 420.286137 
L 215.435973 406.385503 
L 216.076 403.164051 
L 216.716028 401.177102 
L 217.356055 405.415802 
L 217.996082 412.062218 
L 218.636109 411.921214 
L 219.276136 404.181129 
L 219.916163 404.379578 
L 220.55619 401.216775 
L 221.196217 401.21905 
L 221.836244 409.440216 
L 222.476271 410.209083 
L 223.116298 420.067067 
L 223.756325 423.42294 
L 224.396352 425.490032 
L 225.036379 428.206426 
L 225.676406 432.751299 
L 226.316433 433.181045 
L 227.596487 433.423558 
L 228.236514 429.797213 
L 228.876541 429.410556 
L 229.516568 426.091451 
L 230.156595 412.990594 
L 230.796622 394.700647 
L 231.436649 389.410089 
L 232.076676 379.349888 
L 232.716703 378.773767 
L 233.35673 395.581431 
L 233.996757 397.865399 
L 234.636784 390.53909 
L 235.276811 387.701702 
L 235.916838 385.746933 
L 236.556865 376.163858 
L 237.836919 401.800249 
L 239.116973 422.994502 
L 239.757 426.967912 
L 240.397027 418.218999 
L 241.037054 425.829893 
L 241.677081 426.51143 
L 242.317108 429.85861 
L 242.957135 428.339456 
L 243.597162 431.010001 
L 244.237189 428.044126 
L 244.877216 416.821055 
L 245.517243 393.293508 
L 246.15727 315.555472 
L 246.797297 307.012833 
L 247.437324 296.546656 
L 248.077351 294.45005 
L 248.717378 342.11901 
L 249.357405 337.498768 
L 249.997432 325.746908 
L 250.637459 287.934235 
L 251.277486 292.794574 
L 251.917513 267.40817 
L 252.55754 273.493493 
L 253.197567 342.531701 
L 253.837594 360.743224 
L 254.477621 394.801447 
L 255.117648 406.80665 
L 255.757675 427.714982 
L 256.397702 430.266104 
L 257.037729 431.864764 
L 257.677756 432.314229 
L 258.317783 433.240689 
L 258.95781 430.483846 
L 259.597837 431.005183 
L 260.237864 426.6524 
L 260.877891 415.387864 
L 261.517918 388.553821 
L 262.157945 370.92886 
L 262.797972 378.170947 
L 263.437999 381.981911 
L 264.078026 381.84896 
L 264.718053 393.651237 
L 265.35808 390.847668 
L 265.998107 372.797008 
L 266.638134 368.262642 
L 267.278161 371.402486 
L 267.918188 372.939143 
L 268.558215 395.989402 
L 269.198242 411.274406 
L 269.838269 415.629524 
L 270.478296 424.187225 
L 271.118323 427.580603 
L 271.75835 430.372615 
L 272.398377 432.039624 
L 273.038404 432.69103 
L 274.318458 431.942381 
L 274.958485 432.536873 
L 275.598512 427.233868 
L 276.238539 417.35699 
L 276.878566 397.236356 
L 277.518593 390.384126 
L 278.15862 395.240946 
L 278.798647 391.960411 
L 279.438674 394.563968 
L 280.078701 399.84825 
L 280.718728 398.212014 
L 281.358755 394.766649 
L 281.998782 394.646458 
L 282.638809 392.912554 
L 283.278836 396.124004 
L 283.918863 406.873445 
L 284.55889 415.477415 
L 285.198917 419.599104 
L 285.838944 425.393434 
L 286.478971 427.594982 
L 287.118998 432.091469 
L 287.759025 432.319784 
L 288.399052 431.654262 
L 289.679106 433.569359 
L 290.319133 429.016673 
L 290.95916 426.445514 
L 291.599187 408.675914 
L 292.239214 394.986684 
L 292.879241 395.481462 
L 293.519268 392.881564 
L 294.159295 394.319497 
L 294.799322 399.795852 
L 295.439349 402.281076 
L 296.079376 402.964673 
L 297.35943 400.305425 
L 297.999457 398.62755 
L 298.639484 401.668133 
L 299.279511 406.66113 
L 299.919538 416.448022 
L 300.559565 421.437497 
L 301.199592 421.233568 
L 301.839619 429.088922 
L 302.479646 432.419721 
L 303.119674 431.644583 
L 303.759701 426.634369 
L 304.399728 434.105562 
L 305.039755 432.565453 
L 305.679782 427.949805 
L 306.319809 417.454833 
L 306.959836 404.336041 
L 307.599863 385.043625 
L 308.23989 375.480995 
L 308.879917 361.844728 
L 310.159971 377.00428 
L 310.799998 386.656229 
L 311.440025 378.424523 
L 312.080052 379.683788 
L 312.720079 360.268541 
L 313.360106 365.542257 
L 314.000133 373.713113 
L 314.64016 398.6867 
L 315.280187 412.918421 
L 315.920214 418.303659 
L 316.560241 420.983676 
L 317.200268 431.915741 
L 317.840295 432.72341 
L 318.480322 434.384224 
L 319.120349 433.514027 
L 319.760376 434.393888 
L 320.400403 434.245406 
L 321.04043 430.092987 
L 321.680457 427.655325 
L 322.320484 419.172518 
L 323.600538 387.34765 
L 324.240565 388.966762 
L 324.880592 381.701306 
L 325.520619 397.359827 
L 326.160646 404.357496 
L 326.800673 401.483044 
L 327.4407 384.34956 
L 328.080727 377.033069 
L 328.720754 387.471731 
L 329.360781 394.348806 
L 330.000808 409.909152 
L 330.640835 416.152515 
L 331.280862 425.722806 
L 331.920889 428.501713 
L 332.560916 431.945266 
L 333.200943 432.921581 
L 333.84097 434.165686 
L 334.480997 434.708813 
L 335.121024 434.303083 
L 335.761051 434.231165 
L 336.401078 429.75682 
L 337.041105 428.867466 
L 337.681132 422.017898 
L 338.961186 391.8969 
L 339.601213 393.435015 
L 340.24124 383.065273 
L 340.881267 401.462944 
L 341.521294 406.807607 
L 342.161321 404.984642 
L 342.801348 386.554962 
L 343.441375 383.402182 
L 344.721429 400.185521 
L 345.361456 412.106609 
L 346.001483 416.878699 
L 346.64151 426.127534 
L 347.281537 428.721215 
L 347.921564 434.445186 
L 348.561591 433.447937 
L 349.201618 433.69433 
L 349.841645 434.710746 
L 350.481672 434.052291 
L 351.121699 434.24018 
L 351.761726 431.094306 
L 352.401753 430.683717 
L 353.04178 427.800007 
L 353.681807 423.672891 
L 354.961861 417.976847 
L 355.601888 414.396493 
L 356.241915 422.518993 
L 357.521969 421.572409 
L 358.802023 415.406487 
L 359.44205 419.625887 
L 360.082077 420.555574 
L 360.722104 425.047288 
L 361.362131 427.823638 
L 362.002158 431.821538 
L 362.642185 432.990488 
L 363.282212 432.797055 
L 363.922239 433.424537 
L 364.562266 433.023917 
L 365.202293 432.981897 
L 365.84232 433.588775 
L 366.482347 431.396194 
L 367.122374 432.541592 
L 367.762401 430.299389 
L 368.402428 429.409946 
L 369.042455 424.51527 
L 369.682482 420.549746 
L 370.322509 417.915026 
L 370.962536 420.493887 
L 371.602563 426.797939 
L 372.24259 427.8352 
L 372.882617 427.187283 
L 373.522644 426.128796 
L 374.162671 421.72524 
L 374.802698 423.592233 
L 375.442725 422.834905 
L 376.082752 427.455209 
L 376.722779 431.077119 
L 377.362806 432.382552 
L 378.002833 433.359271 
L 378.64286 427.646215 
L 379.282887 431.10269 
L 379.922914 432.684405 
L 380.562941 431.624237 
L 381.202968 431.93117 
L 381.842995 432.04823 
L 382.483022 429.301238 
L 383.123049 424.600592 
L 383.763076 423.5219 
L 384.403103 410.845401 
L 385.04313 410.125743 
L 385.683157 402.279597 
L 386.323184 407.838993 
L 386.963211 422.460363 
L 387.603238 418.594635 
L 388.243265 416.440089 
L 388.883292 418.455769 
L 389.52332 415.924107 
L 390.163347 415.527492 
L 390.803374 413.328383 
L 391.443401 422.98829 
L 392.083428 425.750069 
L 392.723455 431.847199 
L 393.363482 431.304292 
L 394.003509 427.016823 
L 394.643536 430.161537 
L 395.283563 431.802257 
L 395.92359 430.821091 
L 396.563617 430.941571 
L 397.203644 432.462911 
L 399.123725 418.850736 
L 399.763752 396.913631 
L 400.403779 393.484002 
L 401.043806 388.025803 
L 401.683833 396.924699 
L 402.32386 415.71127 
L 402.963887 409.010397 
L 403.603914 405.475449 
L 404.243941 408.338633 
L 404.883968 403.365582 
L 406.164022 408.41133 
L 406.804049 416.358466 
L 407.444076 421.030894 
L 408.084103 430.547474 
L 408.72413 429.693342 
L 409.364157 434.453416 
L 410.004184 434.211595 
L 411.284238 435.286526 
L 411.924265 435.499261 
L 412.564292 434.914231 
L 413.204319 433.930009 
L 413.844346 432.187746 
L 414.484373 431.797064 
L 415.1244 426.034313 
L 415.764427 414.604902 
L 416.404454 412.037927 
L 417.044481 420.99335 
L 417.684508 420.798549 
L 418.324535 424.883377 
L 418.964562 425.202776 
L 419.604589 424.281383 
L 420.244616 419.687003 
L 420.884643 420.944316 
L 421.52467 421.268273 
L 422.164697 426.363575 
L 424.084778 433.367834 
L 424.724805 434.427104 
L 425.364832 434.215048 
L 426.004859 434.971294 
L 426.644886 435.092184 
L 427.284913 435.413672 
L 427.92494 434.879899 
L 428.564967 434.048083 
L 429.204994 432.604192 
L 429.845021 430.343541 
L 430.485048 426.092795 
L 431.125075 416.82126 
L 431.765102 413.2798 
L 432.405129 421.706696 
L 433.045156 421.638617 
L 433.685183 425.291562 
L 434.32521 425.664387 
L 434.965237 424.929717 
L 435.605264 420.228969 
L 436.245291 421.759459 
L 436.885318 421.3249 
L 437.525345 427.08836 
L 438.165372 429.371946 
L 438.805399 430.934944 
L 439.445426 433.612044 
L 440.085453 434.079369 
L 440.72548 434.258231 
L 441.365507 434.74528 
L 442.005534 434.463972 
L 442.645561 435.222801 
L 443.285588 434.869998 
L 443.925615 434.192091 
L 444.565642 432.751748 
L 445.205669 428.489284 
L 445.845696 425.265019 
L 447.12575 415.561343 
L 447.765777 421.433242 
L 449.045831 424.941669 
L 450.325885 423.747908 
L 450.965912 421.490513 
L 451.605939 422.699666 
L 452.245966 422.517549 
L 452.885993 427.475285 
L 453.52602 429.993079 
L 454.166047 430.260185 
L 454.806074 433.3207 
L 455.446101 434.22651 
L 456.086128 434.209373 
L 456.726155 434.602653 
L 457.366182 434.613252 
L 458.006209 434.767012 
L 458.646236 434.238687 
L 459.286263 434.258515 
L 459.92629 431.823628 
L 460.566317 428.623512 
L 461.206344 421.925176 
L 462.486398 417.480823 
L 463.126425 418.721036 
L 463.766452 419.432126 
L 464.406479 422.146462 
L 465.046506 423.09721 
L 465.686533 421.278151 
L 466.32656 420.125449 
L 468.246641 425.071327 
L 469.526695 431.464788 
L 470.166722 432.727965 
L 470.806749 433.579321 
L 472.086803 433.869375 
L 472.72683 434.179917 
L 473.366857 435.017904 
L 474.006884 432.979344 
L 474.646911 433.364852 
L 475.286938 430.999581 
L 475.926965 426.955721 
L 476.566993 415.961629 
L 477.20702 414.613588 
L 477.847047 412.177162 
L 478.487074 412.521552 
L 479.127101 413.124668 
L 479.767128 417.520312 
L 480.407155 416.626196 
L 481.047182 414.086731 
L 481.687209 414.104339 
L 482.327236 416.600548 
L 482.967263 415.988419 
L 483.60729 420.42014 
L 484.887344 431.478346 
L 485.527371 431.130986 
L 486.167398 433.521502 
L 486.807425 433.752283 
L 487.447452 433.789507 
L 488.087479 434.120566 
L 488.727506 435.103754 
L 489.367533 433.006754 
L 490.00756 433.273466 
L 490.647587 431.202031 
L 491.287614 427.149506 
L 491.927641 416.018195 
L 492.567668 414.625297 
L 493.207695 412.423073 
L 493.847722 412.720929 
L 494.487749 413.706664 
L 495.127776 417.289865 
L 495.767803 417.188763 
L 496.40783 414.050934 
L 497.047857 413.78929 
L 497.687884 415.880596 
L 498.327911 415.715276 
L 500.247992 431.627806 
L 500.888019 431.108339 
L 501.528046 433.035953 
L 502.168073 433.629272 
L 502.8081 433.792743 
L 503.448127 434.107303 
L 504.088154 434.763967 
L 504.728181 433.146999 
L 505.368208 433.34049 
L 506.008235 430.440673 
L 506.648262 424.9099 
L 507.288289 412.912229 
L 507.928316 411.005594 
L 508.568343 408.734103 
L 509.848397 412.178518 
L 510.488424 416.174857 
L 511.128451 413.849402 
L 511.768478 409.780536 
L 512.408505 411.0814 
L 513.048532 410.221385 
L 513.688559 413.617195 
L 514.328586 417.676941 
L 515.60864 430.459406 
L 516.248667 430.335389 
L 517.528721 432.328934 
L 518.168748 432.085653 
L 518.808775 433.172438 
L 519.448802 433.149401 
L 520.088829 432.646452 
L 520.728856 431.655407 
L 521.368883 426.174426 
L 523.288964 382.784905 
L 523.928991 382.716217 
L 524.569018 397.453206 
L 525.849072 405.654614 
L 526.489099 392.632853 
L 527.129126 393.242941 
L 527.769153 397.534448 
L 528.40918 383.18178 
L 529.689234 401.93798 
L 530.329261 414.791515 
L 530.969288 424.632257 
L 531.609315 425.889269 
L 532.249342 429.292691 
L 532.889369 430.591459 
L 533.529396 432.452542 
L 534.169423 432.739771 
L 534.80945 433.395792 
L 536.089504 431.006058 
L 536.729531 424.871571 
L 538.649612 370.723026 
L 539.289639 364.772991 
L 539.929666 379.813308 
L 540.569693 391.872225 
L 541.20972 392.566356 
L 541.849747 382.601916 
L 542.489774 384.929319 
L 543.129801 384.234024 
L 543.769828 364.163264 
L 545.689909 411.213237 
L 546.329936 421.820424 
L 546.969963 423.192942 
L 547.60999 415.134874 
L 548.890044 425.981756 
L 549.530071 429.019345 
L 550.810125 427.45228 
L 551.450152 423.913893 
L 552.090179 395.974297 
L 553.370233 309.014535 
L 554.01026 237.17088 
L 554.650287 244.438006 
L 555.290314 300.090821 
L 555.930341 306.599665 
L 556.570368 322.668533 
L 557.210395 312.505577 
L 557.850422 295.407957 
L 558.490449 282.791279 
L 559.130476 286.330543 
L 559.770503 278.772993 
L 560.41053 288.465819 
L 561.050557 356.36062 
L 561.690584 385.917541 
L 562.330611 394.160931 
L 562.970639 413.866219 
L 563.610666 415.202773 
L 564.250693 421.608355 
L 564.89072 425.409052 
L 565.530747 421.829946 
L 566.170774 425.120994 
L 566.810801 422.169249 
L 567.450828 402.321576 
L 568.090855 351.170698 
L 569.370909 234.048373 
L 570.010936 235.426697 
L 570.650963 272.297761 
L 571.29099 281.929112 
L 571.931017 323.238781 
L 572.571044 307.485989 
L 573.211071 307.703221 
L 573.851098 263.215719 
L 574.491125 259.054184 
L 575.131152 296.918732 
L 575.771179 326.352218 
L 576.411206 372.453303 
L 577.051233 391.823105 
L 577.69126 402.474067 
L 578.331287 424.353661 
L 578.971314 425.345442 
L 579.611341 430.512688 
L 580.251368 431.106498 
L 581.531422 428.906206 
L 582.171449 428.838303 
L 582.811476 422.150449 
L 583.451503 392.098343 
L 584.09153 346.434328 
L 584.731557 328.27698 
L 586.011611 347.686988 
L 586.651638 360.840438 
L 587.291665 362.308119 
L 587.931692 366.273159 
L 588.571719 361.829417 
L 589.211746 345.236169 
L 589.851773 335.114408 
L 590.4918 371.517583 
L 591.131827 388.370829 
L 592.411881 410.583587 
L 593.051908 420.240613 
L 593.691935 421.267552 
L 594.331962 428.184209 
L 594.971989 430.131306 
L 595.612016 429.784447 
L 596.252043 428.533328 
L 596.89207 431.688207 
L 597.532097 427.955952 
L 598.172124 415.371103 
L 598.812151 389.243696 
L 599.452178 340.612017 
L 600.092205 326.982343 
L 600.732232 325.955959 
L 601.372259 334.338765 
L 602.012286 361.405533 
L 602.652313 354.796169 
L 603.29234 350.015814 
L 603.932367 330.260379 
L 604.572394 324.757417 
L 605.212421 332.162997 
L 605.852448 348.304402 
L 607.132502 394.18426 
L 608.412556 410.148211 
L 609.052583 417.157323 
L 609.69261 419.026942 
L 610.332637 431.214474 
L 610.972664 428.57907 
L 611.612691 430.372738 
L 612.252718 430.173052 
L 612.892745 424.760819 
L 613.532772 416.679029 
L 614.172799 385.570071 
L 614.812826 344.124673 
L 615.452853 322.924786 
L 616.09288 321.608866 
L 616.732907 313.338852 
L 617.372934 348.369612 
L 618.012961 345.643961 
L 618.652988 345.273721 
L 619.293015 310.894168 
L 619.933042 298.720905 
L 620.573069 303.224093 
L 621.213096 324.011604 
L 622.49315 391.143403 
L 623.773204 410.099821 
L 624.413231 426.695496 
L 625.693285 432.133394 
L 626.333312 433.937878 
L 626.973339 431.227553 
L 627.613366 431.012542 
L 628.253393 430.293445 
L 628.89342 429.061859 
L 629.533447 420.722244 
L 630.173474 409.456773 
L 630.813501 400.196125 
L 631.453528 396.072149 
L 632.733582 407.602253 
L 633.373609 403.906498 
L 634.013636 401.353083 
L 634.653663 406.516488 
L 635.29369 402.047567 
L 635.933717 399.307972 
L 636.573744 409.365159 
L 637.213771 410.832154 
L 638.493825 430.039327 
L 639.133852 429.842238 
L 640.413906 430.725363 
L 641.053933 434.014805 
L 641.69396 433.815568 
L 642.333987 432.606636 
L 643.614041 431.880558 
L 644.254068 428.816537 
L 646.174149 403.310834 
L 646.814176 403.681562 
L 647.454203 393.986534 
L 648.09423 410.635692 
L 648.734257 408.444587 
L 649.374285 407.835409 
L 650.014312 406.566046 
L 650.654339 398.716936 
L 651.934393 407.786762 
L 652.57442 417.321697 
L 653.854474 429.208177 
L 654.494501 429.798532 
L 655.134528 432.90674 
L 655.774555 430.507076 
L 656.414582 433.244627 
L 657.054609 434.144238 
L 657.694636 432.131928 
L 658.97469 430.544176 
L 659.614717 428.748075 
L 660.894771 421.478135 
L 661.534798 413.970605 
L 662.174825 412.883878 
L 662.814852 409.179211 
L 663.454879 422.246084 
L 664.094906 422.691376 
L 664.734933 419.199818 
L 665.37496 423.594414 
L 666.014987 419.67761 
L 666.655014 420.076378 
L 667.295041 420.249236 
L 667.935068 427.01949 
L 668.575095 431.235787 
L 669.855149 431.388188 
L 670.495176 432.626553 
L 671.135203 434.465505 
L 671.77523 434.194971 
L 672.415257 433.143446 
L 673.055284 434.834579 
L 673.695311 431.821388 
L 674.335338 433.304485 
L 674.975365 430.70184 
L 675.615392 429.902493 
L 676.255419 425.06896 
L 676.895446 421.306667 
L 677.535473 421.11226 
L 678.1755 422.602151 
L 678.815527 428.878254 
L 679.455554 429.360066 
L 680.095581 428.111361 
L 680.735608 428.243272 
L 681.375635 421.567762 
L 682.015662 424.583284 
L 682.655689 422.015576 
L 683.295716 427.902587 
L 683.935743 431.165629 
L 685.215797 432.603219 
L 685.855824 431.363471 
L 686.495851 433.911439 
L 687.135878 433.202834 
L 687.775905 433.449162 
L 688.415932 435.227008 
L 689.055959 433.117661 
L 689.695986 433.040721 
L 690.336013 429.116341 
L 690.97604 422.712684 
L 691.616067 412.551167 
L 692.256094 405.80865 
L 692.896121 408.764557 
L 693.536148 407.838305 
L 694.176175 418.848948 
L 694.816202 417.791842 
L 695.456229 417.918509 
L 696.096256 412.483363 
L 696.736283 405.947832 
L 697.37631 416.923982 
L 698.016337 413.206241 
L 699.296391 426.07823 
L 699.936418 429.550298 
L 700.576445 431.08132 
L 701.216472 431.272823 
L 701.856499 432.52921 
L 702.496526 432.54851 
L 703.136553 430.676355 
L 703.77658 432.384841 
L 705.056634 430.629949 
L 705.696661 426.894504 
L 706.336688 416.409777 
L 706.976715 400.56842 
L 707.616742 374.200494 
L 708.256769 372.184633 
L 708.896796 384.319899 
L 709.536823 389.545191 
L 710.17685 391.363481 
L 710.816877 384.195942 
L 711.456904 354.17755 
L 712.096931 359.840715 
L 712.736958 360.588896 
L 713.376985 384.270882 
L 714.017012 395.235716 
L 714.657039 414.177196 
L 715.297066 423.569939 
L 715.937093 427.888594 
L 716.57712 434.373878 
L 717.217147 434.191643 
L 717.857174 434.964373 
L 718.497201 434.578664 
L 719.137228 435.071616 
L 719.777255 434.920655 
L 720.417282 434.13468 
L 721.057309 432.749651 
L 721.697336 430.059616 
L 722.337363 424.10617 
L 722.97739 416.598455 
L 723.617417 414.200467 
L 724.257444 420.654603 
L 724.897471 423.23772 
L 725.537498 424.481501 
L 726.177525 425.225306 
L 726.817552 423.269013 
L 727.457579 420.214102 
L 728.097606 421.975265 
L 728.737633 422.735747 
L 729.37766 426.675039 
L 730.017687 429.248511 
L 730.657714 430.192325 
L 731.297741 432.73336 
L 731.937768 434.366026 
L 732.577795 434.205474 
L 733.217822 434.963275 
L 733.857849 433.84097 
L 734.497876 434.820823 
L 735.137903 434.940128 
L 735.77793 434.293118 
L 736.417958 433.282045 
L 737.057985 429.152635 
L 737.698012 423.394584 
L 738.338039 420.316504 
L 738.978066 418.167531 
L 739.618093 420.239669 
L 740.25812 426.055473 
L 740.898147 424.010387 
L 741.538174 425.051101 
L 742.178201 422.943601 
L 742.818228 421.740916 
L 743.458255 423.33167 
L 744.098282 424.494891 
L 745.378336 430.854613 
L 746.018363 430.37595 
L 747.298417 434.0085 
L 747.938444 433.593829 
L 748.578471 434.704941 
L 749.218498 433.361336 
L 749.858525 434.502709 
L 750.498552 434.773042 
L 751.138579 433.954912 
L 751.778606 432.810183 
L 752.418633 427.101523 
L 753.05866 419.817461 
L 753.698687 415.272662 
L 754.338714 412.079 
L 754.978741 414.786034 
L 755.618768 421.801013 
L 756.258795 419.766979 
L 756.898822 421.202633 
L 757.538849 418.728148 
L 758.178876 415.550178 
L 758.818903 418.316673 
L 759.45893 419.998733 
L 760.098957 425.340583 
L 760.738984 429.331692 
L 761.379011 428.521538 
L 762.659065 433.566745 
L 763.299092 433.936405 
L 763.939119 434.637857 
L 764.579146 434.418725 
L 765.219173 434.682769 
L 765.8592 433.924667 
L 766.499227 433.605398 
L 767.139254 432.582928 
L 767.779281 427.532101 
L 768.419308 419.385397 
L 769.059335 416.072693 
L 769.699362 413.418263 
L 770.339389 413.744276 
L 770.979416 418.80535 
L 771.619443 418.911636 
L 772.25947 419.794537 
L 772.899497 417.255846 
L 773.539524 417.527619 
L 774.819578 420.385484 
L 776.099632 428.794593 
L 777.379686 432.26341 
L 778.019713 433.261445 
L 778.65974 433.979178 
L 779.299767 434.397475 
L 779.939794 435.01325 
L 780.579821 434.975234 
L 781.219848 433.692178 
L 781.859875 434.04466 
L 782.499902 432.000655 
L 783.139929 427.235167 
L 783.779956 419.301254 
L 784.419983 419.654792 
L 785.06001 414.504731 
L 785.700037 415.951966 
L 786.340064 419.247241 
L 787.620118 421.112321 
L 788.260145 416.529373 
L 788.900172 417.035564 
L 789.540199 419.399627 
L 790.180226 420.486854 
L 791.46028 427.064721 
L 792.100307 431.493143 
L 793.380361 433.560907 
L 794.660415 434.525085 
L 795.300442 434.811667 
L 795.940469 434.54384 
L 796.580496 433.933266 
L 797.220523 434.038311 
L 797.86055 432.10039 
L 798.500577 427.597667 
L 799.140604 419.416745 
L 799.780631 420.354081 
L 800.420658 414.016834 
L 801.060685 419.359387 
L 801.700712 420.676278 
L 802.340739 422.884575 
L 802.980766 421.118494 
L 803.620793 417.454885 
L 804.26082 418.136317 
L 805.540874 421.178376 
L 806.180901 425.155468 
L 807.460955 431.323468 
L 808.100982 432.725011 
L 808.741009 432.341932 
L 810.021063 433.78543 
L 811.301117 434.302854 
L 811.941144 433.795062 
L 812.581171 433.45288 
L 813.221198 429.52055 
L 814.501252 412.272843 
L 815.781306 403.47635 
L 816.421333 408.756297 
L 817.701387 416.000568 
L 818.341414 409.939216 
L 818.981441 410.325775 
L 819.621468 411.23927 
L 820.261495 408.613534 
L 820.901522 410.249854 
L 821.541549 415.098518 
L 822.181576 422.659391 
L 822.821604 428.553923 
L 823.461631 429.587856 
L 824.101658 429.268993 
L 824.741685 430.138961 
L 825.381712 431.775731 
L 826.661766 432.051973 
L 827.301793 431.223501 
L 827.94182 430.939703 
L 828.581847 426.151274 
L 830.501928 374.624411 
L 831.141955 369.809351 
L 831.781982 383.162267 
L 832.422009 393.839978 
L 833.062036 396.655845 
L 833.702063 386.632371 
L 834.34209 381.699697 
L 834.982117 382.87574 
L 835.622144 371.610713 
L 836.262171 386.529087 
L 836.902198 394.967256 
L 838.182252 420.583185 
L 838.822279 423.675028 
L 839.462306 422.045043 
L 840.74236 432.355954 
L 841.382387 430.151299 
L 842.022414 431.511396 
L 842.662441 429.490291 
L 843.302468 428.59834 
L 843.942495 424.885345 
L 845.222549 379.233872 
L 846.502603 359.178366 
L 847.14263 363.243924 
L 847.782657 378.48455 
L 848.422684 383.061916 
L 849.062711 380.840551 
L 849.702738 375.741094 
L 850.982792 355.836581 
L 851.622819 375.81555 
L 852.262846 386.168033 
L 852.902873 405.38012 
L 853.5429 415.882931 
L 854.182927 420.742614 
L 854.822954 399.508217 
L 855.462981 413.532561 
L 856.103008 420.308042 
L 856.743035 423.123147 
L 857.383062 419.102316 
L 858.023089 417.327367 
L 858.663116 410.408901 
L 859.303143 369.461277 
L 859.94317 286.442512 
L 860.583197 223.63252 
L 861.223224 52.059489 
L 861.863251 90.721416 
L 862.503278 161.613478 
L 863.143305 177.946618 
L 863.783332 228.771019 
L 864.423359 237.87949 
L 865.063386 219.637473 
L 865.703413 155.546719 
L 866.34344 135.712272 
L 866.983467 203.337272 
L 867.623494 197.426932 
L 868.263521 285.62772 
L 868.903548 345.20447 
L 869.543575 359.079114 
L 870.183602 394.718492 
L 870.823629 407.452992 
L 871.463656 416.479893 
L 872.103683 421.121803 
L 872.74371 416.373687 
L 873.383737 418.234261 
L 874.023764 408.121658 
L 874.663791 376.166515 
L 875.943845 222.280752 
L 876.583872 145.270262 
L 877.223899 145.135379 
L 877.863926 159.752426 
L 879.14398 252.306115 
L 879.784007 242.329135 
L 880.424034 225.326707 
L 881.064061 169.690152 
L 881.704088 194.566613 
L 882.344115 208.760209 
L 882.984142 240.844906 
L 883.624169 326.913389 
L 884.264196 367.46322 
L 884.904223 379.003866 
L 885.54425 421.28924 
L 886.184277 423.2251 
L 886.824304 425.897961 
L 887.464331 427.714245 
L 888.104358 428.622312 
L 888.744385 428.315128 
L 889.384412 426.491398 
L 890.024439 409.73589 
L 890.664466 372.157912 
L 891.304493 322.968086 
L 891.94452 294.463912 
L 892.584547 320.002596 
L 893.224574 287.350978 
L 893.864601 313.844984 
L 894.504628 332.003722 
L 895.144655 335.776309 
L 895.784682 318.663234 
L 896.424709 307.014775 
L 897.064736 287.92569 
L 898.34479 363.824824 
L 898.984817 379.345269 
L 899.624844 392.041471 
L 900.264871 415.428262 
L 900.904898 423.687975 
L 901.544925 428.323485 
L 902.184952 430.657219 
L 902.824979 430.203243 
L 903.465006 431.042556 
L 904.74506 428.286239 
L 905.385087 412.682899 
L 906.025114 383.2452 
L 906.665141 337.94642 
L 907.945195 319.184676 
L 908.585222 333.522677 
L 909.22525 363.732974 
L 909.865277 360.711759 
L 910.505304 356.69969 
L 911.145331 332.879815 
L 911.785358 334.493572 
L 912.425385 332.62611 
L 913.065412 346.854007 
L 914.345466 395.170467 
L 914.985493 398.713902 
L 915.62552 409.548734 
L 916.265547 423.586511 
L 916.905574 427.035494 
L 917.545601 432.7527 
L 918.185628 429.266282 
L 918.825655 430.784541 
L 919.465682 427.548904 
L 920.105709 427.893861 
L 921.385763 380.996452 
L 922.02579 331.645083 
L 922.665817 320.133296 
L 923.305844 280.67266 
L 923.945871 301.99644 
L 924.585898 342.547717 
L 925.225925 355.804567 
L 925.865952 352.085235 
L 926.505979 316.245103 
L 927.146006 338.009884 
L 927.786033 309.839612 
L 929.706114 383.71626 
L 930.346141 395.568927 
L 930.986168 409.550474 
L 931.626195 428.575224 
L 932.266222 430.604188 
L 932.906249 431.299213 
L 933.546276 433.698649 
L 934.186303 433.374785 
L 934.82633 429.102927 
L 935.466357 426.714264 
L 936.106384 427.385559 
L 938.026465 384.573085 
L 938.666492 382.508626 
L 939.946546 395.227498 
L 940.586573 395.05106 
L 941.2266 403.482418 
L 942.506654 391.852279 
L 943.146681 388.432455 
L 943.786708 397.793624 
L 944.426735 404.506775 
L 945.066762 418.975553 
L 945.706789 425.675493 
L 946.346816 424.332784 
L 946.986843 430.690512 
L 947.62687 430.066417 
L 948.266897 433.775999 
L 949.546951 431.018742 
L 950.186978 432.1695 
L 950.827005 430.696946 
L 951.467032 426.319916 
L 952.747086 410.869476 
L 953.387113 404.139347 
L 954.02714 405.072809 
L 954.667167 396.766216 
L 955.307194 407.547514 
L 955.947221 411.33242 
L 956.587248 407.422705 
L 957.227275 411.024443 
L 957.867302 404.507527 
L 959.147356 411.170482 
L 959.787383 418.134201 
L 960.42741 423.222345 
L 961.067437 429.730081 
L 961.707464 428.745091 
L 962.347491 426.890268 
L 962.987518 425.846938 
L 963.627545 430.022938 
L 964.267572 426.417725 
L 964.907599 427.76427 
L 965.547626 428.362169 
L 966.187653 428.09501 
L 966.82768 423.888411 
L 968.107734 403.29133 
L 968.747761 389.997813 
L 969.387788 383.280275 
L 970.027815 387.398237 
L 970.667842 405.349866 
L 971.947896 402.959771 
L 972.587923 391.059265 
L 973.22795 393.823597 
L 973.867977 397.355234 
L 974.508004 406.160254 
L 975.148031 418.67486 
L 976.428085 430.797511 
L 977.068112 428.51603 
L 977.708139 414.659565 
L 978.348166 417.371613 
L 978.988193 418.481533 
L 979.62822 421.367773 
L 980.268247 421.595238 
L 980.908274 421.273386 
L 981.548301 423.771938 
L 982.188328 420.868331 
L 982.828355 411.946641 
L 983.468382 396.101194 
L 984.108409 384.976379 
L 984.748436 378.785978 
L 986.02849 405.071433 
L 986.668517 400.501896 
L 987.308544 401.606415 
L 987.948571 368.672859 
L 988.588598 378.755428 
L 989.228625 383.161722 
L 989.868652 398.765413 
L 991.788733 428.520554 
L 992.42876 427.826636 
L 993.068787 428.949661 
L 993.708814 431.716126 
L 994.348841 432.528163 
L 994.988868 432.200309 
L 995.628896 433.939909 
L 996.268923 432.494159 
L 996.90895 431.929696 
L 997.548977 423.514308 
L 998.189004 406.831778 
L 998.829031 383.501733 
L 999.469058 372.932247 
L 1000.749112 380.066758 
L 1001.389139 395.694674 
L 1002.029166 396.689143 
L 1002.669193 393.33944 
L 1003.949247 371.405329 
L 1004.589274 395.841429 
L 1005.229301 391.225027 
L 1005.869328 399.293853 
L 1006.509355 413.241298 
L 1007.149382 422.21151 
L 1007.789409 425.363503 
L 1008.429436 426.227993 
L 1009.069463 431.694208 
L 1009.70949 430.278785 
L 1010.349517 428.182379 
L 1010.989544 427.829674 
L 1011.629571 428.765106 
L 1012.269598 427.20422 
L 1012.909625 419.862915 
L 1013.549652 397.984154 
L 1014.189679 368.185345 
L 1014.829706 319.646814 
L 1015.469733 309.142012 
L 1016.10976 330.268306 
L 1016.749787 324.820872 
L 1017.389814 355.603919 
L 1018.029841 332.003561 
L 1018.669868 257.594717 
L 1019.309895 281.135583 
L 1019.949922 290.249543 
L 1020.589949 323.047173 
L 1021.229976 343.31519 
L 1021.870003 386.488148 
L 1022.51003 408.129925 
L 1023.150057 418.855772 
L 1023.150057 418.855772 
" style="fill:none;stroke:#1f77b4;stroke-linecap:square;stroke-width:1.5;"/>
   </g>
   <g id="patch_3">
    <path d="M 56.10125 454.67125 
L 56.10125 32.8875 
" style="fill:none;stroke:#000000;stroke-linecap:square;stroke-linejoin:miter;stroke-width:0.8;"/>
   </g>
   <g id="patch_4">
    <path d="M 1069.2 454.67125 
L 1069.2 32.8875 
" style="fill:none;stroke:#000000;stroke-linecap:square;stroke-linejoin:miter;stroke-width:0.8;"/>
   </g>
   <g id="patch_5">
    <path d="M 56.10125 454.67125 
L 1069.2 454.67125 
" style="fill:none;stroke:#000000;stroke-linecap:square;stroke-linejoin:miter;stroke-width:0.8;"/>
   </g>
   <g id="patch_6">
    <path d="M 56.10125 32.8875 
L 1069.2 32.8875 
" style="fill:none;stroke:#000000;stroke-linecap:square;stroke-linejoin:miter;stroke-width:0.8;"/>
   </g>
   <g id="text_21">
    <!-- 60天内的流量变化 ID=100 -->
    <defs>
     <path d="M 69.921875 76.5625 
Q 76.953125 76.5625 83.984375 76.953125 
L 83.984375 68.75 
Q 76.953125 69.140625 69.921875 69.140625 
L 53.90625 69.140625 
L 53.90625 48.046875 
L 78.90625 48.046875 
Q 86.328125 48.046875 92.1875 48.4375 
L 92.1875 40.234375 
Q 86.71875 40.625 79.296875 40.625 
L 55.078125 40.625 
Q 60.546875 25.78125 70.703125 15.234375 
Q 80.859375 4.6875 96.875 0.78125 
Q 91.40625 -3.515625 90.234375 -7.03125 
Q 78.125 -2.734375 67.96875 6.4375 
Q 57.8125 15.625 50.390625 32.8125 
Q 45.703125 16.796875 35.546875 7.21875 
Q 25.390625 -2.34375 10.15625 -8.984375 
Q 8.59375 -5.078125 3.515625 -1.5625 
Q 14.84375 1.5625 27.34375 11.515625 
Q 39.84375 21.484375 44.921875 40.625 
L 23.4375 40.625 
Q 14.84375 40.625 8.984375 40.234375 
L 8.984375 48.4375 
Q 15.234375 48.046875 23.4375 48.046875 
L 46.09375 48.046875 
L 46.09375 69.140625 
L 29.6875 69.140625 
Q 21.484375 69.140625 15.625 68.75 
L 15.625 76.953125 
Q 21.875 76.5625 29.6875 76.5625 
z
" id="SimHei-22825"/>
     <path d="M 22.265625 20.3125 
Q 33.984375 28.515625 39.640625 37.109375 
Q 45.3125 45.703125 45.703125 58.59375 
L 19.140625 58.59375 
L 19.140625 -7.8125 
L 10.15625 -7.8125 
Q 10.9375 0 10.9375 5.46875 
L 10.9375 48.828125 
Q 10.9375 56.640625 10.546875 65.234375 
L 46.09375 65.234375 
Q 46.09375 75.78125 45.703125 80.859375 
Q 51.953125 80.46875 55.46875 80.46875 
Q 53.515625 75.390625 53.515625 65.234375 
L 90.234375 65.234375 
Q 89.453125 57.03125 89.453125 48.828125 
L 89.453125 1.171875 
Q 89.453125 -4.6875 84.765625 -6.046875 
Q 80.078125 -7.421875 71.875 -8.59375 
Q 70.703125 -4.6875 66.40625 0 
Q 75.78125 0 78.515625 0.578125 
Q 81.25 1.171875 81.25 4.296875 
L 81.25 58.59375 
L 53.125 58.59375 
Q 53.125 51.5625 51.953125 44.921875 
Q 55.46875 42.1875 64.453125 35.34375 
Q 73.4375 28.515625 77.34375 24.609375 
Q 73.046875 21.09375 70.703125 18.359375 
Q 64.0625 26.171875 49.609375 37.890625 
Q 42.578125 25.78125 31.25 15.234375 
Q 26.5625 19.140625 22.265625 20.3125 
z
" id="SimHei-20869"/>
     <path d="M 32.8125 77.734375 
Q 30.859375 74.21875 27.34375 61.71875 
L 44.921875 61.71875 
Q 44.53125 55.078125 44.53125 44.921875 
L 44.53125 10.546875 
Q 44.53125 4.6875 44.921875 -6.25 
L 37.109375 -6.25 
L 37.109375 1.5625 
L 17.1875 1.5625 
L 17.1875 -7.03125 
L 9.375 -7.03125 
Q 9.765625 5.46875 9.765625 8.59375 
L 9.765625 44.53125 
Q 9.765625 55.078125 9.375 61.71875 
L 20.703125 61.71875 
Q 22.65625 70.703125 23.828125 80.46875 
Q 29.296875 78.515625 32.8125 77.734375 
z
M 91.015625 48.046875 
Q 90.625 24.21875 89.0625 2.734375 
Q 88.28125 -4.296875 81.640625 -6.640625 
Q 75 -8.984375 66.796875 -9.765625 
Q 66.40625 -5.46875 63.28125 -0.78125 
Q 71.09375 -1.171875 75.578125 -0.390625 
Q 80.078125 0.390625 81.25 3.125 
Q 82.421875 5.859375 83 19.140625 
Q 83.59375 32.421875 83.984375 56.25 
L 61.328125 56.25 
Q 58.203125 48.828125 52.34375 38.671875 
Q 49.609375 41.40625 45.703125 42.96875 
Q 49.21875 47.65625 52.34375 54.296875 
Q 55.46875 60.9375 57.8125 68.75 
Q 60.15625 76.5625 60.546875 80.859375 
Q 66.015625 78.515625 69.921875 77.34375 
Q 67.96875 74.21875 66.59375 70.5 
Q 65.234375 66.796875 63.671875 63.28125 
L 91.40625 63.28125 
Q 91.015625 55.078125 91.015625 48.046875 
z
M 37.109375 8.203125 
L 37.109375 28.90625 
L 17.1875 28.90625 
L 17.1875 8.203125 
z
M 37.109375 35.546875 
L 37.109375 55.078125 
L 17.1875 55.078125 
L 17.1875 35.546875 
z
M 67.96875 32.03125 
Q 70.3125 27.34375 73.4375 19.921875 
Q 70.703125 18.75 66.015625 16.015625 
Q 63.28125 23.4375 60.9375 28.703125 
Q 58.59375 33.984375 56.25 37.5 
Q 58.984375 39.0625 63.28125 41.40625 
z
" id="SimHei-30340"/>
     <path d="M 81.25 30.859375 
Q 77.34375 25 70.890625 17.765625 
Q 64.453125 10.546875 57.421875 5.859375 
Q 61.328125 3.515625 71.875 1.359375 
Q 82.421875 -0.78125 93.75 -1.171875 
Q 89.0625 -6.25 88.28125 -9.765625 
Q 75.78125 -8.203125 65.8125 -4.875 
Q 55.859375 -1.5625 50.390625 1.953125 
Q 43.75 -1.953125 33.59375 -5.078125 
Q 23.4375 -8.203125 10.9375 -10.546875 
Q 9.375 -6.640625 6.25 -2.734375 
Q 14.84375 -2.34375 26.359375 0.1875 
Q 37.890625 2.734375 44.140625 5.859375 
Q 35.546875 12.109375 26.171875 24.609375 
Q 21.09375 24.609375 15.625 24.21875 
L 15.625 31.25 
Q 22.65625 30.859375 32.421875 30.859375 
z
M 50.390625 82.421875 
Q 53.125 76.5625 55.46875 69.921875 
L 73.046875 69.921875 
Q 84.375 69.921875 93.359375 70.3125 
L 93.359375 62.890625 
Q 83.984375 63.28125 73.828125 63.28125 
L 64.453125 63.28125 
L 64.453125 46.09375 
Q 64.453125 39.84375 64.84375 33.59375 
L 56.25 33.59375 
Q 56.640625 39.84375 56.640625 46.09375 
L 56.640625 63.28125 
L 42.96875 63.28125 
L 42.96875 46.09375 
Q 42.96875 41.796875 43.359375 33.59375 
L 34.765625 33.59375 
Q 35.15625 41.796875 35.15625 46.09375 
L 35.15625 63.28125 
L 26.5625 63.28125 
Q 15.234375 63.28125 6.640625 62.890625 
L 6.640625 70.3125 
Q 14.84375 69.921875 26.5625 69.921875 
L 46.484375 69.921875 
Q 45.703125 73.046875 42.1875 80.078125 
Q 46.09375 80.46875 50.390625 82.421875 
z
M 34.375 24.609375 
Q 41.40625 15.234375 50.78125 9.375 
Q 60.15625 15.625 66.796875 24.609375 
L 34.375 24.609375 
z
M 75.78125 58.59375 
Q 83.984375 51.171875 92.96875 41.796875 
Q 89.84375 39.453125 85.9375 35.9375 
Q 79.296875 43.75 69.53125 53.125 
Q 73.046875 55.859375 75.78125 58.59375 
z
M 28.515625 54.6875 
Q 26.5625 52.734375 22.265625 47.265625 
Q 17.96875 41.796875 12.890625 35.9375 
Q 8.984375 38.671875 5.859375 40.625 
Q 15.234375 49.21875 20.3125 59.765625 
Q 23.828125 57.03125 28.515625 54.6875 
z
" id="SimHei-21464"/>
     <path d="M 61.328125 78.515625 
Q 60.9375 76.5625 60.9375 68.75 
L 60.9375 41.015625 
Q 68.359375 47.265625 74.609375 53.90625 
Q 80.859375 60.546875 84.375 67.1875 
Q 87.5 64.0625 92.1875 61.328125 
Q 89.0625 57.8125 81.640625 50.1875 
Q 74.21875 42.578125 70.109375 39.25 
Q 66.015625 35.9375 60.9375 31.640625 
L 60.9375 7.03125 
Q 60.9375 0.78125 66.015625 0.78125 
L 81.25 0.78125 
Q 84.375 1.171875 85.34375 4.09375 
Q 86.328125 7.03125 87.109375 13.28125 
Q 90.625 10.15625 96.09375 9.375 
Q 93.75 -1.5625 91.015625 -3.90625 
Q 88.28125 -6.25 83.59375 -6.25 
L 61.71875 -6.25 
Q 53.515625 -6.25 53.125 3.125 
L 53.125 26.171875 
Q 50.390625 23.828125 46.28125 21.09375 
Q 42.1875 18.359375 37.109375 15.234375 
Q 34.765625 19.140625 31.640625 21.875 
Q 36.71875 24.21875 42.765625 27.921875 
Q 48.828125 31.640625 53.125 35.15625 
L 53.125 70.3125 
Q 53.125 75 52.734375 78.515625 
L 61.328125 78.515625 
z
M 37.5 75.78125 
Q 33.984375 71.09375 32.421875 67.765625 
Q 30.859375 64.453125 28.515625 58.984375 
L 28.515625 10.546875 
Q 28.515625 -1.171875 28.90625 -8.59375 
L 20.703125 -8.59375 
Q 21.09375 -1.953125 21.09375 10.15625 
L 21.09375 47.65625 
Q 17.578125 42.578125 15.03125 39.453125 
Q 12.5 36.328125 10.546875 33.984375 
Q 7.8125 37.109375 4.296875 39.453125 
Q 9.765625 44.53125 13.671875 50.1875 
Q 17.578125 55.859375 20.5 61.125 
Q 23.4375 66.40625 25.390625 71.484375 
Q 27.34375 76.5625 28.515625 79.6875 
Q 30.859375 77.734375 37.5 75.78125 
z
" id="SimHei-21270"/>
     <path id="SimHei-32"/>
     <path d="M 28.90625 1.953125 
L 19.921875 1.953125 
L 19.921875 68.75 
L 28.90625 68.75 
z
" id="SimHei-73"/>
     <path d="M 45.703125 35.15625 
Q 45.703125 17.1875 38.078125 9.5625 
Q 30.46875 1.953125 17.578125 1.953125 
L 4.296875 1.953125 
L 4.296875 68.75 
L 17.578125 68.75 
Q 32.03125 68.75 38.859375 60.9375 
Q 45.703125 53.125 45.703125 35.15625 
z
M 36.328125 35.15625 
Q 36.328125 49.609375 31.640625 55.46875 
Q 26.953125 61.328125 17.578125 61.328125 
L 13.28125 61.328125 
L 13.28125 9.375 
L 17.578125 9.375 
Q 26.953125 9.375 31.640625 15.03125 
Q 36.328125 20.703125 36.328125 35.15625 
z
" id="SimHei-68"/>
     <path d="M 46.484375 45.3125 
L 1.953125 45.3125 
L 1.953125 51.5625 
L 46.484375 51.5625 
z
M 46.484375 21.484375 
L 1.953125 21.484375 
L 1.953125 27.734375 
L 46.484375 27.734375 
z
" id="SimHei-61"/>
    </defs>
    <g transform="translate(447.650625 26.8875)scale(0.2 -0.2)">
     <use xlink:href="#SimHei-54"/>
     <use x="50" xlink:href="#SimHei-48"/>
     <use x="100" xlink:href="#SimHei-22825"/>
     <use x="200" xlink:href="#SimHei-20869"/>
     <use x="300" xlink:href="#SimHei-30340"/>
     <use x="400" xlink:href="#SimHei-27969"/>
     <use x="500" xlink:href="#SimHei-37327"/>
     <use x="600" xlink:href="#SimHei-21464"/>
     <use x="700" xlink:href="#SimHei-21270"/>
     <use x="800" xlink:href="#SimHei-32"/>
     <use x="850" xlink:href="#SimHei-73"/>
     <use x="900" xlink:href="#SimHei-68"/>
     <use x="950" xlink:href="#SimHei-61"/>
     <use x="1000" xlink:href="#SimHei-49"/>
     <use x="1050" xlink:href="#SimHei-48"/>
     <use x="1100" xlink:href="#SimHei-48"/>
    </g>
   </g>
   <g id="legend_1">
    <g id="patch_7">
     <path d="M 1058.2 45.8875 
L 1062.2 45.8875 
Q 1064.2 45.8875 1064.2 43.8875 
L 1064.2 39.8875 
Q 1064.2 37.8875 1062.2 37.8875 
L 1058.2 37.8875 
Q 1056.2 37.8875 1056.2 39.8875 
L 1056.2 43.8875 
Q 1056.2 45.8875 1058.2 45.8875 
z
" style="fill:#ffffff;opacity:0.8;stroke:#cccccc;stroke-linejoin:miter;"/>
    </g>
   </g>
  </g>
 </g>
 <defs>
  <clipPath id="p8de99e4e6a">
   <rect height="421.78375" width="1013.09875" x="56.10125" y="32.8875"/>
  </clipPath>
 </defs>
</svg>
