<?xml version="1.0" encoding="utf-8" standalone="no"?>
<!DOCTYPE svg PUBLIC "-//W3C//DTD SVG 1.1//EN"
  "http://www.w3.org/Graphics/SVG/1.1/DTD/svg11.dtd">
<!-- Created with matplotlib (https://matplotlib.org/) -->
<svg height="504pt" version="1.1" viewBox="0 0 1080 504" width="1080pt" xmlns="http://www.w3.org/2000/svg" xmlns:xlink="http://www.w3.org/1999/xlink">
 <defs>
  <style type="text/css">
*{stroke-linecap:butt;stroke-linejoin:round;}
  </style>
 </defs>
 <g id="figure_1">
  <g id="patch_1">
   <path d="M 0 504 
L 1080 504 
L 1080 0 
L 0 0 
z
" style="fill:#ffffff;"/>
  </g>
  <g id="axes_1">
   <g id="patch_2">
    <path d="M 51.06125 454.44625 
L 534.6 454.44625 
L 534.6 32.8875 
L 51.06125 32.8875 
z
" style="fill:#ffffff;"/>
   </g>
   <g id="matplotlib.axis_1">
    <g id="xtick_1">
     <g id="line2d_1">
      <defs>
       <path d="M 0 0 
L 0 3.5 
" id="ma644956c21" style="stroke:#000000;stroke-width:0.8;"/>
      </defs>
      <g>
       <use style="stroke:#000000;stroke-width:0.8;" x="75.672504" xlink:href="#ma644956c21" y="454.44625"/>
      </g>
     </g>
     <g id="text_1">
      <!-- 星期六 -->
      <defs>
       <path d="M 15.625 43.75 
Q 16.015625 50.390625 16.015625 60.15625 
Q 16.015625 69.921875 15.625 77.34375 
L 83.984375 77.34375 
Q 83.59375 69.921875 83.59375 60.15625 
Q 83.59375 50.390625 83.984375 43.75 
L 15.625 43.75 
z
M 55.078125 39.453125 
Q 54.6875 34.765625 54.6875 30.078125 
Q 78.90625 30.078125 86.71875 30.46875 
L 86.71875 23.046875 
Q 78.90625 23.4375 54.6875 23.4375 
L 54.6875 14.0625 
Q 76.953125 14.0625 83.59375 14.453125 
L 83.59375 7.421875 
Q 76.953125 7.8125 54.6875 7.8125 
L 54.6875 -2.734375 
L 79.296875 -2.734375 
Q 85.9375 -2.734375 94.140625 -1.953125 
L 94.140625 -9.765625 
Q 85.9375 -9.375 79.296875 -9.375 
L 21.09375 -9.375 
Q 13.28125 -9.375 5.859375 -10.15625 
L 5.859375 -1.953125 
Q 13.28125 -2.34375 21.09375 -2.734375 
L 46.484375 -2.734375 
L 46.484375 7.8125 
Q 26.5625 7.8125 20.703125 7.421875 
L 20.703125 14.453125 
Q 26.5625 14.0625 46.484375 14.0625 
L 46.484375 23.4375 
L 21.09375 23.4375 
Q 18.75 21.09375 16.59375 17.96875 
Q 14.453125 14.84375 10.15625 10.15625 
Q 7.8125 12.109375 3.515625 15.625 
Q 8.59375 20.3125 13.28125 26.5625 
Q 17.96875 32.8125 21.09375 39.453125 
Q 25 37.109375 30.46875 35.15625 
Q 26.953125 32.421875 25 30.078125 
L 46.484375 30.078125 
Q 46.484375 34.765625 46.09375 39.453125 
L 55.078125 39.453125 
z
M 75.390625 63.671875 
L 75.390625 71.09375 
L 24.21875 71.09375 
L 24.21875 63.671875 
z
M 75.390625 50 
L 75.390625 57.421875 
L 24.21875 57.421875 
L 24.21875 50 
z
" id="SimHei-26143"/>
       <path d="M 76.5625 -0.390625 
Q 85.546875 -1.5625 84.765625 2.734375 
L 84.765625 24.609375 
L 67.578125 24.609375 
Q 66.796875 15.234375 63.28125 6.640625 
Q 59.765625 -1.953125 53.125 -9.375 
Q 50.390625 -5.859375 45.703125 -4.296875 
Q 52.34375 2.34375 55.65625 9.765625 
Q 58.984375 17.1875 59.5625 24.609375 
Q 60.15625 32.03125 60.15625 48.828125 
Q 60.15625 66.015625 59.765625 76.171875 
L 92.96875 76.171875 
Q 92.578125 68.75 92.578125 58.203125 
L 92.578125 0.78125 
Q 92.578125 -4.6875 89.0625 -6.640625 
Q 85.546875 -8.59375 79.6875 -9.375 
Q 79.6875 -5.078125 76.5625 -0.390625 
z
M 14.84375 67.1875 
Q 14.84375 73.046875 14.453125 80.078125 
L 22.65625 80.078125 
Q 22.265625 72.265625 22.265625 67.1875 
L 39.84375 67.1875 
Q 39.84375 74.609375 39.453125 80.078125 
L 48.046875 80.078125 
Q 47.65625 73.4375 47.65625 67.1875 
Q 50.390625 67.1875 54.6875 67.578125 
L 54.6875 60.9375 
Q 50.78125 61.328125 47.65625 61.328125 
L 47.65625 24.21875 
Q 50.78125 24.21875 54.6875 24.609375 
L 54.6875 17.96875 
Q 47.265625 18.359375 40.234375 18.359375 
L 19.140625 18.359375 
Q 10.546875 18.359375 4.296875 17.96875 
L 4.296875 24.609375 
Q 10.15625 24.21875 14.84375 24.21875 
L 14.84375 61.328125 
Q 11.328125 61.328125 6.640625 60.9375 
L 6.640625 67.578125 
Q 10.9375 67.1875 14.84375 67.1875 
z
M 84.765625 52.734375 
L 84.765625 70.3125 
L 67.96875 70.3125 
L 67.96875 52.734375 
z
M 84.765625 30.46875 
L 84.765625 46.875 
L 67.96875 46.875 
L 67.96875 30.46875 
z
M 25 11.328125 
Q 22.265625 10.15625 18.15625 4.484375 
Q 14.0625 -1.171875 10.15625 -5.46875 
Q 6.25 -2.734375 3.515625 -1.171875 
Q 7.03125 1.5625 10.9375 6.4375 
Q 14.84375 11.328125 17.1875 16.015625 
L 25 11.328125 
z
M 39.84375 52.734375 
L 39.84375 61.328125 
L 22.265625 61.328125 
L 22.265625 52.734375 
z
M 39.84375 24.21875 
L 39.84375 32.8125 
L 22.265625 32.8125 
L 22.265625 24.21875 
z
M 39.84375 38.671875 
L 39.84375 46.875 
L 22.265625 46.875 
L 22.265625 38.671875 
z
M 44.53125 -1.171875 
Q 38.28125 8.203125 34.765625 11.328125 
Q 37.109375 12.890625 39.84375 16.015625 
Q 44.53125 11.328125 50.78125 4.296875 
Q 47.65625 1.953125 44.53125 -1.171875 
z
" id="SimHei-26399"/>
       <path d="M 79.6875 53.515625 
Q 87.890625 53.515625 93.359375 54.296875 
L 93.359375 45.3125 
Q 87.890625 45.703125 80.078125 45.703125 
L 23.828125 45.703125 
Q 15.625 45.703125 7.421875 45.3125 
L 7.421875 54.296875 
Q 15.625 53.515625 23.4375 53.515625 
z
M 43.75 30.46875 
Q 35.9375 19.140625 28.3125 8.390625 
Q 20.703125 -2.34375 15.234375 -7.421875 
Q 12.109375 -4.6875 7.03125 -1.171875 
Q 17.1875 8.203125 24.796875 19.328125 
Q 32.421875 30.46875 33.984375 36.328125 
Q 38.671875 32.8125 43.75 30.46875 
z
M 66.015625 36.71875 
Q 73.046875 26.5625 77.921875 20.3125 
Q 82.8125 14.0625 91.40625 0.390625 
Q 86.328125 -2.34375 83.203125 -5.078125 
Q 77.734375 4.6875 71.875 12.890625 
Q 66.015625 21.09375 58.203125 30.859375 
Q 62.109375 33.59375 66.015625 36.71875 
z
M 45.3125 79.296875 
Q 53.515625 69.140625 58.59375 60.546875 
Q 54.296875 58.59375 50.390625 55.859375 
Q 44.921875 66.40625 38.28125 74.21875 
Q 42.578125 76.953125 45.3125 79.296875 
z
" id="SimHei-20845"/>
      </defs>
      <g transform="translate(53.172504 473.106406)scale(0.15 -0.15)">
       <use xlink:href="#SimHei-26143"/>
       <use x="100" xlink:href="#SimHei-26399"/>
       <use x="200" xlink:href="#SimHei-20845"/>
      </g>
     </g>
    </g>
    <g id="xtick_2">
     <g id="line2d_2">
      <g>
       <use style="stroke:#000000;stroke-width:0.8;" x="138.845775" xlink:href="#ma644956c21" y="454.44625"/>
      </g>
     </g>
     <g id="text_2">
      <!-- 星期日 -->
      <defs>
       <path d="M 83.984375 78.125 
Q 83.59375 58.984375 83.59375 35.546875 
Q 83.59375 12.109375 83.984375 -7.03125 
L 75 -7.03125 
L 75 2.734375 
L 28.125 2.734375 
L 28.125 -8.984375 
L 19.53125 -8.984375 
Q 19.921875 8.984375 19.921875 33.203125 
Q 19.921875 57.421875 19.53125 78.125 
L 83.984375 78.125 
z
M 75 9.375 
L 75 37.109375 
L 28.125 37.109375 
L 28.125 9.375 
z
M 75 43.75 
L 75 71.09375 
L 28.125 71.09375 
L 28.125 43.75 
z
" id="SimHei-26085"/>
      </defs>
      <g transform="translate(116.345775 473.106406)scale(0.15 -0.15)">
       <use xlink:href="#SimHei-26143"/>
       <use x="100" xlink:href="#SimHei-26399"/>
       <use x="200" xlink:href="#SimHei-26085"/>
      </g>
     </g>
    </g>
    <g id="xtick_3">
     <g id="line2d_3">
      <g>
       <use style="stroke:#000000;stroke-width:0.8;" x="202.019047" xlink:href="#ma644956c21" y="454.44625"/>
      </g>
     </g>
     <g id="text_3">
      <!-- 星期一 -->
      <defs>
       <path d="M 76.171875 41.796875 
Q 86.328125 41.796875 94.53125 42.1875 
L 94.53125 32.03125 
Q 86.328125 32.421875 76.5625 32.421875 
L 25 32.421875 
Q 14.84375 32.421875 5.46875 32.03125 
L 5.46875 42.1875 
Q 14.84375 41.796875 25 41.796875 
z
" id="SimHei-19968"/>
      </defs>
      <g transform="translate(179.519047 473.106406)scale(0.15 -0.15)">
       <use xlink:href="#SimHei-26143"/>
       <use x="100" xlink:href="#SimHei-26399"/>
       <use x="200" xlink:href="#SimHei-19968"/>
      </g>
     </g>
    </g>
    <g id="xtick_4">
     <g id="line2d_4">
      <g>
       <use style="stroke:#000000;stroke-width:0.8;" x="265.192319" xlink:href="#ma644956c21" y="454.44625"/>
      </g>
     </g>
     <g id="text_4">
      <!-- 星期二 -->
      <defs>
       <path d="M 78.90625 9.765625 
Q 88.28125 9.765625 94.140625 10.546875 
L 94.140625 0.78125 
Q 87.890625 1.171875 78.90625 1.171875 
L 22.265625 1.171875 
Q 12.109375 1.171875 5.46875 0.78125 
L 5.46875 10.15625 
Q 12.5 9.765625 21.875 9.765625 
z
M 67.96875 64.84375 
Q 76.5625 65.234375 83.59375 65.625 
L 83.59375 55.859375 
Q 76.5625 56.25 68.359375 56.25 
L 32.03125 56.25 
Q 22.65625 56.25 15.625 55.859375 
L 15.625 65.234375 
Q 22.65625 64.84375 31.640625 64.84375 
z
" id="SimHei-20108"/>
      </defs>
      <g transform="translate(242.692319 473.106406)scale(0.15 -0.15)">
       <use xlink:href="#SimHei-26143"/>
       <use x="100" xlink:href="#SimHei-26399"/>
       <use x="200" xlink:href="#SimHei-20108"/>
      </g>
     </g>
    </g>
    <g id="xtick_5">
     <g id="line2d_5">
      <g>
       <use style="stroke:#000000;stroke-width:0.8;" x="328.36559" xlink:href="#ma644956c21" y="454.44625"/>
      </g>
     </g>
     <g id="text_5">
      <!-- 星期三 -->
      <defs>
       <path d="M 93.75 -3.125 
Q 86.71875 -2.734375 81.25 -2.734375 
L 20.3125 -2.734375 
Q 14.0625 -2.734375 5.859375 -3.125 
L 5.859375 5.46875 
Q 13.28125 5.078125 20.3125 5.078125 
L 81.25 5.078125 
Q 87.109375 5.078125 93.75 5.859375 
z
M 14.0625 71.875 
Q 21.875 71.484375 28.515625 71.484375 
L 71.875 71.484375 
Q 79.296875 71.484375 85.546875 71.875 
L 85.546875 63.671875 
Q 79.6875 64.0625 71.875 64.0625 
L 28.125 64.0625 
Q 21.484375 64.0625 14.0625 63.671875 
z
M 32.421875 32.8125 
Q 26.5625 32.8125 19.921875 32.421875 
L 19.921875 41.015625 
Q 26.171875 40.625 32.421875 40.625 
L 66.015625 40.625 
Q 71.875 40.625 78.90625 41.015625 
L 78.90625 32.421875 
Q 71.09375 32.8125 66.015625 32.8125 
z
" id="SimHei-19977"/>
      </defs>
      <g transform="translate(305.86559 473.106406)scale(0.15 -0.15)">
       <use xlink:href="#SimHei-26143"/>
       <use x="100" xlink:href="#SimHei-26399"/>
       <use x="200" xlink:href="#SimHei-19977"/>
      </g>
     </g>
    </g>
    <g id="xtick_6">
     <g id="line2d_6">
      <g>
       <use style="stroke:#000000;stroke-width:0.8;" x="391.538862" xlink:href="#ma644956c21" y="454.44625"/>
      </g>
     </g>
     <g id="text_6">
      <!-- 星期四 -->
      <defs>
       <path d="M 89.84375 74.21875 
Q 89.453125 64.453125 89.453125 53.515625 
L 89.453125 14.84375 
Q 89.453125 4.6875 89.84375 -7.03125 
L 81.640625 -7.03125 
L 81.640625 0.390625 
L 17.96875 0.390625 
L 17.96875 -7.8125 
L 9.765625 -7.8125 
Q 10.15625 4.6875 10.15625 15.625 
L 10.15625 53.515625 
Q 10.15625 63.28125 9.765625 74.21875 
L 89.84375 74.21875 
z
M 81.640625 7.03125 
L 81.640625 67.96875 
L 62.109375 67.96875 
L 62.109375 34.765625 
Q 62.109375 30.46875 66.015625 30.46875 
Q 69.921875 30.46875 78.515625 30.859375 
Q 76.5625 26.5625 76.171875 23.4375 
Q 66.015625 23.4375 60.734375 23.625 
Q 55.46875 23.828125 54.6875 30.859375 
L 54.6875 67.96875 
L 44.53125 67.96875 
Q 44.53125 47.65625 40.03125 37.6875 
Q 35.546875 27.734375 26.5625 18.75 
Q 24.609375 21.484375 19.921875 23.828125 
Q 25.78125 28.125 29.6875 33.984375 
Q 33.59375 39.84375 35.34375 46.875 
Q 37.109375 53.90625 37.109375 67.96875 
L 17.96875 67.96875 
L 17.96875 7.03125 
z
" id="SimHei-22235"/>
      </defs>
      <g transform="translate(369.038862 473.106406)scale(0.15 -0.15)">
       <use xlink:href="#SimHei-26143"/>
       <use x="100" xlink:href="#SimHei-26399"/>
       <use x="200" xlink:href="#SimHei-22235"/>
      </g>
     </g>
    </g>
    <g id="xtick_7">
     <g id="line2d_7">
      <g>
       <use style="stroke:#000000;stroke-width:0.8;" x="454.712134" xlink:href="#ma644956c21" y="454.44625"/>
      </g>
     </g>
     <g id="text_7">
      <!-- 星期五 -->
      <defs>
       <path d="M 77.734375 71.875 
Q 83.203125 71.875 88.28125 72.265625 
L 88.28125 65.234375 
Q 83.203125 65.625 78.125 65.625 
L 49.21875 65.625 
L 46.875 44.921875 
L 77.34375 44.921875 
Q 76.5625 40.234375 76.5625 33.203125 
L 75.78125 4.6875 
Q 88.28125 4.6875 93.75 5.078125 
L 93.75 -3.125 
Q 88.28125 -2.734375 77.734375 -2.734375 
L 21.484375 -2.734375 
Q 12.109375 -2.734375 6.640625 -3.515625 
L 6.640625 5.078125 
Q 12.5 4.6875 20.703125 4.6875 
L 33.59375 4.6875 
L 38.28125 38.671875 
L 28.90625 38.671875 
Q 21.875 38.671875 17.578125 38.28125 
L 17.578125 45.3125 
Q 22.265625 44.921875 28.90625 44.921875 
L 39.453125 44.921875 
L 41.796875 65.625 
L 24.21875 65.625 
Q 17.96875 65.625 12.5 65.234375 
L 12.5 72.265625 
Q 17.578125 71.875 24.21875 71.875 
z
M 67.96875 4.6875 
L 69.140625 38.671875 
L 46.09375 38.671875 
L 41.40625 4.6875 
z
" id="SimHei-20116"/>
      </defs>
      <g transform="translate(432.212134 473.106406)scale(0.15 -0.15)">
       <use xlink:href="#SimHei-26143"/>
       <use x="100" xlink:href="#SimHei-26399"/>
       <use x="200" xlink:href="#SimHei-20116"/>
      </g>
     </g>
    </g>
    <g id="text_8">
     <!-- 时间 -->
     <defs>
      <path d="M 39.453125 71.484375 
Q 39.0625 57.421875 39.0625 37.5 
Q 39.0625 17.578125 39.453125 6.25 
L 31.25 6.25 
L 31.25 13.671875 
L 15.625 13.671875 
L 15.625 0.78125 
L 7.421875 0.78125 
Q 7.8125 18.75 7.8125 36.71875 
Q 7.8125 55.078125 7.421875 71.484375 
L 39.453125 71.484375 
z
M 76.171875 59.765625 
Q 76.171875 71.484375 75.78125 81.640625 
L 84.375 81.640625 
Q 83.984375 71.484375 83.984375 59.765625 
Q 89.84375 59.765625 96.484375 60.15625 
L 96.484375 52.734375 
Q 89.84375 53.125 83.984375 53.125 
L 83.984375 0.78125 
Q 83.984375 -5.078125 79.296875 -6.640625 
Q 74.609375 -8.203125 67.1875 -8.984375 
Q 67.1875 -4.296875 62.890625 0 
Q 70.3125 -0.78125 73.234375 -0.390625 
Q 76.171875 0 76.171875 4.6875 
L 76.171875 53.125 
Q 56.640625 53.125 43.359375 52.734375 
L 43.359375 60.15625 
Q 55.859375 59.765625 76.171875 59.765625 
z
M 31.25 20.3125 
L 31.25 39.84375 
L 15.625 39.84375 
L 15.625 20.3125 
z
M 31.25 46.484375 
L 31.25 64.84375 
L 15.625 64.84375 
L 15.625 46.484375 
z
M 55.46875 42.578125 
Q 60.546875 34.375 65.234375 25 
Q 61.328125 23.828125 57.03125 21.484375 
Q 53.90625 30.859375 48.046875 39.0625 
Q 51.5625 40.625 55.46875 42.578125 
z
" id="SimHei-26102"/>
      <path d="M 69.53125 55.46875 
Q 69.140625 48.046875 69.140625 42.578125 
L 69.140625 21.875 
Q 69.140625 16.796875 69.53125 9.765625 
L 30.078125 9.765625 
Q 30.46875 16.796875 30.46875 22.265625 
L 30.46875 42.578125 
Q 30.46875 48.046875 30.078125 55.46875 
L 69.53125 55.46875 
z
M 90.625 76.171875 
Q 90.234375 68.75 90.234375 61.328125 
L 90.234375 3.90625 
Q 90.625 -5.078125 85.34375 -7.03125 
Q 80.078125 -8.984375 73.828125 -9.765625 
Q 73.4375 -5.078125 70.703125 -0.390625 
Q 78.125 -0.78125 80.265625 0.390625 
Q 82.421875 1.5625 82.421875 5.46875 
L 82.421875 69.53125 
L 58.984375 69.53125 
Q 49.609375 69.53125 41.40625 69.140625 
L 41.40625 76.5625 
Q 49.609375 76.171875 58.984375 76.171875 
z
M 8.59375 -8.203125 
Q 9.375 -0.390625 9.375 8.203125 
L 9.375 49.21875 
Q 9.375 57.421875 8.59375 62.890625 
L 17.578125 62.890625 
Q 17.1875 57.03125 17.1875 51.5625 
L 17.1875 7.8125 
Q 17.1875 0 17.578125 -8.203125 
z
M 61.71875 16.015625 
L 61.71875 30.46875 
L 37.890625 30.46875 
L 37.890625 16.015625 
z
M 61.71875 36.71875 
L 61.71875 49.21875 
L 37.890625 49.21875 
L 37.890625 36.71875 
z
M 23.828125 82.8125 
Q 27.34375 78.125 34.765625 67.96875 
Q 30.46875 66.015625 26.5625 63.671875 
Q 22.65625 71.484375 16.796875 78.515625 
Q 21.09375 81.640625 23.828125 82.8125 
z
" id="SimHei-38388"/>
     </defs>
     <g transform="translate(277.830625 490.993125)scale(0.15 -0.15)">
      <use xlink:href="#SimHei-26102"/>
      <use x="100" xlink:href="#SimHei-38388"/>
     </g>
    </g>
   </g>
   <g id="matplotlib.axis_2">
    <g id="ytick_1">
     <g id="line2d_8">
      <defs>
       <path d="M 0 0 
L -3.5 0 
" id="m2ecca4a51d" style="stroke:#000000;stroke-width:0.8;"/>
      </defs>
      <g>
       <use style="stroke:#000000;stroke-width:0.8;" x="51.06125" xlink:href="#m2ecca4a51d" y="454.44625"/>
      </g>
     </g>
     <g id="text_9">
      <!-- 0 -->
      <defs>
       <path d="M 3.125 29.296875 
Q 3.90625 50 6.4375 56.046875 
Q 8.984375 62.109375 13.671875 66.015625 
Q 18.359375 69.921875 25.1875 69.921875 
Q 32.03125 69.921875 37.109375 64.25 
Q 42.1875 58.59375 43.75 50 
Q 45.3125 41.40625 44.71875 30.265625 
Q 44.140625 19.140625 40.8125 12.109375 
Q 37.5 5.078125 30.859375 2.34375 
Q 24.21875 -0.390625 17.578125 2.921875 
Q 10.9375 6.25 8.203125 11.71875 
Q 5.46875 17.1875 4.296875 23.234375 
Q 3.125 29.296875 3.90625 50 
z
M 12.890625 52.734375 
Q 10.546875 31.25 12.5 22.84375 
Q 14.453125 14.453125 18.9375 10.9375 
Q 23.4375 7.421875 28.125 9.5625 
Q 32.8125 11.71875 34.953125 18.15625 
Q 37.109375 24.609375 37.109375 32.21875 
Q 37.109375 39.84375 36.515625 46.09375 
Q 35.9375 52.34375 33 57.421875 
Q 30.078125 62.5 25.1875 62.6875 
Q 20.3125 62.890625 16.59375 57.8125 
Q 12.890625 52.734375 10.546875 31.25 
z
" id="SimHei-48"/>
      </defs>
      <g transform="translate(39.06125 457.88375)scale(0.1 -0.1)">
       <use xlink:href="#SimHei-48"/>
      </g>
     </g>
    </g>
    <g id="ytick_2">
     <g id="line2d_9">
      <g>
       <use style="stroke:#000000;stroke-width:0.8;" x="51.06125" xlink:href="#m2ecca4a51d" y="370.1345"/>
      </g>
     </g>
     <g id="text_10">
      <!-- 50 -->
      <defs>
       <path d="M 8.59375 20.703125 
Q 11.328125 10.15625 17.96875 8.984375 
Q 24.609375 7.8125 28.703125 10.34375 
Q 32.8125 12.890625 34.5625 16.984375 
Q 36.328125 21.09375 36.125 26.171875 
Q 35.9375 31.25 33.390625 34.765625 
Q 30.859375 38.28125 26.953125 39.453125 
Q 23.046875 40.625 18.15625 39.453125 
Q 13.28125 38.28125 10.15625 33.984375 
L 3.515625 34.765625 
Q 4.296875 37.109375 10.9375 68.359375 
L 41.796875 68.359375 
L 41.796875 61.328125 
L 16.796875 61.328125 
Q 14.84375 50.78125 12.890625 44.53125 
Q 18.75 47.265625 23.828125 47.0625 
Q 28.90625 46.875 33.59375 44.71875 
Q 38.28125 42.578125 40.421875 38.859375 
Q 42.578125 35.15625 43.546875 31.4375 
Q 44.53125 27.734375 44.328125 23.4375 
Q 44.140625 19.140625 42.578125 14.640625 
Q 41.015625 10.15625 37.890625 7.21875 
Q 34.765625 4.296875 30.265625 2.53125 
Q 25.78125 0.78125 19.921875 1.171875 
Q 14.0625 1.5625 8.78125 5.46875 
Q 3.515625 9.375 1.5625 18.75 
z
" id="SimHei-53"/>
      </defs>
      <g transform="translate(34.06125 373.572)scale(0.1 -0.1)">
       <use xlink:href="#SimHei-53"/>
       <use x="50" xlink:href="#SimHei-48"/>
      </g>
     </g>
    </g>
    <g id="ytick_3">
     <g id="line2d_10">
      <g>
       <use style="stroke:#000000;stroke-width:0.8;" x="51.06125" xlink:href="#m2ecca4a51d" y="285.82275"/>
      </g>
     </g>
     <g id="text_11">
      <!-- 100 -->
      <defs>
       <path d="M 21.875 56.25 
Q 16.796875 51.171875 8.984375 46.484375 
L 8.984375 53.90625 
Q 18.75 60.546875 25 69.53125 
L 29.6875 69.53125 
L 29.6875 2.34375 
L 21.875 2.34375 
z
" id="SimHei-49"/>
      </defs>
      <g transform="translate(29.06125 289.26025)scale(0.1 -0.1)">
       <use xlink:href="#SimHei-49"/>
       <use x="50" xlink:href="#SimHei-48"/>
       <use x="100" xlink:href="#SimHei-48"/>
      </g>
     </g>
    </g>
    <g id="ytick_4">
     <g id="line2d_11">
      <g>
       <use style="stroke:#000000;stroke-width:0.8;" x="51.06125" xlink:href="#m2ecca4a51d" y="201.511"/>
      </g>
     </g>
     <g id="text_12">
      <!-- 150 -->
      <g transform="translate(29.06125 204.9485)scale(0.1 -0.1)">
       <use xlink:href="#SimHei-49"/>
       <use x="50" xlink:href="#SimHei-53"/>
       <use x="100" xlink:href="#SimHei-48"/>
      </g>
     </g>
    </g>
    <g id="ytick_5">
     <g id="line2d_12">
      <g>
       <use style="stroke:#000000;stroke-width:0.8;" x="51.06125" xlink:href="#m2ecca4a51d" y="117.19925"/>
      </g>
     </g>
     <g id="text_13">
      <!-- 200 -->
      <defs>
       <path d="M 4.6875 3.90625 
Q 5.078125 9.765625 10.15625 14.453125 
Q 15.234375 19.140625 23.046875 29.09375 
Q 30.859375 39.0625 33.203125 44.53125 
Q 35.546875 50 34.953125 53.90625 
Q 34.375 57.8125 31.25 60.34375 
Q 28.125 62.890625 24.015625 62.5 
Q 19.921875 62.109375 16.203125 59.375 
Q 12.5 56.640625 10.546875 51.171875 
L 3.125 52.34375 
Q 6.25 61.328125 11.125 65.421875 
Q 16.015625 69.53125 22.65625 69.921875 
Q 26.5625 70.3125 29.6875 69.71875 
Q 32.8125 69.140625 36.125 66.984375 
Q 39.453125 64.84375 41.59375 60.546875 
Q 43.75 56.25 43.15625 50.1875 
Q 42.578125 44.140625 37.109375 35.734375 
Q 31.640625 27.34375 16.015625 9.375 
L 44.140625 9.375 
L 44.140625 2.34375 
L 4.6875 2.34375 
z
" id="SimHei-50"/>
      </defs>
      <g transform="translate(29.06125 120.63675)scale(0.1 -0.1)">
       <use xlink:href="#SimHei-50"/>
       <use x="50" xlink:href="#SimHei-48"/>
       <use x="100" xlink:href="#SimHei-48"/>
      </g>
     </g>
    </g>
    <g id="ytick_6">
     <g id="line2d_13">
      <g>
       <use style="stroke:#000000;stroke-width:0.8;" x="51.06125" xlink:href="#m2ecca4a51d" y="32.8875"/>
      </g>
     </g>
     <g id="text_14">
      <!-- 250 -->
      <g transform="translate(29.06125 36.325)scale(0.1 -0.1)">
       <use xlink:href="#SimHei-50"/>
       <use x="50" xlink:href="#SimHei-53"/>
       <use x="100" xlink:href="#SimHei-48"/>
      </g>
     </g>
    </g>
    <g id="text_15">
     <!-- 流量 -->
     <defs>
      <path d="M 58.203125 82.03125 
Q 62.109375 76.171875 66.015625 69.53125 
L 78.515625 69.53125 
Q 84.765625 69.53125 92.578125 69.921875 
L 92.578125 62.890625 
Q 83.203125 63.28125 78.515625 63.28125 
L 53.515625 63.28125 
Q 56.640625 60.9375 58.984375 59.765625 
Q 57.03125 58.203125 53.90625 54.296875 
Q 50.78125 50.390625 44.53125 43.359375 
Q 58.59375 43.75 74.609375 44.53125 
Q 70.703125 49.21875 66.796875 52.734375 
Q 70.703125 55.46875 72.265625 57.421875 
Q 83.203125 46.09375 90.625 37.109375 
Q 87.109375 34.375 84.375 32.03125 
Q 81.25 36.328125 78.90625 39.453125 
Q 70.3125 38.671875 55.65625 37.6875 
Q 41.015625 36.71875 35.9375 35.15625 
Q 34.765625 38.671875 32.421875 41.796875 
Q 36.328125 42.96875 41.796875 49.609375 
Q 47.265625 56.25 50.78125 63.28125 
L 46.484375 63.28125 
Q 39.453125 63.28125 32.03125 62.5 
L 32.03125 69.921875 
Q 39.453125 69.53125 46.484375 69.53125 
L 57.421875 69.53125 
Q 54.296875 75 51.953125 78.125 
Q 55.859375 80.078125 58.203125 82.03125 
z
M 78.515625 31.640625 
Q 78.125 26.5625 78.125 21.484375 
L 78.125 2.34375 
Q 78.125 -1.171875 81.640625 -1.171875 
L 85.546875 -1.171875 
Q 88.671875 -1.171875 89.0625 7.8125 
Q 92.1875 5.46875 96.875 4.296875 
Q 94.53125 -5.46875 91.984375 -6.640625 
Q 89.453125 -7.8125 85.9375 -7.8125 
L 78.515625 -7.8125 
Q 71.09375 -7.8125 71.09375 -0.390625 
L 71.09375 22.265625 
Q 71.09375 26.953125 70.703125 31.640625 
L 78.515625 31.640625 
z
M 48.828125 30.859375 
Q 48.046875 26.953125 47.453125 18.9375 
Q 46.875 10.9375 43.9375 3.515625 
Q 41.015625 -3.90625 30.46875 -10.9375 
Q 27.734375 -7.421875 24.609375 -5.078125 
Q 32.421875 -1.5625 36.125 4.484375 
Q 39.84375 10.546875 40.234375 18.15625 
Q 40.625 25.78125 40.234375 31.640625 
Q 44.140625 30.859375 48.828125 30.859375 
z
M 62.5 31.640625 
Q 62.109375 29.296875 62.109375 21.875 
L 62.109375 4.6875 
Q 62.109375 -0.390625 62.5 -7.8125 
L 54.296875 -7.8125 
Q 54.6875 -0.78125 54.6875 4.6875 
L 54.6875 21.875 
Q 54.6875 28.515625 54.296875 31.640625 
L 62.5 31.640625 
z
M 29.6875 25.390625 
Q 25.78125 18.75 21.09375 8.78125 
Q 16.40625 -1.171875 13.28125 -6.640625 
Q 9.765625 -3.90625 5.078125 -1.953125 
Q 8.984375 2.734375 14.0625 11.71875 
Q 19.140625 20.703125 22.65625 30.46875 
Q 25.78125 27.734375 29.6875 25.390625 
z
M 9.765625 53.90625 
Q 18.75 48.4375 26.953125 42.578125 
Q 23.828125 39.453125 21.484375 35.546875 
Q 14.453125 42.1875 5.078125 46.875 
Q 7.421875 50 9.765625 53.90625 
z
M 14.453125 77.734375 
Q 23.4375 72.265625 29.6875 67.1875 
Q 26.953125 63.671875 24.21875 60.546875 
Q 17.96875 66.796875 9.765625 71.484375 
Q 12.5 75 14.453125 77.734375 
z
" id="SimHei-27969"/>
      <path d="M 82.03125 39.0625 
Q 81.640625 34.375 81.640625 26.5625 
Q 81.640625 19.140625 82.03125 14.84375 
L 53.515625 14.84375 
L 53.515625 9.765625 
L 71.484375 9.765625 
Q 78.125 9.765625 83.984375 10.15625 
L 83.984375 4.296875 
Q 78.515625 4.6875 71.484375 4.6875 
L 53.515625 4.6875 
L 53.515625 -1.171875 
L 80.078125 -1.171875 
Q 86.328125 -1.171875 92.578125 -0.78125 
L 92.578125 -6.640625 
Q 86.328125 -6.25 80.078125 -6.25 
L 19.921875 -6.25 
Q 14.0625 -6.25 7.421875 -6.640625 
L 7.421875 -0.78125 
Q 14.453125 -0.78125 19.921875 -1.171875 
L 46.484375 -1.171875 
L 46.484375 4.6875 
L 26.953125 4.6875 
Q 21.09375 4.6875 15.234375 3.90625 
L 15.234375 10.15625 
Q 21.484375 9.765625 26.953125 9.765625 
L 46.484375 9.765625 
L 46.484375 14.84375 
L 17.96875 14.84375 
Q 18.359375 21.484375 18.359375 27.734375 
Q 18.359375 33.984375 17.96875 39.0625 
L 82.03125 39.0625 
z
M 81.25 77.34375 
Q 80.859375 71.484375 80.859375 66.40625 
Q 80.859375 61.328125 81.25 53.125 
L 18.75 53.125 
Q 19.140625 61.328125 19.140625 66.40625 
Q 19.140625 71.484375 18.75 77.34375 
L 81.25 77.34375 
z
M 76.5625 48.4375 
Q 85.9375 48.828125 93.75 49.21875 
L 93.75 42.96875 
Q 85.9375 43.359375 76.953125 43.359375 
L 25.78125 43.359375 
Q 15.234375 43.359375 5.078125 42.96875 
L 5.078125 49.21875 
Q 15.234375 48.828125 25.78125 48.4375 
z
M 73.828125 57.8125 
L 73.828125 62.890625 
L 26.171875 62.890625 
L 26.171875 57.8125 
z
M 73.828125 67.96875 
L 73.828125 72.65625 
L 26.171875 72.65625 
L 26.171875 67.96875 
z
M 74.21875 29.296875 
L 74.21875 33.984375 
L 53.515625 33.984375 
L 53.515625 29.296875 
z
M 46.484375 29.296875 
L 46.484375 33.984375 
L 25.78125 33.984375 
L 25.78125 29.296875 
z
M 46.484375 19.921875 
L 46.484375 24.21875 
L 25.78125 24.21875 
L 25.78125 19.921875 
z
M 74.21875 19.921875 
L 74.21875 24.21875 
L 53.515625 24.21875 
L 53.515625 19.921875 
z
" id="SimHei-37327"/>
     </defs>
     <g transform="translate(23.18625 258.666875)rotate(-90)scale(0.15 -0.15)">
      <use xlink:href="#SimHei-27969"/>
      <use x="100" xlink:href="#SimHei-37327"/>
     </g>
    </g>
   </g>
   <g id="line2d_14">
    <path clip-path="url(#pcf5bc1fca5)" d="M 73.040284 429.990508 
L 75.672504 441.266053 
L 78.304723 442.190616 
L 80.936943 441.085149 
L 83.569163 448.351231 
L 86.201382 440.617904 
L 88.833602 434.031927 
L 91.465822 400.168426 
L 94.098041 352.940881 
L 96.730261 241.363537 
L 99.362481 226.953185 
L 101.9947 117.383835 
L 104.62692 236.611808 
L 107.25914 268.273043 
L 109.891359 294.41071 
L 112.523579 301.992542 
L 115.155799 273.879186 
L 117.788018 234.569974 
L 120.420238 303.422766 
L 123.052457 277.324415 
L 125.684677 342.173727 
L 128.316897 377.910287 
L 130.949116 397.280908 
L 133.581336 405.361211 
L 136.213556 428.431999 
L 138.845775 438.877142 
L 141.477995 441.537003 
L 144.110215 440.115428 
L 146.742434 448.335271 
L 152.006874 431.107252 
L 154.639093 394.958729 
L 157.271313 338.914684 
L 159.903533 221.337241 
L 162.535752 206.778707 
L 165.167972 90.69687 
L 167.800192 209.117272 
L 170.432411 254.218512 
L 173.064631 267.150115 
L 175.696851 281.871756 
L 178.32907 261.280249 
L 180.96129 201.155982 
L 183.593509 287.79435 
L 186.225729 263.601242 
L 188.857949 334.046102 
L 191.490168 376.482836 
L 194.122388 395.743749 
L 196.754608 400.611471 
L 199.386827 445.065838 
L 202.019047 445.944063 
L 204.651267 450.194854 
L 207.283486 449.134616 
L 209.915706 450.233346 
L 212.547926 450.229148 
L 215.180145 444.170717 
L 217.812365 434.111435 
L 220.444585 413.921486 
L 223.076804 365.332571 
L 225.709024 346.781432 
L 228.341244 323.619721 
L 230.973463 364.793192 
L 233.605683 363.279311 
L 236.237902 377.61413 
L 238.870122 389.282645 
L 241.502342 382.453741 
L 244.134561 352.387274 
L 246.766781 372.256775 
L 249.399001 370.533246 
L 252.03122 402.021806 
L 254.66344 420.084191 
L 257.29566 430.128665 
L 259.927879 437.409513 
L 262.560099 430.383253 
L 265.192319 441.932742 
L 267.824538 443.287222 
L 270.456758 443.238659 
L 273.088978 438.654173 
L 275.721197 444.941299 
L 278.353417 441.144546 
L 280.985637 432.198608 
L 283.617856 413.033372 
L 286.250076 373.463858 
L 288.882296 347.244236 
L 291.514515 324.089184 
L 294.146735 364.981937 
L 296.778954 342.210151 
L 299.411174 359.813403 
L 302.043394 375.787945 
L 304.675613 370.435059 
L 307.307833 358.89483 
L 309.940053 364.564751 
L 312.572272 386.978722 
L 315.204492 386.207117 
L 317.836712 419.070548 
L 320.468931 432.448391 
L 323.101151 433.808588 
L 325.733371 436.711302 
L 328.36559 443.554935 
L 330.99781 445.142732 
L 333.63003 446.346736 
L 336.262249 444.039776 
L 338.894469 444.102416 
L 341.526689 438.954857 
L 344.158908 429.26522 
L 346.791128 388.180273 
L 349.423348 349.996569 
L 352.055567 315.078545 
L 354.687787 293.388035 
L 357.320006 321.599424 
L 359.952226 327.460089 
L 362.584446 346.92552 
L 365.216665 352.380813 
L 367.848885 330.306976 
L 370.481105 311.225563 
L 373.113324 338.102477 
L 375.745544 355.911237 
L 378.377764 378.420488 
L 383.642203 425.917452 
L 386.274423 429.197093 
L 388.906642 440.373177 
L 391.538862 442.694281 
L 394.171082 443.397484 
L 396.803301 445.42591 
L 399.435521 449.89394 
L 402.067741 438.709978 
L 404.69996 437.968085 
L 407.33218 426.035653 
L 409.964399 385.473938 
L 412.596619 322.125335 
L 415.228839 299.740306 
L 417.861058 281.349636 
L 420.493278 293.100825 
L 423.125498 308.285387 
L 425.757717 326.933973 
L 428.389937 329.239144 
L 431.022157 300.210654 
L 433.654376 278.903631 
L 436.286596 306.382679 
L 438.918816 315.861397 
L 441.551035 360.108234 
L 444.183255 385.872643 
L 446.815475 425.882678 
L 449.447694 423.952655 
L 452.079914 436.799539 
L 454.712134 441.212288 
L 459.976573 444.442105 
L 462.608793 450.281173 
L 465.241012 439.279115 
L 467.873232 436.147661 
L 470.505451 421.378799 
L 473.137671 386.197689 
L 475.769891 304.650626 
L 478.40211 300.902332 
L 481.03433 283.863502 
L 483.66655 280.101519 
L 486.298769 303.438482 
L 488.930989 314.638943 
L 491.563209 315.753155 
L 494.195428 285.884776 
L 496.827648 276.549154 
L 499.459868 288.652668 
L 502.092087 312.721006 
L 504.724307 339.919369 
L 509.988746 416.718015 
L 512.620966 416.537223 
L 512.620966 416.537223 
" style="fill:none;stroke:#1f77b4;stroke-linecap:square;stroke-width:1.5;"/>
   </g>
   <g id="patch_3">
    <path d="M 51.06125 454.44625 
L 51.06125 32.8875 
" style="fill:none;stroke:#000000;stroke-linecap:square;stroke-linejoin:miter;stroke-width:0.8;"/>
   </g>
   <g id="patch_4">
    <path d="M 534.6 454.44625 
L 534.6 32.8875 
" style="fill:none;stroke:#000000;stroke-linecap:square;stroke-linejoin:miter;stroke-width:0.8;"/>
   </g>
   <g id="patch_5">
    <path d="M 51.06125 454.44625 
L 534.6 454.44625 
" style="fill:none;stroke:#000000;stroke-linecap:square;stroke-linejoin:miter;stroke-width:0.8;"/>
   </g>
   <g id="patch_6">
    <path d="M 51.06125 32.8875 
L 534.6 32.8875 
" style="fill:none;stroke:#000000;stroke-linecap:square;stroke-linejoin:miter;stroke-width:0.8;"/>
   </g>
   <g id="text_16">
    <!-- 7天内的流量变化 ID=100 -->
    <defs>
     <path d="M 13.28125 2.34375 
Q 20.3125 32.03125 37.890625 61.328125 
L 4.296875 61.328125 
L 4.296875 68.359375 
L 46.09375 68.359375 
L 46.09375 61.71875 
Q 27.734375 32.03125 21.875 2.34375 
L 13.28125 2.34375 
z
" id="SimHei-55"/>
     <path d="M 69.921875 76.5625 
Q 76.953125 76.5625 83.984375 76.953125 
L 83.984375 68.75 
Q 76.953125 69.140625 69.921875 69.140625 
L 53.90625 69.140625 
L 53.90625 48.046875 
L 78.90625 48.046875 
Q 86.328125 48.046875 92.1875 48.4375 
L 92.1875 40.234375 
Q 86.71875 40.625 79.296875 40.625 
L 55.078125 40.625 
Q 60.546875 25.78125 70.703125 15.234375 
Q 80.859375 4.6875 96.875 0.78125 
Q 91.40625 -3.515625 90.234375 -7.03125 
Q 78.125 -2.734375 67.96875 6.4375 
Q 57.8125 15.625 50.390625 32.8125 
Q 45.703125 16.796875 35.546875 7.21875 
Q 25.390625 -2.34375 10.15625 -8.984375 
Q 8.59375 -5.078125 3.515625 -1.5625 
Q 14.84375 1.5625 27.34375 11.515625 
Q 39.84375 21.484375 44.921875 40.625 
L 23.4375 40.625 
Q 14.84375 40.625 8.984375 40.234375 
L 8.984375 48.4375 
Q 15.234375 48.046875 23.4375 48.046875 
L 46.09375 48.046875 
L 46.09375 69.140625 
L 29.6875 69.140625 
Q 21.484375 69.140625 15.625 68.75 
L 15.625 76.953125 
Q 21.875 76.5625 29.6875 76.5625 
z
" id="SimHei-22825"/>
     <path d="M 22.265625 20.3125 
Q 33.984375 28.515625 39.640625 37.109375 
Q 45.3125 45.703125 45.703125 58.59375 
L 19.140625 58.59375 
L 19.140625 -7.8125 
L 10.15625 -7.8125 
Q 10.9375 0 10.9375 5.46875 
L 10.9375 48.828125 
Q 10.9375 56.640625 10.546875 65.234375 
L 46.09375 65.234375 
Q 46.09375 75.78125 45.703125 80.859375 
Q 51.953125 80.46875 55.46875 80.46875 
Q 53.515625 75.390625 53.515625 65.234375 
L 90.234375 65.234375 
Q 89.453125 57.03125 89.453125 48.828125 
L 89.453125 1.171875 
Q 89.453125 -4.6875 84.765625 -6.046875 
Q 80.078125 -7.421875 71.875 -8.59375 
Q 70.703125 -4.6875 66.40625 0 
Q 75.78125 0 78.515625 0.578125 
Q 81.25 1.171875 81.25 4.296875 
L 81.25 58.59375 
L 53.125 58.59375 
Q 53.125 51.5625 51.953125 44.921875 
Q 55.46875 42.1875 64.453125 35.34375 
Q 73.4375 28.515625 77.34375 24.609375 
Q 73.046875 21.09375 70.703125 18.359375 
Q 64.0625 26.171875 49.609375 37.890625 
Q 42.578125 25.78125 31.25 15.234375 
Q 26.5625 19.140625 22.265625 20.3125 
z
" id="SimHei-20869"/>
     <path d="M 32.8125 77.734375 
Q 30.859375 74.21875 27.34375 61.71875 
L 44.921875 61.71875 
Q 44.53125 55.078125 44.53125 44.921875 
L 44.53125 10.546875 
Q 44.53125 4.6875 44.921875 -6.25 
L 37.109375 -6.25 
L 37.109375 1.5625 
L 17.1875 1.5625 
L 17.1875 -7.03125 
L 9.375 -7.03125 
Q 9.765625 5.46875 9.765625 8.59375 
L 9.765625 44.53125 
Q 9.765625 55.078125 9.375 61.71875 
L 20.703125 61.71875 
Q 22.65625 70.703125 23.828125 80.46875 
Q 29.296875 78.515625 32.8125 77.734375 
z
M 91.015625 48.046875 
Q 90.625 24.21875 89.0625 2.734375 
Q 88.28125 -4.296875 81.640625 -6.640625 
Q 75 -8.984375 66.796875 -9.765625 
Q 66.40625 -5.46875 63.28125 -0.78125 
Q 71.09375 -1.171875 75.578125 -0.390625 
Q 80.078125 0.390625 81.25 3.125 
Q 82.421875 5.859375 83 19.140625 
Q 83.59375 32.421875 83.984375 56.25 
L 61.328125 56.25 
Q 58.203125 48.828125 52.34375 38.671875 
Q 49.609375 41.40625 45.703125 42.96875 
Q 49.21875 47.65625 52.34375 54.296875 
Q 55.46875 60.9375 57.8125 68.75 
Q 60.15625 76.5625 60.546875 80.859375 
Q 66.015625 78.515625 69.921875 77.34375 
Q 67.96875 74.21875 66.59375 70.5 
Q 65.234375 66.796875 63.671875 63.28125 
L 91.40625 63.28125 
Q 91.015625 55.078125 91.015625 48.046875 
z
M 37.109375 8.203125 
L 37.109375 28.90625 
L 17.1875 28.90625 
L 17.1875 8.203125 
z
M 37.109375 35.546875 
L 37.109375 55.078125 
L 17.1875 55.078125 
L 17.1875 35.546875 
z
M 67.96875 32.03125 
Q 70.3125 27.34375 73.4375 19.921875 
Q 70.703125 18.75 66.015625 16.015625 
Q 63.28125 23.4375 60.9375 28.703125 
Q 58.59375 33.984375 56.25 37.5 
Q 58.984375 39.0625 63.28125 41.40625 
z
" id="SimHei-30340"/>
     <path d="M 81.25 30.859375 
Q 77.34375 25 70.890625 17.765625 
Q 64.453125 10.546875 57.421875 5.859375 
Q 61.328125 3.515625 71.875 1.359375 
Q 82.421875 -0.78125 93.75 -1.171875 
Q 89.0625 -6.25 88.28125 -9.765625 
Q 75.78125 -8.203125 65.8125 -4.875 
Q 55.859375 -1.5625 50.390625 1.953125 
Q 43.75 -1.953125 33.59375 -5.078125 
Q 23.4375 -8.203125 10.9375 -10.546875 
Q 9.375 -6.640625 6.25 -2.734375 
Q 14.84375 -2.34375 26.359375 0.1875 
Q 37.890625 2.734375 44.140625 5.859375 
Q 35.546875 12.109375 26.171875 24.609375 
Q 21.09375 24.609375 15.625 24.21875 
L 15.625 31.25 
Q 22.65625 30.859375 32.421875 30.859375 
z
M 50.390625 82.421875 
Q 53.125 76.5625 55.46875 69.921875 
L 73.046875 69.921875 
Q 84.375 69.921875 93.359375 70.3125 
L 93.359375 62.890625 
Q 83.984375 63.28125 73.828125 63.28125 
L 64.453125 63.28125 
L 64.453125 46.09375 
Q 64.453125 39.84375 64.84375 33.59375 
L 56.25 33.59375 
Q 56.640625 39.84375 56.640625 46.09375 
L 56.640625 63.28125 
L 42.96875 63.28125 
L 42.96875 46.09375 
Q 42.96875 41.796875 43.359375 33.59375 
L 34.765625 33.59375 
Q 35.15625 41.796875 35.15625 46.09375 
L 35.15625 63.28125 
L 26.5625 63.28125 
Q 15.234375 63.28125 6.640625 62.890625 
L 6.640625 70.3125 
Q 14.84375 69.921875 26.5625 69.921875 
L 46.484375 69.921875 
Q 45.703125 73.046875 42.1875 80.078125 
Q 46.09375 80.46875 50.390625 82.421875 
z
M 34.375 24.609375 
Q 41.40625 15.234375 50.78125 9.375 
Q 60.15625 15.625 66.796875 24.609375 
L 34.375 24.609375 
z
M 75.78125 58.59375 
Q 83.984375 51.171875 92.96875 41.796875 
Q 89.84375 39.453125 85.9375 35.9375 
Q 79.296875 43.75 69.53125 53.125 
Q 73.046875 55.859375 75.78125 58.59375 
z
M 28.515625 54.6875 
Q 26.5625 52.734375 22.265625 47.265625 
Q 17.96875 41.796875 12.890625 35.9375 
Q 8.984375 38.671875 5.859375 40.625 
Q 15.234375 49.21875 20.3125 59.765625 
Q 23.828125 57.03125 28.515625 54.6875 
z
" id="SimHei-21464"/>
     <path d="M 61.328125 78.515625 
Q 60.9375 76.5625 60.9375 68.75 
L 60.9375 41.015625 
Q 68.359375 47.265625 74.609375 53.90625 
Q 80.859375 60.546875 84.375 67.1875 
Q 87.5 64.0625 92.1875 61.328125 
Q 89.0625 57.8125 81.640625 50.1875 
Q 74.21875 42.578125 70.109375 39.25 
Q 66.015625 35.9375 60.9375 31.640625 
L 60.9375 7.03125 
Q 60.9375 0.78125 66.015625 0.78125 
L 81.25 0.78125 
Q 84.375 1.171875 85.34375 4.09375 
Q 86.328125 7.03125 87.109375 13.28125 
Q 90.625 10.15625 96.09375 9.375 
Q 93.75 -1.5625 91.015625 -3.90625 
Q 88.28125 -6.25 83.59375 -6.25 
L 61.71875 -6.25 
Q 53.515625 -6.25 53.125 3.125 
L 53.125 26.171875 
Q 50.390625 23.828125 46.28125 21.09375 
Q 42.1875 18.359375 37.109375 15.234375 
Q 34.765625 19.140625 31.640625 21.875 
Q 36.71875 24.21875 42.765625 27.921875 
Q 48.828125 31.640625 53.125 35.15625 
L 53.125 70.3125 
Q 53.125 75 52.734375 78.515625 
L 61.328125 78.515625 
z
M 37.5 75.78125 
Q 33.984375 71.09375 32.421875 67.765625 
Q 30.859375 64.453125 28.515625 58.984375 
L 28.515625 10.546875 
Q 28.515625 -1.171875 28.90625 -8.59375 
L 20.703125 -8.59375 
Q 21.09375 -1.953125 21.09375 10.15625 
L 21.09375 47.65625 
Q 17.578125 42.578125 15.03125 39.453125 
Q 12.5 36.328125 10.546875 33.984375 
Q 7.8125 37.109375 4.296875 39.453125 
Q 9.765625 44.53125 13.671875 50.1875 
Q 17.578125 55.859375 20.5 61.125 
Q 23.4375 66.40625 25.390625 71.484375 
Q 27.34375 76.5625 28.515625 79.6875 
Q 30.859375 77.734375 37.5 75.78125 
z
" id="SimHei-21270"/>
     <path id="SimHei-32"/>
     <path d="M 28.90625 1.953125 
L 19.921875 1.953125 
L 19.921875 68.75 
L 28.90625 68.75 
z
" id="SimHei-73"/>
     <path d="M 45.703125 35.15625 
Q 45.703125 17.1875 38.078125 9.5625 
Q 30.46875 1.953125 17.578125 1.953125 
L 4.296875 1.953125 
L 4.296875 68.75 
L 17.578125 68.75 
Q 32.03125 68.75 38.859375 60.9375 
Q 45.703125 53.125 45.703125 35.15625 
z
M 36.328125 35.15625 
Q 36.328125 49.609375 31.640625 55.46875 
Q 26.953125 61.328125 17.578125 61.328125 
L 13.28125 61.328125 
L 13.28125 9.375 
L 17.578125 9.375 
Q 26.953125 9.375 31.640625 15.03125 
Q 36.328125 20.703125 36.328125 35.15625 
z
" id="SimHei-68"/>
     <path d="M 46.484375 45.3125 
L 1.953125 45.3125 
L 1.953125 51.5625 
L 46.484375 51.5625 
z
M 46.484375 21.484375 
L 1.953125 21.484375 
L 1.953125 27.734375 
L 46.484375 27.734375 
z
" id="SimHei-61"/>
    </defs>
    <g transform="translate(182.830625 26.8875)scale(0.2 -0.2)">
     <use xlink:href="#SimHei-55"/>
     <use x="50" xlink:href="#SimHei-22825"/>
     <use x="150" xlink:href="#SimHei-20869"/>
     <use x="250" xlink:href="#SimHei-30340"/>
     <use x="350" xlink:href="#SimHei-27969"/>
     <use x="450" xlink:href="#SimHei-37327"/>
     <use x="550" xlink:href="#SimHei-21464"/>
     <use x="650" xlink:href="#SimHei-21270"/>
     <use x="750" xlink:href="#SimHei-32"/>
     <use x="800" xlink:href="#SimHei-73"/>
     <use x="850" xlink:href="#SimHei-68"/>
     <use x="900" xlink:href="#SimHei-61"/>
     <use x="950" xlink:href="#SimHei-49"/>
     <use x="1000" xlink:href="#SimHei-48"/>
     <use x="1050" xlink:href="#SimHei-48"/>
    </g>
   </g>
   <g id="legend_1">
    <g id="patch_7">
     <path d="M 523.6 45.8875 
L 527.6 45.8875 
Q 529.6 45.8875 529.6 43.8875 
L 529.6 39.8875 
Q 529.6 37.8875 527.6 37.8875 
L 523.6 37.8875 
Q 521.6 37.8875 521.6 39.8875 
L 521.6 43.8875 
Q 521.6 45.8875 523.6 45.8875 
z
" style="fill:#ffffff;opacity:0.8;stroke:#cccccc;stroke-linejoin:miter;"/>
    </g>
   </g>
  </g>
  <g id="axes_2">
   <g id="patch_8">
    <path d="M 585.66125 454.44625 
L 1069.2 454.44625 
L 1069.2 32.8875 
L 585.66125 32.8875 
z
" style="fill:#ffffff;"/>
   </g>
   <g id="matplotlib.axis_3">
    <g id="xtick_8">
     <g id="line2d_15">
      <g>
       <use style="stroke:#000000;stroke-width:0.8;" x="610.272504" xlink:href="#ma644956c21" y="454.44625"/>
      </g>
     </g>
     <g id="text_17">
      <!-- 星期六 -->
      <g transform="translate(587.772504 473.106406)scale(0.15 -0.15)">
       <use xlink:href="#SimHei-26143"/>
       <use x="100" xlink:href="#SimHei-26399"/>
       <use x="200" xlink:href="#SimHei-20845"/>
      </g>
     </g>
    </g>
    <g id="xtick_9">
     <g id="line2d_16">
      <g>
       <use style="stroke:#000000;stroke-width:0.8;" x="673.445775" xlink:href="#ma644956c21" y="454.44625"/>
      </g>
     </g>
     <g id="text_18">
      <!-- 星期日 -->
      <g transform="translate(650.945775 473.106406)scale(0.15 -0.15)">
       <use xlink:href="#SimHei-26143"/>
       <use x="100" xlink:href="#SimHei-26399"/>
       <use x="200" xlink:href="#SimHei-26085"/>
      </g>
     </g>
    </g>
    <g id="xtick_10">
     <g id="line2d_17">
      <g>
       <use style="stroke:#000000;stroke-width:0.8;" x="736.619047" xlink:href="#ma644956c21" y="454.44625"/>
      </g>
     </g>
     <g id="text_19">
      <!-- 星期一 -->
      <g transform="translate(714.119047 473.106406)scale(0.15 -0.15)">
       <use xlink:href="#SimHei-26143"/>
       <use x="100" xlink:href="#SimHei-26399"/>
       <use x="200" xlink:href="#SimHei-19968"/>
      </g>
     </g>
    </g>
    <g id="xtick_11">
     <g id="line2d_18">
      <g>
       <use style="stroke:#000000;stroke-width:0.8;" x="799.792319" xlink:href="#ma644956c21" y="454.44625"/>
      </g>
     </g>
     <g id="text_20">
      <!-- 星期二 -->
      <g transform="translate(777.292319 473.106406)scale(0.15 -0.15)">
       <use xlink:href="#SimHei-26143"/>
       <use x="100" xlink:href="#SimHei-26399"/>
       <use x="200" xlink:href="#SimHei-20108"/>
      </g>
     </g>
    </g>
    <g id="xtick_12">
     <g id="line2d_19">
      <g>
       <use style="stroke:#000000;stroke-width:0.8;" x="862.96559" xlink:href="#ma644956c21" y="454.44625"/>
      </g>
     </g>
     <g id="text_21">
      <!-- 星期三 -->
      <g transform="translate(840.46559 473.106406)scale(0.15 -0.15)">
       <use xlink:href="#SimHei-26143"/>
       <use x="100" xlink:href="#SimHei-26399"/>
       <use x="200" xlink:href="#SimHei-19977"/>
      </g>
     </g>
    </g>
    <g id="xtick_13">
     <g id="line2d_20">
      <g>
       <use style="stroke:#000000;stroke-width:0.8;" x="926.138862" xlink:href="#ma644956c21" y="454.44625"/>
      </g>
     </g>
     <g id="text_22">
      <!-- 星期四 -->
      <g transform="translate(903.638862 473.106406)scale(0.15 -0.15)">
       <use xlink:href="#SimHei-26143"/>
       <use x="100" xlink:href="#SimHei-26399"/>
       <use x="200" xlink:href="#SimHei-22235"/>
      </g>
     </g>
    </g>
    <g id="xtick_14">
     <g id="line2d_21">
      <g>
       <use style="stroke:#000000;stroke-width:0.8;" x="989.312134" xlink:href="#ma644956c21" y="454.44625"/>
      </g>
     </g>
     <g id="text_23">
      <!-- 星期五 -->
      <g transform="translate(966.812134 473.106406)scale(0.15 -0.15)">
       <use xlink:href="#SimHei-26143"/>
       <use x="100" xlink:href="#SimHei-26399"/>
       <use x="200" xlink:href="#SimHei-20116"/>
      </g>
     </g>
    </g>
    <g id="text_24">
     <!-- 时间 -->
     <g transform="translate(812.430625 490.993125)scale(0.15 -0.15)">
      <use xlink:href="#SimHei-26102"/>
      <use x="100" xlink:href="#SimHei-38388"/>
     </g>
    </g>
   </g>
   <g id="matplotlib.axis_4">
    <g id="ytick_7">
     <g id="line2d_22">
      <g>
       <use style="stroke:#000000;stroke-width:0.8;" x="585.66125" xlink:href="#m2ecca4a51d" y="454.44625"/>
      </g>
     </g>
     <g id="text_25">
      <!-- 0 -->
      <g transform="translate(573.66125 457.88375)scale(0.1 -0.1)">
       <use xlink:href="#SimHei-48"/>
      </g>
     </g>
    </g>
    <g id="ytick_8">
     <g id="line2d_23">
      <g>
       <use style="stroke:#000000;stroke-width:0.8;" x="585.66125" xlink:href="#m2ecca4a51d" y="370.1345"/>
      </g>
     </g>
     <g id="text_26">
      <!-- 50 -->
      <g transform="translate(568.66125 373.572)scale(0.1 -0.1)">
       <use xlink:href="#SimHei-53"/>
       <use x="50" xlink:href="#SimHei-48"/>
      </g>
     </g>
    </g>
    <g id="ytick_9">
     <g id="line2d_24">
      <g>
       <use style="stroke:#000000;stroke-width:0.8;" x="585.66125" xlink:href="#m2ecca4a51d" y="285.82275"/>
      </g>
     </g>
     <g id="text_27">
      <!-- 100 -->
      <g transform="translate(563.66125 289.26025)scale(0.1 -0.1)">
       <use xlink:href="#SimHei-49"/>
       <use x="50" xlink:href="#SimHei-48"/>
       <use x="100" xlink:href="#SimHei-48"/>
      </g>
     </g>
    </g>
    <g id="ytick_10">
     <g id="line2d_25">
      <g>
       <use style="stroke:#000000;stroke-width:0.8;" x="585.66125" xlink:href="#m2ecca4a51d" y="201.511"/>
      </g>
     </g>
     <g id="text_28">
      <!-- 150 -->
      <g transform="translate(563.66125 204.9485)scale(0.1 -0.1)">
       <use xlink:href="#SimHei-49"/>
       <use x="50" xlink:href="#SimHei-53"/>
       <use x="100" xlink:href="#SimHei-48"/>
      </g>
     </g>
    </g>
    <g id="ytick_11">
     <g id="line2d_26">
      <g>
       <use style="stroke:#000000;stroke-width:0.8;" x="585.66125" xlink:href="#m2ecca4a51d" y="117.19925"/>
      </g>
     </g>
     <g id="text_29">
      <!-- 200 -->
      <g transform="translate(563.66125 120.63675)scale(0.1 -0.1)">
       <use xlink:href="#SimHei-50"/>
       <use x="50" xlink:href="#SimHei-48"/>
       <use x="100" xlink:href="#SimHei-48"/>
      </g>
     </g>
    </g>
    <g id="ytick_12">
     <g id="line2d_27">
      <g>
       <use style="stroke:#000000;stroke-width:0.8;" x="585.66125" xlink:href="#m2ecca4a51d" y="32.8875"/>
      </g>
     </g>
     <g id="text_30">
      <!-- 250 -->
      <g transform="translate(563.66125 36.325)scale(0.1 -0.1)">
       <use xlink:href="#SimHei-50"/>
       <use x="50" xlink:href="#SimHei-53"/>
       <use x="100" xlink:href="#SimHei-48"/>
      </g>
     </g>
    </g>
    <g id="text_31">
     <!-- 流量 -->
     <g transform="translate(557.78625 258.666875)rotate(-90)scale(0.15 -0.15)">
      <use xlink:href="#SimHei-27969"/>
      <use x="100" xlink:href="#SimHei-37327"/>
     </g>
    </g>
   </g>
   <g id="line2d_28">
    <path clip-path="url(#p6e662dcbcc)" d="M 607.640284 421.307138 
L 610.272504 432.84064 
L 612.904723 442.439997 
L 618.169163 435.666782 
L 620.801382 447.089742 
L 623.433602 434.527527 
L 626.065822 430.751758 
L 628.698041 394.392418 
L 631.330261 281.62601 
L 633.962481 246.866437 
L 636.5947 303.940089 
L 639.22692 227.426442 
L 641.85914 343.054536 
L 644.491359 305.208399 
L 647.123579 331.876199 
L 649.755799 338.568724 
L 652.388018 263.250732 
L 655.020238 243.589222 
L 657.652457 307.554975 
L 660.284677 302.074547 
L 665.549116 388.372194 
L 668.181336 421.639706 
L 670.813556 420.869178 
L 673.445775 432.532404 
L 676.077995 440.008455 
L 678.710215 435.924765 
L 681.342434 434.790512 
L 683.974654 447.362513 
L 686.606874 433.713756 
L 689.239093 428.699866 
L 691.871313 389.803847 
L 694.503533 256.618721 
L 697.135752 233.714342 
L 699.767972 294.999832 
L 702.400192 204.18639 
L 705.032411 330.591484 
L 707.664631 286.643055 
L 710.296851 321.90107 
L 712.92907 331.164836 
L 715.56129 242.803338 
L 718.193509 222.197986 
L 720.825729 300.260774 
L 723.457949 297.542547 
L 728.722388 386.79085 
L 731.354608 419.724155 
L 733.986827 439.646149 
L 736.619047 443.891578 
L 739.251267 445.301529 
L 741.883486 443.194192 
L 744.515706 450.92957 
L 747.147926 448.806688 
L 749.780145 444.637749 
L 752.412365 442.857017 
L 755.044585 431.526403 
L 757.676804 389.033935 
L 760.309024 368.191224 
L 762.941244 364.853845 
L 765.573463 378.096936 
L 768.205683 404.051364 
L 770.837902 394.202877 
L 773.470122 398.598579 
L 776.102342 402.471566 
L 778.734561 375.369164 
L 781.366781 378.637092 
L 783.999001 397.50653 
L 786.63122 388.470792 
L 789.26344 417.37905 
L 791.89566 434.401796 
L 794.527879 442.742328 
L 797.160099 438.310237 
L 799.792319 434.637652 
L 802.424538 437.071072 
L 805.056758 433.498797 
L 807.688978 450.047793 
L 810.321197 444.007481 
L 812.953417 440.147199 
L 815.585637 421.467645 
L 818.217856 427.887878 
L 820.850076 410.274349 
L 823.482296 385.144674 
L 826.114515 385.942513 
L 828.746735 387.387305 
L 831.378954 392.220019 
L 834.011174 395.209164 
L 836.643394 388.782476 
L 839.275613 397.886546 
L 841.907833 379.526243 
L 844.540053 379.009389 
L 847.172272 383.752464 
L 849.804492 404.474078 
L 852.436712 420.75642 
L 855.068931 429.258527 
L 857.701151 436.491885 
L 860.333371 436.92291 
L 862.96559 438.368287 
L 865.59781 444.741967 
L 868.23003 440.718738 
L 870.862249 451.894063 
L 873.494469 442.058397 
L 876.126689 441.979312 
L 878.758908 430.854179 
L 881.391128 424.278952 
L 884.023348 397.735443 
L 886.655567 381.276365 
L 889.287787 366.47273 
L 891.920006 370.653723 
L 894.552226 390.613403 
L 897.184446 392.22358 
L 899.816665 393.12354 
L 902.448885 386.471639 
L 905.081105 359.196208 
L 907.713324 372.866675 
L 910.345544 381.088085 
L 912.977764 400.109797 
L 915.609983 403.747681 
L 918.242203 432.249636 
L 920.874423 436.472019 
L 923.506642 440.281033 
L 926.138862 441.92722 
L 928.771082 445.032355 
L 931.403301 447.903972 
L 934.035521 453.998472 
L 936.667741 446.825514 
L 939.29996 443.862521 
L 941.93218 438.050595 
L 944.564399 421.581676 
L 947.196619 378.904657 
L 949.828839 378.968517 
L 952.461058 351.008714 
L 955.093278 348.939196 
L 957.725498 387.341031 
L 960.357717 381.344394 
L 962.989937 396.545289 
L 965.622157 387.35413 
L 968.254376 347.157347 
L 970.886596 366.510649 
L 973.518816 374.360251 
L 976.151035 396.297829 
L 978.783255 395.975837 
L 981.415475 436.045064 
L 984.047694 432.364676 
L 986.679914 440.213604 
L 989.312134 438.702556 
L 991.944353 443.471512 
L 994.576573 447.275847 
L 997.208793 453.333372 
L 999.841012 448.909409 
L 1002.473232 443.599374 
L 1005.105451 435.705514 
L 1007.737671 416.032573 
L 1010.369891 375.164711 
L 1013.00211 376.082958 
L 1015.63433 348.807709 
L 1018.26655 331.566322 
L 1020.898769 378.535229 
L 1023.530989 369.268712 
L 1026.163209 383.460625 
L 1028.795428 376.654838 
L 1031.427648 333.885374 
L 1034.059868 348.878653 
L 1036.692087 359.579497 
L 1039.324307 395.024552 
L 1041.956527 394.921949 
L 1044.588746 433.928935 
L 1047.220966 429.788672 
L 1047.220966 429.788672 
" style="fill:none;stroke:#1f77b4;stroke-linecap:square;stroke-width:1.5;"/>
   </g>
   <g id="patch_9">
    <path d="M 585.66125 454.44625 
L 585.66125 32.8875 
" style="fill:none;stroke:#000000;stroke-linecap:square;stroke-linejoin:miter;stroke-width:0.8;"/>
   </g>
   <g id="patch_10">
    <path d="M 1069.2 454.44625 
L 1069.2 32.8875 
" style="fill:none;stroke:#000000;stroke-linecap:square;stroke-linejoin:miter;stroke-width:0.8;"/>
   </g>
   <g id="patch_11">
    <path d="M 585.66125 454.44625 
L 1069.2 454.44625 
" style="fill:none;stroke:#000000;stroke-linecap:square;stroke-linejoin:miter;stroke-width:0.8;"/>
   </g>
   <g id="patch_12">
    <path d="M 585.66125 32.8875 
L 1069.2 32.8875 
" style="fill:none;stroke:#000000;stroke-linecap:square;stroke-linejoin:miter;stroke-width:0.8;"/>
   </g>
   <g id="text_32">
    <!-- 7天内的流量变化 ID=200 -->
    <g transform="translate(717.430625 26.8875)scale(0.2 -0.2)">
     <use xlink:href="#SimHei-55"/>
     <use x="50" xlink:href="#SimHei-22825"/>
     <use x="150" xlink:href="#SimHei-20869"/>
     <use x="250" xlink:href="#SimHei-30340"/>
     <use x="350" xlink:href="#SimHei-27969"/>
     <use x="450" xlink:href="#SimHei-37327"/>
     <use x="550" xlink:href="#SimHei-21464"/>
     <use x="650" xlink:href="#SimHei-21270"/>
     <use x="750" xlink:href="#SimHei-32"/>
     <use x="800" xlink:href="#SimHei-73"/>
     <use x="850" xlink:href="#SimHei-68"/>
     <use x="900" xlink:href="#SimHei-61"/>
     <use x="950" xlink:href="#SimHei-50"/>
     <use x="1000" xlink:href="#SimHei-48"/>
     <use x="1050" xlink:href="#SimHei-48"/>
    </g>
   </g>
   <g id="legend_2">
    <g id="patch_13">
     <path d="M 1058.2 45.8875 
L 1062.2 45.8875 
Q 1064.2 45.8875 1064.2 43.8875 
L 1064.2 39.8875 
Q 1064.2 37.8875 1062.2 37.8875 
L 1058.2 37.8875 
Q 1056.2 37.8875 1056.2 39.8875 
L 1056.2 43.8875 
Q 1056.2 45.8875 1058.2 45.8875 
z
" style="fill:#ffffff;opacity:0.8;stroke:#cccccc;stroke-linejoin:miter;"/>
    </g>
   </g>
  </g>
 </g>
 <defs>
  <clipPath id="pcf5bc1fca5">
   <rect height="421.55875" width="483.53875" x="51.06125" y="32.8875"/>
  </clipPath>
  <clipPath id="p6e662dcbcc">
   <rect height="421.55875" width="483.53875" x="585.66125" y="32.8875"/>
  </clipPath>
 </defs>
</svg>
