<?xml version="1.0" encoding="utf-8" standalone="no"?>
<!DOCTYPE svg PUBLIC "-//W3C//DTD SVG 1.1//EN"
  "http://www.w3.org/Graphics/SVG/1.1/DTD/svg11.dtd">
<!-- Created with matplotlib (https://matplotlib.org/) -->
<svg height="576pt" version="1.1" viewBox="0 0 1080 576" width="1080pt" xmlns="http://www.w3.org/2000/svg" xmlns:xlink="http://www.w3.org/1999/xlink">
 <defs>
  <style type="text/css">
*{stroke-linecap:butt;stroke-linejoin:round;}
  </style>
 </defs>
 <g id="figure_1">
  <g id="patch_1">
   <path d="M 0 576 
L 1080 576 
L 1080 0 
L 0 0 
z
" style="fill:#ffffff;"/>
  </g>
  <g id="axes_1">
   <g id="patch_2">
    <path d="M 57.76 259.641875 
L 1069.2 259.641875 
L 1069.2 33.0675 
L 57.76 33.0675 
z
" style="fill:#ffffff;"/>
   </g>
   <g id="PolyCollection_1">
    <path clip-path="url(#p6d0e32aca6)" d="M 126.161153 138.074037 
L 126.161153 154.635338 
L 193.440976 155.045668 
L 238.294191 155.256094 
L 283.147406 155.286693 
L 328.000621 155.302916 
L 372.853836 155.338965 
L 417.707051 155.338975 
L 462.560266 155.359642 
L 507.413481 155.360132 
L 552.266696 155.430817 
L 597.119911 155.742551 
L 641.973126 156.576736 
L 686.826341 157.507604 
L 731.679557 158.252348 
L 776.532772 158.519594 
L 821.385987 158.588756 
L 866.239202 158.589207 
L 911.092417 158.6006 
L 955.945632 158.603917 
L 1023.225455 158.646235 
L 1023.225455 134.06314 
L 1023.225455 134.06314 
L 955.945632 134.105458 
L 911.092417 134.108775 
L 866.239202 134.120168 
L 821.385987 134.120619 
L 776.532772 134.189781 
L 731.679557 134.457027 
L 686.826341 135.201771 
L 641.973126 136.132639 
L 597.119911 136.966824 
L 552.266696 137.278558 
L 507.413481 137.349243 
L 462.560266 137.349733 
L 417.707051 137.3704 
L 372.853836 137.37041 
L 328.000621 137.406459 
L 283.147406 137.422682 
L 238.294191 137.453281 
L 193.440976 137.663707 
L 126.161153 138.074037 
z
" style="fill:#1f77b4;fill-opacity:0.25;"/>
   </g>
   <g id="matplotlib.axis_1">
    <g id="xtick_1">
     <g id="line2d_1">
      <defs>
       <path d="M 0 0 
L 0 3.5 
" id="m92b0e9c810" style="stroke:#000000;stroke-width:0.8;"/>
      </defs>
      <g>
       <use style="stroke:#000000;stroke-width:0.8;" x="103.734545" xlink:href="#m92b0e9c810" y="259.641875"/>
      </g>
     </g>
     <g id="text_1">
      <!-- 0 -->
      <defs>
       <path d="M 3.125 29.296875 
Q 3.90625 50 6.4375 56.046875 
Q 8.984375 62.109375 13.671875 66.015625 
Q 18.359375 69.921875 25.1875 69.921875 
Q 32.03125 69.921875 37.109375 64.25 
Q 42.1875 58.59375 43.75 50 
Q 45.3125 41.40625 44.71875 30.265625 
Q 44.140625 19.140625 40.8125 12.109375 
Q 37.5 5.078125 30.859375 2.34375 
Q 24.21875 -0.390625 17.578125 2.921875 
Q 10.9375 6.25 8.203125 11.71875 
Q 5.46875 17.1875 4.296875 23.234375 
Q 3.125 29.296875 3.90625 50 
z
M 12.890625 52.734375 
Q 10.546875 31.25 12.5 22.84375 
Q 14.453125 14.453125 18.9375 10.9375 
Q 23.4375 7.421875 28.125 9.5625 
Q 32.8125 11.71875 34.953125 18.15625 
Q 37.109375 24.609375 37.109375 32.21875 
Q 37.109375 39.84375 36.515625 46.09375 
Q 35.9375 52.34375 33 57.421875 
Q 30.078125 62.5 25.1875 62.6875 
Q 20.3125 62.890625 16.59375 57.8125 
Q 12.890625 52.734375 10.546875 31.25 
z
" id="SimHei-48"/>
      </defs>
      <g transform="translate(98.734545 280.391875)scale(0.2 -0.2)">
       <use xlink:href="#SimHei-48"/>
      </g>
     </g>
    </g>
    <g id="xtick_2">
     <g id="line2d_2">
      <g>
       <use style="stroke:#000000;stroke-width:0.8;" x="328.000621" xlink:href="#m92b0e9c810" y="259.641875"/>
      </g>
     </g>
     <g id="text_2">
      <!-- 5 -->
      <defs>
       <path d="M 8.59375 20.703125 
Q 11.328125 10.15625 17.96875 8.984375 
Q 24.609375 7.8125 28.703125 10.34375 
Q 32.8125 12.890625 34.5625 16.984375 
Q 36.328125 21.09375 36.125 26.171875 
Q 35.9375 31.25 33.390625 34.765625 
Q 30.859375 38.28125 26.953125 39.453125 
Q 23.046875 40.625 18.15625 39.453125 
Q 13.28125 38.28125 10.15625 33.984375 
L 3.515625 34.765625 
Q 4.296875 37.109375 10.9375 68.359375 
L 41.796875 68.359375 
L 41.796875 61.328125 
L 16.796875 61.328125 
Q 14.84375 50.78125 12.890625 44.53125 
Q 18.75 47.265625 23.828125 47.0625 
Q 28.90625 46.875 33.59375 44.71875 
Q 38.28125 42.578125 40.421875 38.859375 
Q 42.578125 35.15625 43.546875 31.4375 
Q 44.53125 27.734375 44.328125 23.4375 
Q 44.140625 19.140625 42.578125 14.640625 
Q 41.015625 10.15625 37.890625 7.21875 
Q 34.765625 4.296875 30.265625 2.53125 
Q 25.78125 0.78125 19.921875 1.171875 
Q 14.0625 1.5625 8.78125 5.46875 
Q 3.515625 9.375 1.5625 18.75 
z
" id="SimHei-53"/>
      </defs>
      <g transform="translate(323.000621 280.391875)scale(0.2 -0.2)">
       <use xlink:href="#SimHei-53"/>
      </g>
     </g>
    </g>
    <g id="xtick_3">
     <g id="line2d_3">
      <g>
       <use style="stroke:#000000;stroke-width:0.8;" x="552.266696" xlink:href="#m92b0e9c810" y="259.641875"/>
      </g>
     </g>
     <g id="text_3">
      <!-- 10 -->
      <defs>
       <path d="M 21.875 56.25 
Q 16.796875 51.171875 8.984375 46.484375 
L 8.984375 53.90625 
Q 18.75 60.546875 25 69.53125 
L 29.6875 69.53125 
L 29.6875 2.34375 
L 21.875 2.34375 
z
" id="SimHei-49"/>
      </defs>
      <g transform="translate(542.266696 280.391875)scale(0.2 -0.2)">
       <use xlink:href="#SimHei-49"/>
       <use x="50" xlink:href="#SimHei-48"/>
      </g>
     </g>
    </g>
    <g id="xtick_4">
     <g id="line2d_4">
      <g>
       <use style="stroke:#000000;stroke-width:0.8;" x="776.532772" xlink:href="#m92b0e9c810" y="259.641875"/>
      </g>
     </g>
     <g id="text_4">
      <!-- 15 -->
      <g transform="translate(766.532772 280.391875)scale(0.2 -0.2)">
       <use xlink:href="#SimHei-49"/>
       <use x="50" xlink:href="#SimHei-53"/>
      </g>
     </g>
    </g>
    <g id="xtick_5">
     <g id="line2d_5">
      <g>
       <use style="stroke:#000000;stroke-width:0.8;" x="1000.798847" xlink:href="#m92b0e9c810" y="259.641875"/>
      </g>
     </g>
     <g id="text_5">
      <!-- 20 -->
      <defs>
       <path d="M 4.6875 3.90625 
Q 5.078125 9.765625 10.15625 14.453125 
Q 15.234375 19.140625 23.046875 29.09375 
Q 30.859375 39.0625 33.203125 44.53125 
Q 35.546875 50 34.953125 53.90625 
Q 34.375 57.8125 31.25 60.34375 
Q 28.125 62.890625 24.015625 62.5 
Q 19.921875 62.109375 16.203125 59.375 
Q 12.5 56.640625 10.546875 51.171875 
L 3.125 52.34375 
Q 6.25 61.328125 11.125 65.421875 
Q 16.015625 69.53125 22.65625 69.921875 
Q 26.5625 70.3125 29.6875 69.71875 
Q 32.8125 69.140625 36.125 66.984375 
Q 39.453125 64.84375 41.59375 60.546875 
Q 43.75 56.25 43.15625 50.1875 
Q 42.578125 44.140625 37.109375 35.734375 
Q 31.640625 27.34375 16.015625 9.375 
L 44.140625 9.375 
L 44.140625 2.34375 
L 4.6875 2.34375 
z
" id="SimHei-50"/>
      </defs>
      <g transform="translate(990.798847 280.391875)scale(0.2 -0.2)">
       <use xlink:href="#SimHei-50"/>
       <use x="50" xlink:href="#SimHei-48"/>
      </g>
     </g>
    </g>
   </g>
   <g id="matplotlib.axis_2">
    <g id="ytick_1">
     <g id="line2d_6">
      <defs>
       <path d="M 0 0 
L -3.5 0 
" id="m2bc98ff0da" style="stroke:#000000;stroke-width:0.8;"/>
      </defs>
      <g>
       <use style="stroke:#000000;stroke-width:0.8;" x="57.76" xlink:href="#m2bc98ff0da" y="259.641875"/>
      </g>
     </g>
     <g id="text_6">
      <!-- -1.0 -->
      <defs>
       <path d="M 46.484375 33.203125 
L 1.953125 33.203125 
L 1.953125 39.453125 
L 46.484375 39.453125 
z
" id="SimHei-45"/>
       <path d="M 16.796875 1.953125 
L 7.8125 1.953125 
L 7.8125 10.546875 
L 16.796875 10.546875 
z
" id="SimHei-46"/>
      </defs>
      <g transform="translate(10.76 266.516875)scale(0.2 -0.2)">
       <use xlink:href="#SimHei-45"/>
       <use x="50" xlink:href="#SimHei-49"/>
       <use x="100" xlink:href="#SimHei-46"/>
       <use x="150" xlink:href="#SimHei-48"/>
      </g>
     </g>
    </g>
    <g id="ytick_2">
     <g id="line2d_7">
      <g>
       <use style="stroke:#000000;stroke-width:0.8;" x="57.76" xlink:href="#m2bc98ff0da" y="202.998281"/>
      </g>
     </g>
     <g id="text_7">
      <!-- -0.5 -->
      <g transform="translate(10.76 209.873281)scale(0.2 -0.2)">
       <use xlink:href="#SimHei-45"/>
       <use x="50" xlink:href="#SimHei-48"/>
       <use x="100" xlink:href="#SimHei-46"/>
       <use x="150" xlink:href="#SimHei-53"/>
      </g>
     </g>
    </g>
    <g id="ytick_3">
     <g id="line2d_8">
      <g>
       <use style="stroke:#000000;stroke-width:0.8;" x="57.76" xlink:href="#m2bc98ff0da" y="146.354688"/>
      </g>
     </g>
     <g id="text_8">
      <!-- 0.0 -->
      <g transform="translate(20.76 153.229688)scale(0.2 -0.2)">
       <use xlink:href="#SimHei-48"/>
       <use x="50" xlink:href="#SimHei-46"/>
       <use x="100" xlink:href="#SimHei-48"/>
      </g>
     </g>
    </g>
    <g id="ytick_4">
     <g id="line2d_9">
      <g>
       <use style="stroke:#000000;stroke-width:0.8;" x="57.76" xlink:href="#m2bc98ff0da" y="89.711094"/>
      </g>
     </g>
     <g id="text_9">
      <!-- 0.5 -->
      <g transform="translate(20.76 96.586094)scale(0.2 -0.2)">
       <use xlink:href="#SimHei-48"/>
       <use x="50" xlink:href="#SimHei-46"/>
       <use x="100" xlink:href="#SimHei-53"/>
      </g>
     </g>
    </g>
    <g id="ytick_5">
     <g id="line2d_10">
      <g>
       <use style="stroke:#000000;stroke-width:0.8;" x="57.76" xlink:href="#m2bc98ff0da" y="33.0675"/>
      </g>
     </g>
     <g id="text_10">
      <!-- 1.0 -->
      <g transform="translate(20.76 39.9425)scale(0.2 -0.2)">
       <use xlink:href="#SimHei-49"/>
       <use x="50" xlink:href="#SimHei-46"/>
       <use x="100" xlink:href="#SimHei-48"/>
      </g>
     </g>
    </g>
   </g>
   <g id="LineCollection_1">
    <path clip-path="url(#p6d0e32aca6)" d="M 103.734545 146.354688 
L 103.734545 33.0675 
" style="fill:none;stroke:#000000;stroke-width:1.5;"/>
    <path clip-path="url(#p6d0e32aca6)" d="M 148.587761 146.354688 
L 148.587761 120.825901 
" style="fill:none;stroke:#000000;stroke-width:1.5;"/>
    <path clip-path="url(#p6d0e32aca6)" d="M 193.440976 146.354688 
L 193.440976 127.741842 
" style="fill:none;stroke:#000000;stroke-width:1.5;"/>
    <path clip-path="url(#p6d0e32aca6)" d="M 238.294191 146.354688 
L 238.294191 139.208537 
" style="fill:none;stroke:#000000;stroke-width:1.5;"/>
    <path clip-path="url(#p6d0e32aca6)" d="M 283.147406 146.354688 
L 283.147406 151.564863 
" style="fill:none;stroke:#000000;stroke-width:1.5;"/>
    <path clip-path="url(#p6d0e32aca6)" d="M 328.000621 146.354688 
L 328.000621 154.132759 
" style="fill:none;stroke:#000000;stroke-width:1.5;"/>
    <path clip-path="url(#p6d0e32aca6)" d="M 372.853836 146.354688 
L 372.853836 146.481553 
" style="fill:none;stroke:#000000;stroke-width:1.5;"/>
    <path clip-path="url(#p6d0e32aca6)" d="M 417.707051 146.354688 
L 417.707051 140.456057 
" style="fill:none;stroke:#000000;stroke-width:1.5;"/>
    <path clip-path="url(#p6d0e32aca6)" d="M 462.560266 146.354688 
L 462.560266 147.26338 
" style="fill:none;stroke:#000000;stroke-width:1.5;"/>
    <path clip-path="url(#p6d0e32aca6)" d="M 507.413481 146.354688 
L 507.413481 157.291317 
" style="fill:none;stroke:#000000;stroke-width:1.5;"/>
    <path clip-path="url(#p6d0e32aca6)" d="M 552.266696 146.354688 
L 552.266696 169.563678 
" style="fill:none;stroke:#000000;stroke-width:1.5;"/>
    <path clip-path="url(#p6d0e32aca6)" d="M 597.119911 146.354688 
L 597.119911 185.481116 
" style="fill:none;stroke:#000000;stroke-width:1.5;"/>
    <path clip-path="url(#p6d0e32aca6)" d="M 641.973126 146.354688 
L 641.973126 189.506418 
" style="fill:none;stroke:#000000;stroke-width:1.5;"/>
    <path clip-path="url(#p6d0e32aca6)" d="M 686.826341 146.354688 
L 686.826341 186.436337 
" style="fill:none;stroke:#000000;stroke-width:1.5;"/>
    <path clip-path="url(#p6d0e32aca6)" d="M 731.679557 146.354688 
L 731.679557 170.886425 
" style="fill:none;stroke:#000000;stroke-width:1.5;"/>
    <path clip-path="url(#p6d0e32aca6)" d="M 776.532772 146.354688 
L 776.532772 158.921385 
" style="fill:none;stroke:#000000;stroke-width:1.5;"/>
    <path clip-path="url(#p6d0e32aca6)" d="M 821.385987 146.354688 
L 821.385987 147.370539 
" style="fill:none;stroke:#000000;stroke-width:1.5;"/>
    <path clip-path="url(#p6d0e32aca6)" d="M 866.239202 146.354688 
L 866.239202 141.24579 
" style="fill:none;stroke:#000000;stroke-width:1.5;"/>
    <path clip-path="url(#p6d0e32aca6)" d="M 911.092417 146.354688 
L 911.092417 143.597075 
" style="fill:none;stroke:#000000;stroke-width:1.5;"/>
    <path clip-path="url(#p6d0e32aca6)" d="M 955.945632 146.354688 
L 955.945632 156.213169 
" style="fill:none;stroke:#000000;stroke-width:1.5;"/>
    <path clip-path="url(#p6d0e32aca6)" d="M 1000.798847 146.354688 
L 1000.798847 153.668623 
" style="fill:none;stroke:#000000;stroke-width:1.5;"/>
   </g>
   <g id="line2d_11">
    <path clip-path="url(#p6d0e32aca6)" d="M 57.76 146.354688 
L 1069.2 146.354688 
" style="fill:none;stroke:#1f77b4;stroke-linecap:square;stroke-width:1.5;"/>
   </g>
   <g id="line2d_12">
    <defs>
     <path d="M 0 2.5 
C 0.663008 2.5 1.29895 2.236584 1.767767 1.767767 
C 2.236584 1.29895 2.5 0.663008 2.5 0 
C 2.5 -0.663008 2.236584 -1.29895 1.767767 -1.767767 
C 1.29895 -2.236584 0.663008 -2.5 0 -2.5 
C -0.663008 -2.5 -1.29895 -2.236584 -1.767767 -1.767767 
C -2.236584 -1.29895 -2.5 -0.663008 -2.5 0 
C -2.5 0.663008 -2.236584 1.29895 -1.767767 1.767767 
C -1.29895 2.236584 -0.663008 2.5 0 2.5 
z
" id="me14e9ef898" style="stroke:#1f77b4;"/>
    </defs>
    <g clip-path="url(#p6d0e32aca6)">
     <use style="fill:#1f77b4;stroke:#1f77b4;" x="103.734545" xlink:href="#me14e9ef898" y="33.0675"/>
     <use style="fill:#1f77b4;stroke:#1f77b4;" x="148.587761" xlink:href="#me14e9ef898" y="120.825901"/>
     <use style="fill:#1f77b4;stroke:#1f77b4;" x="193.440976" xlink:href="#me14e9ef898" y="127.741842"/>
     <use style="fill:#1f77b4;stroke:#1f77b4;" x="238.294191" xlink:href="#me14e9ef898" y="139.208537"/>
     <use style="fill:#1f77b4;stroke:#1f77b4;" x="283.147406" xlink:href="#me14e9ef898" y="151.564863"/>
     <use style="fill:#1f77b4;stroke:#1f77b4;" x="328.000621" xlink:href="#me14e9ef898" y="154.132759"/>
     <use style="fill:#1f77b4;stroke:#1f77b4;" x="372.853836" xlink:href="#me14e9ef898" y="146.481553"/>
     <use style="fill:#1f77b4;stroke:#1f77b4;" x="417.707051" xlink:href="#me14e9ef898" y="140.456057"/>
     <use style="fill:#1f77b4;stroke:#1f77b4;" x="462.560266" xlink:href="#me14e9ef898" y="147.26338"/>
     <use style="fill:#1f77b4;stroke:#1f77b4;" x="507.413481" xlink:href="#me14e9ef898" y="157.291317"/>
     <use style="fill:#1f77b4;stroke:#1f77b4;" x="552.266696" xlink:href="#me14e9ef898" y="169.563678"/>
     <use style="fill:#1f77b4;stroke:#1f77b4;" x="597.119911" xlink:href="#me14e9ef898" y="185.481116"/>
     <use style="fill:#1f77b4;stroke:#1f77b4;" x="641.973126" xlink:href="#me14e9ef898" y="189.506418"/>
     <use style="fill:#1f77b4;stroke:#1f77b4;" x="686.826341" xlink:href="#me14e9ef898" y="186.436337"/>
     <use style="fill:#1f77b4;stroke:#1f77b4;" x="731.679557" xlink:href="#me14e9ef898" y="170.886425"/>
     <use style="fill:#1f77b4;stroke:#1f77b4;" x="776.532772" xlink:href="#me14e9ef898" y="158.921385"/>
     <use style="fill:#1f77b4;stroke:#1f77b4;" x="821.385987" xlink:href="#me14e9ef898" y="147.370539"/>
     <use style="fill:#1f77b4;stroke:#1f77b4;" x="866.239202" xlink:href="#me14e9ef898" y="141.24579"/>
     <use style="fill:#1f77b4;stroke:#1f77b4;" x="911.092417" xlink:href="#me14e9ef898" y="143.597075"/>
     <use style="fill:#1f77b4;stroke:#1f77b4;" x="955.945632" xlink:href="#me14e9ef898" y="156.213169"/>
     <use style="fill:#1f77b4;stroke:#1f77b4;" x="1000.798847" xlink:href="#me14e9ef898" y="153.668623"/>
    </g>
   </g>
   <g id="patch_3">
    <path d="M 57.76 259.641875 
L 57.76 33.0675 
" style="fill:none;stroke:#000000;stroke-linecap:square;stroke-linejoin:miter;stroke-width:0.8;"/>
   </g>
   <g id="patch_4">
    <path d="M 1069.2 259.641875 
L 1069.2 33.0675 
" style="fill:none;stroke:#000000;stroke-linecap:square;stroke-linejoin:miter;stroke-width:0.8;"/>
   </g>
   <g id="patch_5">
    <path d="M 57.76 259.641875 
L 1069.2 259.641875 
" style="fill:none;stroke:#000000;stroke-linecap:square;stroke-linejoin:miter;stroke-width:0.8;"/>
   </g>
   <g id="patch_6">
    <path d="M 57.76 33.0675 
L 1069.2 33.0675 
" style="fill:none;stroke:#000000;stroke-linecap:square;stroke-linejoin:miter;stroke-width:0.8;"/>
   </g>
   <g id="text_11">
    <!-- 自相关 -->
    <defs>
     <path d="M 50 79.296875 
Q 47.65625 75.78125 45.3125 66.015625 
L 84.375 66.015625 
Q 83.984375 57.03125 83.984375 49.609375 
L 83.984375 5.859375 
Q 83.984375 -1.171875 84.375 -8.203125 
L 76.5625 -8.203125 
L 76.5625 1.171875 
L 24.21875 1.171875 
L 24.21875 -8.203125 
L 16.40625 -8.203125 
Q 16.796875 -0.78125 16.796875 5.46875 
L 16.796875 50 
Q 16.796875 57.03125 16.40625 66.015625 
L 37.890625 66.015625 
Q 39.453125 76.5625 39.84375 81.640625 
Q 44.53125 80.078125 50 79.296875 
z
M 76.5625 7.421875 
L 76.5625 21.484375 
L 24.21875 21.484375 
L 24.21875 7.421875 
z
M 76.5625 46.484375 
L 76.5625 59.375 
L 24.21875 59.375 
L 24.21875 46.484375 
z
M 76.5625 27.734375 
L 76.5625 40.234375 
L 24.21875 40.234375 
L 24.21875 27.734375 
z
" id="SimHei-33258"/>
     <path d="M 92.1875 75.390625 
Q 91.796875 66.015625 91.796875 55.859375 
L 91.796875 11.71875 
Q 91.796875 1.171875 92.1875 -8.984375 
L 84.375 -8.984375 
L 84.375 -1.5625 
L 55.078125 -1.5625 
L 55.078125 -9.765625 
L 47.265625 -9.765625 
Q 47.65625 1.953125 47.65625 10.546875 
L 47.65625 56.25 
Q 47.65625 66.40625 47.265625 75.390625 
L 92.1875 75.390625 
z
M 21.875 59.765625 
Q 21.875 75.78125 21.484375 81.25 
L 30.078125 81.25 
Q 29.6875 75.390625 29.6875 59.765625 
Q 39.0625 59.765625 44.140625 60.15625 
L 44.140625 52.734375 
Q 39.453125 53.125 29.6875 53.125 
L 29.6875 38.28125 
Q 31.640625 40.234375 33.984375 42.96875 
Q 41.015625 35.546875 46.09375 28.515625 
Q 43.75 26.953125 40.234375 23.4375 
Q 35.9375 30.859375 29.6875 37.109375 
L 29.6875 7.421875 
Q 29.6875 0.78125 30.078125 -9.765625 
L 21.484375 -9.765625 
Q 21.875 0.78125 21.875 7.03125 
L 21.875 33.59375 
Q 16.796875 19.140625 10.15625 10.546875 
Q 7.421875 14.84375 4.6875 17.1875 
Q 7.421875 19.53125 12.5 29.484375 
Q 17.578125 39.453125 20.3125 53.125 
Q 11.71875 53.125 6.25 52.734375 
L 6.25 60.15625 
Q 13.28125 59.765625 21.875 59.765625 
z
M 84.375 5.078125 
L 84.375 23.046875 
L 55.078125 23.046875 
L 55.078125 5.078125 
z
M 84.375 51.5625 
L 84.375 68.75 
L 55.078125 68.75 
L 55.078125 51.5625 
z
M 84.375 29.6875 
L 84.375 45.3125 
L 55.078125 45.3125 
L 55.078125 29.6875 
z
" id="SimHei-30456"/>
     <path d="M 73.046875 75.78125 
Q 70.703125 73.046875 68.15625 68.359375 
Q 65.625 63.671875 63.671875 59.765625 
L 72.265625 59.765625 
Q 80.46875 59.765625 86.71875 60.15625 
L 86.71875 52.734375 
Q 81.640625 53.125 73.4375 53.125 
L 53.125 53.125 
L 53.125 33.59375 
L 77.734375 33.59375 
Q 85.546875 33.59375 91.796875 33.984375 
L 91.796875 26.5625 
Q 85.546875 26.953125 78.515625 26.953125 
L 54.6875 26.953125 
Q 66.40625 7.03125 93.75 1.171875 
Q 90.234375 -2.734375 87.5 -8.203125 
Q 62.890625 0 50.390625 20.3125 
Q 43.75 3.125 13.671875 -9.375 
Q 12.109375 -5.46875 7.8125 -2.34375 
Q 37.890625 5.859375 44.921875 26.953125 
L 24.21875 26.953125 
Q 15.234375 26.953125 9.375 26.5625 
L 9.375 33.59375 
Q 13.671875 33.203125 22.65625 33.203125 
L 45.703125 33.203125 
L 45.703125 53.125 
L 27.34375 53.125 
Q 19.921875 53.125 14.0625 52.734375 
L 14.0625 60.15625 
Q 19.921875 59.765625 27.734375 59.765625 
L 55.859375 59.765625 
Q 61.328125 72.265625 63.671875 80.46875 
Q 67.578125 78.125 73.046875 75.78125 
z
M 33.203125 80.078125 
Q 38.28125 73.828125 43.75 65.234375 
Q 39.0625 62.890625 36.328125 60.546875 
Q 31.640625 69.53125 26.953125 75.390625 
Q 30.46875 77.734375 33.203125 80.078125 
z
" id="SimHei-20851"/>
    </defs>
    <g transform="translate(533.48 27.0675)scale(0.2 -0.2)">
     <use xlink:href="#SimHei-33258"/>
     <use x="100" xlink:href="#SimHei-30456"/>
     <use x="200" xlink:href="#SimHei-20851"/>
    </g>
   </g>
  </g>
  <g id="axes_2">
   <g id="patch_7">
    <path d="M 57.76 542.36 
L 1069.2 542.36 
L 1069.2 315.785625 
L 57.76 315.785625 
z
" style="fill:#ffffff;"/>
   </g>
   <g id="PolyCollection_2">
    <path clip-path="url(#p1ccddf8bb2)" d="M 126.161153 420.792162 
L 126.161153 437.353463 
L 193.440976 437.353463 
L 238.294191 437.353463 
L 283.147406 437.353463 
L 328.000621 437.353463 
L 372.853836 437.353463 
L 417.707051 437.353463 
L 462.560266 437.353463 
L 507.413481 437.353463 
L 552.266696 437.353463 
L 597.119911 437.353463 
L 641.973126 437.353463 
L 686.826341 437.353463 
L 731.679557 437.353463 
L 776.532772 437.353463 
L 821.385987 437.353463 
L 866.239202 437.353463 
L 911.092417 437.353463 
L 955.945632 437.353463 
L 1023.225455 437.353463 
L 1023.225455 420.792162 
L 1023.225455 420.792162 
L 955.945632 420.792162 
L 911.092417 420.792162 
L 866.239202 420.792162 
L 821.385987 420.792162 
L 776.532772 420.792162 
L 731.679557 420.792162 
L 686.826341 420.792162 
L 641.973126 420.792162 
L 597.119911 420.792162 
L 552.266696 420.792162 
L 507.413481 420.792162 
L 462.560266 420.792162 
L 417.707051 420.792162 
L 372.853836 420.792162 
L 328.000621 420.792162 
L 283.147406 420.792162 
L 238.294191 420.792162 
L 193.440976 420.792162 
L 126.161153 420.792162 
z
" style="fill:#1f77b4;fill-opacity:0.25;"/>
   </g>
   <g id="matplotlib.axis_3">
    <g id="xtick_6">
     <g id="line2d_13">
      <g>
       <use style="stroke:#000000;stroke-width:0.8;" x="103.734545" xlink:href="#m92b0e9c810" y="542.36"/>
      </g>
     </g>
     <g id="text_12">
      <!-- 0 -->
      <g transform="translate(98.734545 563.11)scale(0.2 -0.2)">
       <use xlink:href="#SimHei-48"/>
      </g>
     </g>
    </g>
    <g id="xtick_7">
     <g id="line2d_14">
      <g>
       <use style="stroke:#000000;stroke-width:0.8;" x="328.000621" xlink:href="#m92b0e9c810" y="542.36"/>
      </g>
     </g>
     <g id="text_13">
      <!-- 5 -->
      <g transform="translate(323.000621 563.11)scale(0.2 -0.2)">
       <use xlink:href="#SimHei-53"/>
      </g>
     </g>
    </g>
    <g id="xtick_8">
     <g id="line2d_15">
      <g>
       <use style="stroke:#000000;stroke-width:0.8;" x="552.266696" xlink:href="#m92b0e9c810" y="542.36"/>
      </g>
     </g>
     <g id="text_14">
      <!-- 10 -->
      <g transform="translate(542.266696 563.11)scale(0.2 -0.2)">
       <use xlink:href="#SimHei-49"/>
       <use x="50" xlink:href="#SimHei-48"/>
      </g>
     </g>
    </g>
    <g id="xtick_9">
     <g id="line2d_16">
      <g>
       <use style="stroke:#000000;stroke-width:0.8;" x="776.532772" xlink:href="#m92b0e9c810" y="542.36"/>
      </g>
     </g>
     <g id="text_15">
      <!-- 15 -->
      <g transform="translate(766.532772 563.11)scale(0.2 -0.2)">
       <use xlink:href="#SimHei-49"/>
       <use x="50" xlink:href="#SimHei-53"/>
      </g>
     </g>
    </g>
    <g id="xtick_10">
     <g id="line2d_17">
      <g>
       <use style="stroke:#000000;stroke-width:0.8;" x="1000.798847" xlink:href="#m92b0e9c810" y="542.36"/>
      </g>
     </g>
     <g id="text_16">
      <!-- 20 -->
      <g transform="translate(990.798847 563.11)scale(0.2 -0.2)">
       <use xlink:href="#SimHei-50"/>
       <use x="50" xlink:href="#SimHei-48"/>
      </g>
     </g>
    </g>
   </g>
   <g id="matplotlib.axis_4">
    <g id="ytick_6">
     <g id="line2d_18">
      <g>
       <use style="stroke:#000000;stroke-width:0.8;" x="57.76" xlink:href="#m2bc98ff0da" y="542.36"/>
      </g>
     </g>
     <g id="text_17">
      <!-- -1.0 -->
      <g transform="translate(10.76 549.235)scale(0.2 -0.2)">
       <use xlink:href="#SimHei-45"/>
       <use x="50" xlink:href="#SimHei-49"/>
       <use x="100" xlink:href="#SimHei-46"/>
       <use x="150" xlink:href="#SimHei-48"/>
      </g>
     </g>
    </g>
    <g id="ytick_7">
     <g id="line2d_19">
      <g>
       <use style="stroke:#000000;stroke-width:0.8;" x="57.76" xlink:href="#m2bc98ff0da" y="485.716406"/>
      </g>
     </g>
     <g id="text_18">
      <!-- -0.5 -->
      <g transform="translate(10.76 492.591406)scale(0.2 -0.2)">
       <use xlink:href="#SimHei-45"/>
       <use x="50" xlink:href="#SimHei-48"/>
       <use x="100" xlink:href="#SimHei-46"/>
       <use x="150" xlink:href="#SimHei-53"/>
      </g>
     </g>
    </g>
    <g id="ytick_8">
     <g id="line2d_20">
      <g>
       <use style="stroke:#000000;stroke-width:0.8;" x="57.76" xlink:href="#m2bc98ff0da" y="429.072812"/>
      </g>
     </g>
     <g id="text_19">
      <!-- 0.0 -->
      <g transform="translate(20.76 435.947812)scale(0.2 -0.2)">
       <use xlink:href="#SimHei-48"/>
       <use x="50" xlink:href="#SimHei-46"/>
       <use x="100" xlink:href="#SimHei-48"/>
      </g>
     </g>
    </g>
    <g id="ytick_9">
     <g id="line2d_21">
      <g>
       <use style="stroke:#000000;stroke-width:0.8;" x="57.76" xlink:href="#m2bc98ff0da" y="372.429219"/>
      </g>
     </g>
     <g id="text_20">
      <!-- 0.5 -->
      <g transform="translate(20.76 379.304219)scale(0.2 -0.2)">
       <use xlink:href="#SimHei-48"/>
       <use x="50" xlink:href="#SimHei-46"/>
       <use x="100" xlink:href="#SimHei-53"/>
      </g>
     </g>
    </g>
    <g id="ytick_10">
     <g id="line2d_22">
      <g>
       <use style="stroke:#000000;stroke-width:0.8;" x="57.76" xlink:href="#m2bc98ff0da" y="315.785625"/>
      </g>
     </g>
     <g id="text_21">
      <!-- 1.0 -->
      <g transform="translate(20.76 322.660625)scale(0.2 -0.2)">
       <use xlink:href="#SimHei-49"/>
       <use x="50" xlink:href="#SimHei-46"/>
       <use x="100" xlink:href="#SimHei-48"/>
      </g>
     </g>
    </g>
   </g>
   <g id="LineCollection_2">
    <path clip-path="url(#p1ccddf8bb2)" d="M 103.734545 429.072812 
L 103.734545 315.785625 
" style="fill:none;stroke:#000000;stroke-width:1.5;"/>
    <path clip-path="url(#p1ccddf8bb2)" d="M 148.587761 429.072812 
L 148.587761 403.544026 
" style="fill:none;stroke:#000000;stroke-width:1.5;"/>
    <path clip-path="url(#p1ccddf8bb2)" d="M 193.440976 429.072812 
L 193.440976 415.524792 
" style="fill:none;stroke:#000000;stroke-width:1.5;"/>
    <path clip-path="url(#p1ccddf8bb2)" d="M 238.294191 429.072812 
L 238.294191 428.644834 
" style="fill:none;stroke:#000000;stroke-width:1.5;"/>
    <path clip-path="url(#p1ccddf8bb2)" d="M 283.147406 429.072812 
L 283.147406 438.620517 
" style="fill:none;stroke:#000000;stroke-width:1.5;"/>
    <path clip-path="url(#p1ccddf8bb2)" d="M 328.000621 429.072812 
L 328.000621 435.418668 
" style="fill:none;stroke:#000000;stroke-width:1.5;"/>
    <path clip-path="url(#p1ccddf8bb2)" d="M 372.853836 429.072812 
L 372.853836 424.05156 
" style="fill:none;stroke:#000000;stroke-width:1.5;"/>
    <path clip-path="url(#p1ccddf8bb2)" d="M 417.707051 429.072812 
L 417.707051 420.706515 
" style="fill:none;stroke:#000000;stroke-width:1.5;"/>
    <path clip-path="url(#p1ccddf8bb2)" d="M 462.560266 429.072812 
L 462.560266 433.541257 
" style="fill:none;stroke:#000000;stroke-width:1.5;"/>
    <path clip-path="url(#p1ccddf8bb2)" d="M 507.413481 429.072812 
L 507.413481 443.643448 
" style="fill:none;stroke:#000000;stroke-width:1.5;"/>
    <path clip-path="url(#p1ccddf8bb2)" d="M 552.266696 429.072812 
L 552.266696 449.913494 
" style="fill:none;stroke:#000000;stroke-width:1.5;"/>
    <path clip-path="url(#p1ccddf8bb2)" d="M 597.119911 429.072812 
L 597.119911 458.929952 
" style="fill:none;stroke:#000000;stroke-width:1.5;"/>
    <path clip-path="url(#p1ccddf8bb2)" d="M 641.973126 429.072812 
L 641.973126 458.721578 
" style="fill:none;stroke:#000000;stroke-width:1.5;"/>
    <path clip-path="url(#p1ccddf8bb2)" d="M 686.826341 429.072812 
L 686.826341 458.915866 
" style="fill:none;stroke:#000000;stroke-width:1.5;"/>
    <path clip-path="url(#p1ccddf8bb2)" d="M 731.679557 429.072812 
L 731.679557 449.46011 
" style="fill:none;stroke:#000000;stroke-width:1.5;"/>
    <path clip-path="url(#p1ccddf8bb2)" d="M 776.532772 429.072812 
L 776.532772 445.914908 
" style="fill:none;stroke:#000000;stroke-width:1.5;"/>
    <path clip-path="url(#p1ccddf8bb2)" d="M 821.385987 429.072812 
L 821.385987 439.9713 
" style="fill:none;stroke:#000000;stroke-width:1.5;"/>
    <path clip-path="url(#p1ccddf8bb2)" d="M 866.239202 429.072812 
L 866.239202 434.506409 
" style="fill:none;stroke:#000000;stroke-width:1.5;"/>
    <path clip-path="url(#p1ccddf8bb2)" d="M 911.092417 429.072812 
L 911.092417 435.106962 
" style="fill:none;stroke:#000000;stroke-width:1.5;"/>
    <path clip-path="url(#p1ccddf8bb2)" d="M 955.945632 429.072812 
L 955.945632 452.37075 
" style="fill:none;stroke:#000000;stroke-width:1.5;"/>
    <path clip-path="url(#p1ccddf8bb2)" d="M 1000.798847 429.072812 
L 1000.798847 457.068045 
" style="fill:none;stroke:#000000;stroke-width:1.5;"/>
   </g>
   <g id="line2d_23">
    <path clip-path="url(#p1ccddf8bb2)" d="M 57.76 429.072812 
L 1069.2 429.072812 
" style="fill:none;stroke:#1f77b4;stroke-linecap:square;stroke-width:1.5;"/>
   </g>
   <g id="line2d_24">
    <g clip-path="url(#p1ccddf8bb2)">
     <use style="fill:#1f77b4;stroke:#1f77b4;" x="103.734545" xlink:href="#me14e9ef898" y="315.785625"/>
     <use style="fill:#1f77b4;stroke:#1f77b4;" x="148.587761" xlink:href="#me14e9ef898" y="403.544026"/>
     <use style="fill:#1f77b4;stroke:#1f77b4;" x="193.440976" xlink:href="#me14e9ef898" y="415.524792"/>
     <use style="fill:#1f77b4;stroke:#1f77b4;" x="238.294191" xlink:href="#me14e9ef898" y="428.644834"/>
     <use style="fill:#1f77b4;stroke:#1f77b4;" x="283.147406" xlink:href="#me14e9ef898" y="438.620517"/>
     <use style="fill:#1f77b4;stroke:#1f77b4;" x="328.000621" xlink:href="#me14e9ef898" y="435.418668"/>
     <use style="fill:#1f77b4;stroke:#1f77b4;" x="372.853836" xlink:href="#me14e9ef898" y="424.05156"/>
     <use style="fill:#1f77b4;stroke:#1f77b4;" x="417.707051" xlink:href="#me14e9ef898" y="420.706515"/>
     <use style="fill:#1f77b4;stroke:#1f77b4;" x="462.560266" xlink:href="#me14e9ef898" y="433.541257"/>
     <use style="fill:#1f77b4;stroke:#1f77b4;" x="507.413481" xlink:href="#me14e9ef898" y="443.643448"/>
     <use style="fill:#1f77b4;stroke:#1f77b4;" x="552.266696" xlink:href="#me14e9ef898" y="449.913494"/>
     <use style="fill:#1f77b4;stroke:#1f77b4;" x="597.119911" xlink:href="#me14e9ef898" y="458.929952"/>
     <use style="fill:#1f77b4;stroke:#1f77b4;" x="641.973126" xlink:href="#me14e9ef898" y="458.721578"/>
     <use style="fill:#1f77b4;stroke:#1f77b4;" x="686.826341" xlink:href="#me14e9ef898" y="458.915866"/>
     <use style="fill:#1f77b4;stroke:#1f77b4;" x="731.679557" xlink:href="#me14e9ef898" y="449.46011"/>
     <use style="fill:#1f77b4;stroke:#1f77b4;" x="776.532772" xlink:href="#me14e9ef898" y="445.914908"/>
     <use style="fill:#1f77b4;stroke:#1f77b4;" x="821.385987" xlink:href="#me14e9ef898" y="439.9713"/>
     <use style="fill:#1f77b4;stroke:#1f77b4;" x="866.239202" xlink:href="#me14e9ef898" y="434.506409"/>
     <use style="fill:#1f77b4;stroke:#1f77b4;" x="911.092417" xlink:href="#me14e9ef898" y="435.106962"/>
     <use style="fill:#1f77b4;stroke:#1f77b4;" x="955.945632" xlink:href="#me14e9ef898" y="452.37075"/>
     <use style="fill:#1f77b4;stroke:#1f77b4;" x="1000.798847" xlink:href="#me14e9ef898" y="457.068045"/>
    </g>
   </g>
   <g id="patch_8">
    <path d="M 57.76 542.36 
L 57.76 315.785625 
" style="fill:none;stroke:#000000;stroke-linecap:square;stroke-linejoin:miter;stroke-width:0.8;"/>
   </g>
   <g id="patch_9">
    <path d="M 1069.2 542.36 
L 1069.2 315.785625 
" style="fill:none;stroke:#000000;stroke-linecap:square;stroke-linejoin:miter;stroke-width:0.8;"/>
   </g>
   <g id="patch_10">
    <path d="M 57.76 542.36 
L 1069.2 542.36 
" style="fill:none;stroke:#000000;stroke-linecap:square;stroke-linejoin:miter;stroke-width:0.8;"/>
   </g>
   <g id="patch_11">
    <path d="M 57.76 315.785625 
L 1069.2 315.785625 
" style="fill:none;stroke:#000000;stroke-linecap:square;stroke-linejoin:miter;stroke-width:0.8;"/>
   </g>
   <g id="text_22">
    <!-- 偏自相关 -->
    <defs>
     <path d="M 25.78125 8.203125 
Q 35.546875 24.21875 37.5 40.625 
Q 39.453125 57.03125 38.28125 72.265625 
L 61.328125 72.265625 
Q 60.546875 76.5625 58.203125 81.25 
Q 62.109375 82.03125 65.234375 82.8125 
Q 66.796875 79.296875 69.140625 72.265625 
L 88.671875 72.265625 
Q 88.28125 67.1875 88.28125 60.9375 
Q 88.28125 54.6875 88.671875 50 
L 45.3125 50 
Q 44.921875 45.703125 44.53125 41.015625 
L 93.359375 41.015625 
Q 92.96875 34.375 92.96875 27.34375 
L 92.96875 -1.5625 
Q 92.96875 -6.25 90.03125 -7.609375 
Q 87.109375 -8.984375 81.25 -10.15625 
Q 80.46875 -6.25 77.734375 -1.953125 
Q 86.328125 -2.34375 86.328125 1.5625 
L 86.328125 16.796875 
L 76.953125 16.796875 
Q 76.953125 6.640625 77.34375 0 
L 69.921875 0 
Q 70.703125 6.25 70.703125 16.796875 
L 62.5 16.796875 
Q 62.5 5.46875 62.890625 -0.390625 
L 55.46875 -0.390625 
Q 55.859375 5.46875 55.859375 16.796875 
L 47.265625 16.796875 
L 47.265625 -9.375 
L 40.234375 -9.375 
L 40.234375 24.609375 
Q 37.890625 16.40625 31.25 4.296875 
Q 27.734375 7.421875 25.78125 8.203125 
z
M 3.515625 38.28125 
Q 12.890625 49.21875 18.75 60.9375 
Q 24.609375 72.65625 25.78125 79.296875 
Q 29.296875 76.953125 35.15625 75.390625 
Q 32.421875 73.828125 24.609375 54.296875 
L 24.609375 8.59375 
Q 24.609375 -0.78125 25 -8.984375 
L 17.1875 -8.984375 
Q 17.578125 -1.171875 17.578125 8.59375 
L 17.578125 45.3125 
Q 14.453125 40.234375 9.765625 33.59375 
Q 7.421875 36.71875 3.515625 38.28125 
z
M 81.640625 55.859375 
L 81.640625 66.40625 
L 45.3125 66.40625 
L 45.3125 55.859375 
z
M 86.328125 22.265625 
L 86.328125 35.15625 
L 76.953125 35.15625 
L 76.953125 22.265625 
z
M 55.859375 22.265625 
L 55.859375 35.15625 
L 47.265625 35.15625 
L 47.265625 22.265625 
z
M 70.703125 22.265625 
L 70.703125 35.15625 
L 62.5 35.15625 
L 62.5 22.265625 
z
" id="SimHei-20559"/>
    </defs>
    <g transform="translate(523.48 309.785625)scale(0.2 -0.2)">
     <use xlink:href="#SimHei-20559"/>
     <use x="100" xlink:href="#SimHei-33258"/>
     <use x="200" xlink:href="#SimHei-30456"/>
     <use x="300" xlink:href="#SimHei-20851"/>
    </g>
   </g>
  </g>
 </g>
 <defs>
  <clipPath id="p6d0e32aca6">
   <rect height="226.574375" width="1011.44" x="57.76" y="33.0675"/>
  </clipPath>
  <clipPath id="p1ccddf8bb2">
   <rect height="226.574375" width="1011.44" x="57.76" y="315.785625"/>
  </clipPath>
 </defs>
</svg>
