<?xml version="1.0" encoding="utf-8" standalone="no"?>
<!DOCTYPE svg PUBLIC "-//W3C//DTD SVG 1.1//EN"
  "http://www.w3.org/Graphics/SVG/1.1/DTD/svg11.dtd">
<!-- Created with matplotlib (https://matplotlib.org/) -->
<svg height="504pt" version="1.1" viewBox="0 0 1080 504" width="1080pt" xmlns="http://www.w3.org/2000/svg" xmlns:xlink="http://www.w3.org/1999/xlink">
 <defs>
  <style type="text/css">
*{stroke-linecap:butt;stroke-linejoin:round;}
  </style>
 </defs>
 <g id="figure_1">
  <g id="patch_1">
   <path d="M 0 504 
L 1080 504 
L 1080 0 
L 0 0 
z
" style="fill:#ffffff;"/>
  </g>
  <g id="axes_1">
   <g id="patch_2">
    <path d="M 58.35125 454.67125 
L 1069.2 454.67125 
L 1069.2 33.41625 
L 58.35125 33.41625 
z
" style="fill:#e5e5e5;"/>
   </g>
   <g id="matplotlib.axis_1">
    <g id="xtick_1">
     <g id="line2d_1">
      <path clip-path="url(#p660dfeb7cd)" d="M 109.801635 454.67125 
L 109.801635 33.41625 
" style="fill:none;stroke:#ffffff;stroke-linecap:square;stroke-width:0.8;"/>
     </g>
     <g id="line2d_2">
      <defs>
       <path d="M 0 0 
L 0 3.5 
" id="m7a32078a94" style="stroke:#555555;stroke-width:0.8;"/>
      </defs>
      <g>
       <use style="fill:#555555;stroke:#555555;stroke-width:0.8;" x="109.801635" xlink:href="#m7a32078a94" y="454.67125"/>
      </g>
     </g>
     <g id="text_1">
      <!-- 12月8日 -->
      <defs>
       <path d="M 21.875 56.25 
Q 16.796875 51.171875 8.984375 46.484375 
L 8.984375 53.90625 
Q 18.75 60.546875 25 69.53125 
L 29.6875 69.53125 
L 29.6875 2.34375 
L 21.875 2.34375 
z
" id="SimHei-49"/>
       <path d="M 4.6875 3.90625 
Q 5.078125 9.765625 10.15625 14.453125 
Q 15.234375 19.140625 23.046875 29.09375 
Q 30.859375 39.0625 33.203125 44.53125 
Q 35.546875 50 34.953125 53.90625 
Q 34.375 57.8125 31.25 60.34375 
Q 28.125 62.890625 24.015625 62.5 
Q 19.921875 62.109375 16.203125 59.375 
Q 12.5 56.640625 10.546875 51.171875 
L 3.125 52.34375 
Q 6.25 61.328125 11.125 65.421875 
Q 16.015625 69.53125 22.65625 69.921875 
Q 26.5625 70.3125 29.6875 69.71875 
Q 32.8125 69.140625 36.125 66.984375 
Q 39.453125 64.84375 41.59375 60.546875 
Q 43.75 56.25 43.15625 50.1875 
Q 42.578125 44.140625 37.109375 35.734375 
Q 31.640625 27.34375 16.015625 9.375 
L 44.140625 9.375 
L 44.140625 2.34375 
L 4.6875 2.34375 
z
" id="SimHei-50"/>
       <path d="M 82.03125 75.390625 
Q 81.25 66.015625 81.25 58.59375 
L 81.25 3.125 
Q 81.25 -4.296875 77.34375 -5.859375 
Q 73.4375 -7.421875 62.109375 -8.203125 
Q 61.328125 -3.515625 58.59375 0.78125 
Q 67.1875 0.390625 70.5 0.78125 
Q 73.828125 1.171875 73.828125 6.25 
L 73.828125 25 
L 28.90625 25 
Q 26.953125 12.109375 22.65625 3.515625 
Q 18.359375 -5.078125 14.0625 -8.984375 
Q 10.9375 -6.25 6.25 -5.078125 
Q 12.5 0.390625 16.203125 8 
Q 19.921875 15.625 20.890625 23.046875 
Q 21.875 30.46875 21.875 39.453125 
L 21.875 56.640625 
Q 21.875 65.234375 21.484375 75.390625 
L 82.03125 75.390625 
z
M 73.828125 53.125 
L 73.828125 69.53125 
L 29.296875 69.53125 
L 29.296875 53.125 
z
M 73.828125 31.25 
L 73.828125 47.265625 
L 29.296875 47.265625 
L 29.296875 31.25 
z
" id="SimHei-26376"/>
       <path d="M 2.734375 16.796875 
Q 2.734375 26.171875 5.078125 30.65625 
Q 7.421875 35.15625 12.890625 37.890625 
Q 8.203125 40.625 6.640625 43.9375 
Q 5.078125 47.265625 4.875 51.5625 
Q 4.6875 55.859375 6.046875 58.984375 
Q 7.421875 62.109375 10.15625 64.84375 
Q 12.890625 67.578125 16.203125 68.546875 
Q 19.53125 69.53125 23.4375 69.53125 
Q 27.34375 69.53125 30.46875 68.75 
Q 33.59375 67.96875 37.109375 65.421875 
Q 40.625 62.890625 42.1875 58.203125 
Q 43.75 53.515625 41.984375 47.265625 
Q 40.234375 41.015625 32.8125 37.5 
Q 39.453125 35.546875 42.1875 31.4375 
Q 44.921875 27.34375 44.921875 21.484375 
Q 44.921875 15.625 43.15625 12.109375 
Q 41.40625 8.59375 39.25 6.25 
Q 37.109375 3.90625 33.390625 2.53125 
Q 29.6875 1.171875 24.015625 1.171875 
Q 18.359375 1.171875 14.25 2.53125 
Q 10.15625 3.90625 7.421875 6.640625 
Q 4.6875 9.375 3.703125 13.078125 
Q 2.734375 16.796875 2.734375 26.171875 
z
M 10.9375 26.5625 
Q 10.546875 17.1875 12.296875 13.671875 
Q 14.0625 10.15625 18.75 9.171875 
Q 23.4375 8.203125 28.515625 9.375 
Q 33.59375 10.546875 35.546875 14.84375 
Q 37.5 19.140625 36.90625 23.4375 
Q 36.328125 27.734375 32.03125 30.65625 
Q 27.734375 33.59375 22.65625 33.203125 
Q 17.578125 32.8125 14.25 29.6875 
Q 10.9375 26.5625 10.546875 17.1875 
z
M 12.109375 56.25 
Q 12.109375 48.4375 14.84375 44.921875 
Q 17.578125 41.40625 23.4375 41.40625 
Q 29.296875 41.40625 32.21875 44.921875 
Q 35.15625 48.4375 34.953125 53.3125 
Q 34.765625 58.203125 31.4375 60.546875 
Q 28.125 62.890625 22.453125 62.5 
Q 16.796875 62.109375 14.453125 59.171875 
Q 12.109375 56.25 12.109375 48.4375 
z
" id="SimHei-56"/>
       <path d="M 83.984375 78.125 
Q 83.59375 58.984375 83.59375 35.546875 
Q 83.59375 12.109375 83.984375 -7.03125 
L 75 -7.03125 
L 75 2.734375 
L 28.125 2.734375 
L 28.125 -8.984375 
L 19.53125 -8.984375 
Q 19.921875 8.984375 19.921875 33.203125 
Q 19.921875 57.421875 19.53125 78.125 
L 83.984375 78.125 
z
M 75 9.375 
L 75 37.109375 
L 28.125 37.109375 
L 28.125 9.375 
z
M 75 43.75 
L 75 71.09375 
L 28.125 71.09375 
L 28.125 43.75 
z
" id="SimHei-26085"/>
      </defs>
      <g style="fill:#555555;" transform="translate(83.551635 472.862656)scale(0.15 -0.15)">
       <use xlink:href="#SimHei-49"/>
       <use x="50" xlink:href="#SimHei-50"/>
       <use x="100" xlink:href="#SimHei-26376"/>
       <use x="200" xlink:href="#SimHei-56"/>
       <use x="250" xlink:href="#SimHei-26085"/>
      </g>
     </g>
    </g>
    <g id="xtick_2">
     <g id="line2d_3">
      <path clip-path="url(#p660dfeb7cd)" d="M 241.866796 454.67125 
L 241.866796 33.41625 
" style="fill:none;stroke:#ffffff;stroke-linecap:square;stroke-width:0.8;"/>
     </g>
     <g id="line2d_4">
      <g>
       <use style="fill:#555555;stroke:#555555;stroke-width:0.8;" x="241.866796" xlink:href="#m7a32078a94" y="454.67125"/>
      </g>
     </g>
     <g id="text_2">
      <!-- 12月9日 -->
      <defs>
       <path d="M 12.5 1.171875 
Q 21.09375 15.625 26.5625 27.34375 
Q 16.796875 25.78125 10.34375 29.875 
Q 3.90625 33.984375 2.53125 41.015625 
Q 1.171875 48.046875 2.734375 53.703125 
Q 4.296875 59.375 7.609375 63.078125 
Q 10.9375 66.796875 15.625 68.359375 
Q 20.3125 69.921875 24.015625 69.921875 
Q 27.734375 69.921875 31.640625 68.359375 
Q 35.546875 66.796875 38.671875 63.671875 
Q 41.796875 60.546875 42.96875 57.21875 
Q 44.140625 53.90625 44.140625 48.625 
Q 44.140625 43.359375 40.234375 35.15625 
Q 36.328125 26.953125 21.09375 1.171875 
z
M 9.765625 50 
Q 10.9375 39.84375 14.640625 36.515625 
Q 18.359375 33.203125 22.65625 33.59375 
Q 26.953125 33.984375 29.484375 35.9375 
Q 32.03125 37.890625 34.375 42.578125 
Q 35.9375 48.4375 35.15625 52.53125 
Q 34.375 56.640625 31.046875 59.375 
Q 27.734375 62.109375 23.828125 62.109375 
Q 21.484375 62.5 17.765625 60.9375 
Q 14.0625 59.375 11.90625 54.6875 
Q 9.765625 50 10.9375 39.84375 
z
" id="SimHei-57"/>
      </defs>
      <g style="fill:#555555;" transform="translate(215.616796 472.862656)scale(0.15 -0.15)">
       <use xlink:href="#SimHei-49"/>
       <use x="50" xlink:href="#SimHei-50"/>
       <use x="100" xlink:href="#SimHei-26376"/>
       <use x="200" xlink:href="#SimHei-57"/>
       <use x="250" xlink:href="#SimHei-26085"/>
      </g>
     </g>
    </g>
    <g id="xtick_3">
     <g id="line2d_5">
      <path clip-path="url(#p660dfeb7cd)" d="M 373.931957 454.67125 
L 373.931957 33.41625 
" style="fill:none;stroke:#ffffff;stroke-linecap:square;stroke-width:0.8;"/>
     </g>
     <g id="line2d_6">
      <g>
       <use style="fill:#555555;stroke:#555555;stroke-width:0.8;" x="373.931957" xlink:href="#m7a32078a94" y="454.67125"/>
      </g>
     </g>
     <g id="text_3">
      <!-- 12月10日 -->
      <defs>
       <path d="M 3.125 29.296875 
Q 3.90625 50 6.4375 56.046875 
Q 8.984375 62.109375 13.671875 66.015625 
Q 18.359375 69.921875 25.1875 69.921875 
Q 32.03125 69.921875 37.109375 64.25 
Q 42.1875 58.59375 43.75 50 
Q 45.3125 41.40625 44.71875 30.265625 
Q 44.140625 19.140625 40.8125 12.109375 
Q 37.5 5.078125 30.859375 2.34375 
Q 24.21875 -0.390625 17.578125 2.921875 
Q 10.9375 6.25 8.203125 11.71875 
Q 5.46875 17.1875 4.296875 23.234375 
Q 3.125 29.296875 3.90625 50 
z
M 12.890625 52.734375 
Q 10.546875 31.25 12.5 22.84375 
Q 14.453125 14.453125 18.9375 10.9375 
Q 23.4375 7.421875 28.125 9.5625 
Q 32.8125 11.71875 34.953125 18.15625 
Q 37.109375 24.609375 37.109375 32.21875 
Q 37.109375 39.84375 36.515625 46.09375 
Q 35.9375 52.34375 33 57.421875 
Q 30.078125 62.5 25.1875 62.6875 
Q 20.3125 62.890625 16.59375 57.8125 
Q 12.890625 52.734375 10.546875 31.25 
z
" id="SimHei-48"/>
      </defs>
      <g style="fill:#555555;" transform="translate(343.931957 472.862656)scale(0.15 -0.15)">
       <use xlink:href="#SimHei-49"/>
       <use x="50" xlink:href="#SimHei-50"/>
       <use x="100" xlink:href="#SimHei-26376"/>
       <use x="200" xlink:href="#SimHei-49"/>
       <use x="250" xlink:href="#SimHei-48"/>
       <use x="300" xlink:href="#SimHei-26085"/>
      </g>
     </g>
    </g>
    <g id="xtick_4">
     <g id="line2d_7">
      <path clip-path="url(#p660dfeb7cd)" d="M 505.997117 454.67125 
L 505.997117 33.41625 
" style="fill:none;stroke:#ffffff;stroke-linecap:square;stroke-width:0.8;"/>
     </g>
     <g id="line2d_8">
      <g>
       <use style="fill:#555555;stroke:#555555;stroke-width:0.8;" x="505.997117" xlink:href="#m7a32078a94" y="454.67125"/>
      </g>
     </g>
     <g id="text_4">
      <!-- 12月11日 -->
      <g style="fill:#555555;" transform="translate(475.997117 472.862656)scale(0.15 -0.15)">
       <use xlink:href="#SimHei-49"/>
       <use x="50" xlink:href="#SimHei-50"/>
       <use x="100" xlink:href="#SimHei-26376"/>
       <use x="200" xlink:href="#SimHei-49"/>
       <use x="250" xlink:href="#SimHei-49"/>
       <use x="300" xlink:href="#SimHei-26085"/>
      </g>
     </g>
    </g>
    <g id="xtick_5">
     <g id="line2d_9">
      <path clip-path="url(#p660dfeb7cd)" d="M 638.062278 454.67125 
L 638.062278 33.41625 
" style="fill:none;stroke:#ffffff;stroke-linecap:square;stroke-width:0.8;"/>
     </g>
     <g id="line2d_10">
      <g>
       <use style="fill:#555555;stroke:#555555;stroke-width:0.8;" x="638.062278" xlink:href="#m7a32078a94" y="454.67125"/>
      </g>
     </g>
     <g id="text_5">
      <!-- 12月12日 -->
      <g style="fill:#555555;" transform="translate(608.062278 472.862656)scale(0.15 -0.15)">
       <use xlink:href="#SimHei-49"/>
       <use x="50" xlink:href="#SimHei-50"/>
       <use x="100" xlink:href="#SimHei-26376"/>
       <use x="200" xlink:href="#SimHei-49"/>
       <use x="250" xlink:href="#SimHei-50"/>
       <use x="300" xlink:href="#SimHei-26085"/>
      </g>
     </g>
    </g>
    <g id="xtick_6">
     <g id="line2d_11">
      <path clip-path="url(#p660dfeb7cd)" d="M 770.127438 454.67125 
L 770.127438 33.41625 
" style="fill:none;stroke:#ffffff;stroke-linecap:square;stroke-width:0.8;"/>
     </g>
     <g id="line2d_12">
      <g>
       <use style="fill:#555555;stroke:#555555;stroke-width:0.8;" x="770.127438" xlink:href="#m7a32078a94" y="454.67125"/>
      </g>
     </g>
     <g id="text_6">
      <!-- 12月13日 -->
      <defs>
       <path d="M 3.90625 19.140625 
L 10.9375 20.3125 
Q 12.5 15.234375 16.015625 11.90625 
Q 19.53125 8.59375 24.796875 8.78125 
Q 30.078125 8.984375 33.203125 13.078125 
Q 36.328125 17.1875 35.9375 22.453125 
Q 35.546875 27.734375 31.828125 30.65625 
Q 28.125 33.59375 19.921875 34.765625 
L 19.921875 39.84375 
Q 28.125 40.625 31.828125 44.140625 
Q 35.546875 47.65625 35.15625 53.3125 
Q 34.765625 58.984375 30.078125 61.515625 
Q 25.390625 64.0625 20.109375 62.109375 
Q 14.84375 60.15625 11.71875 51.171875 
L 4.6875 52.34375 
Q 7.03125 59.375 11.125 64.0625 
Q 15.234375 68.75 22.265625 69.53125 
Q 29.296875 70.3125 34.5625 67.765625 
Q 39.84375 65.234375 41.984375 59.953125 
Q 44.140625 54.6875 42.578125 48.4375 
Q 41.015625 42.1875 33.59375 37.5 
Q 39.0625 35.15625 41.984375 30.46875 
Q 44.921875 25.78125 43.9375 18.15625 
Q 42.96875 10.546875 37.109375 5.859375 
Q 31.25 1.171875 23.828125 1.359375 
Q 16.40625 1.5625 10.9375 6.046875 
Q 5.46875 10.546875 3.90625 19.140625 
z
" id="SimHei-51"/>
      </defs>
      <g style="fill:#555555;" transform="translate(740.127438 472.862656)scale(0.15 -0.15)">
       <use xlink:href="#SimHei-49"/>
       <use x="50" xlink:href="#SimHei-50"/>
       <use x="100" xlink:href="#SimHei-26376"/>
       <use x="200" xlink:href="#SimHei-49"/>
       <use x="250" xlink:href="#SimHei-51"/>
       <use x="300" xlink:href="#SimHei-26085"/>
      </g>
     </g>
    </g>
    <g id="xtick_7">
     <g id="line2d_13">
      <path clip-path="url(#p660dfeb7cd)" d="M 902.192599 454.67125 
L 902.192599 33.41625 
" style="fill:none;stroke:#ffffff;stroke-linecap:square;stroke-width:0.8;"/>
     </g>
     <g id="line2d_14">
      <g>
       <use style="fill:#555555;stroke:#555555;stroke-width:0.8;" x="902.192599" xlink:href="#m7a32078a94" y="454.67125"/>
      </g>
     </g>
     <g id="text_7">
      <!-- 12月14日 -->
      <defs>
       <path d="M 31.25 17.1875 
L 1.171875 17.1875 
L 1.171875 23.828125 
L 32.8125 69.53125 
L 38.671875 69.53125 
L 38.671875 23.828125 
L 48.046875 23.828125 
L 48.046875 17.1875 
L 38.671875 17.1875 
L 38.671875 2.34375 
L 31.25 2.34375 
z
M 31.25 23.828125 
L 31.25 54.6875 
L 9.375 23.828125 
z
" id="SimHei-52"/>
      </defs>
      <g style="fill:#555555;" transform="translate(872.192599 472.862656)scale(0.15 -0.15)">
       <use xlink:href="#SimHei-49"/>
       <use x="50" xlink:href="#SimHei-50"/>
       <use x="100" xlink:href="#SimHei-26376"/>
       <use x="200" xlink:href="#SimHei-49"/>
       <use x="250" xlink:href="#SimHei-52"/>
       <use x="300" xlink:href="#SimHei-26085"/>
      </g>
     </g>
    </g>
    <g id="text_8">
     <!-- 时间 -->
     <defs>
      <path d="M 39.453125 71.484375 
Q 39.0625 57.421875 39.0625 37.5 
Q 39.0625 17.578125 39.453125 6.25 
L 31.25 6.25 
L 31.25 13.671875 
L 15.625 13.671875 
L 15.625 0.78125 
L 7.421875 0.78125 
Q 7.8125 18.75 7.8125 36.71875 
Q 7.8125 55.078125 7.421875 71.484375 
L 39.453125 71.484375 
z
M 76.171875 59.765625 
Q 76.171875 71.484375 75.78125 81.640625 
L 84.375 81.640625 
Q 83.984375 71.484375 83.984375 59.765625 
Q 89.84375 59.765625 96.484375 60.15625 
L 96.484375 52.734375 
Q 89.84375 53.125 83.984375 53.125 
L 83.984375 0.78125 
Q 83.984375 -5.078125 79.296875 -6.640625 
Q 74.609375 -8.203125 67.1875 -8.984375 
Q 67.1875 -4.296875 62.890625 0 
Q 70.3125 -0.78125 73.234375 -0.390625 
Q 76.171875 0 76.171875 4.6875 
L 76.171875 53.125 
Q 56.640625 53.125 43.359375 52.734375 
L 43.359375 60.15625 
Q 55.859375 59.765625 76.171875 59.765625 
z
M 31.25 20.3125 
L 31.25 39.84375 
L 15.625 39.84375 
L 15.625 20.3125 
z
M 31.25 46.484375 
L 31.25 64.84375 
L 15.625 64.84375 
L 15.625 46.484375 
z
M 55.46875 42.578125 
Q 60.546875 34.375 65.234375 25 
Q 61.328125 23.828125 57.03125 21.484375 
Q 53.90625 30.859375 48.046875 39.0625 
Q 51.5625 40.625 55.46875 42.578125 
z
" id="SimHei-26102"/>
      <path d="M 69.53125 55.46875 
Q 69.140625 48.046875 69.140625 42.578125 
L 69.140625 21.875 
Q 69.140625 16.796875 69.53125 9.765625 
L 30.078125 9.765625 
Q 30.46875 16.796875 30.46875 22.265625 
L 30.46875 42.578125 
Q 30.46875 48.046875 30.078125 55.46875 
L 69.53125 55.46875 
z
M 90.625 76.171875 
Q 90.234375 68.75 90.234375 61.328125 
L 90.234375 3.90625 
Q 90.625 -5.078125 85.34375 -7.03125 
Q 80.078125 -8.984375 73.828125 -9.765625 
Q 73.4375 -5.078125 70.703125 -0.390625 
Q 78.125 -0.78125 80.265625 0.390625 
Q 82.421875 1.5625 82.421875 5.46875 
L 82.421875 69.53125 
L 58.984375 69.53125 
Q 49.609375 69.53125 41.40625 69.140625 
L 41.40625 76.5625 
Q 49.609375 76.171875 58.984375 76.171875 
z
M 8.59375 -8.203125 
Q 9.375 -0.390625 9.375 8.203125 
L 9.375 49.21875 
Q 9.375 57.421875 8.59375 62.890625 
L 17.578125 62.890625 
Q 17.1875 57.03125 17.1875 51.5625 
L 17.1875 7.8125 
Q 17.1875 0 17.578125 -8.203125 
z
M 61.71875 16.015625 
L 61.71875 30.46875 
L 37.890625 30.46875 
L 37.890625 16.015625 
z
M 61.71875 36.71875 
L 61.71875 49.21875 
L 37.890625 49.21875 
L 37.890625 36.71875 
z
M 23.828125 82.8125 
Q 27.34375 78.125 34.765625 67.96875 
Q 30.46875 66.015625 26.5625 63.671875 
Q 22.65625 71.484375 16.796875 78.515625 
Q 21.09375 81.640625 23.828125 82.8125 
z
" id="SimHei-38388"/>
     </defs>
     <g style="fill:#555555;" transform="translate(548.775625 490.749375)scale(0.15 -0.15)">
      <use xlink:href="#SimHei-26102"/>
      <use x="100" xlink:href="#SimHei-38388"/>
     </g>
    </g>
   </g>
   <g id="matplotlib.axis_2">
    <g id="ytick_1">
     <g id="line2d_15">
      <path clip-path="url(#p660dfeb7cd)" d="M 58.35125 449.799361 
L 1069.2 449.799361 
" style="fill:none;stroke:#ffffff;stroke-linecap:square;stroke-width:0.8;"/>
     </g>
     <g id="line2d_16">
      <defs>
       <path d="M 0 0 
L -3.5 0 
" id="mde6d8f62d7" style="stroke:#555555;stroke-width:0.8;"/>
      </defs>
      <g>
       <use style="fill:#555555;stroke:#555555;stroke-width:0.8;" x="58.35125" xlink:href="#mde6d8f62d7" y="449.799361"/>
      </g>
     </g>
     <g id="text_9">
      <!-- -50 -->
      <defs>
       <path d="M 46.484375 33.203125 
L 1.953125 33.203125 
L 1.953125 39.453125 
L 46.484375 39.453125 
z
" id="SimHei-45"/>
       <path d="M 8.59375 20.703125 
Q 11.328125 10.15625 17.96875 8.984375 
Q 24.609375 7.8125 28.703125 10.34375 
Q 32.8125 12.890625 34.5625 16.984375 
Q 36.328125 21.09375 36.125 26.171875 
Q 35.9375 31.25 33.390625 34.765625 
Q 30.859375 38.28125 26.953125 39.453125 
Q 23.046875 40.625 18.15625 39.453125 
Q 13.28125 38.28125 10.15625 33.984375 
L 3.515625 34.765625 
Q 4.296875 37.109375 10.9375 68.359375 
L 41.796875 68.359375 
L 41.796875 61.328125 
L 16.796875 61.328125 
Q 14.84375 50.78125 12.890625 44.53125 
Q 18.75 47.265625 23.828125 47.0625 
Q 28.90625 46.875 33.59375 44.71875 
Q 38.28125 42.578125 40.421875 38.859375 
Q 42.578125 35.15625 43.546875 31.4375 
Q 44.53125 27.734375 44.328125 23.4375 
Q 44.140625 19.140625 42.578125 14.640625 
Q 41.015625 10.15625 37.890625 7.21875 
Q 34.765625 4.296875 30.265625 2.53125 
Q 25.78125 0.78125 19.921875 1.171875 
Q 14.0625 1.5625 8.78125 5.46875 
Q 3.515625 9.375 1.5625 18.75 
z
" id="SimHei-53"/>
      </defs>
      <g style="fill:#555555;" transform="translate(28.85125 454.955611)scale(0.15 -0.15)">
       <use xlink:href="#SimHei-45"/>
       <use x="50" xlink:href="#SimHei-53"/>
       <use x="100" xlink:href="#SimHei-48"/>
      </g>
     </g>
    </g>
    <g id="ytick_2">
     <g id="line2d_17">
      <path clip-path="url(#p660dfeb7cd)" d="M 58.35125 391.86532 
L 1069.2 391.86532 
" style="fill:none;stroke:#ffffff;stroke-linecap:square;stroke-width:0.8;"/>
     </g>
     <g id="line2d_18">
      <g>
       <use style="fill:#555555;stroke:#555555;stroke-width:0.8;" x="58.35125" xlink:href="#mde6d8f62d7" y="391.86532"/>
      </g>
     </g>
     <g id="text_10">
      <!-- -25 -->
      <g style="fill:#555555;" transform="translate(28.85125 397.02157)scale(0.15 -0.15)">
       <use xlink:href="#SimHei-45"/>
       <use x="50" xlink:href="#SimHei-50"/>
       <use x="100" xlink:href="#SimHei-53"/>
      </g>
     </g>
    </g>
    <g id="ytick_3">
     <g id="line2d_19">
      <path clip-path="url(#p660dfeb7cd)" d="M 58.35125 333.931279 
L 1069.2 333.931279 
" style="fill:none;stroke:#ffffff;stroke-linecap:square;stroke-width:0.8;"/>
     </g>
     <g id="line2d_20">
      <g>
       <use style="fill:#555555;stroke:#555555;stroke-width:0.8;" x="58.35125" xlink:href="#mde6d8f62d7" y="333.931279"/>
      </g>
     </g>
     <g id="text_11">
      <!-- 0 -->
      <g style="fill:#555555;" transform="translate(43.85125 339.087529)scale(0.15 -0.15)">
       <use xlink:href="#SimHei-48"/>
      </g>
     </g>
    </g>
    <g id="ytick_4">
     <g id="line2d_21">
      <path clip-path="url(#p660dfeb7cd)" d="M 58.35125 275.997238 
L 1069.2 275.997238 
" style="fill:none;stroke:#ffffff;stroke-linecap:square;stroke-width:0.8;"/>
     </g>
     <g id="line2d_22">
      <g>
       <use style="fill:#555555;stroke:#555555;stroke-width:0.8;" x="58.35125" xlink:href="#mde6d8f62d7" y="275.997238"/>
      </g>
     </g>
     <g id="text_12">
      <!-- 25 -->
      <g style="fill:#555555;" transform="translate(36.35125 281.153488)scale(0.15 -0.15)">
       <use xlink:href="#SimHei-50"/>
       <use x="50" xlink:href="#SimHei-53"/>
      </g>
     </g>
    </g>
    <g id="ytick_5">
     <g id="line2d_23">
      <path clip-path="url(#p660dfeb7cd)" d="M 58.35125 218.063196 
L 1069.2 218.063196 
" style="fill:none;stroke:#ffffff;stroke-linecap:square;stroke-width:0.8;"/>
     </g>
     <g id="line2d_24">
      <g>
       <use style="fill:#555555;stroke:#555555;stroke-width:0.8;" x="58.35125" xlink:href="#mde6d8f62d7" y="218.063196"/>
      </g>
     </g>
     <g id="text_13">
      <!-- 50 -->
      <g style="fill:#555555;" transform="translate(36.35125 223.219446)scale(0.15 -0.15)">
       <use xlink:href="#SimHei-53"/>
       <use x="50" xlink:href="#SimHei-48"/>
      </g>
     </g>
    </g>
    <g id="ytick_6">
     <g id="line2d_25">
      <path clip-path="url(#p660dfeb7cd)" d="M 58.35125 160.129155 
L 1069.2 160.129155 
" style="fill:none;stroke:#ffffff;stroke-linecap:square;stroke-width:0.8;"/>
     </g>
     <g id="line2d_26">
      <g>
       <use style="fill:#555555;stroke:#555555;stroke-width:0.8;" x="58.35125" xlink:href="#mde6d8f62d7" y="160.129155"/>
      </g>
     </g>
     <g id="text_14">
      <!-- 75 -->
      <defs>
       <path d="M 13.28125 2.34375 
Q 20.3125 32.03125 37.890625 61.328125 
L 4.296875 61.328125 
L 4.296875 68.359375 
L 46.09375 68.359375 
L 46.09375 61.71875 
Q 27.734375 32.03125 21.875 2.34375 
L 13.28125 2.34375 
z
" id="SimHei-55"/>
      </defs>
      <g style="fill:#555555;" transform="translate(36.35125 165.285405)scale(0.15 -0.15)">
       <use xlink:href="#SimHei-55"/>
       <use x="50" xlink:href="#SimHei-53"/>
      </g>
     </g>
    </g>
    <g id="ytick_7">
     <g id="line2d_27">
      <path clip-path="url(#p660dfeb7cd)" d="M 58.35125 102.195114 
L 1069.2 102.195114 
" style="fill:none;stroke:#ffffff;stroke-linecap:square;stroke-width:0.8;"/>
     </g>
     <g id="line2d_28">
      <g>
       <use style="fill:#555555;stroke:#555555;stroke-width:0.8;" x="58.35125" xlink:href="#mde6d8f62d7" y="102.195114"/>
      </g>
     </g>
     <g id="text_15">
      <!-- 100 -->
      <g style="fill:#555555;" transform="translate(28.85125 107.351364)scale(0.15 -0.15)">
       <use xlink:href="#SimHei-49"/>
       <use x="50" xlink:href="#SimHei-48"/>
       <use x="100" xlink:href="#SimHei-48"/>
      </g>
     </g>
    </g>
    <g id="ytick_8">
     <g id="line2d_29">
      <path clip-path="url(#p660dfeb7cd)" d="M 58.35125 44.261073 
L 1069.2 44.261073 
" style="fill:none;stroke:#ffffff;stroke-linecap:square;stroke-width:0.8;"/>
     </g>
     <g id="line2d_30">
      <g>
       <use style="fill:#555555;stroke:#555555;stroke-width:0.8;" x="58.35125" xlink:href="#mde6d8f62d7" y="44.261073"/>
      </g>
     </g>
     <g id="text_16">
      <!-- 125 -->
      <g style="fill:#555555;" transform="translate(28.85125 49.417323)scale(0.15 -0.15)">
       <use xlink:href="#SimHei-49"/>
       <use x="50" xlink:href="#SimHei-50"/>
       <use x="100" xlink:href="#SimHei-53"/>
      </g>
     </g>
    </g>
    <g id="text_17">
     <!-- 流量 -->
     <defs>
      <path d="M 58.203125 82.03125 
Q 62.109375 76.171875 66.015625 69.53125 
L 78.515625 69.53125 
Q 84.765625 69.53125 92.578125 69.921875 
L 92.578125 62.890625 
Q 83.203125 63.28125 78.515625 63.28125 
L 53.515625 63.28125 
Q 56.640625 60.9375 58.984375 59.765625 
Q 57.03125 58.203125 53.90625 54.296875 
Q 50.78125 50.390625 44.53125 43.359375 
Q 58.59375 43.75 74.609375 44.53125 
Q 70.703125 49.21875 66.796875 52.734375 
Q 70.703125 55.46875 72.265625 57.421875 
Q 83.203125 46.09375 90.625 37.109375 
Q 87.109375 34.375 84.375 32.03125 
Q 81.25 36.328125 78.90625 39.453125 
Q 70.3125 38.671875 55.65625 37.6875 
Q 41.015625 36.71875 35.9375 35.15625 
Q 34.765625 38.671875 32.421875 41.796875 
Q 36.328125 42.96875 41.796875 49.609375 
Q 47.265625 56.25 50.78125 63.28125 
L 46.484375 63.28125 
Q 39.453125 63.28125 32.03125 62.5 
L 32.03125 69.921875 
Q 39.453125 69.53125 46.484375 69.53125 
L 57.421875 69.53125 
Q 54.296875 75 51.953125 78.125 
Q 55.859375 80.078125 58.203125 82.03125 
z
M 78.515625 31.640625 
Q 78.125 26.5625 78.125 21.484375 
L 78.125 2.34375 
Q 78.125 -1.171875 81.640625 -1.171875 
L 85.546875 -1.171875 
Q 88.671875 -1.171875 89.0625 7.8125 
Q 92.1875 5.46875 96.875 4.296875 
Q 94.53125 -5.46875 91.984375 -6.640625 
Q 89.453125 -7.8125 85.9375 -7.8125 
L 78.515625 -7.8125 
Q 71.09375 -7.8125 71.09375 -0.390625 
L 71.09375 22.265625 
Q 71.09375 26.953125 70.703125 31.640625 
L 78.515625 31.640625 
z
M 48.828125 30.859375 
Q 48.046875 26.953125 47.453125 18.9375 
Q 46.875 10.9375 43.9375 3.515625 
Q 41.015625 -3.90625 30.46875 -10.9375 
Q 27.734375 -7.421875 24.609375 -5.078125 
Q 32.421875 -1.5625 36.125 4.484375 
Q 39.84375 10.546875 40.234375 18.15625 
Q 40.625 25.78125 40.234375 31.640625 
Q 44.140625 30.859375 48.828125 30.859375 
z
M 62.5 31.640625 
Q 62.109375 29.296875 62.109375 21.875 
L 62.109375 4.6875 
Q 62.109375 -0.390625 62.5 -7.8125 
L 54.296875 -7.8125 
Q 54.6875 -0.78125 54.6875 4.6875 
L 54.6875 21.875 
Q 54.6875 28.515625 54.296875 31.640625 
L 62.5 31.640625 
z
M 29.6875 25.390625 
Q 25.78125 18.75 21.09375 8.78125 
Q 16.40625 -1.171875 13.28125 -6.640625 
Q 9.765625 -3.90625 5.078125 -1.953125 
Q 8.984375 2.734375 14.0625 11.71875 
Q 19.140625 20.703125 22.65625 30.46875 
Q 25.78125 27.734375 29.6875 25.390625 
z
M 9.765625 53.90625 
Q 18.75 48.4375 26.953125 42.578125 
Q 23.828125 39.453125 21.484375 35.546875 
Q 14.453125 42.1875 5.078125 46.875 
Q 7.421875 50 9.765625 53.90625 
z
M 14.453125 77.734375 
Q 23.4375 72.265625 29.6875 67.1875 
Q 26.953125 63.671875 24.21875 60.546875 
Q 17.96875 66.796875 9.765625 71.484375 
Q 12.5 75 14.453125 77.734375 
z
" id="SimHei-27969"/>
      <path d="M 82.03125 39.0625 
Q 81.640625 34.375 81.640625 26.5625 
Q 81.640625 19.140625 82.03125 14.84375 
L 53.515625 14.84375 
L 53.515625 9.765625 
L 71.484375 9.765625 
Q 78.125 9.765625 83.984375 10.15625 
L 83.984375 4.296875 
Q 78.515625 4.6875 71.484375 4.6875 
L 53.515625 4.6875 
L 53.515625 -1.171875 
L 80.078125 -1.171875 
Q 86.328125 -1.171875 92.578125 -0.78125 
L 92.578125 -6.640625 
Q 86.328125 -6.25 80.078125 -6.25 
L 19.921875 -6.25 
Q 14.0625 -6.25 7.421875 -6.640625 
L 7.421875 -0.78125 
Q 14.453125 -0.78125 19.921875 -1.171875 
L 46.484375 -1.171875 
L 46.484375 4.6875 
L 26.953125 4.6875 
Q 21.09375 4.6875 15.234375 3.90625 
L 15.234375 10.15625 
Q 21.484375 9.765625 26.953125 9.765625 
L 46.484375 9.765625 
L 46.484375 14.84375 
L 17.96875 14.84375 
Q 18.359375 21.484375 18.359375 27.734375 
Q 18.359375 33.984375 17.96875 39.0625 
L 82.03125 39.0625 
z
M 81.25 77.34375 
Q 80.859375 71.484375 80.859375 66.40625 
Q 80.859375 61.328125 81.25 53.125 
L 18.75 53.125 
Q 19.140625 61.328125 19.140625 66.40625 
Q 19.140625 71.484375 18.75 77.34375 
L 81.25 77.34375 
z
M 76.5625 48.4375 
Q 85.9375 48.828125 93.75 49.21875 
L 93.75 42.96875 
Q 85.9375 43.359375 76.953125 43.359375 
L 25.78125 43.359375 
Q 15.234375 43.359375 5.078125 42.96875 
L 5.078125 49.21875 
Q 15.234375 48.828125 25.78125 48.4375 
z
M 73.828125 57.8125 
L 73.828125 62.890625 
L 26.171875 62.890625 
L 26.171875 57.8125 
z
M 73.828125 67.96875 
L 73.828125 72.65625 
L 26.171875 72.65625 
L 26.171875 67.96875 
z
M 74.21875 29.296875 
L 74.21875 33.984375 
L 53.515625 33.984375 
L 53.515625 29.296875 
z
M 46.484375 29.296875 
L 46.484375 33.984375 
L 25.78125 33.984375 
L 25.78125 29.296875 
z
M 46.484375 19.921875 
L 46.484375 24.21875 
L 25.78125 24.21875 
L 25.78125 19.921875 
z
M 74.21875 19.921875 
L 74.21875 24.21875 
L 53.515625 24.21875 
L 53.515625 19.921875 
z
" id="SimHei-37327"/>
     </defs>
     <g style="fill:#555555;" transform="translate(22.97625 259.04375)rotate(-90)scale(0.15 -0.15)">
      <use xlink:href="#SimHei-27969"/>
      <use x="100" xlink:href="#SimHei-37327"/>
     </g>
    </g>
   </g>
   <g id="line2d_31">
    <path clip-path="url(#p660dfeb7cd)" d="M 104.29892 309.847571 
L 109.801635 299.931713 
L 115.304351 314.022055 
L 120.807066 324.385503 
L 126.309781 318.086909 
L 131.812496 319.978788 
L 137.315211 323.753844 
L 148.320641 298.750837 
L 153.823356 245.067719 
L 159.326071 228.519906 
L 164.828786 205.165314 
L 170.331501 215.145048 
L 175.834216 242.797401 
L 181.336931 234.147974 
L 186.839646 239.610327 
L 192.342361 246.622037 
L 197.845076 212.766124 
L 203.347791 231.729065 
L 208.850506 198.349254 
L 214.353221 228.111353 
L 219.855936 269.324372 
L 225.358651 296.352221 
L 230.861366 292.135759 
L 236.364081 310.046907 
L 241.866796 310.149513 
L 247.369511 309.221396 
L 252.872226 321.486912 
L 258.374941 319.267194 
L 263.877656 320.412568 
L 269.380371 300.261223 
L 274.883086 268.955978 
L 280.385801 150.406973 
L 285.888516 119.509026 
L 291.391231 116.289894 
L 296.893946 142.956487 
L 302.396661 80.031084 
L 307.899376 120.797992 
L 313.402091 131.36579 
L 318.904806 52.665913 
L 324.407521 117.905356 
L 329.910236 84.327028 
L 335.412951 173.079834 
L 340.915667 175.980811 
L 346.418382 187.860307 
L 351.921097 237.469152 
L 357.423812 297.349472 
L 362.926527 310.387239 
L 368.429242 311.272446 
L 373.931957 307.04623 
L 379.434672 317.490952 
L 384.937387 311.982756 
L 390.440102 317.940403 
L 395.942817 320.242821 
L 401.445532 308.984517 
L 406.948247 251.5707 
L 412.450962 181.997651 
L 417.953677 132.333454 
L 423.456392 131.249426 
L 428.959107 116.696607 
L 439.964537 121.714997 
L 445.467252 165.659849 
L 450.969967 183.188516 
L 456.472682 123.843394 
L 461.975397 117.452926 
L 467.478112 163.505139 
L 472.980827 139.344864 
L 478.483542 164.705209 
L 483.986257 205.385206 
L 489.488972 282.805975 
L 494.991687 281.510145 
L 500.494402 304.201458 
L 505.997117 309.819737 
L 511.499832 316.181945 
L 517.002547 317.553186 
L 522.505262 324.279724 
L 528.007977 325.040038 
L 533.510692 318.263297 
L 539.013407 243.261671 
L 544.516122 159.175155 
L 550.018837 84.618179 
L 555.521552 66.090022 
L 561.024267 118.631204 
L 566.526983 67.441479 
L 572.029698 131.023425 
L 577.532413 131.956793 
L 583.035128 88.015289 
L 588.537843 116.395562 
L 594.040558 52.564205 
L 599.543273 143.054773 
L 605.045988 144.533013 
L 610.548703 195.122012 
L 616.051418 225.973781 
L 621.554133 284.218794 
L 627.056848 309.184821 
L 632.559563 320.299704 
L 638.062278 308.425926 
L 643.564993 320.377621 
L 649.067708 317.127704 
L 654.570423 312.322112 
L 660.073138 315.676964 
L 665.575853 314.626557 
L 671.078568 261.589419 
L 676.581283 139.285687 
L 682.083998 119.155392 
L 687.586713 115.258283 
L 693.089428 117.927686 
L 698.592143 158.774197 
L 704.094858 108.116431 
L 709.597573 84.928826 
L 715.100288 103.801119 
L 720.603003 123.073909 
L 726.105718 55.679363 
L 731.608433 83.783818 
L 737.111148 104.476219 
L 742.613863 178.178291 
L 748.116578 231.150994 
L 753.619293 279.968082 
L 759.122008 299.006801 
L 764.624723 304.711774 
L 770.127438 311.545917 
L 775.630153 324.588545 
L 781.132868 321.198953 
L 786.635583 316.234876 
L 792.138299 315.572101 
L 797.641014 302.192885 
L 803.143729 252.102336 
L 808.646444 136.970151 
L 814.149159 79.534813 
L 819.651874 61.289219 
L 825.154589 105.861384 
L 830.657304 142.636154 
L 836.160019 108.572256 
L 841.662734 139.436762 
L 847.165449 107.12521 
L 852.668164 85.01765 
L 858.170879 82.479163 
L 863.673594 90.524911 
L 869.176309 138.562347 
L 874.679024 132.799488 
L 880.181739 188.189242 
L 885.684454 275.251749 
L 891.187169 305.252448 
L 896.689884 307.701419 
L 902.192599 310.761815 
L 907.695314 311.504228 
L 913.198029 293.870987 
L 918.700744 306.714071 
L 924.203459 318.268734 
L 929.706174 307.898565 
L 935.208889 289.614588 
L 940.711604 211.010029 
L 951.717034 160.56651 
L 957.219749 145.683169 
L 962.722464 193.721841 
L 968.225179 197.293775 
L 973.727894 186.164295 
L 979.230609 150.917877 
L 984.733324 191.323662 
L 990.236039 132.679702 
L 995.738754 175.356608 
L 1001.241469 161.623775 
L 1006.744184 195.094601 
L 1012.246899 245.431495 
L 1017.749615 284.847315 
L 1023.25233 295.019195 
L 1023.25233 295.019195 
" style="fill:none;stroke:#0000ff;stroke-linecap:square;stroke-width:1.5;"/>
   </g>
   <g id="line2d_32">
    <path clip-path="url(#p660dfeb7cd)" d="M 104.29892 301.414923 
L 109.801635 304.882786 
L 115.304351 290.181718 
L 120.807066 301.222098 
L 126.309781 308.134975 
L 131.812496 298.328062 
L 137.315211 297.588142 
L 142.817926 299.282936 
L 148.320641 284.617073 
L 153.823356 271.139145 
L 159.326071 217.180946 
L 164.828786 203.629896 
L 170.331501 184.283176 
L 175.834216 198.672876 
L 181.336931 230.161328 
L 186.839646 222.406234 
L 192.342361 229.322501 
L 197.845076 237.216109 
L 203.347791 203.474728 
L 208.850506 224.556711 
L 214.353221 192.242962 
L 219.855936 224.004758 
L 225.358651 266.636512 
L 230.861366 291.251778 
L 236.364081 283.919423 
L 241.866796 298.70693 
L 247.369511 296.077998 
L 252.872226 291.835221 
L 258.374941 302.417858 
L 263.877656 297.368351 
L 269.380371 296.759303 
L 274.883086 274.620685 
L 280.385801 242.884464 
L 285.888516 124.958966 
L 291.391231 102.164882 
L 296.893946 108.927628 
L 302.396661 143.607183 
L 307.899376 86.067391 
L 313.402091 133.286453 
L 318.904806 149.674667 
L 324.407521 72.420828 
L 329.910236 144.431147 
L 335.412951 128.365362 
L 340.915667 215.162069 
L 346.418382 209.016816 
L 351.921097 222.365074 
L 357.423812 265.57521 
L 362.926527 313.59371 
L 368.429242 320.261406 
L 373.931957 315.982256 
L 379.434672 306.687371 
L 384.937387 308.937682 
L 390.440102 292.967095 
L 395.942817 298.912062 
L 401.445532 294.472555 
L 406.948247 282.929909 
L 412.450962 225.15132 
L 417.953677 162.521856 
L 423.456392 117.136712 
L 428.959107 123.297799 
L 434.461822 116.57422 
L 439.964537 112.571234 
L 445.467252 123.791558 
L 450.969967 181.41653 
L 456.472682 192.725826 
L 461.975397 138.842014 
L 467.478112 138.420084 
L 472.980827 186.100439 
L 478.483542 166.439681 
L 483.986257 200.504083 
L 489.488972 236.932201 
L 494.991687 304.047331 
L 500.494402 300.451495 
L 505.997117 321.177614 
L 511.499832 320.948706 
L 517.002547 320.143647 
L 522.505262 316.661819 
L 528.007977 318.027075 
L 533.510692 307.881264 
L 539.013407 294.716506 
L 544.516122 221.522129 
L 550.018837 138.340069 
L 555.521552 70.506881 
L 561.024267 61.833497 
L 566.526983 125.115988 
L 572.029698 81.082562 
L 577.532413 138.73116 
L 583.035128 146.357406 
L 588.537843 108.284647 
L 594.040558 140.255419 
L 599.543273 80.737316 
L 605.045988 176.110717 
L 610.548703 181.751258 
L 616.051418 228.402879 
L 621.554133 257.290273 
L 627.056848 309.220329 
L 632.559563 328.045364 
L 638.062278 330.590379 
L 643.564993 311.399346 
L 649.067708 316.322463 
L 654.570423 308.475948 
L 660.073138 298.926204 
L 665.575853 298.702332 
L 671.078568 294.96347 
L 676.581283 240.877704 
L 682.083998 120.027506 
L 687.586713 104.098957 
L 693.089428 110.163062 
L 698.592143 120.401024 
L 704.094858 166.908464 
L 709.597573 122.156732 
L 715.100288 101.670482 
L 720.603003 125.711761 
L 726.105718 145.958291 
L 731.608433 93.82652 
L 737.111148 115.643014 
L 742.613863 139.83063 
L 748.116578 214.82041 
L 753.619293 266.385163 
L 759.122008 309.056079 
L 764.624723 320.722679 
L 770.127438 322.343161 
L 775.630153 317.263704 
L 781.132868 323.633306 
L 786.635583 314.493087 
L 792.138299 304.23597 
L 797.641014 299.589838 
L 803.143729 283.381088 
L 808.646444 231.9934 
L 814.149159 118.594155 
L 819.651874 66.504619 
L 825.154589 58.849353 
L 830.657304 115.207388 
L 836.160019 158.244426 
L 841.662734 126.455096 
L 847.165449 160.651468 
L 852.668164 131.856167 
L 858.170879 110.976713 
L 863.673594 112.81821 
L 869.176309 123.923331 
L 874.679024 175.128115 
L 880.181739 168.062277 
L 885.684454 223.33376 
L 891.187169 307.618469 
L 896.689884 329.224032 
L 902.192599 322.372003 
L 907.695314 317.664648 
L 913.198029 311.710645 
L 918.700744 288.381019 
L 924.203459 297.725787 
L 929.706174 305.832326 
L 935.208889 291.499478 
L 940.711604 270.625471 
L 946.214319 190.419764 
L 951.717034 168.884923 
L 957.219749 148.82883 
L 962.722464 139.455612 
L 968.225179 193.729845 
L 973.727894 199.161325 
L 979.230609 189.14476 
L 984.733324 155.468735 
L 990.236039 199.566682 
L 995.738754 141.636936 
L 1001.241469 186.177002 
L 1006.744184 176.698584 
L 1012.246899 208.976952 
L 1017.749615 259.713852 
L 1023.25233 295.772565 
L 1023.25233 295.772565 
" style="fill:none;stroke:#ff0000;stroke-linecap:square;stroke-width:1.5;"/>
   </g>
   <g id="line2d_33">
    <path clip-path="url(#p660dfeb7cd)" d="M 104.29892 325.498631 
L 109.801635 338.882352 
L 115.304351 310.090942 
L 120.807066 310.767873 
L 126.309781 323.979345 
L 131.812496 312.280553 
L 137.315211 307.765578 
L 142.817926 321.977938 
L 148.320641 319.797515 
L 153.823356 360.002705 
L 159.326071 322.592318 
L 164.828786 332.39586 
L 170.331501 303.069408 
L 175.834216 289.806754 
L 181.336931 329.944633 
L 186.839646 316.727186 
L 192.342361 316.631743 
L 197.845076 358.381263 
L 203.347791 305.676942 
L 208.850506 360.138735 
L 214.353221 298.062888 
L 219.855936 288.611665 
L 225.358651 304.21557 
L 230.861366 333.047298 
L 236.364081 307.803795 
L 241.866796 322.488696 
L 247.369511 320.78788 
L 252.872226 304.279588 
L 258.374941 317.081943 
L 263.877656 310.887062 
L 269.380371 330.429359 
L 274.883086 339.595985 
L 280.385801 426.40877 
L 285.888516 339.381219 
L 296.893946 299.902419 
L 302.396661 397.507378 
L 307.899376 299.200678 
L 313.402091 335.851941 
L 318.904806 430.940033 
L 324.407521 288.446751 
L 329.910236 394.035397 
L 335.412951 289.216807 
L 340.915667 373.112536 
L 346.418382 355.087787 
L 351.921097 318.827201 
L 357.423812 302.157017 
L 362.926527 337.13775 
L 368.429242 342.920238 
L 373.931957 342.867304 
L 379.434672 323.127697 
L 384.937387 330.886205 
L 390.440102 308.957971 
L 395.942817 312.60052 
L 401.445532 319.419317 
L 406.948247 365.290488 
L 412.450962 377.084948 
L 417.953677 364.11968 
L 423.456392 319.818565 
L 428.959107 340.532471 
L 434.461822 331.280642 
L 439.964537 324.787516 
L 445.467252 292.062988 
L 450.969967 332.159293 
L 456.472682 402.813711 
L 461.975397 355.320366 
L 467.478112 308.846224 
L 472.980827 380.686854 
L 478.483542 335.665751 
L 483.986257 329.050155 
L 489.488972 288.057505 
L 494.991687 356.468464 
L 500.494402 330.181316 
L 505.997117 345.289156 
L 511.499832 338.69804 
L 517.002547 336.521741 
L 522.505262 326.313374 
L 528.007977 326.918317 
L 533.510692 323.549247 
L 539.013407 385.386114 
L 544.516122 396.278253 
L 550.018837 387.653169 
L 555.521552 338.348138 
L 561.024267 277.133571 
L 566.526983 391.605787 
L 572.029698 283.990415 
L 577.532413 340.705645 
L 583.035128 392.273396 
L 588.537843 325.820363 
L 594.040558 421.622494 
L 599.543273 271.613821 
L 605.045988 365.508982 
L 610.548703 320.560525 
L 616.051418 336.360376 
L 621.554133 307.002757 
L 627.056848 333.966786 
L 632.559563 341.676939 
L 638.062278 356.095731 
L 643.564993 324.953004 
L 649.067708 333.126038 
L 654.570423 330.085115 
L 660.073138 317.180519 
L 665.575853 318.007054 
L 671.078568 367.30533 
L 676.581283 435.523295 
L 682.083998 334.803393 
L 687.586713 322.771953 
L 693.089428 326.166654 
L 698.592143 295.558106 
L 704.094858 392.723312 
L 709.597573 371.159185 
L 715.100288 331.800642 
L 720.603003 336.569131 
L 726.105718 424.210206 
L 731.608433 343.973981 
L 737.111148 345.098074 
L 742.613863 295.583618 
L 748.116578 317.600695 
L 753.619293 320.34836 
L 759.122008 343.980556 
L 764.624723 349.942184 
L 770.127438 344.728523 
L 775.630153 326.606438 
L 781.132868 336.365631 
L 786.635583 332.18949 
L 792.138299 322.595148 
L 797.641014 331.328231 
L 803.143729 365.210031 
L 808.646444 428.954529 
L 814.149159 372.99062 
L 819.651874 339.146678 
L 825.154589 286.919248 
L 830.657304 306.502513 
L 836.160019 383.603449 
L 841.662734 320.949612 
L 847.165449 387.457537 
L 852.668164 380.769796 
L 858.170879 362.428828 
L 863.673594 356.224578 
L 869.176309 319.292264 
L 874.679024 376.259906 
L 880.181739 313.804314 
L 885.684454 282.01329 
L 891.187169 336.2973 
L 896.689884 355.453892 
L 902.192599 345.541467 
L 907.695314 340.091699 
L 913.198029 351.770937 
L 918.700744 315.598227 
L 924.203459 313.388332 
L 929.706174 331.86504 
L 935.208889 335.816169 
L 940.711604 393.546721 
L 946.214319 338.664527 
L 951.717034 342.249692 
L 957.219749 337.076939 
L 962.722464 279.66505 
L 968.225179 330.367349 
L 973.727894 346.928308 
L 979.230609 372.158161 
L 984.733324 298.076352 
L 990.236039 400.818259 
L 995.738754 300.211607 
L 1001.241469 358.484506 
L 1006.744184 315.535262 
L 1012.246899 297.476736 
L 1017.749615 308.797816 
L 1023.25233 334.684649 
L 1023.25233 334.684649 
" style="fill:none;stroke:#000000;stroke-linecap:square;stroke-width:1.5;"/>
   </g>
   <g id="patch_3">
    <path d="M 58.35125 454.67125 
L 58.35125 33.41625 
" style="fill:none;stroke:#ffffff;stroke-linecap:square;stroke-linejoin:miter;"/>
   </g>
   <g id="patch_4">
    <path d="M 1069.2 454.67125 
L 1069.2 33.41625 
" style="fill:none;stroke:#ffffff;stroke-linecap:square;stroke-linejoin:miter;"/>
   </g>
   <g id="patch_5">
    <path d="M 58.35125 454.67125 
L 1069.2 454.67125 
" style="fill:none;stroke:#ffffff;stroke-linecap:square;stroke-linejoin:miter;"/>
   </g>
   <g id="patch_6">
    <path d="M 58.35125 33.41625 
L 1069.2 33.41625 
" style="fill:none;stroke:#ffffff;stroke-linecap:square;stroke-linejoin:miter;"/>
   </g>
   <g id="text_18">
    <!-- ARIMA 预测值、实际值和误差分布图 ID=200  -->
    <defs>
     <path d="M 48.046875 1.953125 
L 38.671875 1.953125 
L 33.203125 22.65625 
L 16.015625 22.65625 
L 10.546875 1.953125 
L 1.171875 1.953125 
L 20.703125 69.53125 
L 28.515625 69.53125 
z
M 31.25 30.078125 
L 25 53.90625 
L 24.21875 53.90625 
L 17.96875 30.078125 
z
" id="SimHei-65"/>
     <path d="M 46.875 1.953125 
L 37.5 1.953125 
L 23.4375 30.859375 
L 13.28125 30.859375 
L 13.28125 1.953125 
L 4.296875 1.953125 
L 4.296875 68.75 
L 23.828125 68.75 
Q 33.203125 68.75 39.0625 64.25 
Q 44.921875 59.765625 44.921875 49.609375 
Q 44.921875 41.796875 41.015625 37.5 
Q 37.109375 33.203125 32.03125 32.03125 
z
M 35.9375 49.609375 
Q 35.9375 55.078125 32.609375 58.203125 
Q 29.296875 61.328125 21.875 61.328125 
L 13.28125 61.328125 
L 13.28125 38.28125 
L 24.21875 38.28125 
Q 28.90625 38.28125 32.421875 40.8125 
Q 35.9375 43.359375 35.9375 49.609375 
z
" id="SimHei-82"/>
     <path d="M 28.90625 1.953125 
L 19.921875 1.953125 
L 19.921875 68.75 
L 28.90625 68.75 
z
" id="SimHei-73"/>
     <path d="M 45.703125 1.953125 
L 37.890625 1.953125 
L 37.890625 49.609375 
L 37.109375 49.609375 
L 27.734375 1.953125 
L 21.484375 1.953125 
L 12.109375 49.609375 
L 11.328125 49.609375 
L 11.328125 1.953125 
L 3.515625 1.953125 
L 3.515625 68.75 
L 15.625 68.75 
L 24.21875 24.609375 
L 25 24.609375 
L 33.59375 68.75 
L 45.703125 68.75 
z
" id="SimHei-77"/>
     <path id="SimHei-32"/>
     <path d="M 81.25 75 
Q 87.109375 75 92.96875 75.390625 
L 92.96875 68.75 
Q 87.109375 69.140625 81.25 69.140625 
L 70.3125 69.140625 
Q 69.140625 63.28125 67.96875 56.25 
L 89.453125 56.25 
Q 89.0625 50.390625 89.0625 43.75 
L 89.0625 26.953125 
Q 89.0625 20.3125 89.453125 13.28125 
L 82.03125 13.28125 
L 82.03125 50.390625 
L 55.46875 50.390625 
L 55.46875 12.5 
L 48.046875 12.5 
Q 48.4375 21.484375 48.4375 26.953125 
L 48.4375 43.359375 
Q 48.4375 49.609375 48.046875 56.25 
L 60.9375 56.25 
Q 62.5 64.84375 62.5 69.140625 
L 58.203125 69.140625 
Q 51.5625 69.140625 44.53125 68.75 
L 44.53125 75.390625 
Q 51.953125 75 58.203125 75 
z
M 40.625 27.734375 
Q 36.71875 28.515625 33.59375 28.515625 
Q 35.15625 35.15625 35.9375 38.28125 
L 27.34375 38.28125 
L 27.34375 1.953125 
Q 26.953125 -4.6875 22.265625 -6.25 
Q 17.578125 -7.8125 11.71875 -7.8125 
Q 10.9375 -3.515625 8.984375 0.390625 
Q 17.578125 -0.390625 18.9375 0.578125 
Q 20.3125 1.5625 20.3125 5.46875 
L 20.3125 38.28125 
L 16.015625 38.28125 
Q 10.9375 38.28125 5.46875 37.890625 
L 5.46875 44.53125 
Q 10.9375 44.140625 15.625 44.140625 
L 44.53125 44.140625 
Q 42.578125 36.328125 40.625 27.734375 
z
M 73.828125 44.921875 
Q 72.265625 40.234375 71.875 32.8125 
Q 71.484375 25.390625 69.71875 16.203125 
Q 67.96875 7.03125 61.90625 0.96875 
Q 55.859375 -5.078125 45.703125 -10.546875 
Q 42.1875 -7.8125 38.671875 -5.46875 
Q 48.046875 -1.953125 53.703125 3.125 
Q 59.375 8.203125 61.71875 14.640625 
Q 64.0625 21.09375 64.640625 28.90625 
Q 65.234375 36.71875 65.234375 45.703125 
L 73.828125 44.921875 
z
M 25.390625 45.3125 
Q 19.921875 51.171875 12.5 57.03125 
Q 14.453125 58.984375 16.796875 61.71875 
Q 19.53125 59.765625 22.265625 57.421875 
Q 27.34375 64.84375 30.46875 68.359375 
L 21.875 68.359375 
Q 14.0625 68.359375 7.03125 67.96875 
L 7.03125 74.609375 
Q 14.0625 74.21875 21.484375 74.21875 
L 40.234375 74.21875 
L 40.234375 68.359375 
Q 34.375 64.0625 26.953125 53.125 
L 30.46875 50 
Q 27.34375 47.265625 25.390625 45.3125 
z
M 74.609375 11.328125 
Q 89.453125 0 94.921875 -5.078125 
Q 91.40625 -7.8125 89.453125 -10.15625 
Q 84.375 -5.078125 80.265625 -1.359375 
Q 76.171875 2.34375 70.703125 5.46875 
Q 72.65625 8.203125 74.609375 11.328125 
z
" id="SimHei-39044"/>
     <path d="M 62.890625 73.828125 
Q 62.5 69.921875 62.5 62.5 
L 62.5 34.765625 
Q 62.5 27.734375 62.890625 21.09375 
L 55.46875 21.09375 
L 55.46875 67.578125 
L 36.71875 67.578125 
L 36.71875 20.703125 
L 29.6875 20.703125 
Q 30.078125 27.734375 30.078125 34.765625 
L 30.078125 62.5 
Q 30.078125 65.625 29.6875 73.828125 
L 62.890625 73.828125 
z
M 92.1875 79.296875 
Q 91.796875 75 91.796875 68.359375 
L 91.796875 0 
Q 91.796875 -5.078125 88.28125 -6.640625 
Q 84.765625 -8.203125 77.734375 -9.375 
Q 76.953125 -5.078125 74.609375 -0.78125 
Q 80.078125 -0.78125 82.21875 -0.390625 
Q 84.375 0 84.375 3.90625 
L 84.375 68.359375 
Q 84.375 74.609375 83.984375 79.296875 
L 92.1875 79.296875 
z
M 51.171875 58.203125 
Q 50.390625 53.125 50 36.328125 
Q 49.609375 19.53125 44.328125 8.59375 
Q 39.0625 -2.34375 32.421875 -9.375 
Q 28.90625 -6.25 25 -5.078125 
Q 34.375 3.90625 38.671875 15.03125 
Q 42.96875 26.171875 43.15625 38.671875 
Q 43.359375 51.171875 42.578125 59.375 
Q 46.875 58.59375 51.171875 58.203125 
z
M 77.34375 66.796875 
Q 76.953125 62.5 76.953125 55.859375 
L 76.953125 28.515625 
Q 76.953125 20.3125 77.34375 13.28125 
L 69.53125 13.28125 
Q 69.921875 17.96875 69.921875 28.515625 
L 69.921875 55.859375 
Q 69.921875 62.5 69.53125 66.796875 
L 77.34375 66.796875 
z
M 26.5625 26.171875 
Q 21.484375 16.796875 17.375 7.609375 
Q 13.28125 -1.5625 11.328125 -6.25 
Q 7.8125 -3.125 3.125 -0.390625 
Q 7.421875 4.6875 11.90625 13.28125 
Q 16.40625 21.875 19.53125 31.25 
Q 23.046875 28.515625 26.5625 26.171875 
z
M 53.125 16.40625 
Q 59.375 10.15625 67.1875 -1.953125 
Q 64.0625 -3.515625 60.546875 -7.03125 
Q 54.296875 4.296875 47.265625 11.71875 
Q 50.390625 13.671875 53.125 16.40625 
z
M 9.375 55.078125 
Q 17.578125 48.828125 23.4375 43.359375 
Q 20.3125 40.234375 17.96875 37.109375 
Q 12.890625 43.359375 4.6875 49.21875 
Q 7.03125 51.5625 9.375 55.078125 
z
M 21.09375 62.5 
Q 14.84375 68.359375 7.421875 73.046875 
Q 9.765625 75.78125 12.109375 78.90625 
Q 20.3125 73.4375 26.171875 68.359375 
Q 23.4375 66.40625 21.09375 62.5 
z
" id="SimHei-27979"/>
     <path d="M 57.421875 69.53125 
L 57.421875 79.6875 
Q 62.109375 79.296875 67.96875 78.90625 
Q 66.015625 76.171875 65.625 69.53125 
L 80.078125 69.53125 
Q 86.71875 69.53125 91.796875 69.921875 
L 91.796875 62.890625 
Q 86.328125 63.28125 80.078125 63.28125 
L 65.234375 63.28125 
L 64.453125 54.6875 
L 84.375 54.6875 
Q 83.984375 50 83.984375 42.1875 
L 83.984375 2.34375 
Q 91.796875 2.34375 95.3125 2.734375 
L 95.3125 -4.296875 
Q 90.234375 -3.90625 81.25 -3.90625 
L 44.53125 -3.90625 
Q 35.546875 -3.90625 29.6875 -4.296875 
L 29.6875 2.734375 
Q 33.203125 2.34375 40.625 2.34375 
L 40.625 42.1875 
Q 40.625 49.609375 40.234375 54.6875 
L 56.25 54.6875 
L 57.03125 63.28125 
L 50 63.28125 
Q 40.234375 63.28125 34.765625 62.890625 
L 34.765625 69.921875 
Q 39.84375 69.53125 50 69.53125 
z
M 34.765625 76.5625 
Q 31.640625 73.046875 25.78125 58.59375 
L 25.78125 7.03125 
Q 25.78125 -1.171875 26.171875 -8.59375 
L 17.96875 -8.59375 
Q 18.359375 -1.953125 18.359375 5.859375 
L 18.359375 46.09375 
Q 13.671875 38.28125 9.765625 33.59375 
Q 6.640625 37.890625 3.90625 40.234375 
Q 7.8125 44.140625 14.640625 55.265625 
Q 21.484375 66.40625 25.390625 80.46875 
Q 30.859375 77.734375 34.765625 76.5625 
z
M 76.953125 41.40625 
L 76.953125 49.21875 
L 48.046875 49.21875 
L 48.046875 41.40625 
z
M 76.953125 2.34375 
L 76.953125 9.765625 
L 48.046875 9.765625 
L 48.046875 2.34375 
z
M 76.953125 15.625 
L 76.953125 22.65625 
L 48.046875 22.65625 
L 48.046875 15.625 
z
M 76.953125 28.515625 
L 76.953125 35.546875 
L 48.046875 35.546875 
L 48.046875 28.515625 
z
" id="SimHei-20540"/>
     <path d="M 26.953125 -4.296875 
Q 20.703125 10.9375 14.453125 22.65625 
L 20.703125 25.78125 
Q 28.515625 14.84375 36.328125 0.390625 
z
" id="SimHei-12289"/>
     <path d="M 64.453125 54.6875 
Q 63.28125 50 62.5 41.796875 
Q 61.71875 33.59375 60.15625 24.21875 
L 78.515625 24.21875 
Q 85.546875 24.21875 93.359375 24.609375 
L 93.359375 17.1875 
Q 85.15625 17.578125 78.125 17.578125 
L 58.203125 17.578125 
Q 54.6875 9.765625 47.65625 3.90625 
Q 40.625 -1.953125 31.25 -5.265625 
Q 21.875 -8.59375 14.453125 -10.546875 
Q 12.890625 -5.859375 7.8125 -3.125 
Q 19.140625 -1.953125 32.03125 3.3125 
Q 44.921875 8.59375 50 17.578125 
L 22.265625 17.578125 
Q 15.234375 17.578125 6.640625 17.1875 
L 6.640625 24.609375 
Q 15.625 24.21875 22.265625 24.21875 
L 52.734375 24.21875 
Q 53.90625 30.859375 54.484375 38.46875 
Q 55.078125 46.09375 54.6875 57.03125 
Q 59.375 55.46875 64.453125 54.6875 
z
M 50.78125 82.03125 
Q 53.90625 75.78125 56.25 68.359375 
L 90.234375 68.359375 
Q 89.84375 64.0625 89.84375 59.765625 
Q 89.84375 55.859375 90.234375 51.171875 
L 81.25 51.171875 
L 81.25 62.109375 
L 19.140625 62.109375 
L 19.140625 50.390625 
L 10.546875 50.390625 
Q 10.9375 55.078125 10.9375 59.375 
Q 10.9375 64.0625 10.546875 68.359375 
L 46.484375 68.359375 
Q 45.3125 73.046875 42.1875 79.296875 
Q 45.3125 80.46875 50.78125 82.03125 
z
M 62.5 12.890625 
Q 71.09375 8.203125 78.90625 4.09375 
Q 86.71875 0 92.578125 -3.515625 
Q 89.84375 -6.640625 86.71875 -10.15625 
Q 79.6875 -5.078125 71.484375 -0.578125 
Q 63.28125 3.90625 57.421875 6.25 
Q 60.546875 10.15625 62.5 12.890625 
z
M 18.359375 42.96875 
Q 25 39.84375 36.71875 32.03125 
Q 35.15625 29.6875 32.03125 25.78125 
Q 21.09375 33.984375 14.453125 36.71875 
Q 16.796875 39.0625 18.359375 42.96875 
z
M 49.21875 44.140625 
Q 46.484375 41.015625 44.53125 37.890625 
Q 32.03125 46.875 26.171875 48.828125 
Q 28.125 51.5625 30.46875 55.078125 
z
" id="SimHei-23454"/>
     <path d="M 39.0625 76.5625 
Q 37.890625 73.4375 35.15625 64.0625 
Q 32.421875 54.6875 29.296875 45.3125 
Q 34.375 37.5 36.125 32.03125 
Q 37.890625 26.5625 36.90625 22.0625 
Q 35.9375 17.578125 31.4375 14.25 
Q 26.953125 10.9375 21.09375 10.15625 
Q 19.140625 16.40625 17.578125 19.140625 
Q 26.171875 19.140625 27.921875 22.0625 
Q 29.6875 25 28.703125 29.09375 
Q 27.734375 33.203125 25.96875 37.109375 
Q 24.21875 41.015625 21.09375 44.921875 
Q 23.046875 50.390625 25 57.03125 
Q 26.953125 63.671875 28.90625 69.921875 
L 16.015625 69.921875 
L 16.015625 -8.203125 
L 7.8125 -8.203125 
Q 8.203125 2.734375 8.203125 13.28125 
L 8.203125 59.765625 
Q 8.203125 68.359375 7.8125 76.5625 
L 39.0625 76.5625 
z
M 82.03125 51.5625 
Q 88.28125 51.5625 94.53125 51.953125 
L 94.53125 44.53125 
Q 89.453125 44.921875 83.203125 44.921875 
L 70.3125 44.921875 
L 70.3125 1.171875 
Q 70.3125 -5.078125 66.015625 -6.046875 
Q 61.71875 -7.03125 54.296875 -8.203125 
Q 53.90625 -3.515625 51.171875 1.171875 
Q 58.984375 1.171875 60.734375 1.5625 
Q 62.5 1.953125 62.5 4.296875 
L 62.5 44.921875 
L 52.734375 44.921875 
Q 44.140625 44.921875 38.671875 44.53125 
L 38.671875 51.953125 
Q 47.265625 51.5625 52.734375 51.5625 
z
M 77.734375 74.609375 
Q 83.984375 74.609375 88.671875 75.390625 
L 88.671875 67.96875 
Q 83.984375 68.359375 77.734375 68.359375 
L 57.03125 68.359375 
Q 50.390625 68.359375 45.3125 67.96875 
L 45.3125 75.390625 
Q 50 74.609375 57.8125 74.609375 
z
M 33.59375 3.125 
Q 38.28125 10.9375 41.59375 18.546875 
Q 44.921875 26.171875 47.65625 33.984375 
Q 50.78125 32.8125 55.859375 30.46875 
Q 51.953125 23.4375 48.625 15.625 
Q 45.3125 7.8125 41.40625 -0.390625 
Q 38.28125 1.171875 33.59375 3.125 
z
M 82.421875 34.375 
Q 92.1875 15.234375 96.875 5.46875 
Q 92.96875 3.90625 88.671875 1.5625 
Q 82.8125 16.015625 75 30.078125 
Q 77.34375 31.25 82.421875 34.375 
z
" id="SimHei-38469"/>
     <path d="M 91.796875 65.625 
Q 91.40625 57.8125 91.40625 51.171875 
L 91.40625 10.9375 
Q 91.40625 3.90625 91.796875 -0.390625 
L 83.984375 -0.390625 
L 83.984375 8.984375 
L 65.234375 8.984375 
L 65.234375 -1.171875 
L 57.8125 -1.171875 
Q 58.203125 7.8125 58.203125 9.765625 
L 58.203125 51.171875 
Q 58.203125 57.8125 57.8125 65.625 
L 91.796875 65.625 
z
M 51.171875 69.53125 
Q 47.65625 69.53125 35.15625 67.578125 
L 35.15625 50 
L 41.015625 50 
Q 46.875 50 53.515625 50.390625 
L 53.515625 43.359375 
Q 46.875 43.75 41.40625 43.75 
L 35.15625 43.75 
L 35.15625 3.515625 
Q 35.15625 -3.125 35.546875 -8.59375 
L 27.734375 -8.59375 
Q 28.125 -2.34375 28.125 3.515625 
L 28.125 28.90625 
Q 22.265625 17.96875 10.546875 3.90625 
Q 8.59375 6.640625 4.296875 9.375 
Q 12.890625 17.578125 19.328125 28.3125 
Q 25.78125 39.0625 26.5625 43.75 
L 19.53125 43.75 
Q 10.9375 43.75 7.03125 43.359375 
L 7.03125 50.390625 
Q 11.328125 50 19.53125 50 
L 28.125 50 
L 28.125 66.40625 
Q 23.046875 65.625 12.109375 64.453125 
Q 11.328125 68.359375 9.765625 71.484375 
Q 17.1875 71.875 28.515625 73.4375 
Q 39.84375 75 47.65625 78.125 
Q 48.4375 73.828125 51.171875 69.53125 
z
M 83.984375 15.234375 
L 83.984375 58.984375 
L 65.234375 58.984375 
L 65.234375 15.234375 
z
M 48.046875 15.625 
Q 42.96875 25.390625 36.328125 32.8125 
Q 38.671875 34.375 42.1875 37.5 
Q 49.609375 29.296875 54.6875 20.703125 
Q 50.78125 18.359375 48.046875 15.625 
z
" id="SimHei-21644"/>
     <path d="M 72.265625 42.96875 
Q 83.203125 42.96875 90.625 43.359375 
L 90.625 36.71875 
Q 82.8125 37.109375 72.265625 37.109375 
L 64.84375 37.109375 
Q 64.84375 33.203125 64.0625 25.78125 
L 78.515625 25.78125 
Q 87.109375 25.78125 95.3125 26.171875 
L 95.3125 19.140625 
Q 87.109375 19.53125 78.515625 19.53125 
L 66.40625 19.53125 
Q 71.484375 9.375 78.90625 4.484375 
Q 86.328125 -0.390625 95.703125 -1.953125 
Q 92.1875 -5.46875 90.234375 -9.765625 
Q 76.171875 -4.296875 69.53125 2.734375 
Q 62.890625 9.765625 60.9375 15.625 
Q 56.25 5.078125 48.828125 -0.96875 
Q 41.40625 -7.03125 31.640625 -10.546875 
Q 30.859375 -7.03125 26.953125 -3.125 
Q 38.671875 -1.171875 45.890625 6.828125 
Q 53.125 14.84375 54.296875 19.53125 
L 46.484375 19.53125 
Q 37.5 19.53125 31.640625 19.140625 
L 31.640625 26.171875 
Q 38.671875 25.78125 45.3125 25.78125 
L 56.25 25.78125 
Q 57.03125 31.640625 57.03125 37.109375 
L 51.953125 37.109375 
Q 41.796875 37.109375 34.765625 36.71875 
L 34.765625 43.359375 
Q 42.1875 42.96875 49.21875 42.96875 
z
M 84.765625 76.171875 
Q 84.375 71.09375 84.375 63.671875 
Q 84.375 56.25 84.765625 51.953125 
L 38.28125 51.953125 
Q 38.671875 55.859375 38.671875 63.28125 
Q 38.671875 70.703125 38.28125 76.171875 
L 84.765625 76.171875 
z
M 24.21875 51.953125 
Q 23.828125 46.875 23.828125 39.0625 
L 23.828125 10.546875 
L 29.6875 17.1875 
Q 31.640625 13.671875 34.765625 10.9375 
Q 26.171875 4.6875 19.53125 -5.078125 
Q 17.1875 -1.5625 12.890625 0.78125 
Q 16.015625 3.90625 16.40625 7.8125 
L 16.40625 45.3125 
Q 10.9375 45.3125 5.078125 44.921875 
L 5.078125 52.34375 
Q 8.59375 51.953125 11.71875 51.953125 
z
M 77.734375 57.8125 
L 77.734375 69.921875 
L 45.3125 69.921875 
L 45.3125 57.8125 
z
M 15.234375 80.078125 
Q 17.96875 78.125 29.6875 66.796875 
Q 26.953125 64.453125 24.21875 61.328125 
Q 17.96875 68.75 10.546875 74.609375 
Q 13.671875 77.734375 15.234375 80.078125 
z
" id="SimHei-35823"/>
     <path d="M 73.828125 77.734375 
Q 70.3125 73.828125 66.40625 66.796875 
L 75.78125 66.796875 
Q 85.15625 66.796875 91.015625 67.1875 
L 91.015625 60.15625 
Q 84.765625 60.546875 75.78125 60.546875 
L 51.171875 60.546875 
Q 50.390625 56.25 49.21875 51.171875 
L 70.703125 51.171875 
Q 79.296875 51.171875 86.328125 51.5625 
L 86.328125 44.53125 
Q 79.296875 44.921875 70.3125 44.921875 
L 47.65625 44.921875 
Q 46.484375 41.40625 44.53125 36.328125 
L 80.078125 36.328125 
Q 88.671875 36.328125 94.140625 36.71875 
L 94.140625 29.6875 
Q 89.0625 30.078125 80.46875 30.078125 
L 41.40625 30.078125 
Q 37.890625 24.21875 35.15625 20.3125 
Q 41.40625 19.921875 48.4375 19.921875 
L 70.703125 19.921875 
Q 77.734375 19.921875 83.59375 20.3125 
L 83.59375 13.28125 
Q 77.734375 13.671875 71.484375 13.671875 
L 61.328125 13.671875 
L 61.328125 -0.78125 
L 78.125 -0.78125 
Q 81.25 -0.78125 92.1875 -0.390625 
L 92.1875 -7.8125 
Q 82.421875 -7.421875 78.515625 -7.421875 
L 32.8125 -7.421875 
Q 26.5625 -7.421875 21.875 -7.8125 
L 21.875 -0.390625 
Q 27.734375 -0.78125 33.203125 -0.78125 
L 53.515625 -0.78125 
L 53.515625 13.671875 
L 48.4375 13.671875 
Q 41.015625 13.671875 33.984375 13.28125 
L 33.984375 18.75 
Q 30.078125 13.671875 23.234375 7.421875 
Q 16.40625 1.171875 9.765625 -3.90625 
Q 6.640625 -0.390625 3.125 2.34375 
Q 11.71875 7.421875 19.71875 14.453125 
Q 27.734375 21.484375 32.8125 30.078125 
L 20.703125 30.078125 
Q 11.71875 30.078125 5.859375 29.6875 
L 5.859375 36.71875 
Q 11.71875 36.328125 21.09375 36.328125 
L 36.328125 36.328125 
Q 38.28125 40.234375 39.84375 44.921875 
L 26.953125 44.921875 
Q 21.484375 44.921875 15.625 44.53125 
L 15.625 51.5625 
Q 23.4375 51.171875 26.5625 51.171875 
L 41.40625 51.171875 
Q 42.578125 55.859375 43.359375 60.546875 
L 23.4375 60.546875 
Q 17.1875 60.546875 10.15625 60.15625 
L 10.15625 67.1875 
Q 16.015625 66.796875 22.265625 66.796875 
L 35.546875 66.796875 
Q 32.421875 73.046875 28.90625 77.34375 
Q 31.640625 78.90625 35.15625 81.640625 
Q 38.28125 77.734375 42.578125 71.09375 
Q 39.453125 69.53125 36.328125 66.796875 
L 58.59375 66.796875 
Q 62.5 73.4375 64.84375 82.03125 
Q 68.75 79.6875 73.828125 77.734375 
z
" id="SimHei-24046"/>
     <path d="M 15.625 -10.15625 
Q 12.890625 -5.859375 8.984375 -3.515625 
Q 15.234375 -1.171875 20.3125 2.140625 
Q 25.390625 5.46875 29.296875 10.34375 
Q 33.203125 15.234375 35.15625 21.09375 
Q 37.109375 26.953125 37.890625 35.546875 
Q 28.90625 35.546875 23.4375 35.15625 
L 23.4375 43.359375 
Q 29.6875 42.96875 39.453125 42.96875 
L 78.515625 42.96875 
Q 77.734375 37.109375 77.34375 32.8125 
L 74.21875 3.90625 
Q 73.4375 -3.125 67.96875 -5.46875 
Q 62.5 -7.8125 55.859375 -8.203125 
Q 55.46875 -4.296875 51.953125 0.78125 
Q 60.15625 0.390625 63.078125 1.359375 
Q 66.015625 2.34375 66.796875 8.203125 
L 69.53125 35.546875 
L 46.09375 35.546875 
Q 44.921875 25.390625 42.765625 18.546875 
Q 40.625 11.71875 36.71875 6.640625 
Q 32.8125 1.5625 27.34375 -2.734375 
Q 21.875 -7.03125 15.625 -10.15625 
z
M 61.71875 80.859375 
Q 64.453125 72.65625 72.84375 62.109375 
Q 81.25 51.5625 96.484375 43.75 
Q 93.359375 41.015625 90.234375 35.546875 
Q 83.203125 40.625 77.921875 45.109375 
Q 72.65625 49.609375 69.140625 53.515625 
Q 65.625 57.421875 61.328125 64.640625 
Q 57.03125 71.875 54.296875 78.125 
Q 58.59375 79.296875 61.71875 80.859375 
z
M 42.1875 75.390625 
Q 38.671875 69.140625 36.328125 64.453125 
Q 33.984375 59.765625 31.640625 56.046875 
Q 29.296875 52.34375 24.609375 46.09375 
Q 19.921875 39.84375 13.28125 33.203125 
Q 9.765625 36.71875 6.25 38.671875 
Q 14.0625 45.703125 18.546875 51.5625 
Q 23.046875 57.421875 27.140625 64.25 
Q 31.25 71.09375 34.375 79.296875 
Q 37.5 76.953125 42.1875 75.390625 
z
" id="SimHei-20998"/>
     <path d="M 37.109375 66.015625 
Q 41.40625 74.609375 43.359375 82.8125 
Q 48.828125 80.859375 53.125 79.296875 
Q 51.171875 77.734375 46.09375 66.015625 
L 75 66.015625 
Q 86.71875 66.015625 94.140625 66.40625 
L 94.140625 59.375 
L 42.578125 59.375 
Q 36.328125 48.4375 30.859375 41.796875 
L 51.171875 41.796875 
Q 51.171875 50.390625 50.78125 55.859375 
L 58.984375 55.859375 
Q 58.59375 50.390625 58.59375 41.796875 
L 85.9375 41.796875 
Q 85.546875 34.765625 85.546875 27.734375 
L 85.546875 11.71875 
Q 85.546875 4.296875 81.4375 2.34375 
Q 77.34375 0.390625 69.53125 -0.390625 
Q 68.75 5.078125 66.015625 8.59375 
Q 75 8.59375 76.75 9.765625 
Q 78.515625 10.9375 78.125 16.015625 
L 78.125 35.15625 
L 58.59375 35.15625 
L 58.59375 8.59375 
Q 58.59375 0.390625 58.984375 -9.375 
L 50.78125 -9.375 
Q 51.171875 0.390625 51.171875 8.59375 
L 51.171875 35.15625 
L 32.8125 35.15625 
L 32.8125 0 
L 25 0 
Q 25.390625 8.203125 25.390625 16.015625 
L 25.390625 34.765625 
Q 20.3125 28.90625 10.15625 19.921875 
Q 7.421875 23.046875 3.125 25.78125 
Q 11.71875 31.640625 19.71875 40.03125 
Q 27.734375 48.4375 33.59375 59.375 
L 24.21875 59.375 
Q 14.453125 59.375 6.25 58.984375 
L 6.25 66.40625 
Q 14.453125 66.015625 24.21875 66.015625 
z
" id="SimHei-24067"/>
     <path d="M 90.625 77.734375 
Q 90.234375 67.96875 90.234375 56.25 
L 90.234375 14.453125 
Q 90.234375 2.34375 90.625 -9.375 
L 82.8125 -9.375 
L 82.8125 -4.296875 
L 17.578125 -4.296875 
L 17.578125 -10.15625 
L 9.765625 -10.15625 
Q 10.15625 1.953125 10.15625 14.84375 
L 10.15625 56.25 
Q 10.15625 67.578125 9.765625 77.734375 
L 90.625 77.734375 
z
M 82.8125 2.34375 
L 82.8125 71.484375 
L 17.578125 71.484375 
L 17.578125 2.34375 
z
M 50.390625 66.40625 
Q 48.046875 64.0625 46.09375 61.328125 
L 72.265625 61.328125 
Q 70.703125 57.8125 67.1875 52.734375 
Q 63.671875 47.65625 56.25 40.625 
Q 67.96875 34.765625 79.296875 33.59375 
Q 76.5625 30.078125 74.609375 26.171875 
Q 60.15625 30.46875 50.390625 36.71875 
Q 39.0625 29.296875 26.171875 25.78125 
Q 25 29.296875 21.875 32.421875 
Q 34.375 34.375 44.921875 40.625 
Q 39.453125 45.703125 37.109375 49.21875 
Q 33.59375 45.3125 29.6875 41.40625 
Q 26.953125 44.53125 23.828125 46.09375 
Q 30.46875 51.5625 35.15625 58.390625 
Q 39.84375 65.234375 41.796875 69.921875 
Q 45.703125 67.96875 50.390625 66.40625 
z
M 38.28125 19.921875 
Q 55.46875 14.84375 64.0625 11.328125 
Q 62.109375 8.203125 60.15625 4.6875 
Q 44.140625 11.328125 35.546875 13.28125 
Q 37.109375 16.40625 38.28125 19.921875 
z
M 45.703125 32.03125 
Q 58.984375 26.5625 63.671875 25 
Q 61.71875 21.875 60.15625 17.96875 
Q 46.875 24.21875 42.1875 25.78125 
Q 44.140625 28.515625 45.703125 32.03125 
z
M 41.015625 53.90625 
Q 46.875 47.265625 51.171875 44.53125 
Q 56.25 48.4375 60.546875 55.078125 
L 41.796875 55.078125 
L 41.015625 53.90625 
z
" id="SimHei-22270"/>
     <path d="M 45.703125 35.15625 
Q 45.703125 17.1875 38.078125 9.5625 
Q 30.46875 1.953125 17.578125 1.953125 
L 4.296875 1.953125 
L 4.296875 68.75 
L 17.578125 68.75 
Q 32.03125 68.75 38.859375 60.9375 
Q 45.703125 53.125 45.703125 35.15625 
z
M 36.328125 35.15625 
Q 36.328125 49.609375 31.640625 55.46875 
Q 26.953125 61.328125 17.578125 61.328125 
L 13.28125 61.328125 
L 13.28125 9.375 
L 17.578125 9.375 
Q 26.953125 9.375 31.640625 15.03125 
Q 36.328125 20.703125 36.328125 35.15625 
z
" id="SimHei-68"/>
     <path d="M 46.484375 45.3125 
L 1.953125 45.3125 
L 1.953125 51.5625 
L 46.484375 51.5625 
z
M 46.484375 21.484375 
L 1.953125 21.484375 
L 1.953125 27.734375 
L 46.484375 27.734375 
z
" id="SimHei-61"/>
    </defs>
    <g transform="translate(363.775625 27.41625)scale(0.2 -0.2)">
     <use xlink:href="#SimHei-65"/>
     <use x="50" xlink:href="#SimHei-82"/>
     <use x="100" xlink:href="#SimHei-73"/>
     <use x="150" xlink:href="#SimHei-77"/>
     <use x="200" xlink:href="#SimHei-65"/>
     <use x="250" xlink:href="#SimHei-32"/>
     <use x="300" xlink:href="#SimHei-39044"/>
     <use x="400" xlink:href="#SimHei-27979"/>
     <use x="500" xlink:href="#SimHei-20540"/>
     <use x="600" xlink:href="#SimHei-12289"/>
     <use x="700" xlink:href="#SimHei-23454"/>
     <use x="800" xlink:href="#SimHei-38469"/>
     <use x="900" xlink:href="#SimHei-20540"/>
     <use x="1000" xlink:href="#SimHei-21644"/>
     <use x="1100" xlink:href="#SimHei-35823"/>
     <use x="1200" xlink:href="#SimHei-24046"/>
     <use x="1300" xlink:href="#SimHei-20998"/>
     <use x="1400" xlink:href="#SimHei-24067"/>
     <use x="1500" xlink:href="#SimHei-22270"/>
     <use x="1600" xlink:href="#SimHei-32"/>
     <use x="1650" xlink:href="#SimHei-73"/>
     <use x="1700" xlink:href="#SimHei-68"/>
     <use x="1750" xlink:href="#SimHei-61"/>
     <use x="1800" xlink:href="#SimHei-50"/>
     <use x="1850" xlink:href="#SimHei-48"/>
     <use x="1900" xlink:href="#SimHei-48"/>
     <use x="1950" xlink:href="#SimHei-32"/>
    </g>
   </g>
   <g id="legend_1">
    <g id="patch_7">
     <path d="M 965.7 109.342031 
L 1058.7 109.342031 
Q 1061.7 109.342031 1061.7 106.342031 
L 1061.7 43.91625 
Q 1061.7 40.91625 1058.7 40.91625 
L 965.7 40.91625 
Q 962.7 40.91625 962.7 43.91625 
L 962.7 106.342031 
Q 962.7 109.342031 965.7 109.342031 
z
" style="fill:#e5e5e5;opacity:0.8;stroke:#cccccc;stroke-linejoin:miter;stroke-width:0.5;"/>
    </g>
    <g id="line2d_34">
     <path d="M 968.7 53.677969 
L 998.7 53.677969 
" style="fill:none;stroke:#0000ff;stroke-linecap:square;stroke-width:1.5;"/>
    </g>
    <g id="line2d_35"/>
    <g id="text_19">
     <!-- 真实值 -->
     <defs>
      <path d="M 55.46875 79.6875 
Q 53.90625 76.953125 53.125 72.265625 
L 75.78125 72.265625 
Q 80.859375 72.265625 89.453125 72.65625 
L 89.453125 66.40625 
Q 81.25 66.796875 75.78125 66.796875 
L 52.34375 66.796875 
L 51.5625 60.15625 
L 78.90625 60.15625 
Q 78.515625 55.46875 78.515625 49.21875 
L 78.515625 16.796875 
L 84.375 16.796875 
Q 90.625 16.796875 94.921875 17.1875 
L 94.921875 9.765625 
Q 87.109375 10.15625 76.5625 10.15625 
L 22.65625 10.15625 
Q 12.109375 10.15625 5.46875 9.765625 
L 5.46875 17.1875 
Q 11.328125 16.796875 17.1875 16.796875 
L 22.265625 16.796875 
L 22.265625 48.046875 
Q 22.265625 53.90625 21.875 60.15625 
L 44.140625 60.15625 
L 44.53125 66.796875 
L 21.875 66.796875 
Q 16.40625 66.796875 9.765625 66.40625 
L 9.765625 72.65625 
Q 18.359375 72.265625 21.484375 72.265625 
L 45.703125 72.265625 
Q 46.09375 76.171875 46.09375 80.078125 
Q 51.5625 79.6875 55.46875 79.6875 
z
M 63.671875 8.203125 
Q 70.3125 6.640625 76.953125 3.90625 
Q 83.59375 1.171875 91.015625 -2.34375 
Q 86.71875 -6.640625 85.15625 -8.984375 
Q 78.515625 -4.6875 71.09375 -1.5625 
Q 63.671875 1.5625 59.375 2.734375 
Q 61.328125 5.46875 63.671875 8.203125 
z
M 70.703125 49.21875 
L 70.703125 54.296875 
L 30.078125 54.296875 
L 30.078125 49.21875 
z
M 70.703125 16.796875 
L 70.703125 21.875 
L 30.078125 21.875 
L 30.078125 16.796875 
z
M 43.359375 3.125 
Q 37.109375 -0.390625 29.296875 -3.515625 
Q 21.484375 -6.640625 14.84375 -8.984375 
Q 12.109375 -6.25 9.375 -3.90625 
Q 19.140625 -0.78125 25.390625 2.140625 
Q 31.640625 5.078125 36.71875 8.203125 
Q 39.84375 5.46875 43.359375 3.125 
z
M 70.703125 27.734375 
L 70.703125 32.421875 
L 30.078125 32.421875 
L 30.078125 27.734375 
z
M 70.703125 38.671875 
L 70.703125 43.359375 
L 30.078125 43.359375 
L 30.078125 38.671875 
z
" id="SimHei-30495"/>
     </defs>
     <g transform="translate(1010.7 58.927969)scale(0.15 -0.15)">
      <use xlink:href="#SimHei-30495"/>
      <use x="100" xlink:href="#SimHei-23454"/>
      <use x="200" xlink:href="#SimHei-20540"/>
     </g>
    </g>
    <g id="line2d_36">
     <path d="M 968.7 74.830312 
L 998.7 74.830312 
" style="fill:none;stroke:#ff0000;stroke-linecap:square;stroke-width:1.5;"/>
    </g>
    <g id="line2d_37"/>
    <g id="text_20">
     <!-- 预测值 -->
     <g transform="translate(1010.7 80.080312)scale(0.15 -0.15)">
      <use xlink:href="#SimHei-39044"/>
      <use x="100" xlink:href="#SimHei-27979"/>
      <use x="200" xlink:href="#SimHei-20540"/>
     </g>
    </g>
    <g id="line2d_38">
     <path d="M 968.7 96.217031 
L 998.7 96.217031 
" style="fill:none;stroke:#000000;stroke-linecap:square;stroke-width:1.5;"/>
    </g>
    <g id="line2d_39"/>
    <g id="text_21">
     <!-- 误差值 -->
     <g transform="translate(1010.7 101.467031)scale(0.15 -0.15)">
      <use xlink:href="#SimHei-35823"/>
      <use x="100" xlink:href="#SimHei-24046"/>
      <use x="200" xlink:href="#SimHei-20540"/>
     </g>
    </g>
   </g>
  </g>
 </g>
 <defs>
  <clipPath id="p660dfeb7cd">
   <rect height="421.255" width="1010.84875" x="58.35125" y="33.41625"/>
  </clipPath>
 </defs>
</svg>
