<?xml version="1.0" encoding="utf-8" standalone="no"?>
<!DOCTYPE svg PUBLIC "-//W3C//DTD SVG 1.1//EN"
  "http://www.w3.org/Graphics/SVG/1.1/DTD/svg11.dtd">
<!-- Created with matplotlib (https://matplotlib.org/) -->
<svg height="504pt" version="1.1" viewBox="0 0 1080 504" width="1080pt" xmlns="http://www.w3.org/2000/svg" xmlns:xlink="http://www.w3.org/1999/xlink">
 <defs>
  <style type="text/css">
*{stroke-linecap:butt;stroke-linejoin:round;}
  </style>
 </defs>
 <g id="figure_1">
  <g id="patch_1">
   <path d="M 0 504 
L 1080 504 
L 1080 0 
L 0 0 
z
" style="fill:#ffffff;"/>
  </g>
  <g id="axes_1">
   <g id="patch_2">
    <path d="M 51.06125 454.67125 
L 1069.2 454.67125 
L 1069.2 32.8875 
L 51.06125 32.8875 
z
" style="fill:#ffffff;"/>
   </g>
   <g id="matplotlib.axis_1">
    <g id="xtick_1">
     <g id="line2d_1">
      <path clip-path="url(#p856b7cd845)" d="M 98.627601 454.67125 
L 98.627601 32.8875 
" style="fill:none;stroke:#b0b0b0;stroke-linecap:square;stroke-width:0.8;"/>
     </g>
     <g id="line2d_2">
      <defs>
       <path d="M 0 0 
L 0 3.5 
" id="m4caf8898d9" style="stroke:#000000;stroke-width:0.8;"/>
      </defs>
      <g>
       <use style="stroke:#000000;stroke-width:0.8;" x="98.627601" xlink:href="#m4caf8898d9" y="454.67125"/>
      </g>
     </g>
     <g id="text_1">
      <!-- 11月8日 -->
      <defs>
       <path d="M 21.875 56.25 
Q 16.796875 51.171875 8.984375 46.484375 
L 8.984375 53.90625 
Q 18.75 60.546875 25 69.53125 
L 29.6875 69.53125 
L 29.6875 2.34375 
L 21.875 2.34375 
z
" id="SimHei-49"/>
       <path d="M 82.03125 75.390625 
Q 81.25 66.015625 81.25 58.59375 
L 81.25 3.125 
Q 81.25 -4.296875 77.34375 -5.859375 
Q 73.4375 -7.421875 62.109375 -8.203125 
Q 61.328125 -3.515625 58.59375 0.78125 
Q 67.1875 0.390625 70.5 0.78125 
Q 73.828125 1.171875 73.828125 6.25 
L 73.828125 25 
L 28.90625 25 
Q 26.953125 12.109375 22.65625 3.515625 
Q 18.359375 -5.078125 14.0625 -8.984375 
Q 10.9375 -6.25 6.25 -5.078125 
Q 12.5 0.390625 16.203125 8 
Q 19.921875 15.625 20.890625 23.046875 
Q 21.875 30.46875 21.875 39.453125 
L 21.875 56.640625 
Q 21.875 65.234375 21.484375 75.390625 
L 82.03125 75.390625 
z
M 73.828125 53.125 
L 73.828125 69.53125 
L 29.296875 69.53125 
L 29.296875 53.125 
z
M 73.828125 31.25 
L 73.828125 47.265625 
L 29.296875 47.265625 
L 29.296875 31.25 
z
" id="SimHei-26376"/>
       <path d="M 2.734375 16.796875 
Q 2.734375 26.171875 5.078125 30.65625 
Q 7.421875 35.15625 12.890625 37.890625 
Q 8.203125 40.625 6.640625 43.9375 
Q 5.078125 47.265625 4.875 51.5625 
Q 4.6875 55.859375 6.046875 58.984375 
Q 7.421875 62.109375 10.15625 64.84375 
Q 12.890625 67.578125 16.203125 68.546875 
Q 19.53125 69.53125 23.4375 69.53125 
Q 27.34375 69.53125 30.46875 68.75 
Q 33.59375 67.96875 37.109375 65.421875 
Q 40.625 62.890625 42.1875 58.203125 
Q 43.75 53.515625 41.984375 47.265625 
Q 40.234375 41.015625 32.8125 37.5 
Q 39.453125 35.546875 42.1875 31.4375 
Q 44.921875 27.34375 44.921875 21.484375 
Q 44.921875 15.625 43.15625 12.109375 
Q 41.40625 8.59375 39.25 6.25 
Q 37.109375 3.90625 33.390625 2.53125 
Q 29.6875 1.171875 24.015625 1.171875 
Q 18.359375 1.171875 14.25 2.53125 
Q 10.15625 3.90625 7.421875 6.640625 
Q 4.6875 9.375 3.703125 13.078125 
Q 2.734375 16.796875 2.734375 26.171875 
z
M 10.9375 26.5625 
Q 10.546875 17.1875 12.296875 13.671875 
Q 14.0625 10.15625 18.75 9.171875 
Q 23.4375 8.203125 28.515625 9.375 
Q 33.59375 10.546875 35.546875 14.84375 
Q 37.5 19.140625 36.90625 23.4375 
Q 36.328125 27.734375 32.03125 30.65625 
Q 27.734375 33.59375 22.65625 33.203125 
Q 17.578125 32.8125 14.25 29.6875 
Q 10.9375 26.5625 10.546875 17.1875 
z
M 12.109375 56.25 
Q 12.109375 48.4375 14.84375 44.921875 
Q 17.578125 41.40625 23.4375 41.40625 
Q 29.296875 41.40625 32.21875 44.921875 
Q 35.15625 48.4375 34.953125 53.3125 
Q 34.765625 58.203125 31.4375 60.546875 
Q 28.125 62.890625 22.453125 62.5 
Q 16.796875 62.109375 14.453125 59.171875 
Q 12.109375 56.25 12.109375 48.4375 
z
" id="SimHei-56"/>
       <path d="M 83.984375 78.125 
Q 83.59375 58.984375 83.59375 35.546875 
Q 83.59375 12.109375 83.984375 -7.03125 
L 75 -7.03125 
L 75 2.734375 
L 28.125 2.734375 
L 28.125 -8.984375 
L 19.53125 -8.984375 
Q 19.921875 8.984375 19.921875 33.203125 
Q 19.921875 57.421875 19.53125 78.125 
L 83.984375 78.125 
z
M 75 9.375 
L 75 37.109375 
L 28.125 37.109375 
L 28.125 9.375 
z
M 75 43.75 
L 75 71.09375 
L 28.125 71.09375 
L 28.125 43.75 
z
" id="SimHei-26085"/>
      </defs>
      <g transform="translate(72.377601 472.862656)scale(0.15 -0.15)">
       <use xlink:href="#SimHei-49"/>
       <use x="50" xlink:href="#SimHei-49"/>
       <use x="100" xlink:href="#SimHei-26376"/>
       <use x="200" xlink:href="#SimHei-56"/>
       <use x="250" xlink:href="#SimHei-26085"/>
      </g>
     </g>
    </g>
    <g id="xtick_2">
     <g id="line2d_3">
      <path clip-path="url(#p856b7cd845)" d="M 314.8968 454.67125 
L 314.8968 32.8875 
" style="fill:none;stroke:#b0b0b0;stroke-linecap:square;stroke-width:0.8;"/>
     </g>
     <g id="line2d_4">
      <g>
       <use style="stroke:#000000;stroke-width:0.8;" x="314.8968" xlink:href="#m4caf8898d9" y="454.67125"/>
      </g>
     </g>
     <g id="text_2">
      <!-- 11月14日 -->
      <defs>
       <path d="M 31.25 17.1875 
L 1.171875 17.1875 
L 1.171875 23.828125 
L 32.8125 69.53125 
L 38.671875 69.53125 
L 38.671875 23.828125 
L 48.046875 23.828125 
L 48.046875 17.1875 
L 38.671875 17.1875 
L 38.671875 2.34375 
L 31.25 2.34375 
z
M 31.25 23.828125 
L 31.25 54.6875 
L 9.375 23.828125 
z
" id="SimHei-52"/>
      </defs>
      <g transform="translate(284.8968 472.862656)scale(0.15 -0.15)">
       <use xlink:href="#SimHei-49"/>
       <use x="50" xlink:href="#SimHei-49"/>
       <use x="100" xlink:href="#SimHei-26376"/>
       <use x="200" xlink:href="#SimHei-49"/>
       <use x="250" xlink:href="#SimHei-52"/>
       <use x="300" xlink:href="#SimHei-26085"/>
      </g>
     </g>
    </g>
    <g id="xtick_3">
     <g id="line2d_5">
      <path clip-path="url(#p856b7cd845)" d="M 531.166 454.67125 
L 531.166 32.8875 
" style="fill:none;stroke:#b0b0b0;stroke-linecap:square;stroke-width:0.8;"/>
     </g>
     <g id="line2d_6">
      <g>
       <use style="stroke:#000000;stroke-width:0.8;" x="531.166" xlink:href="#m4caf8898d9" y="454.67125"/>
      </g>
     </g>
     <g id="text_3">
      <!-- 11月22日 -->
      <defs>
       <path d="M 4.6875 3.90625 
Q 5.078125 9.765625 10.15625 14.453125 
Q 15.234375 19.140625 23.046875 29.09375 
Q 30.859375 39.0625 33.203125 44.53125 
Q 35.546875 50 34.953125 53.90625 
Q 34.375 57.8125 31.25 60.34375 
Q 28.125 62.890625 24.015625 62.5 
Q 19.921875 62.109375 16.203125 59.375 
Q 12.5 56.640625 10.546875 51.171875 
L 3.125 52.34375 
Q 6.25 61.328125 11.125 65.421875 
Q 16.015625 69.53125 22.65625 69.921875 
Q 26.5625 70.3125 29.6875 69.71875 
Q 32.8125 69.140625 36.125 66.984375 
Q 39.453125 64.84375 41.59375 60.546875 
Q 43.75 56.25 43.15625 50.1875 
Q 42.578125 44.140625 37.109375 35.734375 
Q 31.640625 27.34375 16.015625 9.375 
L 44.140625 9.375 
L 44.140625 2.34375 
L 4.6875 2.34375 
z
" id="SimHei-50"/>
      </defs>
      <g transform="translate(501.166 472.862656)scale(0.15 -0.15)">
       <use xlink:href="#SimHei-49"/>
       <use x="50" xlink:href="#SimHei-49"/>
       <use x="100" xlink:href="#SimHei-26376"/>
       <use x="200" xlink:href="#SimHei-50"/>
       <use x="250" xlink:href="#SimHei-50"/>
       <use x="300" xlink:href="#SimHei-26085"/>
      </g>
     </g>
    </g>
    <g id="xtick_4">
     <g id="line2d_7">
      <path clip-path="url(#p856b7cd845)" d="M 747.4352 454.67125 
L 747.4352 32.8875 
" style="fill:none;stroke:#b0b0b0;stroke-linecap:square;stroke-width:0.8;"/>
     </g>
     <g id="line2d_8">
      <g>
       <use style="stroke:#000000;stroke-width:0.8;" x="747.4352" xlink:href="#m4caf8898d9" y="454.67125"/>
      </g>
     </g>
     <g id="text_4">
      <!-- 11月29日 -->
      <defs>
       <path d="M 12.5 1.171875 
Q 21.09375 15.625 26.5625 27.34375 
Q 16.796875 25.78125 10.34375 29.875 
Q 3.90625 33.984375 2.53125 41.015625 
Q 1.171875 48.046875 2.734375 53.703125 
Q 4.296875 59.375 7.609375 63.078125 
Q 10.9375 66.796875 15.625 68.359375 
Q 20.3125 69.921875 24.015625 69.921875 
Q 27.734375 69.921875 31.640625 68.359375 
Q 35.546875 66.796875 38.671875 63.671875 
Q 41.796875 60.546875 42.96875 57.21875 
Q 44.140625 53.90625 44.140625 48.625 
Q 44.140625 43.359375 40.234375 35.15625 
Q 36.328125 26.953125 21.09375 1.171875 
z
M 9.765625 50 
Q 10.9375 39.84375 14.640625 36.515625 
Q 18.359375 33.203125 22.65625 33.59375 
Q 26.953125 33.984375 29.484375 35.9375 
Q 32.03125 37.890625 34.375 42.578125 
Q 35.9375 48.4375 35.15625 52.53125 
Q 34.375 56.640625 31.046875 59.375 
Q 27.734375 62.109375 23.828125 62.109375 
Q 21.484375 62.5 17.765625 60.9375 
Q 14.0625 59.375 11.90625 54.6875 
Q 9.765625 50 10.9375 39.84375 
z
" id="SimHei-57"/>
      </defs>
      <g transform="translate(717.4352 472.862656)scale(0.15 -0.15)">
       <use xlink:href="#SimHei-49"/>
       <use x="50" xlink:href="#SimHei-49"/>
       <use x="100" xlink:href="#SimHei-26376"/>
       <use x="200" xlink:href="#SimHei-50"/>
       <use x="250" xlink:href="#SimHei-57"/>
       <use x="300" xlink:href="#SimHei-26085"/>
      </g>
     </g>
    </g>
    <g id="xtick_5">
     <g id="line2d_9">
      <path clip-path="url(#p856b7cd845)" d="M 963.704399 454.67125 
L 963.704399 32.8875 
" style="fill:none;stroke:#b0b0b0;stroke-linecap:square;stroke-width:0.8;"/>
     </g>
     <g id="line2d_10">
      <g>
       <use style="stroke:#000000;stroke-width:0.8;" x="963.704399" xlink:href="#m4caf8898d9" y="454.67125"/>
      </g>
     </g>
     <g id="text_5">
      <!-- 12月6日 -->
      <defs>
       <path d="M 3.515625 19.53125 
Q 4.296875 30.859375 6.046875 34.765625 
Q 7.8125 38.671875 11.328125 44.53125 
L 27.34375 69.53125 
L 36.328125 69.53125 
L 19.921875 43.75 
Q 30.46875 46.484375 36.71875 42.96875 
Q 42.96875 39.453125 45.109375 34.953125 
Q 47.265625 30.46875 47.453125 25.1875 
Q 47.65625 19.921875 45.890625 14.84375 
Q 44.140625 9.765625 39.640625 5.65625 
Q 35.15625 1.5625 27.140625 1.171875 
Q 19.140625 0.78125 13.46875 4.09375 
Q 7.8125 7.421875 5.65625 13.46875 
Q 3.515625 19.53125 4.296875 30.859375 
z
M 12.5 16.015625 
Q 19.53125 8.59375 25.390625 8.203125 
Q 31.25 7.8125 35.15625 12.109375 
Q 39.0625 16.40625 39.0625 24.609375 
Q 39.0625 32.8125 34.171875 35.9375 
Q 29.296875 39.0625 23.234375 38.28125 
Q 17.1875 37.5 14.453125 32.421875 
Q 11.71875 27.34375 12.109375 21.671875 
Q 12.5 16.015625 19.53125 8.59375 
z
" id="SimHei-54"/>
      </defs>
      <g transform="translate(937.454399 472.862656)scale(0.15 -0.15)">
       <use xlink:href="#SimHei-49"/>
       <use x="50" xlink:href="#SimHei-50"/>
       <use x="100" xlink:href="#SimHei-26376"/>
       <use x="200" xlink:href="#SimHei-54"/>
       <use x="250" xlink:href="#SimHei-26085"/>
      </g>
     </g>
    </g>
    <g id="text_6">
     <!-- 时间 -->
     <defs>
      <path d="M 39.453125 71.484375 
Q 39.0625 57.421875 39.0625 37.5 
Q 39.0625 17.578125 39.453125 6.25 
L 31.25 6.25 
L 31.25 13.671875 
L 15.625 13.671875 
L 15.625 0.78125 
L 7.421875 0.78125 
Q 7.8125 18.75 7.8125 36.71875 
Q 7.8125 55.078125 7.421875 71.484375 
L 39.453125 71.484375 
z
M 76.171875 59.765625 
Q 76.171875 71.484375 75.78125 81.640625 
L 84.375 81.640625 
Q 83.984375 71.484375 83.984375 59.765625 
Q 89.84375 59.765625 96.484375 60.15625 
L 96.484375 52.734375 
Q 89.84375 53.125 83.984375 53.125 
L 83.984375 0.78125 
Q 83.984375 -5.078125 79.296875 -6.640625 
Q 74.609375 -8.203125 67.1875 -8.984375 
Q 67.1875 -4.296875 62.890625 0 
Q 70.3125 -0.78125 73.234375 -0.390625 
Q 76.171875 0 76.171875 4.6875 
L 76.171875 53.125 
Q 56.640625 53.125 43.359375 52.734375 
L 43.359375 60.15625 
Q 55.859375 59.765625 76.171875 59.765625 
z
M 31.25 20.3125 
L 31.25 39.84375 
L 15.625 39.84375 
L 15.625 20.3125 
z
M 31.25 46.484375 
L 31.25 64.84375 
L 15.625 64.84375 
L 15.625 46.484375 
z
M 55.46875 42.578125 
Q 60.546875 34.375 65.234375 25 
Q 61.328125 23.828125 57.03125 21.484375 
Q 53.90625 30.859375 48.046875 39.0625 
Q 51.5625 40.625 55.46875 42.578125 
z
" id="SimHei-26102"/>
      <path d="M 69.53125 55.46875 
Q 69.140625 48.046875 69.140625 42.578125 
L 69.140625 21.875 
Q 69.140625 16.796875 69.53125 9.765625 
L 30.078125 9.765625 
Q 30.46875 16.796875 30.46875 22.265625 
L 30.46875 42.578125 
Q 30.46875 48.046875 30.078125 55.46875 
L 69.53125 55.46875 
z
M 90.625 76.171875 
Q 90.234375 68.75 90.234375 61.328125 
L 90.234375 3.90625 
Q 90.625 -5.078125 85.34375 -7.03125 
Q 80.078125 -8.984375 73.828125 -9.765625 
Q 73.4375 -5.078125 70.703125 -0.390625 
Q 78.125 -0.78125 80.265625 0.390625 
Q 82.421875 1.5625 82.421875 5.46875 
L 82.421875 69.53125 
L 58.984375 69.53125 
Q 49.609375 69.53125 41.40625 69.140625 
L 41.40625 76.5625 
Q 49.609375 76.171875 58.984375 76.171875 
z
M 8.59375 -8.203125 
Q 9.375 -0.390625 9.375 8.203125 
L 9.375 49.21875 
Q 9.375 57.421875 8.59375 62.890625 
L 17.578125 62.890625 
Q 17.1875 57.03125 17.1875 51.5625 
L 17.1875 7.8125 
Q 17.1875 0 17.578125 -8.203125 
z
M 61.71875 16.015625 
L 61.71875 30.46875 
L 37.890625 30.46875 
L 37.890625 16.015625 
z
M 61.71875 36.71875 
L 61.71875 49.21875 
L 37.890625 49.21875 
L 37.890625 36.71875 
z
M 23.828125 82.8125 
Q 27.34375 78.125 34.765625 67.96875 
Q 30.46875 66.015625 26.5625 63.671875 
Q 22.65625 71.484375 16.796875 78.515625 
Q 21.09375 81.640625 23.828125 82.8125 
z
" id="SimHei-38388"/>
     </defs>
     <g transform="translate(545.130625 490.749375)scale(0.15 -0.15)">
      <use xlink:href="#SimHei-26102"/>
      <use x="100" xlink:href="#SimHei-38388"/>
     </g>
    </g>
   </g>
   <g id="matplotlib.axis_2">
    <g id="ytick_1">
     <g id="line2d_11">
      <path clip-path="url(#p856b7cd845)" d="M 51.06125 435.955147 
L 1069.2 435.955147 
" style="fill:none;stroke:#b0b0b0;stroke-linecap:square;stroke-width:0.8;"/>
     </g>
     <g id="line2d_12">
      <defs>
       <path d="M 0 0 
L -3.5 0 
" id="m1f76014369" style="stroke:#000000;stroke-width:0.8;"/>
      </defs>
      <g>
       <use style="stroke:#000000;stroke-width:0.8;" x="51.06125" xlink:href="#m1f76014369" y="435.955147"/>
      </g>
     </g>
     <g id="text_7">
      <!-- 0 -->
      <defs>
       <path d="M 3.125 29.296875 
Q 3.90625 50 6.4375 56.046875 
Q 8.984375 62.109375 13.671875 66.015625 
Q 18.359375 69.921875 25.1875 69.921875 
Q 32.03125 69.921875 37.109375 64.25 
Q 42.1875 58.59375 43.75 50 
Q 45.3125 41.40625 44.71875 30.265625 
Q 44.140625 19.140625 40.8125 12.109375 
Q 37.5 5.078125 30.859375 2.34375 
Q 24.21875 -0.390625 17.578125 2.921875 
Q 10.9375 6.25 8.203125 11.71875 
Q 5.46875 17.1875 4.296875 23.234375 
Q 3.125 29.296875 3.90625 50 
z
M 12.890625 52.734375 
Q 10.546875 31.25 12.5 22.84375 
Q 14.453125 14.453125 18.9375 10.9375 
Q 23.4375 7.421875 28.125 9.5625 
Q 32.8125 11.71875 34.953125 18.15625 
Q 37.109375 24.609375 37.109375 32.21875 
Q 37.109375 39.84375 36.515625 46.09375 
Q 35.9375 52.34375 33 57.421875 
Q 30.078125 62.5 25.1875 62.6875 
Q 20.3125 62.890625 16.59375 57.8125 
Q 12.890625 52.734375 10.546875 31.25 
z
" id="SimHei-48"/>
      </defs>
      <g transform="translate(39.06125 439.392647)scale(0.1 -0.1)">
       <use xlink:href="#SimHei-48"/>
      </g>
     </g>
    </g>
    <g id="ytick_2">
     <g id="line2d_13">
      <path clip-path="url(#p856b7cd845)" d="M 51.06125 371.49331 
L 1069.2 371.49331 
" style="fill:none;stroke:#b0b0b0;stroke-linecap:square;stroke-width:0.8;"/>
     </g>
     <g id="line2d_14">
      <g>
       <use style="stroke:#000000;stroke-width:0.8;" x="51.06125" xlink:href="#m1f76014369" y="371.49331"/>
      </g>
     </g>
     <g id="text_8">
      <!-- 20 -->
      <g transform="translate(34.06125 374.93081)scale(0.1 -0.1)">
       <use xlink:href="#SimHei-50"/>
       <use x="50" xlink:href="#SimHei-48"/>
      </g>
     </g>
    </g>
    <g id="ytick_3">
     <g id="line2d_15">
      <path clip-path="url(#p856b7cd845)" d="M 51.06125 307.031474 
L 1069.2 307.031474 
" style="fill:none;stroke:#b0b0b0;stroke-linecap:square;stroke-width:0.8;"/>
     </g>
     <g id="line2d_16">
      <g>
       <use style="stroke:#000000;stroke-width:0.8;" x="51.06125" xlink:href="#m1f76014369" y="307.031474"/>
      </g>
     </g>
     <g id="text_9">
      <!-- 40 -->
      <g transform="translate(34.06125 310.468974)scale(0.1 -0.1)">
       <use xlink:href="#SimHei-52"/>
       <use x="50" xlink:href="#SimHei-48"/>
      </g>
     </g>
    </g>
    <g id="ytick_4">
     <g id="line2d_17">
      <path clip-path="url(#p856b7cd845)" d="M 51.06125 242.569638 
L 1069.2 242.569638 
" style="fill:none;stroke:#b0b0b0;stroke-linecap:square;stroke-width:0.8;"/>
     </g>
     <g id="line2d_18">
      <g>
       <use style="stroke:#000000;stroke-width:0.8;" x="51.06125" xlink:href="#m1f76014369" y="242.569638"/>
      </g>
     </g>
     <g id="text_10">
      <!-- 60 -->
      <g transform="translate(34.06125 246.007138)scale(0.1 -0.1)">
       <use xlink:href="#SimHei-54"/>
       <use x="50" xlink:href="#SimHei-48"/>
      </g>
     </g>
    </g>
    <g id="ytick_5">
     <g id="line2d_19">
      <path clip-path="url(#p856b7cd845)" d="M 51.06125 178.107801 
L 1069.2 178.107801 
" style="fill:none;stroke:#b0b0b0;stroke-linecap:square;stroke-width:0.8;"/>
     </g>
     <g id="line2d_20">
      <g>
       <use style="stroke:#000000;stroke-width:0.8;" x="51.06125" xlink:href="#m1f76014369" y="178.107801"/>
      </g>
     </g>
     <g id="text_11">
      <!-- 80 -->
      <g transform="translate(34.06125 181.545301)scale(0.1 -0.1)">
       <use xlink:href="#SimHei-56"/>
       <use x="50" xlink:href="#SimHei-48"/>
      </g>
     </g>
    </g>
    <g id="ytick_6">
     <g id="line2d_21">
      <path clip-path="url(#p856b7cd845)" d="M 51.06125 113.645965 
L 1069.2 113.645965 
" style="fill:none;stroke:#b0b0b0;stroke-linecap:square;stroke-width:0.8;"/>
     </g>
     <g id="line2d_22">
      <g>
       <use style="stroke:#000000;stroke-width:0.8;" x="51.06125" xlink:href="#m1f76014369" y="113.645965"/>
      </g>
     </g>
     <g id="text_12">
      <!-- 100 -->
      <g transform="translate(29.06125 117.083465)scale(0.1 -0.1)">
       <use xlink:href="#SimHei-49"/>
       <use x="50" xlink:href="#SimHei-48"/>
       <use x="100" xlink:href="#SimHei-48"/>
      </g>
     </g>
    </g>
    <g id="ytick_7">
     <g id="line2d_23">
      <path clip-path="url(#p856b7cd845)" d="M 51.06125 49.184129 
L 1069.2 49.184129 
" style="fill:none;stroke:#b0b0b0;stroke-linecap:square;stroke-width:0.8;"/>
     </g>
     <g id="line2d_24">
      <g>
       <use style="stroke:#000000;stroke-width:0.8;" x="51.06125" xlink:href="#m1f76014369" y="49.184129"/>
      </g>
     </g>
     <g id="text_13">
      <!-- 120 -->
      <g transform="translate(29.06125 52.621629)scale(0.1 -0.1)">
       <use xlink:href="#SimHei-49"/>
       <use x="50" xlink:href="#SimHei-50"/>
       <use x="100" xlink:href="#SimHei-48"/>
      </g>
     </g>
    </g>
    <g id="text_14">
     <!-- 流量 -->
     <defs>
      <path d="M 58.203125 82.03125 
Q 62.109375 76.171875 66.015625 69.53125 
L 78.515625 69.53125 
Q 84.765625 69.53125 92.578125 69.921875 
L 92.578125 62.890625 
Q 83.203125 63.28125 78.515625 63.28125 
L 53.515625 63.28125 
Q 56.640625 60.9375 58.984375 59.765625 
Q 57.03125 58.203125 53.90625 54.296875 
Q 50.78125 50.390625 44.53125 43.359375 
Q 58.59375 43.75 74.609375 44.53125 
Q 70.703125 49.21875 66.796875 52.734375 
Q 70.703125 55.46875 72.265625 57.421875 
Q 83.203125 46.09375 90.625 37.109375 
Q 87.109375 34.375 84.375 32.03125 
Q 81.25 36.328125 78.90625 39.453125 
Q 70.3125 38.671875 55.65625 37.6875 
Q 41.015625 36.71875 35.9375 35.15625 
Q 34.765625 38.671875 32.421875 41.796875 
Q 36.328125 42.96875 41.796875 49.609375 
Q 47.265625 56.25 50.78125 63.28125 
L 46.484375 63.28125 
Q 39.453125 63.28125 32.03125 62.5 
L 32.03125 69.921875 
Q 39.453125 69.53125 46.484375 69.53125 
L 57.421875 69.53125 
Q 54.296875 75 51.953125 78.125 
Q 55.859375 80.078125 58.203125 82.03125 
z
M 78.515625 31.640625 
Q 78.125 26.5625 78.125 21.484375 
L 78.125 2.34375 
Q 78.125 -1.171875 81.640625 -1.171875 
L 85.546875 -1.171875 
Q 88.671875 -1.171875 89.0625 7.8125 
Q 92.1875 5.46875 96.875 4.296875 
Q 94.53125 -5.46875 91.984375 -6.640625 
Q 89.453125 -7.8125 85.9375 -7.8125 
L 78.515625 -7.8125 
Q 71.09375 -7.8125 71.09375 -0.390625 
L 71.09375 22.265625 
Q 71.09375 26.953125 70.703125 31.640625 
L 78.515625 31.640625 
z
M 48.828125 30.859375 
Q 48.046875 26.953125 47.453125 18.9375 
Q 46.875 10.9375 43.9375 3.515625 
Q 41.015625 -3.90625 30.46875 -10.9375 
Q 27.734375 -7.421875 24.609375 -5.078125 
Q 32.421875 -1.5625 36.125 4.484375 
Q 39.84375 10.546875 40.234375 18.15625 
Q 40.625 25.78125 40.234375 31.640625 
Q 44.140625 30.859375 48.828125 30.859375 
z
M 62.5 31.640625 
Q 62.109375 29.296875 62.109375 21.875 
L 62.109375 4.6875 
Q 62.109375 -0.390625 62.5 -7.8125 
L 54.296875 -7.8125 
Q 54.6875 -0.78125 54.6875 4.6875 
L 54.6875 21.875 
Q 54.6875 28.515625 54.296875 31.640625 
L 62.5 31.640625 
z
M 29.6875 25.390625 
Q 25.78125 18.75 21.09375 8.78125 
Q 16.40625 -1.171875 13.28125 -6.640625 
Q 9.765625 -3.90625 5.078125 -1.953125 
Q 8.984375 2.734375 14.0625 11.71875 
Q 19.140625 20.703125 22.65625 30.46875 
Q 25.78125 27.734375 29.6875 25.390625 
z
M 9.765625 53.90625 
Q 18.75 48.4375 26.953125 42.578125 
Q 23.828125 39.453125 21.484375 35.546875 
Q 14.453125 42.1875 5.078125 46.875 
Q 7.421875 50 9.765625 53.90625 
z
M 14.453125 77.734375 
Q 23.4375 72.265625 29.6875 67.1875 
Q 26.953125 63.671875 24.21875 60.546875 
Q 17.96875 66.796875 9.765625 71.484375 
Q 12.5 75 14.453125 77.734375 
z
" id="SimHei-27969"/>
      <path d="M 82.03125 39.0625 
Q 81.640625 34.375 81.640625 26.5625 
Q 81.640625 19.140625 82.03125 14.84375 
L 53.515625 14.84375 
L 53.515625 9.765625 
L 71.484375 9.765625 
Q 78.125 9.765625 83.984375 10.15625 
L 83.984375 4.296875 
Q 78.515625 4.6875 71.484375 4.6875 
L 53.515625 4.6875 
L 53.515625 -1.171875 
L 80.078125 -1.171875 
Q 86.328125 -1.171875 92.578125 -0.78125 
L 92.578125 -6.640625 
Q 86.328125 -6.25 80.078125 -6.25 
L 19.921875 -6.25 
Q 14.0625 -6.25 7.421875 -6.640625 
L 7.421875 -0.78125 
Q 14.453125 -0.78125 19.921875 -1.171875 
L 46.484375 -1.171875 
L 46.484375 4.6875 
L 26.953125 4.6875 
Q 21.09375 4.6875 15.234375 3.90625 
L 15.234375 10.15625 
Q 21.484375 9.765625 26.953125 9.765625 
L 46.484375 9.765625 
L 46.484375 14.84375 
L 17.96875 14.84375 
Q 18.359375 21.484375 18.359375 27.734375 
Q 18.359375 33.984375 17.96875 39.0625 
L 82.03125 39.0625 
z
M 81.25 77.34375 
Q 80.859375 71.484375 80.859375 66.40625 
Q 80.859375 61.328125 81.25 53.125 
L 18.75 53.125 
Q 19.140625 61.328125 19.140625 66.40625 
Q 19.140625 71.484375 18.75 77.34375 
L 81.25 77.34375 
z
M 76.5625 48.4375 
Q 85.9375 48.828125 93.75 49.21875 
L 93.75 42.96875 
Q 85.9375 43.359375 76.953125 43.359375 
L 25.78125 43.359375 
Q 15.234375 43.359375 5.078125 42.96875 
L 5.078125 49.21875 
Q 15.234375 48.828125 25.78125 48.4375 
z
M 73.828125 57.8125 
L 73.828125 62.890625 
L 26.171875 62.890625 
L 26.171875 57.8125 
z
M 73.828125 67.96875 
L 73.828125 72.65625 
L 26.171875 72.65625 
L 26.171875 67.96875 
z
M 74.21875 29.296875 
L 74.21875 33.984375 
L 53.515625 33.984375 
L 53.515625 29.296875 
z
M 46.484375 29.296875 
L 46.484375 33.984375 
L 25.78125 33.984375 
L 25.78125 29.296875 
z
M 46.484375 19.921875 
L 46.484375 24.21875 
L 25.78125 24.21875 
L 25.78125 19.921875 
z
M 74.21875 19.921875 
L 74.21875 24.21875 
L 53.515625 24.21875 
L 53.515625 19.921875 
z
" id="SimHei-37327"/>
     </defs>
     <g transform="translate(23.18625 258.779375)rotate(-90)scale(0.15 -0.15)">
      <use xlink:href="#SimHei-27969"/>
      <use x="100" xlink:href="#SimHei-37327"/>
     </g>
    </g>
   </g>
   <g id="line2d_25">
    <path clip-path="url(#p856b7cd845)" d="M 97.340284 405.741871 
L 98.627601 408.143912 
L 99.914917 393.389995 
L 101.202234 407.73899 
L 102.489551 396.932031 
L 103.776867 418.426844 
L 105.064184 409.635029 
L 106.351501 338.037808 
L 107.638817 221.83806 
L 108.926134 182.673105 
L 110.213451 131.682043 
L 111.500767 165.015409 
L 112.788084 188.765705 
L 114.075401 223.30196 
L 115.362717 154.504927 
L 116.650034 116.213744 
L 117.937351 200.759692 
L 119.224667 118.054035 
L 120.511984 150.908626 
L 121.799301 232.153004 
L 123.086617 267.280416 
L 124.373934 295.481082 
L 125.661251 351.573599 
L 126.948567 386.88361 
L 128.235884 392.582055 
L 129.523201 378.208981 
L 130.810517 404.517645 
L 132.097834 412.5501 
L 133.385151 412.663009 
L 134.672467 419.702923 
L 135.959784 417.950807 
L 137.247101 385.929789 
L 138.534417 340.500962 
L 139.821734 290.109188 
L 141.109051 215.119501 
L 142.396367 210.235874 
L 143.683684 220.747775 
L 144.971001 266.260054 
L 147.545634 207.760732 
L 148.832951 269.434357 
L 150.120267 253.25276 
L 151.407584 223.789893 
L 152.694901 212.022875 
L 153.982217 273.50375 
L 155.269534 343.856334 
L 156.556851 379.993422 
L 157.844167 395.449872 
L 159.131484 406.694586 
L 160.418801 381.782611 
L 161.706117 418.850972 
L 162.993434 402.065893 
L 164.280751 410.215862 
L 165.568067 419.72646 
L 166.855384 402.335911 
L 168.142701 409.063445 
L 169.430017 370.017092 
L 170.717334 293.509016 
L 173.291967 226.992785 
L 174.579284 254.109801 
L 175.866601 334.041078 
L 177.153917 301.142696 
L 178.441234 320.816826 
L 179.728551 259.602591 
L 181.015867 245.902746 
L 182.303184 247.975868 
L 183.590501 297.971072 
L 184.877817 297.943217 
L 186.165134 319.737186 
L 187.452451 385.087725 
L 188.739767 398.405867 
L 190.027084 415.316007 
L 191.314401 408.745226 
L 192.601717 414.204999 
L 193.889034 423.635452 
L 195.176351 400.191782 
L 196.463667 419.124885 
L 197.750984 398.51574 
L 199.038301 347.711713 
L 200.325617 233.676083 
L 201.612934 177.639053 
L 202.900251 141.704881 
L 204.187567 60.586905 
L 205.474884 83.913223 
L 208.049517 217.708188 
L 209.336834 159.506186 
L 210.624151 135.894259 
L 211.911467 90.436111 
L 213.198784 200.047099 
L 214.486101 249.110462 
L 215.773417 254.987368 
L 217.060734 306.746903 
L 218.348051 390.143875 
L 219.635367 397.484606 
L 220.922684 414.281222 
L 222.210001 383.046182 
L 223.497317 389.588855 
L 224.784634 399.427098 
L 226.071951 382.856599 
L 227.359267 414.190635 
L 228.646584 404.885006 
L 229.933901 314.758486 
L 231.221217 243.337226 
L 232.508534 148.833409 
L 233.795851 77.588862 
L 235.083167 107.418109 
L 236.370484 111.562084 
L 237.657801 145.151655 
L 238.945117 114.377794 
L 240.232434 133.628808 
L 241.519751 135.446677 
L 242.807067 127.685263 
L 244.094384 117.01645 
L 245.381701 218.49158 
L 246.669017 175.276863 
L 247.956334 307.159609 
L 249.243651 375.105227 
L 250.530967 396.883597 
L 251.818284 408.649225 
L 253.105601 390.163484 
L 254.392917 405.550157 
L 255.680234 424.225348 
L 256.96755 400.370057 
L 258.254867 404.833361 
L 259.542184 390.351364 
L 260.8295 324.08979 
L 262.116817 154.37868 
L 263.404134 75.101544 
L 264.69145 83.85223 
L 265.978767 62.951009 
L 267.266084 132.970202 
L 268.5534 138.748246 
L 269.840717 52.059489 
L 271.128034 142.595176 
L 273.702667 168.634737 
L 274.989984 152.031985 
L 276.2773 235.10088 
L 277.564617 239.225991 
L 278.851934 334.727104 
L 280.13925 368.333652 
L 281.426567 394.17116 
L 282.713884 412.202155 
L 284.0012 410.374999 
L 285.288517 389.660258 
L 286.575834 388.340105 
L 287.86315 389.605729 
L 289.150467 415.114543 
L 290.437784 385.238648 
L 291.7251 339.998567 
L 293.012417 212.822666 
L 294.299734 155.230724 
L 295.58705 125.515847 
L 296.874367 89.394988 
L 298.161684 149.411499 
L 299.449 111.993114 
L 300.736317 150.581284 
L 302.023634 160.289326 
L 303.31095 159.832696 
L 304.598267 163.739308 
L 305.885584 183.518977 
L 307.1729 233.667344 
L 308.460217 252.230528 
L 309.747534 309.620553 
L 311.03485 374.109183 
L 312.322167 389.673795 
L 313.609484 401.940244 
L 314.8968 418.278043 
L 316.184117 418.490235 
L 317.471434 415.431489 
L 318.75875 409.560408 
L 320.046067 426.480291 
L 321.333384 396.76477 
L 322.6207 328.636367 
L 323.908017 214.596128 
L 325.195334 111.838681 
L 326.48265 141.288875 
L 327.769967 187.834908 
L 329.057284 155.273537 
L 330.3446 217.768703 
L 331.631917 146.132259 
L 332.919234 189.513533 
L 334.20655 204.465107 
L 335.493867 174.102532 
L 336.781184 111.181225 
L 338.0685 186.79056 
L 339.355817 224.123962 
L 340.643134 323.024715 
L 341.93045 384.466194 
L 343.217767 386.122288 
L 344.505084 400.797196 
L 345.7924 403.04323 
L 347.079717 381.618026 
L 348.367034 422.271576 
L 349.65435 398.456229 
L 350.941667 410.269366 
L 352.228984 408.495452 
L 353.5163 375.776343 
L 354.803617 329.661036 
L 356.090934 250.173471 
L 357.37825 237.266086 
L 358.665567 237.657038 
L 359.952884 213.832885 
L 361.2402 256.379871 
L 362.527517 255.591323 
L 363.814834 274.782265 
L 365.10215 253.857436 
L 366.389467 212.928012 
L 367.676784 233.024177 
L 368.9641 244.520066 
L 370.251417 301.106725 
L 371.538734 315.498457 
L 372.82605 352.502848 
L 374.113367 373.464222 
L 375.400684 386.986257 
L 376.688 392.429392 
L 377.975317 407.312085 
L 379.262634 406.495747 
L 380.54995 409.99745 
L 381.837267 423.130103 
L 383.124584 408.197698 
L 384.4119 403.234895 
L 385.699217 382.04116 
L 386.986534 316.496059 
L 388.27385 279.326595 
L 389.561167 226.148959 
L 390.848484 258.481302 
L 392.1358 309.181061 
L 393.423117 286.556896 
L 394.710434 319.405414 
L 395.99775 269.367995 
L 397.285067 289.975766 
L 398.572384 265.502463 
L 399.8597 266.410752 
L 401.147017 297.405468 
L 402.434334 346.543194 
L 403.72165 375.380272 
L 405.008967 395.741797 
L 406.296284 403.628263 
L 407.5836 396.116718 
L 408.870917 415.225329 
L 410.158234 425.079932 
L 411.44555 400.881153 
L 412.732867 421.995946 
L 414.020184 410.863869 
L 415.3075 350.17919 
L 416.594817 216.049695 
L 417.882134 172.215795 
L 419.16945 189.187183 
L 420.456767 153.628069 
L 421.744084 209.018225 
L 423.0314 205.41489 
L 424.318717 242.68999 
L 425.606034 125.250884 
L 426.89335 212.177037 
L 428.180667 193.854873 
L 429.467984 120.894941 
L 430.7553 221.815971 
L 432.042617 297.606075 
L 433.329934 320.437052 
L 434.61725 374.818988 
L 435.904567 397.218219 
L 437.191884 404.426904 
L 438.4792 397.982325 
L 439.766517 388.905917 
L 441.053834 430.133046 
L 442.34115 397.157882 
L 443.628467 405.098134 
L 444.915784 386.779451 
L 446.2031 306.578923 
L 447.490417 191.250354 
L 448.777734 153.541762 
L 450.06505 193.766033 
L 451.352367 107.376838 
L 452.639684 84.616058 
L 453.927 156.989637 
L 455.214317 153.945098 
L 456.501634 112.00161 
L 457.78895 166.457917 
L 459.076267 68.350424 
L 461.6509 251.742431 
L 462.938217 260.693868 
L 464.225533 255.049648 
L 465.51285 373.641268 
L 466.800167 389.321553 
L 468.087483 421.429984 
L 469.3748 403.414381 
L 470.662117 405.866252 
L 471.949433 435.499261 
L 473.23675 421.239218 
L 474.524067 421.487707 
L 475.811383 402.464046 
L 477.0987 330.111982 
L 478.386017 181.390567 
L 480.96065 139.113999 
L 482.247967 151.081623 
L 483.535283 203.001754 
L 484.8226 184.157642 
L 486.109917 111.917689 
L 487.397233 176.119512 
L 488.68455 123.556956 
L 489.971867 143.674402 
L 491.259183 100.242467 
L 492.5465 167.011896 
L 493.833817 242.347493 
L 495.121133 303.698211 
L 496.40845 357.679452 
L 497.695767 400.866195 
L 500.2704 418.562941 
L 501.557717 407.212086 
L 502.845033 401.430328 
L 504.13235 397.594503 
L 505.419667 402.668694 
L 506.706983 379.433936 
L 507.9943 321.303601 
L 509.281617 163.676094 
L 510.568933 194.55752 
L 511.85625 112.649766 
L 513.143567 120.712012 
L 514.430883 161.416132 
L 515.7182 105.430628 
L 517.005517 182.051958 
L 518.292833 168.619256 
L 519.58015 116.957742 
L 520.867467 144.525653 
L 522.154783 139.634955 
L 524.729417 228.592974 
L 527.30405 366.597946 
L 528.591367 398.797863 
L 529.878683 410.371565 
L 531.166 398.114018 
L 532.453317 408.718266 
L 533.740633 412.9042 
L 535.02795 379.776795 
L 536.315267 413.533629 
L 537.602583 395.720072 
L 538.8899 335.872295 
L 540.177217 152.618532 
L 541.464533 135.978729 
L 542.75185 102.567261 
L 544.039167 163.231136 
L 545.326483 176.637381 
L 546.6138 212.534651 
L 547.901117 219.042372 
L 549.188433 141.908765 
L 550.47575 208.525215 
L 551.763067 119.915843 
L 553.050383 116.666075 
L 554.3377 185.447903 
L 555.625017 276.276891 
L 556.912333 286.468811 
L 558.19965 342.155962 
L 559.486967 377.606664 
L 560.774283 398.584215 
L 562.0616 394.93377 
L 563.348917 402.652059 
L 564.636233 381.075649 
L 565.92355 400.802372 
L 567.210867 401.638962 
L 568.498183 401.580709 
L 569.7855 379.398487 
L 571.072817 331.969044 
L 572.360133 279.596626 
L 573.64745 190.613966 
L 574.934767 196.032281 
L 576.222083 290.614016 
L 577.5094 273.85871 
L 578.796717 259.391041 
L 580.084033 247.537036 
L 581.37135 243.993955 
L 582.658667 254.530871 
L 583.945983 212.092964 
L 585.2333 292.071426 
L 586.520617 292.250995 
L 587.807933 333.609101 
L 589.09525 333.84031 
L 590.382567 376.896823 
L 591.669883 397.823419 
L 592.9572 387.856131 
L 594.244517 390.760402 
L 595.531833 419.55974 
L 596.81915 387.844572 
L 598.106467 397.877698 
L 599.393783 416.180539 
L 600.6811 393.031705 
L 601.968417 382.167324 
L 603.255733 305.903373 
L 604.54305 204.865966 
L 605.830367 244.100304 
L 607.117683 249.20528 
L 608.405 326.084141 
L 609.692317 298.624279 
L 610.979633 309.056463 
L 612.26695 316.968748 
L 613.554267 293.392783 
L 614.841583 264.637658 
L 616.1289 296.878575 
L 617.416217 315.22063 
L 618.703533 355.355563 
L 619.99085 375.333431 
L 621.278167 386.892132 
L 622.565483 400.650469 
L 623.8528 405.182881 
L 625.140117 416.428383 
L 626.427433 406.826433 
L 627.71475 405.45491 
L 629.002067 406.260457 
L 630.289383 406.693479 
L 631.5767 322.31144 
L 632.864017 193.353249 
L 634.151333 145.936596 
L 635.43865 130.61204 
L 636.725967 132.486598 
L 638.013283 129.88646 
L 639.3006 211.838043 
L 640.587917 150.224679 
L 641.875233 158.263378 
L 643.16255 135.734239 
L 644.449867 101.463641 
L 645.737183 187.202842 
L 647.0245 222.686684 
L 648.311817 249.831343 
L 649.599133 321.152365 
L 650.88645 378.293125 
L 652.173767 377.361268 
L 653.461083 406.225205 
L 654.7484 394.17558 
L 656.035717 386.613834 
L 657.323033 376.342793 
L 658.61035 413.770881 
L 659.897667 417.948838 
L 661.184983 407.243216 
L 662.4723 327.823579 
L 663.759616 221.732955 
L 666.33425 173.9513 
L 667.621566 181.549529 
L 668.908883 166.19982 
L 670.1962 162.112479 
L 671.483516 185.052496 
L 672.770833 175.597135 
L 674.05815 177.642219 
L 675.345466 126.037921 
L 676.632783 160.003329 
L 679.207416 257.657631 
L 681.78205 378.478841 
L 683.069366 384.471336 
L 684.356683 407.776174 
L 685.644 401.163609 
L 686.931316 415.410553 
L 688.218633 407.563496 
L 689.50595 397.99336 
L 690.793266 411.882907 
L 692.080583 407.414329 
L 695.942533 134.477025 
L 697.22985 160.650459 
L 698.517166 86.594498 
L 699.804483 202.292673 
L 703.666433 140.376629 
L 704.95375 194.098813 
L 706.241066 185.322111 
L 707.528383 131.543564 
L 708.8157 232.526837 
L 710.103016 258.358256 
L 711.390333 288.963582 
L 712.67765 366.165764 
L 715.252283 418.027553 
L 716.5396 416.960066 
L 717.826916 416.103394 
L 719.114233 419.322534 
L 720.40155 419.919725 
L 721.688866 416.391196 
L 722.976183 379.755055 
L 724.2635 311.961654 
L 725.550816 179.224786 
L 726.838133 137.118736 
L 728.12545 107.484724 
L 729.412766 109.17844 
L 730.700083 179.7583 
L 731.9874 190.039984 
L 733.274716 70.499631 
L 734.562033 120.17689 
L 735.84935 184.872159 
L 737.136666 147.865565 
L 738.423983 149.514919 
L 739.7113 218.117222 
L 740.998616 257.185607 
L 742.285933 277.834962 
L 743.57325 379.447008 
L 744.860566 403.434632 
L 746.147883 403.682436 
L 747.4352 389.82378 
L 748.722516 398.518323 
L 750.009833 422.483187 
L 751.29715 407.725334 
L 752.584466 415.731011 
L 753.871783 403.54957 
L 755.1591 339.316222 
L 756.446416 204.175883 
L 757.733733 154.562354 
L 759.02105 162.434512 
L 760.308366 95.441179 
L 761.595683 145.914664 
L 762.883 222.96488 
L 764.170316 152.001687 
L 765.457633 108.340177 
L 766.74495 85.229238 
L 768.032266 189.980253 
L 769.319583 97.632298 
L 770.6069 196.522471 
L 771.894216 268.567962 
L 773.181533 280.988403 
L 774.46885 356.22285 
L 775.756166 384.930833 
L 777.043483 397.978825 
L 778.3308 398.415454 
L 779.618116 403.812259 
L 780.905433 378.849938 
L 782.19275 394.427309 
L 783.480066 413.734801 
L 784.767383 413.151445 
L 786.0547 390.109799 
L 787.342016 309.088228 
L 788.629333 260.265621 
L 789.91665 162.990571 
L 791.203966 195.027952 
L 792.491283 196.449633 
L 793.7786 265.05801 
L 795.065916 222.763029 
L 796.353233 265.631151 
L 797.64055 283.75058 
L 798.927866 250.371258 
L 800.215183 243.426081 
L 801.5025 269.092461 
L 802.789816 265.909958 
L 804.077133 323.232286 
L 805.36445 362.989304 
L 806.651766 381.488565 
L 809.2264 401.924897 
L 810.513716 389.120068 
L 811.801033 419.226903 
L 813.08835 404.771775 
L 814.375666 420.326762 
L 815.662983 419.73218 
L 816.9503 402.096332 
L 818.237616 369.439097 
L 819.524933 313.527242 
L 820.81225 268.542582 
L 822.099566 257.982041 
L 823.386883 252.686429 
L 824.6742 316.607366 
L 825.961516 303.882903 
L 827.248833 307.946613 
L 828.53615 286.117631 
L 829.823466 243.35248 
L 831.110783 247.431348 
L 832.3981 273.023027 
L 833.685416 277.834657 
L 834.972733 315.341636 
L 836.26005 393.407381 
L 837.547366 407.027596 
L 838.834683 399.565548 
L 840.122 381.591131 
L 842.696633 416.805961 
L 843.98395 390.112809 
L 845.271266 414.427438 
L 846.558583 406.18343 
L 847.8459 345.811271 
L 849.133216 241.96524 
L 850.420533 99.780884 
L 851.70785 137.642105 
L 852.995166 150.456839 
L 854.282483 211.530206 
L 855.5698 170.26284 
L 856.857116 204.099673 
L 858.144433 137.241753 
L 859.43175 111.331924 
L 860.719066 122.169291 
L 862.006383 174.558153 
L 863.2937 198.805673 
L 864.581016 234.008553 
L 865.868333 298.575863 
L 867.155649 382.242866 
L 868.442966 401.010006 
L 869.730283 401.744445 
L 871.017599 399.804777 
L 872.304916 377.813856 
L 873.592233 427.320825 
L 874.879549 411.550311 
L 876.166866 402.723008 
L 877.454183 388.196906 
L 878.741499 301.428956 
L 880.028816 160.346084 
L 882.603449 96.535077 
L 883.890766 53.004147 
L 885.178083 162.15492 
L 886.465399 157.107304 
L 887.752716 126.383901 
L 889.040033 116.051154 
L 890.327349 104.177519 
L 891.614666 180.976334 
L 892.901983 142.214494 
L 894.189299 202.909727 
L 895.476616 212.373681 
L 896.763933 298.169741 
L 898.051249 355.418384 
L 899.338566 392.905784 
L 900.625883 409.151637 
L 901.913199 387.738225 
L 903.200516 398.216061 
L 904.487833 416.117937 
L 905.775149 406.23089 
L 907.062466 406.845716 
L 908.349783 402.001264 
L 909.637099 344.989837 
L 910.924416 213.165332 
L 912.211733 169.491256 
L 913.499049 114.112829 
L 914.786366 167.671232 
L 916.073683 190.716113 
L 918.648316 212.819328 
L 919.935633 152.203949 
L 921.222949 142.026898 
L 922.510266 70.149334 
L 923.797583 174.863703 
L 925.084899 226.631511 
L 926.372216 267.083258 
L 927.659533 282.698589 
L 930.234166 397.870542 
L 931.521483 403.472283 
L 932.808799 386.359971 
L 934.096116 396.636805 
L 935.383433 412.576362 
L 936.670749 406.318346 
L 937.958066 408.58596 
L 939.245383 408.763362 
L 940.532699 339.08993 
L 943.107333 61.911764 
L 945.681966 148.746843 
L 946.969283 132.600044 
L 948.256599 151.674611 
L 949.543916 105.867601 
L 950.831233 138.085733 
L 952.118549 128.807442 
L 953.405866 53.259972 
L 954.693183 187.977264 
L 955.980499 174.143882 
L 957.267816 194.889563 
L 958.555133 268.294288 
L 959.842449 369.252285 
L 961.129766 392.544776 
L 962.417083 407.854241 
L 963.704399 416.693928 
L 964.991716 410.166736 
L 966.279033 419.978612 
L 967.566349 412.169511 
L 968.853666 405.951475 
L 970.140983 385.26086 
L 971.428299 336.9289 
L 974.002933 145.449118 
L 975.290249 125.356642 
L 976.577566 116.31677 
L 977.864883 153.366748 
L 979.152199 172.111892 
L 980.439516 104.606166 
L 981.726833 126.438204 
L 983.014149 164.659592 
L 984.301466 163.576591 
L 985.588783 173.826285 
L 986.876099 210.381768 
L 988.163416 287.305498 
L 989.450733 279.443697 
L 990.738049 347.363835 
L 992.025366 391.815569 
L 993.312683 400.090796 
L 994.599999 396.5335 
L 995.887316 405.982085 
L 997.174633 399.343438 
L 998.461949 405.847741 
L 999.749266 411.565461 
L 1001.036583 403.471964 
L 1002.323899 386.801898 
L 1003.611216 320.963238 
L 1004.898533 242.496736 
L 1007.473166 196.375086 
L 1008.760483 176.224308 
L 1010.047799 240.342915 
L 1011.335116 248.191682 
L 1012.622433 270.072086 
L 1013.909749 301.519794 
L 1015.197066 263.12914 
L 1016.484383 221.18227 
L 1017.771699 228.772941 
L 1019.059016 251.668429 
L 1020.346333 328.037995 
L 1021.633649 362.562519 
L 1022.920966 391.410686 
L 1022.920966 391.410686 
" style="fill:none;stroke:#1f77b4;stroke-linecap:square;stroke-width:1.5;"/>
   </g>
   <g id="patch_3">
    <path d="M 51.06125 454.67125 
L 51.06125 32.8875 
" style="fill:none;stroke:#000000;stroke-linecap:square;stroke-linejoin:miter;stroke-width:0.8;"/>
   </g>
   <g id="patch_4">
    <path d="M 1069.2 454.67125 
L 1069.2 32.8875 
" style="fill:none;stroke:#000000;stroke-linecap:square;stroke-linejoin:miter;stroke-width:0.8;"/>
   </g>
   <g id="patch_5">
    <path d="M 51.06125 454.67125 
L 1069.2 454.67125 
" style="fill:none;stroke:#000000;stroke-linecap:square;stroke-linejoin:miter;stroke-width:0.8;"/>
   </g>
   <g id="patch_6">
    <path d="M 51.06125 32.8875 
L 1069.2 32.8875 
" style="fill:none;stroke:#000000;stroke-linecap:square;stroke-linejoin:miter;stroke-width:0.8;"/>
   </g>
   <g id="text_15">
    <!-- 30天内流量变化 ID=200 -->
    <defs>
     <path d="M 3.90625 19.140625 
L 10.9375 20.3125 
Q 12.5 15.234375 16.015625 11.90625 
Q 19.53125 8.59375 24.796875 8.78125 
Q 30.078125 8.984375 33.203125 13.078125 
Q 36.328125 17.1875 35.9375 22.453125 
Q 35.546875 27.734375 31.828125 30.65625 
Q 28.125 33.59375 19.921875 34.765625 
L 19.921875 39.84375 
Q 28.125 40.625 31.828125 44.140625 
Q 35.546875 47.65625 35.15625 53.3125 
Q 34.765625 58.984375 30.078125 61.515625 
Q 25.390625 64.0625 20.109375 62.109375 
Q 14.84375 60.15625 11.71875 51.171875 
L 4.6875 52.34375 
Q 7.03125 59.375 11.125 64.0625 
Q 15.234375 68.75 22.265625 69.53125 
Q 29.296875 70.3125 34.5625 67.765625 
Q 39.84375 65.234375 41.984375 59.953125 
Q 44.140625 54.6875 42.578125 48.4375 
Q 41.015625 42.1875 33.59375 37.5 
Q 39.0625 35.15625 41.984375 30.46875 
Q 44.921875 25.78125 43.9375 18.15625 
Q 42.96875 10.546875 37.109375 5.859375 
Q 31.25 1.171875 23.828125 1.359375 
Q 16.40625 1.5625 10.9375 6.046875 
Q 5.46875 10.546875 3.90625 19.140625 
z
" id="SimHei-51"/>
     <path d="M 69.921875 76.5625 
Q 76.953125 76.5625 83.984375 76.953125 
L 83.984375 68.75 
Q 76.953125 69.140625 69.921875 69.140625 
L 53.90625 69.140625 
L 53.90625 48.046875 
L 78.90625 48.046875 
Q 86.328125 48.046875 92.1875 48.4375 
L 92.1875 40.234375 
Q 86.71875 40.625 79.296875 40.625 
L 55.078125 40.625 
Q 60.546875 25.78125 70.703125 15.234375 
Q 80.859375 4.6875 96.875 0.78125 
Q 91.40625 -3.515625 90.234375 -7.03125 
Q 78.125 -2.734375 67.96875 6.4375 
Q 57.8125 15.625 50.390625 32.8125 
Q 45.703125 16.796875 35.546875 7.21875 
Q 25.390625 -2.34375 10.15625 -8.984375 
Q 8.59375 -5.078125 3.515625 -1.5625 
Q 14.84375 1.5625 27.34375 11.515625 
Q 39.84375 21.484375 44.921875 40.625 
L 23.4375 40.625 
Q 14.84375 40.625 8.984375 40.234375 
L 8.984375 48.4375 
Q 15.234375 48.046875 23.4375 48.046875 
L 46.09375 48.046875 
L 46.09375 69.140625 
L 29.6875 69.140625 
Q 21.484375 69.140625 15.625 68.75 
L 15.625 76.953125 
Q 21.875 76.5625 29.6875 76.5625 
z
" id="SimHei-22825"/>
     <path d="M 22.265625 20.3125 
Q 33.984375 28.515625 39.640625 37.109375 
Q 45.3125 45.703125 45.703125 58.59375 
L 19.140625 58.59375 
L 19.140625 -7.8125 
L 10.15625 -7.8125 
Q 10.9375 0 10.9375 5.46875 
L 10.9375 48.828125 
Q 10.9375 56.640625 10.546875 65.234375 
L 46.09375 65.234375 
Q 46.09375 75.78125 45.703125 80.859375 
Q 51.953125 80.46875 55.46875 80.46875 
Q 53.515625 75.390625 53.515625 65.234375 
L 90.234375 65.234375 
Q 89.453125 57.03125 89.453125 48.828125 
L 89.453125 1.171875 
Q 89.453125 -4.6875 84.765625 -6.046875 
Q 80.078125 -7.421875 71.875 -8.59375 
Q 70.703125 -4.6875 66.40625 0 
Q 75.78125 0 78.515625 0.578125 
Q 81.25 1.171875 81.25 4.296875 
L 81.25 58.59375 
L 53.125 58.59375 
Q 53.125 51.5625 51.953125 44.921875 
Q 55.46875 42.1875 64.453125 35.34375 
Q 73.4375 28.515625 77.34375 24.609375 
Q 73.046875 21.09375 70.703125 18.359375 
Q 64.0625 26.171875 49.609375 37.890625 
Q 42.578125 25.78125 31.25 15.234375 
Q 26.5625 19.140625 22.265625 20.3125 
z
" id="SimHei-20869"/>
     <path d="M 81.25 30.859375 
Q 77.34375 25 70.890625 17.765625 
Q 64.453125 10.546875 57.421875 5.859375 
Q 61.328125 3.515625 71.875 1.359375 
Q 82.421875 -0.78125 93.75 -1.171875 
Q 89.0625 -6.25 88.28125 -9.765625 
Q 75.78125 -8.203125 65.8125 -4.875 
Q 55.859375 -1.5625 50.390625 1.953125 
Q 43.75 -1.953125 33.59375 -5.078125 
Q 23.4375 -8.203125 10.9375 -10.546875 
Q 9.375 -6.640625 6.25 -2.734375 
Q 14.84375 -2.34375 26.359375 0.1875 
Q 37.890625 2.734375 44.140625 5.859375 
Q 35.546875 12.109375 26.171875 24.609375 
Q 21.09375 24.609375 15.625 24.21875 
L 15.625 31.25 
Q 22.65625 30.859375 32.421875 30.859375 
z
M 50.390625 82.421875 
Q 53.125 76.5625 55.46875 69.921875 
L 73.046875 69.921875 
Q 84.375 69.921875 93.359375 70.3125 
L 93.359375 62.890625 
Q 83.984375 63.28125 73.828125 63.28125 
L 64.453125 63.28125 
L 64.453125 46.09375 
Q 64.453125 39.84375 64.84375 33.59375 
L 56.25 33.59375 
Q 56.640625 39.84375 56.640625 46.09375 
L 56.640625 63.28125 
L 42.96875 63.28125 
L 42.96875 46.09375 
Q 42.96875 41.796875 43.359375 33.59375 
L 34.765625 33.59375 
Q 35.15625 41.796875 35.15625 46.09375 
L 35.15625 63.28125 
L 26.5625 63.28125 
Q 15.234375 63.28125 6.640625 62.890625 
L 6.640625 70.3125 
Q 14.84375 69.921875 26.5625 69.921875 
L 46.484375 69.921875 
Q 45.703125 73.046875 42.1875 80.078125 
Q 46.09375 80.46875 50.390625 82.421875 
z
M 34.375 24.609375 
Q 41.40625 15.234375 50.78125 9.375 
Q 60.15625 15.625 66.796875 24.609375 
L 34.375 24.609375 
z
M 75.78125 58.59375 
Q 83.984375 51.171875 92.96875 41.796875 
Q 89.84375 39.453125 85.9375 35.9375 
Q 79.296875 43.75 69.53125 53.125 
Q 73.046875 55.859375 75.78125 58.59375 
z
M 28.515625 54.6875 
Q 26.5625 52.734375 22.265625 47.265625 
Q 17.96875 41.796875 12.890625 35.9375 
Q 8.984375 38.671875 5.859375 40.625 
Q 15.234375 49.21875 20.3125 59.765625 
Q 23.828125 57.03125 28.515625 54.6875 
z
" id="SimHei-21464"/>
     <path d="M 61.328125 78.515625 
Q 60.9375 76.5625 60.9375 68.75 
L 60.9375 41.015625 
Q 68.359375 47.265625 74.609375 53.90625 
Q 80.859375 60.546875 84.375 67.1875 
Q 87.5 64.0625 92.1875 61.328125 
Q 89.0625 57.8125 81.640625 50.1875 
Q 74.21875 42.578125 70.109375 39.25 
Q 66.015625 35.9375 60.9375 31.640625 
L 60.9375 7.03125 
Q 60.9375 0.78125 66.015625 0.78125 
L 81.25 0.78125 
Q 84.375 1.171875 85.34375 4.09375 
Q 86.328125 7.03125 87.109375 13.28125 
Q 90.625 10.15625 96.09375 9.375 
Q 93.75 -1.5625 91.015625 -3.90625 
Q 88.28125 -6.25 83.59375 -6.25 
L 61.71875 -6.25 
Q 53.515625 -6.25 53.125 3.125 
L 53.125 26.171875 
Q 50.390625 23.828125 46.28125 21.09375 
Q 42.1875 18.359375 37.109375 15.234375 
Q 34.765625 19.140625 31.640625 21.875 
Q 36.71875 24.21875 42.765625 27.921875 
Q 48.828125 31.640625 53.125 35.15625 
L 53.125 70.3125 
Q 53.125 75 52.734375 78.515625 
L 61.328125 78.515625 
z
M 37.5 75.78125 
Q 33.984375 71.09375 32.421875 67.765625 
Q 30.859375 64.453125 28.515625 58.984375 
L 28.515625 10.546875 
Q 28.515625 -1.171875 28.90625 -8.59375 
L 20.703125 -8.59375 
Q 21.09375 -1.953125 21.09375 10.15625 
L 21.09375 47.65625 
Q 17.578125 42.578125 15.03125 39.453125 
Q 12.5 36.328125 10.546875 33.984375 
Q 7.8125 37.109375 4.296875 39.453125 
Q 9.765625 44.53125 13.671875 50.1875 
Q 17.578125 55.859375 20.5 61.125 
Q 23.4375 66.40625 25.390625 71.484375 
Q 27.34375 76.5625 28.515625 79.6875 
Q 30.859375 77.734375 37.5 75.78125 
z
" id="SimHei-21270"/>
     <path id="SimHei-32"/>
     <path d="M 28.90625 1.953125 
L 19.921875 1.953125 
L 19.921875 68.75 
L 28.90625 68.75 
z
" id="SimHei-73"/>
     <path d="M 45.703125 35.15625 
Q 45.703125 17.1875 38.078125 9.5625 
Q 30.46875 1.953125 17.578125 1.953125 
L 4.296875 1.953125 
L 4.296875 68.75 
L 17.578125 68.75 
Q 32.03125 68.75 38.859375 60.9375 
Q 45.703125 53.125 45.703125 35.15625 
z
M 36.328125 35.15625 
Q 36.328125 49.609375 31.640625 55.46875 
Q 26.953125 61.328125 17.578125 61.328125 
L 13.28125 61.328125 
L 13.28125 9.375 
L 17.578125 9.375 
Q 26.953125 9.375 31.640625 15.03125 
Q 36.328125 20.703125 36.328125 35.15625 
z
" id="SimHei-68"/>
     <path d="M 46.484375 45.3125 
L 1.953125 45.3125 
L 1.953125 51.5625 
L 46.484375 51.5625 
z
M 46.484375 21.484375 
L 1.953125 21.484375 
L 1.953125 27.734375 
L 46.484375 27.734375 
z
" id="SimHei-61"/>
    </defs>
    <g transform="translate(455.130625 26.8875)scale(0.2 -0.2)">
     <use xlink:href="#SimHei-51"/>
     <use x="50" xlink:href="#SimHei-48"/>
     <use x="100" xlink:href="#SimHei-22825"/>
     <use x="200" xlink:href="#SimHei-20869"/>
     <use x="300" xlink:href="#SimHei-27969"/>
     <use x="400" xlink:href="#SimHei-37327"/>
     <use x="500" xlink:href="#SimHei-21464"/>
     <use x="600" xlink:href="#SimHei-21270"/>
     <use x="700" xlink:href="#SimHei-32"/>
     <use x="750" xlink:href="#SimHei-73"/>
     <use x="800" xlink:href="#SimHei-68"/>
     <use x="850" xlink:href="#SimHei-61"/>
     <use x="900" xlink:href="#SimHei-50"/>
     <use x="950" xlink:href="#SimHei-48"/>
     <use x="1000" xlink:href="#SimHei-48"/>
    </g>
   </g>
  </g>
 </g>
 <defs>
  <clipPath id="p856b7cd845">
   <rect height="421.78375" width="1018.13875" x="51.06125" y="32.8875"/>
  </clipPath>
 </defs>
</svg>
