<?xml version="1.0" encoding="utf-8" standalone="no"?>
<!DOCTYPE svg PUBLIC "-//W3C//DTD SVG 1.1//EN"
  "http://www.w3.org/Graphics/SVG/1.1/DTD/svg11.dtd">
<!-- Created with matplotlib (https://matplotlib.org/) -->
<svg height="504pt" version="1.1" viewBox="0 0 1080 504" width="1080pt" xmlns="http://www.w3.org/2000/svg" xmlns:xlink="http://www.w3.org/1999/xlink">
 <defs>
  <style type="text/css">
*{stroke-linecap:butt;stroke-linejoin:round;}
  </style>
 </defs>
 <g id="figure_1">
  <g id="patch_1">
   <path d="M 0 504 
L 1080 504 
L 1080 0 
L 0 0 
z
" style="fill:#ffffff;"/>
  </g>
  <g id="axes_1">
   <g id="patch_2">
    <path d="M 58.35125 454.67125 
L 1069.2 454.67125 
L 1069.2 33.225 
L 58.35125 33.225 
z
" style="fill:#e5e5e5;"/>
   </g>
   <g id="matplotlib.axis_1">
    <g id="xtick_1">
     <g id="line2d_1">
      <path clip-path="url(#pdf8acd5d8e)" d="M 109.801635 454.67125 
L 109.801635 33.225 
" style="fill:none;stroke:#ffffff;stroke-linecap:square;stroke-width:0.8;"/>
     </g>
     <g id="line2d_2">
      <defs>
       <path d="M 0 0 
L 0 3.5 
" id="mbdff3497ec" style="stroke:#555555;stroke-width:0.8;"/>
      </defs>
      <g>
       <use style="fill:#555555;stroke:#555555;stroke-width:0.8;" x="109.801635" xlink:href="#mbdff3497ec" y="454.67125"/>
      </g>
     </g>
     <g id="text_1">
      <!-- 12月8日 -->
      <defs>
       <path d="M 21.875 56.25 
Q 16.796875 51.171875 8.984375 46.484375 
L 8.984375 53.90625 
Q 18.75 60.546875 25 69.53125 
L 29.6875 69.53125 
L 29.6875 2.34375 
L 21.875 2.34375 
z
" id="SimHei-49"/>
       <path d="M 4.6875 3.90625 
Q 5.078125 9.765625 10.15625 14.453125 
Q 15.234375 19.140625 23.046875 29.09375 
Q 30.859375 39.0625 33.203125 44.53125 
Q 35.546875 50 34.953125 53.90625 
Q 34.375 57.8125 31.25 60.34375 
Q 28.125 62.890625 24.015625 62.5 
Q 19.921875 62.109375 16.203125 59.375 
Q 12.5 56.640625 10.546875 51.171875 
L 3.125 52.34375 
Q 6.25 61.328125 11.125 65.421875 
Q 16.015625 69.53125 22.65625 69.921875 
Q 26.5625 70.3125 29.6875 69.71875 
Q 32.8125 69.140625 36.125 66.984375 
Q 39.453125 64.84375 41.59375 60.546875 
Q 43.75 56.25 43.15625 50.1875 
Q 42.578125 44.140625 37.109375 35.734375 
Q 31.640625 27.34375 16.015625 9.375 
L 44.140625 9.375 
L 44.140625 2.34375 
L 4.6875 2.34375 
z
" id="SimHei-50"/>
       <path d="M 82.03125 75.390625 
Q 81.25 66.015625 81.25 58.59375 
L 81.25 3.125 
Q 81.25 -4.296875 77.34375 -5.859375 
Q 73.4375 -7.421875 62.109375 -8.203125 
Q 61.328125 -3.515625 58.59375 0.78125 
Q 67.1875 0.390625 70.5 0.78125 
Q 73.828125 1.171875 73.828125 6.25 
L 73.828125 25 
L 28.90625 25 
Q 26.953125 12.109375 22.65625 3.515625 
Q 18.359375 -5.078125 14.0625 -8.984375 
Q 10.9375 -6.25 6.25 -5.078125 
Q 12.5 0.390625 16.203125 8 
Q 19.921875 15.625 20.890625 23.046875 
Q 21.875 30.46875 21.875 39.453125 
L 21.875 56.640625 
Q 21.875 65.234375 21.484375 75.390625 
L 82.03125 75.390625 
z
M 73.828125 53.125 
L 73.828125 69.53125 
L 29.296875 69.53125 
L 29.296875 53.125 
z
M 73.828125 31.25 
L 73.828125 47.265625 
L 29.296875 47.265625 
L 29.296875 31.25 
z
" id="SimHei-26376"/>
       <path d="M 2.734375 16.796875 
Q 2.734375 26.171875 5.078125 30.65625 
Q 7.421875 35.15625 12.890625 37.890625 
Q 8.203125 40.625 6.640625 43.9375 
Q 5.078125 47.265625 4.875 51.5625 
Q 4.6875 55.859375 6.046875 58.984375 
Q 7.421875 62.109375 10.15625 64.84375 
Q 12.890625 67.578125 16.203125 68.546875 
Q 19.53125 69.53125 23.4375 69.53125 
Q 27.34375 69.53125 30.46875 68.75 
Q 33.59375 67.96875 37.109375 65.421875 
Q 40.625 62.890625 42.1875 58.203125 
Q 43.75 53.515625 41.984375 47.265625 
Q 40.234375 41.015625 32.8125 37.5 
Q 39.453125 35.546875 42.1875 31.4375 
Q 44.921875 27.34375 44.921875 21.484375 
Q 44.921875 15.625 43.15625 12.109375 
Q 41.40625 8.59375 39.25 6.25 
Q 37.109375 3.90625 33.390625 2.53125 
Q 29.6875 1.171875 24.015625 1.171875 
Q 18.359375 1.171875 14.25 2.53125 
Q 10.15625 3.90625 7.421875 6.640625 
Q 4.6875 9.375 3.703125 13.078125 
Q 2.734375 16.796875 2.734375 26.171875 
z
M 10.9375 26.5625 
Q 10.546875 17.1875 12.296875 13.671875 
Q 14.0625 10.15625 18.75 9.171875 
Q 23.4375 8.203125 28.515625 9.375 
Q 33.59375 10.546875 35.546875 14.84375 
Q 37.5 19.140625 36.90625 23.4375 
Q 36.328125 27.734375 32.03125 30.65625 
Q 27.734375 33.59375 22.65625 33.203125 
Q 17.578125 32.8125 14.25 29.6875 
Q 10.9375 26.5625 10.546875 17.1875 
z
M 12.109375 56.25 
Q 12.109375 48.4375 14.84375 44.921875 
Q 17.578125 41.40625 23.4375 41.40625 
Q 29.296875 41.40625 32.21875 44.921875 
Q 35.15625 48.4375 34.953125 53.3125 
Q 34.765625 58.203125 31.4375 60.546875 
Q 28.125 62.890625 22.453125 62.5 
Q 16.796875 62.109375 14.453125 59.171875 
Q 12.109375 56.25 12.109375 48.4375 
z
" id="SimHei-56"/>
       <path d="M 83.984375 78.125 
Q 83.59375 58.984375 83.59375 35.546875 
Q 83.59375 12.109375 83.984375 -7.03125 
L 75 -7.03125 
L 75 2.734375 
L 28.125 2.734375 
L 28.125 -8.984375 
L 19.53125 -8.984375 
Q 19.921875 8.984375 19.921875 33.203125 
Q 19.921875 57.421875 19.53125 78.125 
L 83.984375 78.125 
z
M 75 9.375 
L 75 37.109375 
L 28.125 37.109375 
L 28.125 9.375 
z
M 75 43.75 
L 75 71.09375 
L 28.125 71.09375 
L 28.125 43.75 
z
" id="SimHei-26085"/>
      </defs>
      <g style="fill:#555555;" transform="translate(83.551635 472.862656)scale(0.15 -0.15)">
       <use xlink:href="#SimHei-49"/>
       <use x="50" xlink:href="#SimHei-50"/>
       <use x="100" xlink:href="#SimHei-26376"/>
       <use x="200" xlink:href="#SimHei-56"/>
       <use x="250" xlink:href="#SimHei-26085"/>
      </g>
     </g>
    </g>
    <g id="xtick_2">
     <g id="line2d_3">
      <path clip-path="url(#pdf8acd5d8e)" d="M 241.866796 454.67125 
L 241.866796 33.225 
" style="fill:none;stroke:#ffffff;stroke-linecap:square;stroke-width:0.8;"/>
     </g>
     <g id="line2d_4">
      <g>
       <use style="fill:#555555;stroke:#555555;stroke-width:0.8;" x="241.866796" xlink:href="#mbdff3497ec" y="454.67125"/>
      </g>
     </g>
     <g id="text_2">
      <!-- 12月9日 -->
      <defs>
       <path d="M 12.5 1.171875 
Q 21.09375 15.625 26.5625 27.34375 
Q 16.796875 25.78125 10.34375 29.875 
Q 3.90625 33.984375 2.53125 41.015625 
Q 1.171875 48.046875 2.734375 53.703125 
Q 4.296875 59.375 7.609375 63.078125 
Q 10.9375 66.796875 15.625 68.359375 
Q 20.3125 69.921875 24.015625 69.921875 
Q 27.734375 69.921875 31.640625 68.359375 
Q 35.546875 66.796875 38.671875 63.671875 
Q 41.796875 60.546875 42.96875 57.21875 
Q 44.140625 53.90625 44.140625 48.625 
Q 44.140625 43.359375 40.234375 35.15625 
Q 36.328125 26.953125 21.09375 1.171875 
z
M 9.765625 50 
Q 10.9375 39.84375 14.640625 36.515625 
Q 18.359375 33.203125 22.65625 33.59375 
Q 26.953125 33.984375 29.484375 35.9375 
Q 32.03125 37.890625 34.375 42.578125 
Q 35.9375 48.4375 35.15625 52.53125 
Q 34.375 56.640625 31.046875 59.375 
Q 27.734375 62.109375 23.828125 62.109375 
Q 21.484375 62.5 17.765625 60.9375 
Q 14.0625 59.375 11.90625 54.6875 
Q 9.765625 50 10.9375 39.84375 
z
" id="SimHei-57"/>
      </defs>
      <g style="fill:#555555;" transform="translate(215.616796 472.862656)scale(0.15 -0.15)">
       <use xlink:href="#SimHei-49"/>
       <use x="50" xlink:href="#SimHei-50"/>
       <use x="100" xlink:href="#SimHei-26376"/>
       <use x="200" xlink:href="#SimHei-57"/>
       <use x="250" xlink:href="#SimHei-26085"/>
      </g>
     </g>
    </g>
    <g id="xtick_3">
     <g id="line2d_5">
      <path clip-path="url(#pdf8acd5d8e)" d="M 373.931957 454.67125 
L 373.931957 33.225 
" style="fill:none;stroke:#ffffff;stroke-linecap:square;stroke-width:0.8;"/>
     </g>
     <g id="line2d_6">
      <g>
       <use style="fill:#555555;stroke:#555555;stroke-width:0.8;" x="373.931957" xlink:href="#mbdff3497ec" y="454.67125"/>
      </g>
     </g>
     <g id="text_3">
      <!-- 12月10日 -->
      <defs>
       <path d="M 3.125 29.296875 
Q 3.90625 50 6.4375 56.046875 
Q 8.984375 62.109375 13.671875 66.015625 
Q 18.359375 69.921875 25.1875 69.921875 
Q 32.03125 69.921875 37.109375 64.25 
Q 42.1875 58.59375 43.75 50 
Q 45.3125 41.40625 44.71875 30.265625 
Q 44.140625 19.140625 40.8125 12.109375 
Q 37.5 5.078125 30.859375 2.34375 
Q 24.21875 -0.390625 17.578125 2.921875 
Q 10.9375 6.25 8.203125 11.71875 
Q 5.46875 17.1875 4.296875 23.234375 
Q 3.125 29.296875 3.90625 50 
z
M 12.890625 52.734375 
Q 10.546875 31.25 12.5 22.84375 
Q 14.453125 14.453125 18.9375 10.9375 
Q 23.4375 7.421875 28.125 9.5625 
Q 32.8125 11.71875 34.953125 18.15625 
Q 37.109375 24.609375 37.109375 32.21875 
Q 37.109375 39.84375 36.515625 46.09375 
Q 35.9375 52.34375 33 57.421875 
Q 30.078125 62.5 25.1875 62.6875 
Q 20.3125 62.890625 16.59375 57.8125 
Q 12.890625 52.734375 10.546875 31.25 
z
" id="SimHei-48"/>
      </defs>
      <g style="fill:#555555;" transform="translate(343.931957 472.862656)scale(0.15 -0.15)">
       <use xlink:href="#SimHei-49"/>
       <use x="50" xlink:href="#SimHei-50"/>
       <use x="100" xlink:href="#SimHei-26376"/>
       <use x="200" xlink:href="#SimHei-49"/>
       <use x="250" xlink:href="#SimHei-48"/>
       <use x="300" xlink:href="#SimHei-26085"/>
      </g>
     </g>
    </g>
    <g id="xtick_4">
     <g id="line2d_7">
      <path clip-path="url(#pdf8acd5d8e)" d="M 505.997117 454.67125 
L 505.997117 33.225 
" style="fill:none;stroke:#ffffff;stroke-linecap:square;stroke-width:0.8;"/>
     </g>
     <g id="line2d_8">
      <g>
       <use style="fill:#555555;stroke:#555555;stroke-width:0.8;" x="505.997117" xlink:href="#mbdff3497ec" y="454.67125"/>
      </g>
     </g>
     <g id="text_4">
      <!-- 12月11日 -->
      <g style="fill:#555555;" transform="translate(475.997117 472.862656)scale(0.15 -0.15)">
       <use xlink:href="#SimHei-49"/>
       <use x="50" xlink:href="#SimHei-50"/>
       <use x="100" xlink:href="#SimHei-26376"/>
       <use x="200" xlink:href="#SimHei-49"/>
       <use x="250" xlink:href="#SimHei-49"/>
       <use x="300" xlink:href="#SimHei-26085"/>
      </g>
     </g>
    </g>
    <g id="xtick_5">
     <g id="line2d_9">
      <path clip-path="url(#pdf8acd5d8e)" d="M 638.062278 454.67125 
L 638.062278 33.225 
" style="fill:none;stroke:#ffffff;stroke-linecap:square;stroke-width:0.8;"/>
     </g>
     <g id="line2d_10">
      <g>
       <use style="fill:#555555;stroke:#555555;stroke-width:0.8;" x="638.062278" xlink:href="#mbdff3497ec" y="454.67125"/>
      </g>
     </g>
     <g id="text_5">
      <!-- 12月12日 -->
      <g style="fill:#555555;" transform="translate(608.062278 472.862656)scale(0.15 -0.15)">
       <use xlink:href="#SimHei-49"/>
       <use x="50" xlink:href="#SimHei-50"/>
       <use x="100" xlink:href="#SimHei-26376"/>
       <use x="200" xlink:href="#SimHei-49"/>
       <use x="250" xlink:href="#SimHei-50"/>
       <use x="300" xlink:href="#SimHei-26085"/>
      </g>
     </g>
    </g>
    <g id="xtick_6">
     <g id="line2d_11">
      <path clip-path="url(#pdf8acd5d8e)" d="M 770.127438 454.67125 
L 770.127438 33.225 
" style="fill:none;stroke:#ffffff;stroke-linecap:square;stroke-width:0.8;"/>
     </g>
     <g id="line2d_12">
      <g>
       <use style="fill:#555555;stroke:#555555;stroke-width:0.8;" x="770.127438" xlink:href="#mbdff3497ec" y="454.67125"/>
      </g>
     </g>
     <g id="text_6">
      <!-- 12月13日 -->
      <defs>
       <path d="M 3.90625 19.140625 
L 10.9375 20.3125 
Q 12.5 15.234375 16.015625 11.90625 
Q 19.53125 8.59375 24.796875 8.78125 
Q 30.078125 8.984375 33.203125 13.078125 
Q 36.328125 17.1875 35.9375 22.453125 
Q 35.546875 27.734375 31.828125 30.65625 
Q 28.125 33.59375 19.921875 34.765625 
L 19.921875 39.84375 
Q 28.125 40.625 31.828125 44.140625 
Q 35.546875 47.65625 35.15625 53.3125 
Q 34.765625 58.984375 30.078125 61.515625 
Q 25.390625 64.0625 20.109375 62.109375 
Q 14.84375 60.15625 11.71875 51.171875 
L 4.6875 52.34375 
Q 7.03125 59.375 11.125 64.0625 
Q 15.234375 68.75 22.265625 69.53125 
Q 29.296875 70.3125 34.5625 67.765625 
Q 39.84375 65.234375 41.984375 59.953125 
Q 44.140625 54.6875 42.578125 48.4375 
Q 41.015625 42.1875 33.59375 37.5 
Q 39.0625 35.15625 41.984375 30.46875 
Q 44.921875 25.78125 43.9375 18.15625 
Q 42.96875 10.546875 37.109375 5.859375 
Q 31.25 1.171875 23.828125 1.359375 
Q 16.40625 1.5625 10.9375 6.046875 
Q 5.46875 10.546875 3.90625 19.140625 
z
" id="SimHei-51"/>
      </defs>
      <g style="fill:#555555;" transform="translate(740.127438 472.862656)scale(0.15 -0.15)">
       <use xlink:href="#SimHei-49"/>
       <use x="50" xlink:href="#SimHei-50"/>
       <use x="100" xlink:href="#SimHei-26376"/>
       <use x="200" xlink:href="#SimHei-49"/>
       <use x="250" xlink:href="#SimHei-51"/>
       <use x="300" xlink:href="#SimHei-26085"/>
      </g>
     </g>
    </g>
    <g id="xtick_7">
     <g id="line2d_13">
      <path clip-path="url(#pdf8acd5d8e)" d="M 902.192599 454.67125 
L 902.192599 33.225 
" style="fill:none;stroke:#ffffff;stroke-linecap:square;stroke-width:0.8;"/>
     </g>
     <g id="line2d_14">
      <g>
       <use style="fill:#555555;stroke:#555555;stroke-width:0.8;" x="902.192599" xlink:href="#mbdff3497ec" y="454.67125"/>
      </g>
     </g>
     <g id="text_7">
      <!-- 12月14日 -->
      <defs>
       <path d="M 31.25 17.1875 
L 1.171875 17.1875 
L 1.171875 23.828125 
L 32.8125 69.53125 
L 38.671875 69.53125 
L 38.671875 23.828125 
L 48.046875 23.828125 
L 48.046875 17.1875 
L 38.671875 17.1875 
L 38.671875 2.34375 
L 31.25 2.34375 
z
M 31.25 23.828125 
L 31.25 54.6875 
L 9.375 23.828125 
z
" id="SimHei-52"/>
      </defs>
      <g style="fill:#555555;" transform="translate(872.192599 472.862656)scale(0.15 -0.15)">
       <use xlink:href="#SimHei-49"/>
       <use x="50" xlink:href="#SimHei-50"/>
       <use x="100" xlink:href="#SimHei-26376"/>
       <use x="200" xlink:href="#SimHei-49"/>
       <use x="250" xlink:href="#SimHei-52"/>
       <use x="300" xlink:href="#SimHei-26085"/>
      </g>
     </g>
    </g>
    <g id="text_8">
     <!-- 时间 -->
     <defs>
      <path d="M 39.453125 71.484375 
Q 39.0625 57.421875 39.0625 37.5 
Q 39.0625 17.578125 39.453125 6.25 
L 31.25 6.25 
L 31.25 13.671875 
L 15.625 13.671875 
L 15.625 0.78125 
L 7.421875 0.78125 
Q 7.8125 18.75 7.8125 36.71875 
Q 7.8125 55.078125 7.421875 71.484375 
L 39.453125 71.484375 
z
M 76.171875 59.765625 
Q 76.171875 71.484375 75.78125 81.640625 
L 84.375 81.640625 
Q 83.984375 71.484375 83.984375 59.765625 
Q 89.84375 59.765625 96.484375 60.15625 
L 96.484375 52.734375 
Q 89.84375 53.125 83.984375 53.125 
L 83.984375 0.78125 
Q 83.984375 -5.078125 79.296875 -6.640625 
Q 74.609375 -8.203125 67.1875 -8.984375 
Q 67.1875 -4.296875 62.890625 0 
Q 70.3125 -0.78125 73.234375 -0.390625 
Q 76.171875 0 76.171875 4.6875 
L 76.171875 53.125 
Q 56.640625 53.125 43.359375 52.734375 
L 43.359375 60.15625 
Q 55.859375 59.765625 76.171875 59.765625 
z
M 31.25 20.3125 
L 31.25 39.84375 
L 15.625 39.84375 
L 15.625 20.3125 
z
M 31.25 46.484375 
L 31.25 64.84375 
L 15.625 64.84375 
L 15.625 46.484375 
z
M 55.46875 42.578125 
Q 60.546875 34.375 65.234375 25 
Q 61.328125 23.828125 57.03125 21.484375 
Q 53.90625 30.859375 48.046875 39.0625 
Q 51.5625 40.625 55.46875 42.578125 
z
" id="SimHei-26102"/>
      <path d="M 69.53125 55.46875 
Q 69.140625 48.046875 69.140625 42.578125 
L 69.140625 21.875 
Q 69.140625 16.796875 69.53125 9.765625 
L 30.078125 9.765625 
Q 30.46875 16.796875 30.46875 22.265625 
L 30.46875 42.578125 
Q 30.46875 48.046875 30.078125 55.46875 
L 69.53125 55.46875 
z
M 90.625 76.171875 
Q 90.234375 68.75 90.234375 61.328125 
L 90.234375 3.90625 
Q 90.625 -5.078125 85.34375 -7.03125 
Q 80.078125 -8.984375 73.828125 -9.765625 
Q 73.4375 -5.078125 70.703125 -0.390625 
Q 78.125 -0.78125 80.265625 0.390625 
Q 82.421875 1.5625 82.421875 5.46875 
L 82.421875 69.53125 
L 58.984375 69.53125 
Q 49.609375 69.53125 41.40625 69.140625 
L 41.40625 76.5625 
Q 49.609375 76.171875 58.984375 76.171875 
z
M 8.59375 -8.203125 
Q 9.375 -0.390625 9.375 8.203125 
L 9.375 49.21875 
Q 9.375 57.421875 8.59375 62.890625 
L 17.578125 62.890625 
Q 17.1875 57.03125 17.1875 51.5625 
L 17.1875 7.8125 
Q 17.1875 0 17.578125 -8.203125 
z
M 61.71875 16.015625 
L 61.71875 30.46875 
L 37.890625 30.46875 
L 37.890625 16.015625 
z
M 61.71875 36.71875 
L 61.71875 49.21875 
L 37.890625 49.21875 
L 37.890625 36.71875 
z
M 23.828125 82.8125 
Q 27.34375 78.125 34.765625 67.96875 
Q 30.46875 66.015625 26.5625 63.671875 
Q 22.65625 71.484375 16.796875 78.515625 
Q 21.09375 81.640625 23.828125 82.8125 
z
" id="SimHei-38388"/>
     </defs>
     <g style="fill:#555555;" transform="translate(548.775625 490.749375)scale(0.15 -0.15)">
      <use xlink:href="#SimHei-26102"/>
      <use x="100" xlink:href="#SimHei-38388"/>
     </g>
    </g>
   </g>
   <g id="matplotlib.axis_2">
    <g id="ytick_1">
     <g id="line2d_15">
      <path clip-path="url(#pdf8acd5d8e)" d="M 58.35125 448.016729 
L 1069.2 448.016729 
" style="fill:none;stroke:#ffffff;stroke-linecap:square;stroke-width:0.8;"/>
     </g>
     <g id="line2d_16">
      <defs>
       <path d="M 0 0 
L -3.5 0 
" id="m8d25257fed" style="stroke:#555555;stroke-width:0.8;"/>
      </defs>
      <g>
       <use style="fill:#555555;stroke:#555555;stroke-width:0.8;" x="58.35125" xlink:href="#m8d25257fed" y="448.016729"/>
      </g>
     </g>
     <g id="text_9">
      <!-- 0 -->
      <g style="fill:#555555;" transform="translate(43.85125 453.172979)scale(0.15 -0.15)">
       <use xlink:href="#SimHei-48"/>
      </g>
     </g>
    </g>
    <g id="ytick_2">
     <g id="line2d_17">
      <path clip-path="url(#pdf8acd5d8e)" d="M 58.35125 382.847088 
L 1069.2 382.847088 
" style="fill:none;stroke:#ffffff;stroke-linecap:square;stroke-width:0.8;"/>
     </g>
     <g id="line2d_18">
      <g>
       <use style="fill:#555555;stroke:#555555;stroke-width:0.8;" x="58.35125" xlink:href="#m8d25257fed" y="382.847088"/>
      </g>
     </g>
     <g id="text_10">
      <!-- 20 -->
      <g style="fill:#555555;" transform="translate(36.35125 388.003338)scale(0.15 -0.15)">
       <use xlink:href="#SimHei-50"/>
       <use x="50" xlink:href="#SimHei-48"/>
      </g>
     </g>
    </g>
    <g id="ytick_3">
     <g id="line2d_19">
      <path clip-path="url(#pdf8acd5d8e)" d="M 58.35125 317.677447 
L 1069.2 317.677447 
" style="fill:none;stroke:#ffffff;stroke-linecap:square;stroke-width:0.8;"/>
     </g>
     <g id="line2d_20">
      <g>
       <use style="fill:#555555;stroke:#555555;stroke-width:0.8;" x="58.35125" xlink:href="#m8d25257fed" y="317.677447"/>
      </g>
     </g>
     <g id="text_11">
      <!-- 40 -->
      <g style="fill:#555555;" transform="translate(36.35125 322.833697)scale(0.15 -0.15)">
       <use xlink:href="#SimHei-52"/>
       <use x="50" xlink:href="#SimHei-48"/>
      </g>
     </g>
    </g>
    <g id="ytick_4">
     <g id="line2d_21">
      <path clip-path="url(#pdf8acd5d8e)" d="M 58.35125 252.507806 
L 1069.2 252.507806 
" style="fill:none;stroke:#ffffff;stroke-linecap:square;stroke-width:0.8;"/>
     </g>
     <g id="line2d_22">
      <g>
       <use style="fill:#555555;stroke:#555555;stroke-width:0.8;" x="58.35125" xlink:href="#m8d25257fed" y="252.507806"/>
      </g>
     </g>
     <g id="text_12">
      <!-- 60 -->
      <defs>
       <path d="M 3.515625 19.53125 
Q 4.296875 30.859375 6.046875 34.765625 
Q 7.8125 38.671875 11.328125 44.53125 
L 27.34375 69.53125 
L 36.328125 69.53125 
L 19.921875 43.75 
Q 30.46875 46.484375 36.71875 42.96875 
Q 42.96875 39.453125 45.109375 34.953125 
Q 47.265625 30.46875 47.453125 25.1875 
Q 47.65625 19.921875 45.890625 14.84375 
Q 44.140625 9.765625 39.640625 5.65625 
Q 35.15625 1.5625 27.140625 1.171875 
Q 19.140625 0.78125 13.46875 4.09375 
Q 7.8125 7.421875 5.65625 13.46875 
Q 3.515625 19.53125 4.296875 30.859375 
z
M 12.5 16.015625 
Q 19.53125 8.59375 25.390625 8.203125 
Q 31.25 7.8125 35.15625 12.109375 
Q 39.0625 16.40625 39.0625 24.609375 
Q 39.0625 32.8125 34.171875 35.9375 
Q 29.296875 39.0625 23.234375 38.28125 
Q 17.1875 37.5 14.453125 32.421875 
Q 11.71875 27.34375 12.109375 21.671875 
Q 12.5 16.015625 19.53125 8.59375 
z
" id="SimHei-54"/>
      </defs>
      <g style="fill:#555555;" transform="translate(36.35125 257.664056)scale(0.15 -0.15)">
       <use xlink:href="#SimHei-54"/>
       <use x="50" xlink:href="#SimHei-48"/>
      </g>
     </g>
    </g>
    <g id="ytick_5">
     <g id="line2d_23">
      <path clip-path="url(#pdf8acd5d8e)" d="M 58.35125 187.338164 
L 1069.2 187.338164 
" style="fill:none;stroke:#ffffff;stroke-linecap:square;stroke-width:0.8;"/>
     </g>
     <g id="line2d_24">
      <g>
       <use style="fill:#555555;stroke:#555555;stroke-width:0.8;" x="58.35125" xlink:href="#m8d25257fed" y="187.338164"/>
      </g>
     </g>
     <g id="text_13">
      <!-- 80 -->
      <g style="fill:#555555;" transform="translate(36.35125 192.494414)scale(0.15 -0.15)">
       <use xlink:href="#SimHei-56"/>
       <use x="50" xlink:href="#SimHei-48"/>
      </g>
     </g>
    </g>
    <g id="ytick_6">
     <g id="line2d_25">
      <path clip-path="url(#pdf8acd5d8e)" d="M 58.35125 122.168523 
L 1069.2 122.168523 
" style="fill:none;stroke:#ffffff;stroke-linecap:square;stroke-width:0.8;"/>
     </g>
     <g id="line2d_26">
      <g>
       <use style="fill:#555555;stroke:#555555;stroke-width:0.8;" x="58.35125" xlink:href="#m8d25257fed" y="122.168523"/>
      </g>
     </g>
     <g id="text_14">
      <!-- 100 -->
      <g style="fill:#555555;" transform="translate(28.85125 127.324773)scale(0.15 -0.15)">
       <use xlink:href="#SimHei-49"/>
       <use x="50" xlink:href="#SimHei-48"/>
       <use x="100" xlink:href="#SimHei-48"/>
      </g>
     </g>
    </g>
    <g id="ytick_7">
     <g id="line2d_27">
      <path clip-path="url(#pdf8acd5d8e)" d="M 58.35125 56.998882 
L 1069.2 56.998882 
" style="fill:none;stroke:#ffffff;stroke-linecap:square;stroke-width:0.8;"/>
     </g>
     <g id="line2d_28">
      <g>
       <use style="fill:#555555;stroke:#555555;stroke-width:0.8;" x="58.35125" xlink:href="#m8d25257fed" y="56.998882"/>
      </g>
     </g>
     <g id="text_15">
      <!-- 120 -->
      <g style="fill:#555555;" transform="translate(28.85125 62.155132)scale(0.15 -0.15)">
       <use xlink:href="#SimHei-49"/>
       <use x="50" xlink:href="#SimHei-50"/>
       <use x="100" xlink:href="#SimHei-48"/>
      </g>
     </g>
    </g>
    <g id="text_16">
     <!-- 流量 -->
     <defs>
      <path d="M 58.203125 82.03125 
Q 62.109375 76.171875 66.015625 69.53125 
L 78.515625 69.53125 
Q 84.765625 69.53125 92.578125 69.921875 
L 92.578125 62.890625 
Q 83.203125 63.28125 78.515625 63.28125 
L 53.515625 63.28125 
Q 56.640625 60.9375 58.984375 59.765625 
Q 57.03125 58.203125 53.90625 54.296875 
Q 50.78125 50.390625 44.53125 43.359375 
Q 58.59375 43.75 74.609375 44.53125 
Q 70.703125 49.21875 66.796875 52.734375 
Q 70.703125 55.46875 72.265625 57.421875 
Q 83.203125 46.09375 90.625 37.109375 
Q 87.109375 34.375 84.375 32.03125 
Q 81.25 36.328125 78.90625 39.453125 
Q 70.3125 38.671875 55.65625 37.6875 
Q 41.015625 36.71875 35.9375 35.15625 
Q 34.765625 38.671875 32.421875 41.796875 
Q 36.328125 42.96875 41.796875 49.609375 
Q 47.265625 56.25 50.78125 63.28125 
L 46.484375 63.28125 
Q 39.453125 63.28125 32.03125 62.5 
L 32.03125 69.921875 
Q 39.453125 69.53125 46.484375 69.53125 
L 57.421875 69.53125 
Q 54.296875 75 51.953125 78.125 
Q 55.859375 80.078125 58.203125 82.03125 
z
M 78.515625 31.640625 
Q 78.125 26.5625 78.125 21.484375 
L 78.125 2.34375 
Q 78.125 -1.171875 81.640625 -1.171875 
L 85.546875 -1.171875 
Q 88.671875 -1.171875 89.0625 7.8125 
Q 92.1875 5.46875 96.875 4.296875 
Q 94.53125 -5.46875 91.984375 -6.640625 
Q 89.453125 -7.8125 85.9375 -7.8125 
L 78.515625 -7.8125 
Q 71.09375 -7.8125 71.09375 -0.390625 
L 71.09375 22.265625 
Q 71.09375 26.953125 70.703125 31.640625 
L 78.515625 31.640625 
z
M 48.828125 30.859375 
Q 48.046875 26.953125 47.453125 18.9375 
Q 46.875 10.9375 43.9375 3.515625 
Q 41.015625 -3.90625 30.46875 -10.9375 
Q 27.734375 -7.421875 24.609375 -5.078125 
Q 32.421875 -1.5625 36.125 4.484375 
Q 39.84375 10.546875 40.234375 18.15625 
Q 40.625 25.78125 40.234375 31.640625 
Q 44.140625 30.859375 48.828125 30.859375 
z
M 62.5 31.640625 
Q 62.109375 29.296875 62.109375 21.875 
L 62.109375 4.6875 
Q 62.109375 -0.390625 62.5 -7.8125 
L 54.296875 -7.8125 
Q 54.6875 -0.78125 54.6875 4.6875 
L 54.6875 21.875 
Q 54.6875 28.515625 54.296875 31.640625 
L 62.5 31.640625 
z
M 29.6875 25.390625 
Q 25.78125 18.75 21.09375 8.78125 
Q 16.40625 -1.171875 13.28125 -6.640625 
Q 9.765625 -3.90625 5.078125 -1.953125 
Q 8.984375 2.734375 14.0625 11.71875 
Q 19.140625 20.703125 22.65625 30.46875 
Q 25.78125 27.734375 29.6875 25.390625 
z
M 9.765625 53.90625 
Q 18.75 48.4375 26.953125 42.578125 
Q 23.828125 39.453125 21.484375 35.546875 
Q 14.453125 42.1875 5.078125 46.875 
Q 7.421875 50 9.765625 53.90625 
z
M 14.453125 77.734375 
Q 23.4375 72.265625 29.6875 67.1875 
Q 26.953125 63.671875 24.21875 60.546875 
Q 17.96875 66.796875 9.765625 71.484375 
Q 12.5 75 14.453125 77.734375 
z
" id="SimHei-27969"/>
      <path d="M 82.03125 39.0625 
Q 81.640625 34.375 81.640625 26.5625 
Q 81.640625 19.140625 82.03125 14.84375 
L 53.515625 14.84375 
L 53.515625 9.765625 
L 71.484375 9.765625 
Q 78.125 9.765625 83.984375 10.15625 
L 83.984375 4.296875 
Q 78.515625 4.6875 71.484375 4.6875 
L 53.515625 4.6875 
L 53.515625 -1.171875 
L 80.078125 -1.171875 
Q 86.328125 -1.171875 92.578125 -0.78125 
L 92.578125 -6.640625 
Q 86.328125 -6.25 80.078125 -6.25 
L 19.921875 -6.25 
Q 14.0625 -6.25 7.421875 -6.640625 
L 7.421875 -0.78125 
Q 14.453125 -0.78125 19.921875 -1.171875 
L 46.484375 -1.171875 
L 46.484375 4.6875 
L 26.953125 4.6875 
Q 21.09375 4.6875 15.234375 3.90625 
L 15.234375 10.15625 
Q 21.484375 9.765625 26.953125 9.765625 
L 46.484375 9.765625 
L 46.484375 14.84375 
L 17.96875 14.84375 
Q 18.359375 21.484375 18.359375 27.734375 
Q 18.359375 33.984375 17.96875 39.0625 
L 82.03125 39.0625 
z
M 81.25 77.34375 
Q 80.859375 71.484375 80.859375 66.40625 
Q 80.859375 61.328125 81.25 53.125 
L 18.75 53.125 
Q 19.140625 61.328125 19.140625 66.40625 
Q 19.140625 71.484375 18.75 77.34375 
L 81.25 77.34375 
z
M 76.5625 48.4375 
Q 85.9375 48.828125 93.75 49.21875 
L 93.75 42.96875 
Q 85.9375 43.359375 76.953125 43.359375 
L 25.78125 43.359375 
Q 15.234375 43.359375 5.078125 42.96875 
L 5.078125 49.21875 
Q 15.234375 48.828125 25.78125 48.4375 
z
M 73.828125 57.8125 
L 73.828125 62.890625 
L 26.171875 62.890625 
L 26.171875 57.8125 
z
M 73.828125 67.96875 
L 73.828125 72.65625 
L 26.171875 72.65625 
L 26.171875 67.96875 
z
M 74.21875 29.296875 
L 74.21875 33.984375 
L 53.515625 33.984375 
L 53.515625 29.296875 
z
M 46.484375 29.296875 
L 46.484375 33.984375 
L 25.78125 33.984375 
L 25.78125 29.296875 
z
M 46.484375 19.921875 
L 46.484375 24.21875 
L 25.78125 24.21875 
L 25.78125 19.921875 
z
M 74.21875 19.921875 
L 74.21875 24.21875 
L 53.515625 24.21875 
L 53.515625 19.921875 
z
" id="SimHei-37327"/>
     </defs>
     <g style="fill:#555555;" transform="translate(22.97625 258.948125)rotate(-90)scale(0.15 -0.15)">
      <use xlink:href="#SimHei-27969"/>
      <use x="100" xlink:href="#SimHei-37327"/>
     </g>
    </g>
   </g>
   <g id="line2d_29">
    <path clip-path="url(#pdf8acd5d8e)" d="M 104.29892 414.152213 
L 109.801635 400.209356 
L 115.304351 420.022027 
L 120.807066 434.59425 
L 126.309781 425.737689 
L 131.812496 428.397893 
L 137.315211 433.706063 
L 148.320641 398.548905 
L 153.823356 323.06415 
L 159.326071 299.795986 
L 164.828786 266.956693 
L 170.331501 280.989367 
L 175.834216 319.871817 
L 181.336931 307.709709 
L 186.839646 315.390417 
L 192.342361 325.249703 
L 197.845076 277.644322 
L 203.347791 304.30844 
L 208.850506 257.372513 
L 214.353221 299.221512 
L 219.855936 357.171847 
L 225.358651 395.17617 
L 230.861366 389.24733 
L 236.364081 414.432503 
L 241.866796 414.57678 
L 247.369511 413.271738 
L 252.872226 430.518491 
L 258.374941 427.397308 
L 263.877656 429.007837 
L 269.380371 400.672685 
L 274.883086 356.653842 
L 280.385801 189.960047 
L 285.888516 146.513913 
L 291.391231 141.987436 
L 296.893946 179.483791 
L 302.396661 91.0033 
L 307.899376 148.326349 
L 313.402091 163.185912 
L 318.904806 52.524662 
L 324.407521 144.258964 
L 329.910236 97.0439 
L 335.412951 221.840747 
L 340.915667 225.91986 
L 346.418382 242.623824 
L 351.921097 312.379675 
L 357.423812 396.578422 
L 362.926527 414.91105 
L 368.429242 416.155756 
L 373.931957 410.2132 
L 379.434672 424.899704 
L 384.937387 417.154535 
L 390.440102 425.531684 
L 395.942817 428.769154 
L 401.445532 412.938659 
L 406.948247 332.208103 
L 412.450962 234.380243 
L 417.953677 164.546562 
L 423.456392 163.022291 
L 428.959107 142.559321 
L 439.964537 149.615766 
L 445.467252 211.407378 
L 450.969967 236.054738 
L 456.472682 152.608541 
L 461.975397 143.622795 
L 467.478112 208.377603 
L 472.980827 174.405425 
L 478.483542 210.065043 
L 483.986257 267.265886 
L 489.488972 376.128561 
L 494.991687 374.306472 
L 500.494402 406.213117 
L 505.997117 414.113076 
L 511.499832 423.059086 
L 517.002547 424.987211 
L 522.505262 434.445512 
L 528.007977 435.514602 
L 533.510692 425.98571 
L 539.013407 320.524634 
L 544.516122 202.289139 
L 550.018837 97.453292 
L 555.521552 71.400532 
L 561.024267 145.279592 
L 566.526983 73.30084 
L 572.029698 162.704507 
L 577.532413 164.016932 
L 583.035128 102.230027 
L 588.537843 142.136018 
L 594.040558 52.381648 
L 599.543273 179.621993 
L 605.045988 181.700572 
L 610.548703 252.834633 
L 616.051418 296.215836 
L 621.554133 378.11515 
L 627.056848 413.22031 
L 632.559563 428.849137 
L 638.062278 412.153214 
L 643.564993 428.958698 
L 649.067708 424.388934 
L 654.570423 417.631709 
L 660.073138 422.349024 
L 665.575853 420.872028 
L 671.078568 346.295597 
L 676.581283 174.322216 
L 682.083998 146.016662 
L 687.586713 140.53687 
L 693.089428 144.290364 
L 698.592143 201.725345 
L 704.094858 130.494588 
L 709.597573 97.890099 
L 715.100288 124.426754 
L 720.603003 151.526556 
L 726.105718 56.761926 
L 731.608433 96.280083 
L 737.111148 125.376024 
L 742.613863 229.009775 
L 748.116578 303.495603 
L 753.619293 372.13815 
L 759.122008 398.908821 
L 764.624723 406.930681 
L 770.127438 416.540287 
L 775.630153 434.879751 
L 781.132868 430.113588 
L 786.635583 423.133513 
L 792.138299 422.201573 
L 797.641014 403.388829 
L 803.143729 332.955646 
L 808.646444 171.0663 
L 814.149159 90.305485 
L 819.651874 64.650041 
L 825.154589 127.323728 
L 830.657304 179.033365 
L 836.160019 131.135532 
L 841.662734 174.534645 
L 847.165449 129.100816 
L 852.668164 98.014995 
L 858.170879 94.445586 
L 863.673594 105.75885 
L 869.176309 173.305114 
L 874.679024 165.20186 
L 880.181739 243.086345 
L 885.684454 365.506434 
L 891.187169 407.690933 
L 896.689884 411.134473 
L 902.192599 415.437748 
L 907.695314 416.481667 
L 913.198029 391.687264 
L 918.700744 409.746146 
L 924.203459 425.993356 
L 929.706174 411.411684 
L 935.208889 385.702268 
L 940.711604 275.175047 
L 951.717034 204.245547 
L 957.219749 183.317825 
L 962.722464 250.865828 
L 968.225179 255.888385 
L 973.727894 240.239033 
L 979.230609 190.678439 
L 984.733324 247.493707 
L 990.236039 165.033426 
L 995.738754 225.042157 
L 1001.241469 205.732185 
L 1006.744184 252.796089 
L 1012.246899 323.575662 
L 1017.749615 378.998924 
L 1023.25233 393.301779 
L 1023.25233 393.301779 
" style="fill:none;stroke:#0000ff;stroke-linecap:square;stroke-width:1.5;"/>
   </g>
   <g id="line2d_30">
    <path clip-path="url(#pdf8acd5d8e)" d="M 104.29892 411.078009 
L 109.801635 409.678529 
L 115.304351 410.770991 
L 120.807066 423.580559 
L 126.309781 420.333344 
L 131.812496 426.758952 
L 137.315211 421.88608 
L 142.817926 414.712511 
L 148.320641 379.232765 
L 153.823356 313.384364 
L 159.326071 261.2599 
L 164.828786 252.420626 
L 170.331501 248.114633 
L 175.834216 294.404639 
L 181.336931 313.495965 
L 186.839646 318.409626 
L 192.342361 301.979905 
L 197.845076 276.604473 
L 203.347791 273.367819 
L 208.850506 293.531749 
L 214.353221 301.289224 
L 219.855936 341.220028 
L 225.358651 397.415267 
L 230.861366 418.595638 
L 236.364081 419.053928 
L 241.866796 412.722802 
L 247.369511 417.286601 
L 252.872226 420.999506 
L 258.374941 422.85028 
L 263.877656 427.724085 
L 269.380371 417.332528 
L 274.883086 363.454875 
L 280.385801 248.586334 
L 285.888516 150.230978 
L 291.391231 155.334535 
L 296.893946 159.485848 
L 302.396661 205.907764 
L 307.899376 185.56681 
L 313.402091 184.122317 
L 318.904806 161.309628 
L 324.407521 130.038407 
L 329.910236 131.63146 
L 335.412951 155.914504 
L 340.915667 220.21963 
L 346.418382 272.854578 
L 357.423812 382.460667 
L 362.926527 411.101836 
L 368.429242 418.687538 
L 373.931957 415.933344 
L 379.434672 411.662691 
L 384.937387 425.648643 
L 390.440102 418.861579 
L 395.942817 422.037625 
L 401.445532 410.403393 
L 406.948247 351.898807 
L 412.450962 212.705899 
L 417.953677 146.144442 
L 423.456392 126.09155 
L 428.959107 138.345658 
L 434.461822 151.189991 
L 439.964537 177.02227 
L 445.467252 180.94922 
L 450.969967 154.426052 
L 456.472682 153.151839 
L 461.975397 130.524205 
L 467.478112 148.327757 
L 472.980827 204.71517 
L 478.483542 254.525247 
L 489.488972 374.55649 
L 494.991687 406.717046 
L 500.494402 420.720492 
L 505.997117 412.363692 
L 511.499832 416.435106 
L 517.002547 418.212816 
L 522.505262 422.707175 
L 528.007977 427.448718 
L 533.510692 417.246082 
L 539.013407 362.720841 
L 544.516122 222.824297 
L 550.018837 159.52129 
L 555.521552 133.617892 
L 561.024267 151.057072 
L 566.526983 151.999139 
L 572.029698 176.550343 
L 577.532413 202.66111 
L 583.035128 170.042979 
L 588.537843 131.493687 
L 594.040558 107.420781 
L 599.543273 139.370245 
L 605.045988 212.188782 
L 610.548703 259.076462 
L 616.051418 318.457506 
L 621.554133 376.266404 
L 627.056848 405.64501 
L 632.559563 416.474517 
L 638.062278 413.099215 
L 643.564993 415.852958 
L 649.067708 426.180805 
L 654.570423 421.117682 
L 660.073138 424.31452 
L 665.575853 416.490784 
L 671.078568 362.419611 
L 676.581283 226.744401 
L 682.083998 126.030432 
L 687.586713 131.276155 
L 693.089428 139.049528 
L 698.592143 132.044861 
L 704.094858 179.940455 
L 709.597573 154.876736 
L 715.100288 142.172476 
L 720.603003 140.206238 
L 726.105718 110.989979 
L 731.608433 151.038329 
L 737.111148 172.530577 
L 742.613863 231.373323 
L 748.116578 308.58506 
L 753.619293 382.065084 
L 759.122008 408.713582 
L 764.624723 419.338513 
L 770.127438 420.04454 
L 775.630153 421.643317 
L 781.132868 423.566182 
L 786.635583 424.332955 
L 792.138299 424.954852 
L 797.641014 409.437474 
L 803.143729 356.078673 
L 808.646444 245.098246 
L 814.149159 146.248587 
L 819.651874 128.3129 
L 825.154589 117.52221 
L 830.657304 154.773392 
L 836.160019 176.722483 
L 841.662734 148.321823 
L 847.165449 163.476881 
L 852.668164 127.999785 
L 858.170879 121.436704 
L 863.673594 133.223889 
L 869.176309 172.542524 
L 874.679024 255.987107 
L 880.181739 298.792206 
L 885.684454 360.168337 
L 891.187169 401.450571 
L 896.689884 413.133617 
L 902.192599 414.235186 
L 907.695314 420.117911 
L 913.198029 420.847612 
L 918.700744 419.144031 
L 924.203459 421.551639 
L 929.706174 413.992178 
L 935.208889 385.285649 
L 940.711604 307.406961 
L 946.214319 212.599927 
L 951.717034 194.920896 
L 957.219749 180.740506 
L 962.722464 192.4154 
L 968.225179 243.14903 
L 973.727894 268.061774 
L 979.230609 249.578316 
L 984.733324 233.111498 
L 990.236039 211.697656 
L 995.738754 203.957681 
L 1001.241469 239.365587 
L 1006.744184 259.90576 
L 1012.246899 323.723529 
L 1017.749615 381.788831 
L 1023.25233 409.599109 
L 1023.25233 409.599109 
" style="fill:none;stroke:#ff0000;stroke-linecap:square;stroke-width:1.5;"/>
   </g>
   <g id="line2d_31">
    <path clip-path="url(#pdf8acd5d8e)" d="M 104.29892 413.861567 
L 109.801635 408.232308 
L 115.304351 406.224409 
L 120.807066 420.644704 
L 126.309781 419.367804 
L 131.812496 422.596268 
L 137.315211 424.334061 
L 142.817926 417.230051 
L 148.320641 372.073905 
L 153.823356 298.656996 
L 159.326071 250.625049 
L 164.828786 260.388629 
L 170.331501 260.205764 
L 175.834216 301.596618 
L 181.336931 302.478756 
L 186.839646 314.293785 
L 192.342361 312.495563 
L 197.845076 277.005471 
L 203.347791 278.033346 
L 208.850506 295.841831 
L 214.353221 306.169235 
L 219.855936 337.811558 
L 225.358651 394.437441 
L 230.861366 419.953347 
L 236.364081 417.643731 
L 241.866796 407.274595 
L 247.369511 412.663593 
L 252.872226 418.710143 
L 258.374941 419.192466 
L 263.877656 423.739672 
L 269.380371 418.697774 
L 274.883086 367.301808 
L 280.385801 242.863777 
L 285.888516 143.901885 
L 291.391231 167.429896 
L 296.893946 162.049971 
L 302.396661 193.504332 
L 307.899376 186.054768 
L 313.402091 170.833547 
L 318.904806 163.280175 
L 324.407521 135.461317 
L 329.910236 131.579323 
L 335.412951 143.947128 
L 340.915667 210.76097 
L 346.418382 280.000775 
L 351.921097 313.906003 
L 357.423812 375.395425 
L 362.926527 411.416363 
L 368.429242 419.977683 
L 373.931957 415.21161 
L 379.434672 407.924226 
L 384.937387 425.069972 
L 390.440102 416.263456 
L 395.942817 417.92903 
L 401.445532 411.157987 
L 406.948247 359.713538 
L 412.450962 208.911173 
L 417.953677 154.322 
L 423.456392 133.473381 
L 428.959107 147.905019 
L 434.461822 147.400486 
L 439.964537 173.255757 
L 445.467252 171.575988 
L 450.969967 145.608901 
L 456.472682 161.959597 
L 461.975397 127.741496 
L 467.478112 165.360783 
L 472.980827 210.444559 
L 478.483542 239.203448 
L 483.986257 308.731456 
L 489.488972 365.250527 
L 494.991687 410.628046 
L 500.494402 419.18459 
L 505.997117 406.647713 
L 511.499832 415.568617 
L 517.002547 420.308664 
L 522.505262 420.097204 
L 528.007977 427.691424 
L 533.510692 417.961594 
L 539.013407 369.039771 
L 544.516122 224.329656 
L 550.018837 156.129156 
L 555.521552 128.380284 
L 561.024267 131.262748 
L 566.526983 156.379343 
L 572.029698 178.088773 
L 577.532413 201.137919 
L 583.035128 181.800978 
L 588.537843 134.16461 
L 594.040558 119.027521 
L 599.543273 132.790072 
L 605.045988 195.98985 
L 610.548703 254.240193 
L 616.051418 303.819047 
L 621.554133 371.328402 
L 627.056848 400.31018 
L 632.559563 414.677556 
L 638.062278 413.095959 
L 643.564993 412.787604 
L 649.067708 429.601122 
L 654.570423 419.694525 
L 660.073138 424.06167 
L 665.575853 417.623236 
L 671.078568 371.434091 
L 676.581283 227.937336 
L 682.083998 124.199484 
L 687.586713 123.330735 
L 693.089428 157.298445 
L 698.592143 141.496737 
L 704.094858 175.483456 
L 709.597573 157.275348 
L 715.100288 143.19559 
L 720.603003 136.527586 
L 726.105718 107.756418 
L 731.608433 147.444468 
L 737.111148 162.294835 
L 742.613863 217.050816 
L 748.116578 293.171842 
L 753.619293 377.227523 
L 759.122008 410.301794 
L 764.624723 418.80004 
L 770.127438 416.02836 
L 775.630153 421.217736 
L 781.132868 420.628568 
L 786.635583 420.538932 
L 792.138299 419.428657 
L 797.641014 412.161372 
L 803.143729 362.742691 
L 808.646444 234.924773 
L 814.149159 133.476018 
L 819.651874 114.703201 
L 825.154589 120.809399 
L 830.657304 148.809139 
L 836.160019 181.904826 
L 841.662734 147.63628 
L 847.165449 164.716969 
L 852.668164 138.006282 
L 858.170879 113.740458 
L 863.673594 134.592126 
L 869.176309 183.711902 
L 874.679024 247.210283 
L 880.181739 286.936969 
L 885.684454 352.182321 
L 891.187169 397.744939 
L 896.689884 418.485231 
L 902.192599 410.705012 
L 907.695314 417.239423 
L 913.198029 419.814497 
L 918.700744 412.573532 
L 924.203459 422.348837 
L 929.706174 416.653064 
L 935.208889 392.113151 
L 940.711604 309.782251 
L 946.214319 222.54992 
L 951.717034 190.485927 
L 957.219749 185.538448 
L 962.722464 206.033714 
L 968.225179 244.679818 
L 973.727894 256.228665 
L 979.230609 239.222063 
L 984.733324 240.180943 
L 990.236039 209.309442 
L 995.738754 202.349805 
L 1001.241469 238.815445 
L 1006.744184 260.459677 
L 1012.246899 315.877967 
L 1017.749615 378.50189 
L 1023.25233 410.908193 
L 1023.25233 410.908193 
" style="fill:none;stroke:#ffa500;stroke-linecap:square;stroke-width:1.5;"/>
   </g>
   <g id="line2d_32">
    <path clip-path="url(#pdf8acd5d8e)" d="M 104.29892 408.288075 
L 109.801635 406.965266 
L 115.304351 409.896092 
L 120.807066 426.041642 
L 126.309781 422.524279 
L 131.812496 427.657707 
L 137.315211 422.282356 
L 142.817926 414.549675 
L 148.320641 376.007952 
L 153.823356 307.690068 
L 159.326071 258.102665 
L 164.828786 252.29095 
L 170.331501 263.131697 
L 175.834216 316.901926 
L 181.336931 309.041753 
L 186.839646 311.130117 
L 192.342361 298.856196 
L 197.845076 277.593335 
L 203.347791 280.786272 
L 208.850506 293.095967 
L 214.353221 308.293909 
L 219.855936 341.202718 
L 225.358651 393.67266 
L 230.861366 414.289502 
L 236.364081 412.453032 
L 241.866796 402.371662 
L 247.369511 415.871581 
L 252.872226 423.181576 
L 258.374941 418.416645 
L 263.877656 425.419857 
L 269.380371 420.771021 
L 274.883086 361.728554 
L 280.385801 242.8323 
L 285.888516 129.614939 
L 291.391231 151.783832 
L 296.893946 157.890295 
L 302.396661 194.025603 
L 307.899376 178.023022 
L 313.402091 168.252783 
L 318.904806 148.746662 
L 324.407521 112.164431 
L 329.910236 113.182001 
L 335.412951 142.320646 
L 340.915667 202.812586 
L 346.418382 270.437975 
L 351.921097 329.875686 
L 357.423812 377.730277 
L 362.926527 407.159287 
L 368.429242 415.582545 
L 373.931957 412.522838 
L 379.434672 406.902094 
L 384.937387 431.309834 
L 390.440102 424.302625 
L 395.942817 421.053055 
L 401.445532 407.311708 
L 406.948247 350.814398 
L 412.450962 208.75133 
L 417.953677 138.978657 
L 423.456392 120.71194 
L 428.959107 129.5664 
L 434.461822 146.388863 
L 439.964537 189.54702 
L 445.467252 173.246288 
L 450.969967 149.686406 
L 456.472682 155.302146 
L 461.975397 135.628771 
L 467.478112 151.040347 
L 472.980827 195.424075 
L 478.483542 244.413092 
L 483.986257 320.64878 
L 489.488972 370.565546 
L 494.991687 404.951438 
L 500.494402 413.398965 
L 505.997117 405.07008 
L 511.499832 416.865255 
L 517.002547 422.900481 
L 522.505262 422.609345 
L 528.007977 425.222547 
L 533.510692 417.394369 
L 539.013407 364.091251 
L 544.516122 218.684461 
L 550.018837 132.287247 
L 555.521552 130.357539 
L 561.024267 128.27817 
L 566.526983 148.979093 
L 572.029698 176.666519 
L 577.532413 184.923677 
L 583.035128 152.349975 
L 588.537843 114.290021 
L 594.040558 107.351003 
L 599.543273 134.9947 
L 605.045988 199.861946 
L 610.548703 259.099576 
L 616.051418 309.180268 
L 621.554133 370.751884 
L 627.056848 400.570032 
L 632.559563 410.059231 
L 638.062278 408.903831 
L 643.564993 414.693998 
L 649.067708 425.499391 
L 654.570423 423.775831 
L 660.073138 423.959887 
L 665.575853 415.942637 
L 671.078568 359.613465 
L 676.581283 221.125294 
L 682.083998 109.527813 
L 687.586713 117.437658 
L 693.089428 139.873999 
L 698.592143 130.820365 
L 704.094858 171.002324 
L 709.597573 150.666781 
L 715.100288 140.336426 
L 720.603003 125.655601 
L 726.105718 93.009594 
L 731.608433 145.782721 
L 737.111148 160.64654 
L 748.116578 294.42117 
L 753.619293 373.23884 
L 759.122008 401.821601 
L 764.624723 418.202082 
L 770.127438 416.817252 
L 775.630153 422.819952 
L 781.132868 426.503545 
L 786.635583 423.638121 
L 792.138299 423.565268 
L 797.641014 410.948984 
L 803.143729 354.136152 
L 808.646444 235.159049 
L 814.149159 122.226547 
L 819.651874 110.784818 
L 825.154589 102.010348 
L 830.657304 139.318272 
L 836.160019 173.448883 
L 841.662734 132.012428 
L 847.165449 150.024405 
L 852.668164 127.880273 
L 858.170879 98.100558 
L 863.673594 113.399768 
L 869.176309 169.652299 
L 874.679024 248.060448 
L 880.181739 291.307351 
L 885.684454 355.534309 
L 891.187169 394.247902 
L 896.689884 405.806494 
L 902.192599 410.654457 
L 907.695314 423.748079 
L 913.198029 419.621221 
L 918.700744 417.460906 
L 924.203459 423.15107 
L 929.706174 411.068394 
L 935.208889 390.977171 
L 940.711604 310.234294 
L 946.214319 205.930936 
L 951.717034 176.284922 
L 957.219749 182.054072 
L 962.722464 206.649081 
L 968.225179 229.107572 
L 973.727894 258.75555 
L 979.230609 237.416053 
L 984.733324 233.449502 
L 990.236039 214.820648 
L 995.738754 198.169819 
L 1001.241469 236.106483 
L 1006.744184 264.973242 
L 1012.246899 328.856103 
L 1017.749615 377.122582 
L 1023.25233 407.201059 
L 1023.25233 407.201059 
" style="fill:none;stroke:#008000;stroke-linecap:square;stroke-width:1.5;"/>
   </g>
   <g id="patch_3">
    <path d="M 58.35125 454.67125 
L 58.35125 33.225 
" style="fill:none;stroke:#ffffff;stroke-linecap:square;stroke-linejoin:miter;"/>
   </g>
   <g id="patch_4">
    <path d="M 1069.2 454.67125 
L 1069.2 33.225 
" style="fill:none;stroke:#ffffff;stroke-linecap:square;stroke-linejoin:miter;"/>
   </g>
   <g id="patch_5">
    <path d="M 58.35125 454.67125 
L 1069.2 454.67125 
" style="fill:none;stroke:#ffffff;stroke-linecap:square;stroke-linejoin:miter;"/>
   </g>
   <g id="patch_6">
    <path d="M 58.35125 33.225 
L 1069.2 33.225 
" style="fill:none;stroke:#ffffff;stroke-linecap:square;stroke-linejoin:miter;"/>
   </g>
   <g id="text_17">
    <!-- 预测值、实际值分布图 ID=200  -->
    <defs>
     <path d="M 81.25 75 
Q 87.109375 75 92.96875 75.390625 
L 92.96875 68.75 
Q 87.109375 69.140625 81.25 69.140625 
L 70.3125 69.140625 
Q 69.140625 63.28125 67.96875 56.25 
L 89.453125 56.25 
Q 89.0625 50.390625 89.0625 43.75 
L 89.0625 26.953125 
Q 89.0625 20.3125 89.453125 13.28125 
L 82.03125 13.28125 
L 82.03125 50.390625 
L 55.46875 50.390625 
L 55.46875 12.5 
L 48.046875 12.5 
Q 48.4375 21.484375 48.4375 26.953125 
L 48.4375 43.359375 
Q 48.4375 49.609375 48.046875 56.25 
L 60.9375 56.25 
Q 62.5 64.84375 62.5 69.140625 
L 58.203125 69.140625 
Q 51.5625 69.140625 44.53125 68.75 
L 44.53125 75.390625 
Q 51.953125 75 58.203125 75 
z
M 40.625 27.734375 
Q 36.71875 28.515625 33.59375 28.515625 
Q 35.15625 35.15625 35.9375 38.28125 
L 27.34375 38.28125 
L 27.34375 1.953125 
Q 26.953125 -4.6875 22.265625 -6.25 
Q 17.578125 -7.8125 11.71875 -7.8125 
Q 10.9375 -3.515625 8.984375 0.390625 
Q 17.578125 -0.390625 18.9375 0.578125 
Q 20.3125 1.5625 20.3125 5.46875 
L 20.3125 38.28125 
L 16.015625 38.28125 
Q 10.9375 38.28125 5.46875 37.890625 
L 5.46875 44.53125 
Q 10.9375 44.140625 15.625 44.140625 
L 44.53125 44.140625 
Q 42.578125 36.328125 40.625 27.734375 
z
M 73.828125 44.921875 
Q 72.265625 40.234375 71.875 32.8125 
Q 71.484375 25.390625 69.71875 16.203125 
Q 67.96875 7.03125 61.90625 0.96875 
Q 55.859375 -5.078125 45.703125 -10.546875 
Q 42.1875 -7.8125 38.671875 -5.46875 
Q 48.046875 -1.953125 53.703125 3.125 
Q 59.375 8.203125 61.71875 14.640625 
Q 64.0625 21.09375 64.640625 28.90625 
Q 65.234375 36.71875 65.234375 45.703125 
L 73.828125 44.921875 
z
M 25.390625 45.3125 
Q 19.921875 51.171875 12.5 57.03125 
Q 14.453125 58.984375 16.796875 61.71875 
Q 19.53125 59.765625 22.265625 57.421875 
Q 27.34375 64.84375 30.46875 68.359375 
L 21.875 68.359375 
Q 14.0625 68.359375 7.03125 67.96875 
L 7.03125 74.609375 
Q 14.0625 74.21875 21.484375 74.21875 
L 40.234375 74.21875 
L 40.234375 68.359375 
Q 34.375 64.0625 26.953125 53.125 
L 30.46875 50 
Q 27.34375 47.265625 25.390625 45.3125 
z
M 74.609375 11.328125 
Q 89.453125 0 94.921875 -5.078125 
Q 91.40625 -7.8125 89.453125 -10.15625 
Q 84.375 -5.078125 80.265625 -1.359375 
Q 76.171875 2.34375 70.703125 5.46875 
Q 72.65625 8.203125 74.609375 11.328125 
z
" id="SimHei-39044"/>
     <path d="M 62.890625 73.828125 
Q 62.5 69.921875 62.5 62.5 
L 62.5 34.765625 
Q 62.5 27.734375 62.890625 21.09375 
L 55.46875 21.09375 
L 55.46875 67.578125 
L 36.71875 67.578125 
L 36.71875 20.703125 
L 29.6875 20.703125 
Q 30.078125 27.734375 30.078125 34.765625 
L 30.078125 62.5 
Q 30.078125 65.625 29.6875 73.828125 
L 62.890625 73.828125 
z
M 92.1875 79.296875 
Q 91.796875 75 91.796875 68.359375 
L 91.796875 0 
Q 91.796875 -5.078125 88.28125 -6.640625 
Q 84.765625 -8.203125 77.734375 -9.375 
Q 76.953125 -5.078125 74.609375 -0.78125 
Q 80.078125 -0.78125 82.21875 -0.390625 
Q 84.375 0 84.375 3.90625 
L 84.375 68.359375 
Q 84.375 74.609375 83.984375 79.296875 
L 92.1875 79.296875 
z
M 51.171875 58.203125 
Q 50.390625 53.125 50 36.328125 
Q 49.609375 19.53125 44.328125 8.59375 
Q 39.0625 -2.34375 32.421875 -9.375 
Q 28.90625 -6.25 25 -5.078125 
Q 34.375 3.90625 38.671875 15.03125 
Q 42.96875 26.171875 43.15625 38.671875 
Q 43.359375 51.171875 42.578125 59.375 
Q 46.875 58.59375 51.171875 58.203125 
z
M 77.34375 66.796875 
Q 76.953125 62.5 76.953125 55.859375 
L 76.953125 28.515625 
Q 76.953125 20.3125 77.34375 13.28125 
L 69.53125 13.28125 
Q 69.921875 17.96875 69.921875 28.515625 
L 69.921875 55.859375 
Q 69.921875 62.5 69.53125 66.796875 
L 77.34375 66.796875 
z
M 26.5625 26.171875 
Q 21.484375 16.796875 17.375 7.609375 
Q 13.28125 -1.5625 11.328125 -6.25 
Q 7.8125 -3.125 3.125 -0.390625 
Q 7.421875 4.6875 11.90625 13.28125 
Q 16.40625 21.875 19.53125 31.25 
Q 23.046875 28.515625 26.5625 26.171875 
z
M 53.125 16.40625 
Q 59.375 10.15625 67.1875 -1.953125 
Q 64.0625 -3.515625 60.546875 -7.03125 
Q 54.296875 4.296875 47.265625 11.71875 
Q 50.390625 13.671875 53.125 16.40625 
z
M 9.375 55.078125 
Q 17.578125 48.828125 23.4375 43.359375 
Q 20.3125 40.234375 17.96875 37.109375 
Q 12.890625 43.359375 4.6875 49.21875 
Q 7.03125 51.5625 9.375 55.078125 
z
M 21.09375 62.5 
Q 14.84375 68.359375 7.421875 73.046875 
Q 9.765625 75.78125 12.109375 78.90625 
Q 20.3125 73.4375 26.171875 68.359375 
Q 23.4375 66.40625 21.09375 62.5 
z
" id="SimHei-27979"/>
     <path d="M 57.421875 69.53125 
L 57.421875 79.6875 
Q 62.109375 79.296875 67.96875 78.90625 
Q 66.015625 76.171875 65.625 69.53125 
L 80.078125 69.53125 
Q 86.71875 69.53125 91.796875 69.921875 
L 91.796875 62.890625 
Q 86.328125 63.28125 80.078125 63.28125 
L 65.234375 63.28125 
L 64.453125 54.6875 
L 84.375 54.6875 
Q 83.984375 50 83.984375 42.1875 
L 83.984375 2.34375 
Q 91.796875 2.34375 95.3125 2.734375 
L 95.3125 -4.296875 
Q 90.234375 -3.90625 81.25 -3.90625 
L 44.53125 -3.90625 
Q 35.546875 -3.90625 29.6875 -4.296875 
L 29.6875 2.734375 
Q 33.203125 2.34375 40.625 2.34375 
L 40.625 42.1875 
Q 40.625 49.609375 40.234375 54.6875 
L 56.25 54.6875 
L 57.03125 63.28125 
L 50 63.28125 
Q 40.234375 63.28125 34.765625 62.890625 
L 34.765625 69.921875 
Q 39.84375 69.53125 50 69.53125 
z
M 34.765625 76.5625 
Q 31.640625 73.046875 25.78125 58.59375 
L 25.78125 7.03125 
Q 25.78125 -1.171875 26.171875 -8.59375 
L 17.96875 -8.59375 
Q 18.359375 -1.953125 18.359375 5.859375 
L 18.359375 46.09375 
Q 13.671875 38.28125 9.765625 33.59375 
Q 6.640625 37.890625 3.90625 40.234375 
Q 7.8125 44.140625 14.640625 55.265625 
Q 21.484375 66.40625 25.390625 80.46875 
Q 30.859375 77.734375 34.765625 76.5625 
z
M 76.953125 41.40625 
L 76.953125 49.21875 
L 48.046875 49.21875 
L 48.046875 41.40625 
z
M 76.953125 2.34375 
L 76.953125 9.765625 
L 48.046875 9.765625 
L 48.046875 2.34375 
z
M 76.953125 15.625 
L 76.953125 22.65625 
L 48.046875 22.65625 
L 48.046875 15.625 
z
M 76.953125 28.515625 
L 76.953125 35.546875 
L 48.046875 35.546875 
L 48.046875 28.515625 
z
" id="SimHei-20540"/>
     <path d="M 26.953125 -4.296875 
Q 20.703125 10.9375 14.453125 22.65625 
L 20.703125 25.78125 
Q 28.515625 14.84375 36.328125 0.390625 
z
" id="SimHei-12289"/>
     <path d="M 64.453125 54.6875 
Q 63.28125 50 62.5 41.796875 
Q 61.71875 33.59375 60.15625 24.21875 
L 78.515625 24.21875 
Q 85.546875 24.21875 93.359375 24.609375 
L 93.359375 17.1875 
Q 85.15625 17.578125 78.125 17.578125 
L 58.203125 17.578125 
Q 54.6875 9.765625 47.65625 3.90625 
Q 40.625 -1.953125 31.25 -5.265625 
Q 21.875 -8.59375 14.453125 -10.546875 
Q 12.890625 -5.859375 7.8125 -3.125 
Q 19.140625 -1.953125 32.03125 3.3125 
Q 44.921875 8.59375 50 17.578125 
L 22.265625 17.578125 
Q 15.234375 17.578125 6.640625 17.1875 
L 6.640625 24.609375 
Q 15.625 24.21875 22.265625 24.21875 
L 52.734375 24.21875 
Q 53.90625 30.859375 54.484375 38.46875 
Q 55.078125 46.09375 54.6875 57.03125 
Q 59.375 55.46875 64.453125 54.6875 
z
M 50.78125 82.03125 
Q 53.90625 75.78125 56.25 68.359375 
L 90.234375 68.359375 
Q 89.84375 64.0625 89.84375 59.765625 
Q 89.84375 55.859375 90.234375 51.171875 
L 81.25 51.171875 
L 81.25 62.109375 
L 19.140625 62.109375 
L 19.140625 50.390625 
L 10.546875 50.390625 
Q 10.9375 55.078125 10.9375 59.375 
Q 10.9375 64.0625 10.546875 68.359375 
L 46.484375 68.359375 
Q 45.3125 73.046875 42.1875 79.296875 
Q 45.3125 80.46875 50.78125 82.03125 
z
M 62.5 12.890625 
Q 71.09375 8.203125 78.90625 4.09375 
Q 86.71875 0 92.578125 -3.515625 
Q 89.84375 -6.640625 86.71875 -10.15625 
Q 79.6875 -5.078125 71.484375 -0.578125 
Q 63.28125 3.90625 57.421875 6.25 
Q 60.546875 10.15625 62.5 12.890625 
z
M 18.359375 42.96875 
Q 25 39.84375 36.71875 32.03125 
Q 35.15625 29.6875 32.03125 25.78125 
Q 21.09375 33.984375 14.453125 36.71875 
Q 16.796875 39.0625 18.359375 42.96875 
z
M 49.21875 44.140625 
Q 46.484375 41.015625 44.53125 37.890625 
Q 32.03125 46.875 26.171875 48.828125 
Q 28.125 51.5625 30.46875 55.078125 
z
" id="SimHei-23454"/>
     <path d="M 39.0625 76.5625 
Q 37.890625 73.4375 35.15625 64.0625 
Q 32.421875 54.6875 29.296875 45.3125 
Q 34.375 37.5 36.125 32.03125 
Q 37.890625 26.5625 36.90625 22.0625 
Q 35.9375 17.578125 31.4375 14.25 
Q 26.953125 10.9375 21.09375 10.15625 
Q 19.140625 16.40625 17.578125 19.140625 
Q 26.171875 19.140625 27.921875 22.0625 
Q 29.6875 25 28.703125 29.09375 
Q 27.734375 33.203125 25.96875 37.109375 
Q 24.21875 41.015625 21.09375 44.921875 
Q 23.046875 50.390625 25 57.03125 
Q 26.953125 63.671875 28.90625 69.921875 
L 16.015625 69.921875 
L 16.015625 -8.203125 
L 7.8125 -8.203125 
Q 8.203125 2.734375 8.203125 13.28125 
L 8.203125 59.765625 
Q 8.203125 68.359375 7.8125 76.5625 
L 39.0625 76.5625 
z
M 82.03125 51.5625 
Q 88.28125 51.5625 94.53125 51.953125 
L 94.53125 44.53125 
Q 89.453125 44.921875 83.203125 44.921875 
L 70.3125 44.921875 
L 70.3125 1.171875 
Q 70.3125 -5.078125 66.015625 -6.046875 
Q 61.71875 -7.03125 54.296875 -8.203125 
Q 53.90625 -3.515625 51.171875 1.171875 
Q 58.984375 1.171875 60.734375 1.5625 
Q 62.5 1.953125 62.5 4.296875 
L 62.5 44.921875 
L 52.734375 44.921875 
Q 44.140625 44.921875 38.671875 44.53125 
L 38.671875 51.953125 
Q 47.265625 51.5625 52.734375 51.5625 
z
M 77.734375 74.609375 
Q 83.984375 74.609375 88.671875 75.390625 
L 88.671875 67.96875 
Q 83.984375 68.359375 77.734375 68.359375 
L 57.03125 68.359375 
Q 50.390625 68.359375 45.3125 67.96875 
L 45.3125 75.390625 
Q 50 74.609375 57.8125 74.609375 
z
M 33.59375 3.125 
Q 38.28125 10.9375 41.59375 18.546875 
Q 44.921875 26.171875 47.65625 33.984375 
Q 50.78125 32.8125 55.859375 30.46875 
Q 51.953125 23.4375 48.625 15.625 
Q 45.3125 7.8125 41.40625 -0.390625 
Q 38.28125 1.171875 33.59375 3.125 
z
M 82.421875 34.375 
Q 92.1875 15.234375 96.875 5.46875 
Q 92.96875 3.90625 88.671875 1.5625 
Q 82.8125 16.015625 75 30.078125 
Q 77.34375 31.25 82.421875 34.375 
z
" id="SimHei-38469"/>
     <path d="M 15.625 -10.15625 
Q 12.890625 -5.859375 8.984375 -3.515625 
Q 15.234375 -1.171875 20.3125 2.140625 
Q 25.390625 5.46875 29.296875 10.34375 
Q 33.203125 15.234375 35.15625 21.09375 
Q 37.109375 26.953125 37.890625 35.546875 
Q 28.90625 35.546875 23.4375 35.15625 
L 23.4375 43.359375 
Q 29.6875 42.96875 39.453125 42.96875 
L 78.515625 42.96875 
Q 77.734375 37.109375 77.34375 32.8125 
L 74.21875 3.90625 
Q 73.4375 -3.125 67.96875 -5.46875 
Q 62.5 -7.8125 55.859375 -8.203125 
Q 55.46875 -4.296875 51.953125 0.78125 
Q 60.15625 0.390625 63.078125 1.359375 
Q 66.015625 2.34375 66.796875 8.203125 
L 69.53125 35.546875 
L 46.09375 35.546875 
Q 44.921875 25.390625 42.765625 18.546875 
Q 40.625 11.71875 36.71875 6.640625 
Q 32.8125 1.5625 27.34375 -2.734375 
Q 21.875 -7.03125 15.625 -10.15625 
z
M 61.71875 80.859375 
Q 64.453125 72.65625 72.84375 62.109375 
Q 81.25 51.5625 96.484375 43.75 
Q 93.359375 41.015625 90.234375 35.546875 
Q 83.203125 40.625 77.921875 45.109375 
Q 72.65625 49.609375 69.140625 53.515625 
Q 65.625 57.421875 61.328125 64.640625 
Q 57.03125 71.875 54.296875 78.125 
Q 58.59375 79.296875 61.71875 80.859375 
z
M 42.1875 75.390625 
Q 38.671875 69.140625 36.328125 64.453125 
Q 33.984375 59.765625 31.640625 56.046875 
Q 29.296875 52.34375 24.609375 46.09375 
Q 19.921875 39.84375 13.28125 33.203125 
Q 9.765625 36.71875 6.25 38.671875 
Q 14.0625 45.703125 18.546875 51.5625 
Q 23.046875 57.421875 27.140625 64.25 
Q 31.25 71.09375 34.375 79.296875 
Q 37.5 76.953125 42.1875 75.390625 
z
" id="SimHei-20998"/>
     <path d="M 37.109375 66.015625 
Q 41.40625 74.609375 43.359375 82.8125 
Q 48.828125 80.859375 53.125 79.296875 
Q 51.171875 77.734375 46.09375 66.015625 
L 75 66.015625 
Q 86.71875 66.015625 94.140625 66.40625 
L 94.140625 59.375 
L 42.578125 59.375 
Q 36.328125 48.4375 30.859375 41.796875 
L 51.171875 41.796875 
Q 51.171875 50.390625 50.78125 55.859375 
L 58.984375 55.859375 
Q 58.59375 50.390625 58.59375 41.796875 
L 85.9375 41.796875 
Q 85.546875 34.765625 85.546875 27.734375 
L 85.546875 11.71875 
Q 85.546875 4.296875 81.4375 2.34375 
Q 77.34375 0.390625 69.53125 -0.390625 
Q 68.75 5.078125 66.015625 8.59375 
Q 75 8.59375 76.75 9.765625 
Q 78.515625 10.9375 78.125 16.015625 
L 78.125 35.15625 
L 58.59375 35.15625 
L 58.59375 8.59375 
Q 58.59375 0.390625 58.984375 -9.375 
L 50.78125 -9.375 
Q 51.171875 0.390625 51.171875 8.59375 
L 51.171875 35.15625 
L 32.8125 35.15625 
L 32.8125 0 
L 25 0 
Q 25.390625 8.203125 25.390625 16.015625 
L 25.390625 34.765625 
Q 20.3125 28.90625 10.15625 19.921875 
Q 7.421875 23.046875 3.125 25.78125 
Q 11.71875 31.640625 19.71875 40.03125 
Q 27.734375 48.4375 33.59375 59.375 
L 24.21875 59.375 
Q 14.453125 59.375 6.25 58.984375 
L 6.25 66.40625 
Q 14.453125 66.015625 24.21875 66.015625 
z
" id="SimHei-24067"/>
     <path d="M 90.625 77.734375 
Q 90.234375 67.96875 90.234375 56.25 
L 90.234375 14.453125 
Q 90.234375 2.34375 90.625 -9.375 
L 82.8125 -9.375 
L 82.8125 -4.296875 
L 17.578125 -4.296875 
L 17.578125 -10.15625 
L 9.765625 -10.15625 
Q 10.15625 1.953125 10.15625 14.84375 
L 10.15625 56.25 
Q 10.15625 67.578125 9.765625 77.734375 
L 90.625 77.734375 
z
M 82.8125 2.34375 
L 82.8125 71.484375 
L 17.578125 71.484375 
L 17.578125 2.34375 
z
M 50.390625 66.40625 
Q 48.046875 64.0625 46.09375 61.328125 
L 72.265625 61.328125 
Q 70.703125 57.8125 67.1875 52.734375 
Q 63.671875 47.65625 56.25 40.625 
Q 67.96875 34.765625 79.296875 33.59375 
Q 76.5625 30.078125 74.609375 26.171875 
Q 60.15625 30.46875 50.390625 36.71875 
Q 39.0625 29.296875 26.171875 25.78125 
Q 25 29.296875 21.875 32.421875 
Q 34.375 34.375 44.921875 40.625 
Q 39.453125 45.703125 37.109375 49.21875 
Q 33.59375 45.3125 29.6875 41.40625 
Q 26.953125 44.53125 23.828125 46.09375 
Q 30.46875 51.5625 35.15625 58.390625 
Q 39.84375 65.234375 41.796875 69.921875 
Q 45.703125 67.96875 50.390625 66.40625 
z
M 38.28125 19.921875 
Q 55.46875 14.84375 64.0625 11.328125 
Q 62.109375 8.203125 60.15625 4.6875 
Q 44.140625 11.328125 35.546875 13.28125 
Q 37.109375 16.40625 38.28125 19.921875 
z
M 45.703125 32.03125 
Q 58.984375 26.5625 63.671875 25 
Q 61.71875 21.875 60.15625 17.96875 
Q 46.875 24.21875 42.1875 25.78125 
Q 44.140625 28.515625 45.703125 32.03125 
z
M 41.015625 53.90625 
Q 46.875 47.265625 51.171875 44.53125 
Q 56.25 48.4375 60.546875 55.078125 
L 41.796875 55.078125 
L 41.015625 53.90625 
z
" id="SimHei-22270"/>
     <path id="SimHei-32"/>
     <path d="M 28.90625 1.953125 
L 19.921875 1.953125 
L 19.921875 68.75 
L 28.90625 68.75 
z
" id="SimHei-73"/>
     <path d="M 45.703125 35.15625 
Q 45.703125 17.1875 38.078125 9.5625 
Q 30.46875 1.953125 17.578125 1.953125 
L 4.296875 1.953125 
L 4.296875 68.75 
L 17.578125 68.75 
Q 32.03125 68.75 38.859375 60.9375 
Q 45.703125 53.125 45.703125 35.15625 
z
M 36.328125 35.15625 
Q 36.328125 49.609375 31.640625 55.46875 
Q 26.953125 61.328125 17.578125 61.328125 
L 13.28125 61.328125 
L 13.28125 9.375 
L 17.578125 9.375 
Q 26.953125 9.375 31.640625 15.03125 
Q 36.328125 20.703125 36.328125 35.15625 
z
" id="SimHei-68"/>
     <path d="M 46.484375 45.3125 
L 1.953125 45.3125 
L 1.953125 51.5625 
L 46.484375 51.5625 
z
M 46.484375 21.484375 
L 1.953125 21.484375 
L 1.953125 27.734375 
L 46.484375 27.734375 
z
" id="SimHei-61"/>
    </defs>
    <g transform="translate(423.775625 27.225)scale(0.2 -0.2)">
     <use xlink:href="#SimHei-39044"/>
     <use x="100" xlink:href="#SimHei-27979"/>
     <use x="200" xlink:href="#SimHei-20540"/>
     <use x="300" xlink:href="#SimHei-12289"/>
     <use x="400" xlink:href="#SimHei-23454"/>
     <use x="500" xlink:href="#SimHei-38469"/>
     <use x="600" xlink:href="#SimHei-20540"/>
     <use x="700" xlink:href="#SimHei-20998"/>
     <use x="800" xlink:href="#SimHei-24067"/>
     <use x="900" xlink:href="#SimHei-22270"/>
     <use x="1000" xlink:href="#SimHei-32"/>
     <use x="1050" xlink:href="#SimHei-73"/>
     <use x="1100" xlink:href="#SimHei-68"/>
     <use x="1150" xlink:href="#SimHei-61"/>
     <use x="1200" xlink:href="#SimHei-50"/>
     <use x="1250" xlink:href="#SimHei-48"/>
     <use x="1300" xlink:href="#SimHei-48"/>
     <use x="1350" xlink:href="#SimHei-32"/>
    </g>
   </g>
   <g id="legend_1">
    <g id="patch_7">
     <path d="M 68.85125 126.353906 
L 266.85125 126.353906 
Q 269.85125 126.353906 269.85125 123.353906 
L 269.85125 43.725 
Q 269.85125 40.725 266.85125 40.725 
L 68.85125 40.725 
Q 65.85125 40.725 65.85125 43.725 
L 65.85125 123.353906 
Q 65.85125 126.353906 68.85125 126.353906 
z
" style="fill:#e5e5e5;opacity:0.8;stroke:#cccccc;stroke-linejoin:miter;stroke-width:0.5;"/>
    </g>
    <g id="line2d_33">
     <path d="M 71.85125 53.486719 
L 101.85125 53.486719 
" style="fill:none;stroke:#0000ff;stroke-linecap:square;stroke-width:1.5;"/>
    </g>
    <g id="line2d_34"/>
    <g id="text_18">
     <!-- 真实值 -->
     <defs>
      <path d="M 55.46875 79.6875 
Q 53.90625 76.953125 53.125 72.265625 
L 75.78125 72.265625 
Q 80.859375 72.265625 89.453125 72.65625 
L 89.453125 66.40625 
Q 81.25 66.796875 75.78125 66.796875 
L 52.34375 66.796875 
L 51.5625 60.15625 
L 78.90625 60.15625 
Q 78.515625 55.46875 78.515625 49.21875 
L 78.515625 16.796875 
L 84.375 16.796875 
Q 90.625 16.796875 94.921875 17.1875 
L 94.921875 9.765625 
Q 87.109375 10.15625 76.5625 10.15625 
L 22.65625 10.15625 
Q 12.109375 10.15625 5.46875 9.765625 
L 5.46875 17.1875 
Q 11.328125 16.796875 17.1875 16.796875 
L 22.265625 16.796875 
L 22.265625 48.046875 
Q 22.265625 53.90625 21.875 60.15625 
L 44.140625 60.15625 
L 44.53125 66.796875 
L 21.875 66.796875 
Q 16.40625 66.796875 9.765625 66.40625 
L 9.765625 72.65625 
Q 18.359375 72.265625 21.484375 72.265625 
L 45.703125 72.265625 
Q 46.09375 76.171875 46.09375 80.078125 
Q 51.5625 79.6875 55.46875 79.6875 
z
M 63.671875 8.203125 
Q 70.3125 6.640625 76.953125 3.90625 
Q 83.59375 1.171875 91.015625 -2.34375 
Q 86.71875 -6.640625 85.15625 -8.984375 
Q 78.515625 -4.6875 71.09375 -1.5625 
Q 63.671875 1.5625 59.375 2.734375 
Q 61.328125 5.46875 63.671875 8.203125 
z
M 70.703125 49.21875 
L 70.703125 54.296875 
L 30.078125 54.296875 
L 30.078125 49.21875 
z
M 70.703125 16.796875 
L 70.703125 21.875 
L 30.078125 21.875 
L 30.078125 16.796875 
z
M 43.359375 3.125 
Q 37.109375 -0.390625 29.296875 -3.515625 
Q 21.484375 -6.640625 14.84375 -8.984375 
Q 12.109375 -6.25 9.375 -3.90625 
Q 19.140625 -0.78125 25.390625 2.140625 
Q 31.640625 5.078125 36.71875 8.203125 
Q 39.84375 5.46875 43.359375 3.125 
z
M 70.703125 27.734375 
L 70.703125 32.421875 
L 30.078125 32.421875 
L 30.078125 27.734375 
z
M 70.703125 38.671875 
L 70.703125 43.359375 
L 30.078125 43.359375 
L 30.078125 38.671875 
z
" id="SimHei-30495"/>
     </defs>
     <g transform="translate(113.85125 58.736719)scale(0.15 -0.15)">
      <use xlink:href="#SimHei-30495"/>
      <use x="100" xlink:href="#SimHei-23454"/>
      <use x="200" xlink:href="#SimHei-20540"/>
     </g>
    </g>
    <g id="line2d_35">
     <path d="M 71.85125 73.361719 
L 101.85125 73.361719 
" style="fill:none;stroke:#ff0000;stroke-linecap:square;stroke-width:1.5;"/>
    </g>
    <g id="line2d_36"/>
    <g id="text_19">
     <!-- MiniDeepST -->
     <defs>
      <path d="M 45.703125 1.953125 
L 37.890625 1.953125 
L 37.890625 49.609375 
L 37.109375 49.609375 
L 27.734375 1.953125 
L 21.484375 1.953125 
L 12.109375 49.609375 
L 11.328125 49.609375 
L 11.328125 1.953125 
L 3.515625 1.953125 
L 3.515625 68.75 
L 15.625 68.75 
L 24.21875 24.609375 
L 25 24.609375 
L 33.59375 68.75 
L 45.703125 68.75 
z
" id="SimHei-77"/>
      <path d="M 28.125 58.203125 
L 20.3125 58.203125 
L 20.3125 68.359375 
L 28.125 68.359375 
z
M 28.125 1.953125 
L 20.3125 1.953125 
L 20.3125 45.703125 
L 28.125 45.703125 
z
" id="SimHei-105"/>
      <path d="M 43.75 1.953125 
L 35.9375 1.953125 
L 35.9375 30.078125 
Q 35.9375 34.765625 33.59375 37.5 
Q 31.25 40.234375 27.34375 40.234375 
Q 22.265625 40.234375 17.765625 34.953125 
Q 13.28125 29.6875 13.28125 21.875 
L 13.28125 1.953125 
L 5.46875 1.953125 
L 5.46875 45.703125 
L 13.28125 45.703125 
L 13.28125 37.5 
Q 16.40625 41.796875 20.109375 44.140625 
Q 23.828125 46.484375 29.6875 46.484375 
Q 36.71875 46.484375 40.234375 42.578125 
Q 43.75 38.671875 43.75 32.8125 
z
" id="SimHei-110"/>
      <path d="M 44.53125 16.796875 
Q 43.75 9.765625 38.28125 5.46875 
Q 32.8125 1.171875 25.390625 1.171875 
Q 16.015625 1.171875 9.953125 7.21875 
Q 3.90625 13.28125 3.90625 23.828125 
Q 3.90625 34.375 9.953125 40.421875 
Q 16.015625 46.484375 25.390625 46.484375 
Q 33.59375 46.484375 38.859375 41.203125 
Q 44.140625 35.9375 44.140625 23.828125 
L 12.5 23.828125 
Q 12.5 15.234375 16.203125 11.71875 
Q 19.921875 8.203125 25.390625 8.203125 
Q 29.6875 8.203125 32.421875 10.34375 
Q 35.15625 12.5 35.9375 16.796875 
z
M 35.15625 30.078125 
Q 34.375 35.546875 31.640625 37.6875 
Q 28.90625 39.84375 24.609375 39.84375 
Q 20.703125 39.84375 17.578125 37.6875 
Q 14.453125 35.546875 12.890625 30.078125 
z
" id="SimHei-101"/>
      <path d="M 44.140625 23.828125 
Q 44.140625 12.5 38.671875 6.640625 
Q 33.203125 0.78125 25.390625 0.78125 
Q 21.09375 0.78125 17.96875 2.53125 
Q 14.84375 4.296875 12.5 7.8125 
L 12.5 -12.5 
L 4.6875 -12.5 
L 4.6875 45.703125 
L 12.5 45.703125 
L 12.5 39.84375 
Q 14.84375 43.359375 17.96875 44.921875 
Q 21.09375 46.484375 25.390625 46.484375 
Q 33.203125 46.484375 38.671875 40.8125 
Q 44.140625 35.15625 44.140625 23.828125 
z
M 35.546875 23.828125 
Q 35.546875 31.25 32.609375 35.34375 
Q 29.6875 39.453125 23.828125 39.453125 
Q 19.140625 39.453125 15.8125 35.34375 
Q 12.5 31.25 12.5 23.828125 
Q 12.5 16.40625 15.8125 12.109375 
Q 19.140625 7.8125 23.828125 7.8125 
Q 29.6875 7.8125 32.609375 12.109375 
Q 35.546875 16.40625 35.546875 23.828125 
z
" id="SimHei-112"/>
      <path d="M 45.3125 20.703125 
Q 45.3125 11.71875 39.640625 6.4375 
Q 33.984375 1.171875 24.21875 1.171875 
Q 14.453125 1.171875 8.984375 6.640625 
Q 3.515625 12.109375 3.515625 20.3125 
L 3.515625 23.046875 
L 12.5 23.046875 
L 12.5 20.703125 
Q 12.5 14.84375 16.015625 11.71875 
Q 19.53125 8.59375 24.21875 8.59375 
Q 30.46875 8.59375 33.390625 11.90625 
Q 36.328125 15.234375 36.328125 19.921875 
Q 36.328125 23.828125 32.8125 27.140625 
Q 29.296875 30.46875 22.65625 33.203125 
Q 13.28125 36.71875 9.171875 41.015625 
Q 5.078125 45.3125 5.078125 51.171875 
Q 5.078125 59.375 10.734375 64.453125 
Q 16.40625 69.53125 24.21875 69.53125 
Q 34.375 69.53125 38.859375 63.46875 
Q 43.359375 57.421875 43.359375 50.390625 
L 34.375 50.390625 
Q 34.765625 54.6875 32.03125 58.203125 
Q 29.296875 61.71875 24.21875 61.71875 
Q 19.53125 61.71875 16.796875 59.171875 
Q 14.0625 56.640625 14.0625 52.34375 
Q 14.0625 48.828125 16.203125 46.28125 
Q 18.359375 43.75 27.34375 40.234375 
Q 35.9375 36.71875 40.625 31.828125 
Q 45.3125 26.953125 45.3125 20.703125 
z
" id="SimHei-83"/>
      <path d="M 44.53125 61.328125 
L 28.90625 61.328125 
L 28.90625 1.953125 
L 19.921875 1.953125 
L 19.921875 61.328125 
L 4.296875 61.328125 
L 4.296875 68.75 
L 44.53125 68.75 
z
" id="SimHei-84"/>
     </defs>
     <g transform="translate(113.85125 78.611719)scale(0.15 -0.15)">
      <use xlink:href="#SimHei-77"/>
      <use x="50" xlink:href="#SimHei-105"/>
      <use x="100" xlink:href="#SimHei-110"/>
      <use x="150" xlink:href="#SimHei-105"/>
      <use x="200" xlink:href="#SimHei-68"/>
      <use x="250" xlink:href="#SimHei-101"/>
      <use x="300" xlink:href="#SimHei-101"/>
      <use x="350" xlink:href="#SimHei-112"/>
      <use x="400" xlink:href="#SimHei-83"/>
      <use x="450" xlink:href="#SimHei-84"/>
     </g>
    </g>
    <g id="line2d_37">
     <path d="M 71.85125 93.236719 
L 101.85125 93.236719 
" style="fill:none;stroke:#ffa500;stroke-linecap:square;stroke-width:1.5;"/>
    </g>
    <g id="line2d_38"/>
    <g id="text_20">
     <!-- MiniSTResNet -->
     <defs>
      <path d="M 46.875 1.953125 
L 37.5 1.953125 
L 23.4375 30.859375 
L 13.28125 30.859375 
L 13.28125 1.953125 
L 4.296875 1.953125 
L 4.296875 68.75 
L 23.828125 68.75 
Q 33.203125 68.75 39.0625 64.25 
Q 44.921875 59.765625 44.921875 49.609375 
Q 44.921875 41.796875 41.015625 37.5 
Q 37.109375 33.203125 32.03125 32.03125 
z
M 35.9375 49.609375 
Q 35.9375 55.078125 32.609375 58.203125 
Q 29.296875 61.328125 21.875 61.328125 
L 13.28125 61.328125 
L 13.28125 38.28125 
L 24.21875 38.28125 
Q 28.90625 38.28125 32.421875 40.8125 
Q 35.9375 43.359375 35.9375 49.609375 
z
" id="SimHei-82"/>
      <path d="M 42.96875 14.0625 
Q 42.96875 7.8125 38.078125 4.484375 
Q 33.203125 1.171875 25.78125 1.171875 
Q 16.40625 1.171875 11.328125 4.875 
Q 6.25 8.59375 6.25 15.625 
L 14.0625 15.625 
Q 14.0625 10.9375 17.375 9.375 
Q 20.703125 7.8125 25.390625 7.8125 
Q 30.078125 7.8125 32.421875 9.5625 
Q 34.765625 11.328125 34.765625 14.0625 
Q 34.765625 16.015625 32.8125 17.96875 
Q 30.859375 19.921875 23.046875 21.09375 
Q 14.0625 22.265625 10.734375 25.578125 
Q 7.421875 28.90625 7.421875 34.375 
Q 7.421875 39.0625 11.90625 42.765625 
Q 16.40625 46.484375 25 46.484375 
Q 32.8125 46.484375 37.296875 42.96875 
Q 41.796875 39.453125 41.796875 33.59375 
L 33.984375 33.59375 
Q 33.984375 37.109375 31.4375 38.46875 
Q 28.90625 39.84375 25 39.84375 
Q 19.921875 39.84375 17.765625 38.078125 
Q 15.625 36.328125 15.625 33.984375 
Q 15.625 31.25 17.578125 29.6875 
Q 19.53125 28.125 25.78125 27.34375 
Q 35.9375 25.78125 39.453125 22.453125 
Q 42.96875 19.140625 42.96875 14.0625 
z
" id="SimHei-115"/>
      <path d="M 44.53125 1.953125 
L 34.765625 1.953125 
L 13.28125 50.390625 
L 12.890625 50.390625 
L 12.890625 1.953125 
L 3.90625 1.953125 
L 3.90625 68.75 
L 13.671875 68.75 
L 35.15625 20.3125 
L 35.546875 20.3125 
L 35.546875 68.75 
L 44.53125 68.75 
z
" id="SimHei-78"/>
      <path d="M 42.96875 3.125 
Q 41.015625 2.34375 38.46875 1.75 
Q 35.9375 1.171875 31.640625 1.171875 
Q 24.609375 1.171875 20.3125 5.078125 
Q 16.015625 8.984375 16.015625 16.015625 
L 16.015625 39.453125 
L 2.734375 39.453125 
L 2.734375 45.703125 
L 16.015625 45.703125 
L 16.015625 60.9375 
L 23.828125 60.9375 
L 23.828125 45.703125 
L 39.84375 45.703125 
L 39.84375 39.453125 
L 23.828125 39.453125 
L 23.828125 15.625 
Q 23.828125 12.5 25.390625 10.34375 
Q 26.953125 8.203125 31.25 8.203125 
Q 35.546875 8.203125 38.28125 8.984375 
Q 41.015625 9.765625 42.96875 10.9375 
z
" id="SimHei-116"/>
     </defs>
     <g transform="translate(113.85125 98.486719)scale(0.15 -0.15)">
      <use xlink:href="#SimHei-77"/>
      <use x="50" xlink:href="#SimHei-105"/>
      <use x="100" xlink:href="#SimHei-110"/>
      <use x="150" xlink:href="#SimHei-105"/>
      <use x="200" xlink:href="#SimHei-83"/>
      <use x="250" xlink:href="#SimHei-84"/>
      <use x="300" xlink:href="#SimHei-82"/>
      <use x="350" xlink:href="#SimHei-101"/>
      <use x="400" xlink:href="#SimHei-115"/>
      <use x="450" xlink:href="#SimHei-78"/>
      <use x="500" xlink:href="#SimHei-101"/>
      <use x="550" xlink:href="#SimHei-116"/>
     </g>
    </g>
    <g id="line2d_39">
     <path d="M 71.85125 113.111719 
L 101.85125 113.111719 
" style="fill:none;stroke:#008000;stroke-linecap:square;stroke-width:1.5;"/>
    </g>
    <g id="line2d_40"/>
    <g id="text_21">
     <!-- MiniSTResNet_Dropout -->
     <defs>
      <path d="M 49.21875 -13.28125 
L 0 -13.28125 
L 0 -8.59375 
L 49.21875 -8.59375 
z
" id="SimHei-95"/>
      <path d="M 39.0625 37.890625 
Q 31.640625 39.0625 26.5625 35.734375 
Q 21.484375 32.421875 17.96875 24.21875 
L 17.96875 1.953125 
L 10.15625 1.953125 
L 10.15625 45.703125 
L 17.96875 45.703125 
L 17.96875 34.375 
Q 21.484375 40.625 26.75 43.546875 
Q 32.03125 46.484375 39.0625 46.484375 
z
" id="SimHei-114"/>
      <path d="M 45.703125 23.828125 
Q 45.703125 13.671875 39.453125 7.421875 
Q 33.203125 1.171875 24.609375 1.171875 
Q 16.015625 1.171875 9.765625 7.421875 
Q 3.515625 13.671875 3.515625 23.828125 
Q 3.515625 33.984375 9.765625 40.234375 
Q 16.015625 46.484375 24.609375 46.484375 
Q 33.203125 46.484375 39.453125 40.234375 
Q 45.703125 33.984375 45.703125 23.828125 
z
M 37.109375 23.828125 
Q 37.109375 31.640625 33.203125 35.546875 
Q 29.296875 39.453125 24.609375 39.453125 
Q 19.921875 39.453125 16.015625 35.546875 
Q 12.109375 31.640625 12.109375 23.828125 
Q 12.109375 16.015625 16.015625 12.109375 
Q 19.921875 8.203125 24.609375 8.203125 
Q 29.296875 8.203125 33.203125 12.109375 
Q 37.109375 16.015625 37.109375 23.828125 
z
" id="SimHei-111"/>
      <path d="M 43.75 1.953125 
L 35.9375 1.953125 
L 35.9375 10.15625 
Q 32.8125 5.859375 29.09375 3.515625 
Q 25.390625 1.171875 19.53125 1.171875 
Q 12.5 1.171875 8.984375 5.078125 
Q 5.46875 8.984375 5.46875 14.84375 
L 5.46875 45.703125 
L 13.28125 45.703125 
L 13.28125 17.578125 
Q 13.28125 12.890625 15.625 10.15625 
Q 17.96875 7.421875 21.875 7.421875 
Q 26.953125 7.421875 31.4375 12.6875 
Q 35.9375 17.96875 35.9375 25.78125 
L 35.9375 45.703125 
L 43.75 45.703125 
z
" id="SimHei-117"/>
     </defs>
     <g transform="translate(113.85125 118.361719)scale(0.15 -0.15)">
      <use xlink:href="#SimHei-77"/>
      <use x="50" xlink:href="#SimHei-105"/>
      <use x="100" xlink:href="#SimHei-110"/>
      <use x="150" xlink:href="#SimHei-105"/>
      <use x="200" xlink:href="#SimHei-83"/>
      <use x="250" xlink:href="#SimHei-84"/>
      <use x="300" xlink:href="#SimHei-82"/>
      <use x="350" xlink:href="#SimHei-101"/>
      <use x="400" xlink:href="#SimHei-115"/>
      <use x="450" xlink:href="#SimHei-78"/>
      <use x="500" xlink:href="#SimHei-101"/>
      <use x="550" xlink:href="#SimHei-116"/>
      <use x="600" xlink:href="#SimHei-95"/>
      <use x="650" xlink:href="#SimHei-68"/>
      <use x="700" xlink:href="#SimHei-114"/>
      <use x="750" xlink:href="#SimHei-111"/>
      <use x="800" xlink:href="#SimHei-112"/>
      <use x="850" xlink:href="#SimHei-111"/>
      <use x="900" xlink:href="#SimHei-117"/>
      <use x="950" xlink:href="#SimHei-116"/>
     </g>
    </g>
   </g>
  </g>
 </g>
 <defs>
  <clipPath id="pdf8acd5d8e">
   <rect height="421.44625" width="1010.84875" x="58.35125" y="33.225"/>
  </clipPath>
 </defs>
</svg>
