<?xml version="1.0" encoding="utf-8" standalone="no"?>
<!DOCTYPE svg PUBLIC "-//W3C//DTD SVG 1.1//EN"
  "http://www.w3.org/Graphics/SVG/1.1/DTD/svg11.dtd">
<!-- Created with matplotlib (https://matplotlib.org/) -->
<svg height="432pt" version="1.1" viewBox="0 0 720 432" width="720pt" xmlns="http://www.w3.org/2000/svg" xmlns:xlink="http://www.w3.org/1999/xlink">
 <defs>
  <style type="text/css">
*{stroke-linecap:butt;stroke-linejoin:round;}
  </style>
 </defs>
 <g id="figure_1">
  <g id="patch_1">
   <path d="M 0 432 
L 720 432 
L 720 0 
L 0 0 
z
" style="fill:#ffffff;"/>
  </g>
  <g id="axes_1">
   <g id="patch_2">
    <path d="M 62.75 385.72 
L 709.2 385.72 
L 709.2 33.21375 
L 62.75 33.21375 
z
" style="fill:#e5e5e5;"/>
   </g>
   <g id="matplotlib.axis_1">
    <g id="xtick_1">
     <g id="line2d_1">
      <path clip-path="url(#p71e9c8efc6)" d="M 92.134091 385.72 
L 92.134091 33.21375 
" style="fill:none;stroke:#ffffff;stroke-linecap:square;stroke-width:0.8;"/>
     </g>
     <g id="line2d_2">
      <defs>
       <path d="M 0 0 
L 0 3.5 
" id="m9d43ee5a03" style="stroke:#555555;stroke-width:0.8;"/>
      </defs>
      <g>
       <use style="fill:#555555;stroke:#555555;stroke-width:0.8;" x="92.134091" xlink:href="#m9d43ee5a03" y="385.72"/>
      </g>
     </g>
     <g id="text_1">
      <!-- 0 -->
      <defs>
       <path d="M 3.125 29.296875 
Q 3.90625 50 6.4375 56.046875 
Q 8.984375 62.109375 13.671875 66.015625 
Q 18.359375 69.921875 25.1875 69.921875 
Q 32.03125 69.921875 37.109375 64.25 
Q 42.1875 58.59375 43.75 50 
Q 45.3125 41.40625 44.71875 30.265625 
Q 44.140625 19.140625 40.8125 12.109375 
Q 37.5 5.078125 30.859375 2.34375 
Q 24.21875 -0.390625 17.578125 2.921875 
Q 10.9375 6.25 8.203125 11.71875 
Q 5.46875 17.1875 4.296875 23.234375 
Q 3.125 29.296875 3.90625 50 
z
M 12.890625 52.734375 
Q 10.546875 31.25 12.5 22.84375 
Q 14.453125 14.453125 18.9375 10.9375 
Q 23.4375 7.421875 28.125 9.5625 
Q 32.8125 11.71875 34.953125 18.15625 
Q 37.109375 24.609375 37.109375 32.21875 
Q 37.109375 39.84375 36.515625 46.09375 
Q 35.9375 52.34375 33 57.421875 
Q 30.078125 62.5 25.1875 62.6875 
Q 20.3125 62.890625 16.59375 57.8125 
Q 12.890625 52.734375 10.546875 31.25 
z
" id="SimHei-48"/>
      </defs>
      <g style="fill:#555555;" transform="translate(89.634091 399.595)scale(0.1 -0.1)">
       <use xlink:href="#SimHei-48"/>
      </g>
     </g>
    </g>
    <g id="xtick_2">
     <g id="line2d_3">
      <path clip-path="url(#p71e9c8efc6)" d="M 210.857691 385.72 
L 210.857691 33.21375 
" style="fill:none;stroke:#ffffff;stroke-linecap:square;stroke-width:0.8;"/>
     </g>
     <g id="line2d_4">
      <g>
       <use style="fill:#555555;stroke:#555555;stroke-width:0.8;" x="210.857691" xlink:href="#m9d43ee5a03" y="385.72"/>
      </g>
     </g>
     <g id="text_2">
      <!-- 20 -->
      <defs>
       <path d="M 4.6875 3.90625 
Q 5.078125 9.765625 10.15625 14.453125 
Q 15.234375 19.140625 23.046875 29.09375 
Q 30.859375 39.0625 33.203125 44.53125 
Q 35.546875 50 34.953125 53.90625 
Q 34.375 57.8125 31.25 60.34375 
Q 28.125 62.890625 24.015625 62.5 
Q 19.921875 62.109375 16.203125 59.375 
Q 12.5 56.640625 10.546875 51.171875 
L 3.125 52.34375 
Q 6.25 61.328125 11.125 65.421875 
Q 16.015625 69.53125 22.65625 69.921875 
Q 26.5625 70.3125 29.6875 69.71875 
Q 32.8125 69.140625 36.125 66.984375 
Q 39.453125 64.84375 41.59375 60.546875 
Q 43.75 56.25 43.15625 50.1875 
Q 42.578125 44.140625 37.109375 35.734375 
Q 31.640625 27.34375 16.015625 9.375 
L 44.140625 9.375 
L 44.140625 2.34375 
L 4.6875 2.34375 
z
" id="SimHei-50"/>
      </defs>
      <g style="fill:#555555;" transform="translate(205.857691 399.595)scale(0.1 -0.1)">
       <use xlink:href="#SimHei-50"/>
       <use x="50" xlink:href="#SimHei-48"/>
      </g>
     </g>
    </g>
    <g id="xtick_3">
     <g id="line2d_5">
      <path clip-path="url(#p71e9c8efc6)" d="M 329.58129 385.72 
L 329.58129 33.21375 
" style="fill:none;stroke:#ffffff;stroke-linecap:square;stroke-width:0.8;"/>
     </g>
     <g id="line2d_6">
      <g>
       <use style="fill:#555555;stroke:#555555;stroke-width:0.8;" x="329.58129" xlink:href="#m9d43ee5a03" y="385.72"/>
      </g>
     </g>
     <g id="text_3">
      <!-- 40 -->
      <defs>
       <path d="M 31.25 17.1875 
L 1.171875 17.1875 
L 1.171875 23.828125 
L 32.8125 69.53125 
L 38.671875 69.53125 
L 38.671875 23.828125 
L 48.046875 23.828125 
L 48.046875 17.1875 
L 38.671875 17.1875 
L 38.671875 2.34375 
L 31.25 2.34375 
z
M 31.25 23.828125 
L 31.25 54.6875 
L 9.375 23.828125 
z
" id="SimHei-52"/>
      </defs>
      <g style="fill:#555555;" transform="translate(324.58129 399.595)scale(0.1 -0.1)">
       <use xlink:href="#SimHei-52"/>
       <use x="50" xlink:href="#SimHei-48"/>
      </g>
     </g>
    </g>
    <g id="xtick_4">
     <g id="line2d_7">
      <path clip-path="url(#p71e9c8efc6)" d="M 448.30489 385.72 
L 448.30489 33.21375 
" style="fill:none;stroke:#ffffff;stroke-linecap:square;stroke-width:0.8;"/>
     </g>
     <g id="line2d_8">
      <g>
       <use style="fill:#555555;stroke:#555555;stroke-width:0.8;" x="448.30489" xlink:href="#m9d43ee5a03" y="385.72"/>
      </g>
     </g>
     <g id="text_4">
      <!-- 60 -->
      <defs>
       <path d="M 3.515625 19.53125 
Q 4.296875 30.859375 6.046875 34.765625 
Q 7.8125 38.671875 11.328125 44.53125 
L 27.34375 69.53125 
L 36.328125 69.53125 
L 19.921875 43.75 
Q 30.46875 46.484375 36.71875 42.96875 
Q 42.96875 39.453125 45.109375 34.953125 
Q 47.265625 30.46875 47.453125 25.1875 
Q 47.65625 19.921875 45.890625 14.84375 
Q 44.140625 9.765625 39.640625 5.65625 
Q 35.15625 1.5625 27.140625 1.171875 
Q 19.140625 0.78125 13.46875 4.09375 
Q 7.8125 7.421875 5.65625 13.46875 
Q 3.515625 19.53125 4.296875 30.859375 
z
M 12.5 16.015625 
Q 19.53125 8.59375 25.390625 8.203125 
Q 31.25 7.8125 35.15625 12.109375 
Q 39.0625 16.40625 39.0625 24.609375 
Q 39.0625 32.8125 34.171875 35.9375 
Q 29.296875 39.0625 23.234375 38.28125 
Q 17.1875 37.5 14.453125 32.421875 
Q 11.71875 27.34375 12.109375 21.671875 
Q 12.5 16.015625 19.53125 8.59375 
z
" id="SimHei-54"/>
      </defs>
      <g style="fill:#555555;" transform="translate(443.30489 399.595)scale(0.1 -0.1)">
       <use xlink:href="#SimHei-54"/>
       <use x="50" xlink:href="#SimHei-48"/>
      </g>
     </g>
    </g>
    <g id="xtick_5">
     <g id="line2d_9">
      <path clip-path="url(#p71e9c8efc6)" d="M 567.028489 385.72 
L 567.028489 33.21375 
" style="fill:none;stroke:#ffffff;stroke-linecap:square;stroke-width:0.8;"/>
     </g>
     <g id="line2d_10">
      <g>
       <use style="fill:#555555;stroke:#555555;stroke-width:0.8;" x="567.028489" xlink:href="#m9d43ee5a03" y="385.72"/>
      </g>
     </g>
     <g id="text_5">
      <!-- 80 -->
      <defs>
       <path d="M 2.734375 16.796875 
Q 2.734375 26.171875 5.078125 30.65625 
Q 7.421875 35.15625 12.890625 37.890625 
Q 8.203125 40.625 6.640625 43.9375 
Q 5.078125 47.265625 4.875 51.5625 
Q 4.6875 55.859375 6.046875 58.984375 
Q 7.421875 62.109375 10.15625 64.84375 
Q 12.890625 67.578125 16.203125 68.546875 
Q 19.53125 69.53125 23.4375 69.53125 
Q 27.34375 69.53125 30.46875 68.75 
Q 33.59375 67.96875 37.109375 65.421875 
Q 40.625 62.890625 42.1875 58.203125 
Q 43.75 53.515625 41.984375 47.265625 
Q 40.234375 41.015625 32.8125 37.5 
Q 39.453125 35.546875 42.1875 31.4375 
Q 44.921875 27.34375 44.921875 21.484375 
Q 44.921875 15.625 43.15625 12.109375 
Q 41.40625 8.59375 39.25 6.25 
Q 37.109375 3.90625 33.390625 2.53125 
Q 29.6875 1.171875 24.015625 1.171875 
Q 18.359375 1.171875 14.25 2.53125 
Q 10.15625 3.90625 7.421875 6.640625 
Q 4.6875 9.375 3.703125 13.078125 
Q 2.734375 16.796875 2.734375 26.171875 
z
M 10.9375 26.5625 
Q 10.546875 17.1875 12.296875 13.671875 
Q 14.0625 10.15625 18.75 9.171875 
Q 23.4375 8.203125 28.515625 9.375 
Q 33.59375 10.546875 35.546875 14.84375 
Q 37.5 19.140625 36.90625 23.4375 
Q 36.328125 27.734375 32.03125 30.65625 
Q 27.734375 33.59375 22.65625 33.203125 
Q 17.578125 32.8125 14.25 29.6875 
Q 10.9375 26.5625 10.546875 17.1875 
z
M 12.109375 56.25 
Q 12.109375 48.4375 14.84375 44.921875 
Q 17.578125 41.40625 23.4375 41.40625 
Q 29.296875 41.40625 32.21875 44.921875 
Q 35.15625 48.4375 34.953125 53.3125 
Q 34.765625 58.203125 31.4375 60.546875 
Q 28.125 62.890625 22.453125 62.5 
Q 16.796875 62.109375 14.453125 59.171875 
Q 12.109375 56.25 12.109375 48.4375 
z
" id="SimHei-56"/>
      </defs>
      <g style="fill:#555555;" transform="translate(562.028489 399.595)scale(0.1 -0.1)">
       <use xlink:href="#SimHei-56"/>
       <use x="50" xlink:href="#SimHei-48"/>
      </g>
     </g>
    </g>
    <g id="xtick_6">
     <g id="line2d_11">
      <path clip-path="url(#p71e9c8efc6)" d="M 685.752089 385.72 
L 685.752089 33.21375 
" style="fill:none;stroke:#ffffff;stroke-linecap:square;stroke-width:0.8;"/>
     </g>
     <g id="line2d_12">
      <g>
       <use style="fill:#555555;stroke:#555555;stroke-width:0.8;" x="685.752089" xlink:href="#m9d43ee5a03" y="385.72"/>
      </g>
     </g>
     <g id="text_6">
      <!-- 100 -->
      <defs>
       <path d="M 21.875 56.25 
Q 16.796875 51.171875 8.984375 46.484375 
L 8.984375 53.90625 
Q 18.75 60.546875 25 69.53125 
L 29.6875 69.53125 
L 29.6875 2.34375 
L 21.875 2.34375 
z
" id="SimHei-49"/>
      </defs>
      <g style="fill:#555555;" transform="translate(678.252089 399.595)scale(0.1 -0.1)">
       <use xlink:href="#SimHei-49"/>
       <use x="50" xlink:href="#SimHei-48"/>
       <use x="100" xlink:href="#SimHei-48"/>
      </g>
     </g>
    </g>
    <g id="text_7">
     <!-- Epoch -->
     <defs>
      <path d="M 45.3125 1.953125 
L 5.46875 1.953125 
L 5.46875 68.75 
L 43.359375 68.75 
L 43.359375 61.328125 
L 14.453125 61.328125 
L 14.453125 40.625 
L 41.015625 40.625 
L 41.015625 33.203125 
L 14.453125 33.203125 
L 14.453125 9.375 
L 45.3125 9.375 
z
" id="SimHei-69"/>
      <path d="M 44.140625 23.828125 
Q 44.140625 12.5 38.671875 6.640625 
Q 33.203125 0.78125 25.390625 0.78125 
Q 21.09375 0.78125 17.96875 2.53125 
Q 14.84375 4.296875 12.5 7.8125 
L 12.5 -12.5 
L 4.6875 -12.5 
L 4.6875 45.703125 
L 12.5 45.703125 
L 12.5 39.84375 
Q 14.84375 43.359375 17.96875 44.921875 
Q 21.09375 46.484375 25.390625 46.484375 
Q 33.203125 46.484375 38.671875 40.8125 
Q 44.140625 35.15625 44.140625 23.828125 
z
M 35.546875 23.828125 
Q 35.546875 31.25 32.609375 35.34375 
Q 29.6875 39.453125 23.828125 39.453125 
Q 19.140625 39.453125 15.8125 35.34375 
Q 12.5 31.25 12.5 23.828125 
Q 12.5 16.40625 15.8125 12.109375 
Q 19.140625 7.8125 23.828125 7.8125 
Q 29.6875 7.8125 32.609375 12.109375 
Q 35.546875 16.40625 35.546875 23.828125 
z
" id="SimHei-112"/>
      <path d="M 45.703125 23.828125 
Q 45.703125 13.671875 39.453125 7.421875 
Q 33.203125 1.171875 24.609375 1.171875 
Q 16.015625 1.171875 9.765625 7.421875 
Q 3.515625 13.671875 3.515625 23.828125 
Q 3.515625 33.984375 9.765625 40.234375 
Q 16.015625 46.484375 24.609375 46.484375 
Q 33.203125 46.484375 39.453125 40.234375 
Q 45.703125 33.984375 45.703125 23.828125 
z
M 37.109375 23.828125 
Q 37.109375 31.640625 33.203125 35.546875 
Q 29.296875 39.453125 24.609375 39.453125 
Q 19.921875 39.453125 16.015625 35.546875 
Q 12.109375 31.640625 12.109375 23.828125 
Q 12.109375 16.015625 16.015625 12.109375 
Q 19.921875 8.203125 24.609375 8.203125 
Q 29.296875 8.203125 33.203125 12.109375 
Q 37.109375 16.015625 37.109375 23.828125 
z
" id="SimHei-111"/>
      <path d="M 44.53125 19.53125 
Q 44.53125 11.328125 38.859375 6.25 
Q 33.203125 1.171875 24.609375 1.171875 
Q 16.015625 1.171875 9.765625 7.21875 
Q 3.515625 13.28125 3.515625 23.828125 
Q 3.515625 34.375 9.765625 40.421875 
Q 16.015625 46.484375 24.609375 46.484375 
Q 33.203125 46.484375 38.28125 41.984375 
Q 43.359375 37.5 43.359375 31.25 
L 34.765625 31.25 
Q 34.375 35.9375 31.4375 37.6875 
Q 28.515625 39.453125 24.609375 39.453125 
Q 19.921875 39.453125 16.015625 35.734375 
Q 12.109375 32.03125 12.109375 23.828125 
Q 12.109375 15.625 16.015625 11.90625 
Q 19.921875 8.203125 24.609375 8.203125 
Q 29.6875 8.203125 32.8125 10.9375 
Q 35.9375 13.671875 35.9375 19.53125 
z
" id="SimHei-99"/>
      <path d="M 43.75 1.953125 
L 35.9375 1.953125 
L 35.9375 30.078125 
Q 35.9375 34.765625 33.59375 37.5 
Q 31.25 40.234375 27.34375 40.234375 
Q 22.265625 40.234375 17.765625 34.953125 
Q 13.28125 29.6875 13.28125 21.875 
L 13.28125 1.953125 
L 5.46875 1.953125 
L 5.46875 68.75 
L 13.28125 68.75 
L 13.28125 37.5 
Q 16.40625 41.796875 20.109375 44.140625 
Q 23.828125 46.484375 29.6875 46.484375 
Q 36.71875 46.484375 40.234375 42.578125 
Q 43.75 38.671875 43.75 32.8125 
z
" id="SimHei-104"/>
     </defs>
     <g style="fill:#555555;" transform="translate(360.975 418.595)scale(0.2 -0.2)">
      <use xlink:href="#SimHei-69"/>
      <use x="50" xlink:href="#SimHei-112"/>
      <use x="100" xlink:href="#SimHei-111"/>
      <use x="150" xlink:href="#SimHei-99"/>
      <use x="200" xlink:href="#SimHei-104"/>
     </g>
    </g>
   </g>
   <g id="matplotlib.axis_2">
    <g id="ytick_1">
     <g id="line2d_13">
      <path clip-path="url(#p71e9c8efc6)" d="M 62.75 363.157636 
L 709.2 363.157636 
" style="fill:none;stroke:#ffffff;stroke-linecap:square;stroke-width:0.8;"/>
     </g>
     <g id="line2d_14">
      <defs>
       <path d="M 0 0 
L -3.5 0 
" id="mac5537c1bc" style="stroke:#555555;stroke-width:0.8;"/>
      </defs>
      <g>
       <use style="fill:#555555;stroke:#555555;stroke-width:0.8;" x="62.75" xlink:href="#mac5537c1bc" y="363.157636"/>
      </g>
     </g>
     <g id="text_8">
      <!-- 0.002 -->
      <defs>
       <path d="M 16.796875 1.953125 
L 7.8125 1.953125 
L 7.8125 10.546875 
L 16.796875 10.546875 
z
" id="SimHei-46"/>
      </defs>
      <g style="fill:#555555;" transform="translate(30.75 366.595136)scale(0.1 -0.1)">
       <use xlink:href="#SimHei-48"/>
       <use x="50" xlink:href="#SimHei-46"/>
       <use x="100" xlink:href="#SimHei-48"/>
       <use x="150" xlink:href="#SimHei-48"/>
       <use x="200" xlink:href="#SimHei-50"/>
      </g>
     </g>
    </g>
    <g id="ytick_2">
     <g id="line2d_15">
      <path clip-path="url(#p71e9c8efc6)" d="M 62.75 316.712687 
L 709.2 316.712687 
" style="fill:none;stroke:#ffffff;stroke-linecap:square;stroke-width:0.8;"/>
     </g>
     <g id="line2d_16">
      <g>
       <use style="fill:#555555;stroke:#555555;stroke-width:0.8;" x="62.75" xlink:href="#mac5537c1bc" y="316.712687"/>
      </g>
     </g>
     <g id="text_9">
      <!-- 0.004 -->
      <g style="fill:#555555;" transform="translate(30.75 320.150187)scale(0.1 -0.1)">
       <use xlink:href="#SimHei-48"/>
       <use x="50" xlink:href="#SimHei-46"/>
       <use x="100" xlink:href="#SimHei-48"/>
       <use x="150" xlink:href="#SimHei-48"/>
       <use x="200" xlink:href="#SimHei-52"/>
      </g>
     </g>
    </g>
    <g id="ytick_3">
     <g id="line2d_17">
      <path clip-path="url(#p71e9c8efc6)" d="M 62.75 270.267739 
L 709.2 270.267739 
" style="fill:none;stroke:#ffffff;stroke-linecap:square;stroke-width:0.8;"/>
     </g>
     <g id="line2d_18">
      <g>
       <use style="fill:#555555;stroke:#555555;stroke-width:0.8;" x="62.75" xlink:href="#mac5537c1bc" y="270.267739"/>
      </g>
     </g>
     <g id="text_10">
      <!-- 0.006 -->
      <g style="fill:#555555;" transform="translate(30.75 273.705239)scale(0.1 -0.1)">
       <use xlink:href="#SimHei-48"/>
       <use x="50" xlink:href="#SimHei-46"/>
       <use x="100" xlink:href="#SimHei-48"/>
       <use x="150" xlink:href="#SimHei-48"/>
       <use x="200" xlink:href="#SimHei-54"/>
      </g>
     </g>
    </g>
    <g id="ytick_4">
     <g id="line2d_19">
      <path clip-path="url(#p71e9c8efc6)" d="M 62.75 223.82279 
L 709.2 223.82279 
" style="fill:none;stroke:#ffffff;stroke-linecap:square;stroke-width:0.8;"/>
     </g>
     <g id="line2d_20">
      <g>
       <use style="fill:#555555;stroke:#555555;stroke-width:0.8;" x="62.75" xlink:href="#mac5537c1bc" y="223.82279"/>
      </g>
     </g>
     <g id="text_11">
      <!-- 0.008 -->
      <g style="fill:#555555;" transform="translate(30.75 227.26029)scale(0.1 -0.1)">
       <use xlink:href="#SimHei-48"/>
       <use x="50" xlink:href="#SimHei-46"/>
       <use x="100" xlink:href="#SimHei-48"/>
       <use x="150" xlink:href="#SimHei-48"/>
       <use x="200" xlink:href="#SimHei-56"/>
      </g>
     </g>
    </g>
    <g id="ytick_5">
     <g id="line2d_21">
      <path clip-path="url(#p71e9c8efc6)" d="M 62.75 177.377842 
L 709.2 177.377842 
" style="fill:none;stroke:#ffffff;stroke-linecap:square;stroke-width:0.8;"/>
     </g>
     <g id="line2d_22">
      <g>
       <use style="fill:#555555;stroke:#555555;stroke-width:0.8;" x="62.75" xlink:href="#mac5537c1bc" y="177.377842"/>
      </g>
     </g>
     <g id="text_12">
      <!-- 0.010 -->
      <g style="fill:#555555;" transform="translate(30.75 180.815342)scale(0.1 -0.1)">
       <use xlink:href="#SimHei-48"/>
       <use x="50" xlink:href="#SimHei-46"/>
       <use x="100" xlink:href="#SimHei-48"/>
       <use x="150" xlink:href="#SimHei-49"/>
       <use x="200" xlink:href="#SimHei-48"/>
      </g>
     </g>
    </g>
    <g id="ytick_6">
     <g id="line2d_23">
      <path clip-path="url(#p71e9c8efc6)" d="M 62.75 130.932893 
L 709.2 130.932893 
" style="fill:none;stroke:#ffffff;stroke-linecap:square;stroke-width:0.8;"/>
     </g>
     <g id="line2d_24">
      <g>
       <use style="fill:#555555;stroke:#555555;stroke-width:0.8;" x="62.75" xlink:href="#mac5537c1bc" y="130.932893"/>
      </g>
     </g>
     <g id="text_13">
      <!-- 0.012 -->
      <g style="fill:#555555;" transform="translate(30.75 134.370393)scale(0.1 -0.1)">
       <use xlink:href="#SimHei-48"/>
       <use x="50" xlink:href="#SimHei-46"/>
       <use x="100" xlink:href="#SimHei-48"/>
       <use x="150" xlink:href="#SimHei-49"/>
       <use x="200" xlink:href="#SimHei-50"/>
      </g>
     </g>
    </g>
    <g id="ytick_7">
     <g id="line2d_25">
      <path clip-path="url(#p71e9c8efc6)" d="M 62.75 84.487945 
L 709.2 84.487945 
" style="fill:none;stroke:#ffffff;stroke-linecap:square;stroke-width:0.8;"/>
     </g>
     <g id="line2d_26">
      <g>
       <use style="fill:#555555;stroke:#555555;stroke-width:0.8;" x="62.75" xlink:href="#mac5537c1bc" y="84.487945"/>
      </g>
     </g>
     <g id="text_14">
      <!-- 0.014 -->
      <g style="fill:#555555;" transform="translate(30.75 87.925445)scale(0.1 -0.1)">
       <use xlink:href="#SimHei-48"/>
       <use x="50" xlink:href="#SimHei-46"/>
       <use x="100" xlink:href="#SimHei-48"/>
       <use x="150" xlink:href="#SimHei-49"/>
       <use x="200" xlink:href="#SimHei-52"/>
      </g>
     </g>
    </g>
    <g id="ytick_8">
     <g id="line2d_27">
      <path clip-path="url(#p71e9c8efc6)" d="M 62.75 38.042996 
L 709.2 38.042996 
" style="fill:none;stroke:#ffffff;stroke-linecap:square;stroke-width:0.8;"/>
     </g>
     <g id="line2d_28">
      <g>
       <use style="fill:#555555;stroke:#555555;stroke-width:0.8;" x="62.75" xlink:href="#mac5537c1bc" y="38.042996"/>
      </g>
     </g>
     <g id="text_15">
      <!-- 0.016 -->
      <g style="fill:#555555;" transform="translate(30.75 41.480496)scale(0.1 -0.1)">
       <use xlink:href="#SimHei-48"/>
       <use x="50" xlink:href="#SimHei-46"/>
       <use x="100" xlink:href="#SimHei-48"/>
       <use x="150" xlink:href="#SimHei-49"/>
       <use x="200" xlink:href="#SimHei-54"/>
      </g>
     </g>
    </g>
    <g id="text_16">
     <!-- Loss -->
     <defs>
      <path d="M 45.3125 1.953125 
L 4.6875 1.953125 
L 4.6875 68.75 
L 13.671875 68.75 
L 13.671875 9.375 
L 45.3125 9.375 
z
" id="SimHei-76"/>
      <path d="M 42.96875 14.0625 
Q 42.96875 7.8125 38.078125 4.484375 
Q 33.203125 1.171875 25.78125 1.171875 
Q 16.40625 1.171875 11.328125 4.875 
Q 6.25 8.59375 6.25 15.625 
L 14.0625 15.625 
Q 14.0625 10.9375 17.375 9.375 
Q 20.703125 7.8125 25.390625 7.8125 
Q 30.078125 7.8125 32.421875 9.5625 
Q 34.765625 11.328125 34.765625 14.0625 
Q 34.765625 16.015625 32.8125 17.96875 
Q 30.859375 19.921875 23.046875 21.09375 
Q 14.0625 22.265625 10.734375 25.578125 
Q 7.421875 28.90625 7.421875 34.375 
Q 7.421875 39.0625 11.90625 42.765625 
Q 16.40625 46.484375 25 46.484375 
Q 32.8125 46.484375 37.296875 42.96875 
Q 41.796875 39.453125 41.796875 33.59375 
L 33.984375 33.59375 
Q 33.984375 37.109375 31.4375 38.46875 
Q 28.90625 39.84375 25 39.84375 
Q 19.921875 39.84375 17.765625 38.078125 
Q 15.625 36.328125 15.625 33.984375 
Q 15.625 31.25 17.578125 29.6875 
Q 19.53125 28.125 25.78125 27.34375 
Q 35.9375 25.78125 39.453125 22.453125 
Q 42.96875 19.140625 42.96875 14.0625 
z
" id="SimHei-115"/>
     </defs>
     <g style="fill:#555555;" transform="translate(24.25 229.466875)rotate(-90)scale(0.2 -0.2)">
      <use xlink:href="#SimHei-76"/>
      <use x="50" xlink:href="#SimHei-111"/>
      <use x="100" xlink:href="#SimHei-115"/>
      <use x="150" xlink:href="#SimHei-115"/>
     </g>
    </g>
   </g>
   <g id="line2d_29">
    <path clip-path="url(#p71e9c8efc6)" d="M 92.134091 49.236761 
L 98.070271 232.415508 
L 104.006451 270.489312 
L 109.942631 300.019041 
L 115.878811 318.471992 
L 121.814991 329.193628 
L 127.751171 337.217808 
L 133.687351 342.683598 
L 139.623531 346.355615 
L 145.559711 348.998569 
L 151.495891 350.944076 
L 157.432071 352.457604 
L 163.368251 353.703506 
L 169.304431 354.791531 
L 175.240611 355.774761 
L 181.176791 356.669657 
L 187.112971 357.485548 
L 193.049151 358.221698 
L 198.985331 358.901038 
L 204.921511 359.502896 
L 210.857691 360.028772 
L 216.793871 360.519773 
L 222.730051 360.963393 
L 228.66623 361.372285 
L 234.60241 361.75751 
L 240.53859 362.105942 
L 246.47477 362.431654 
L 252.41095 362.737679 
L 258.34713 363.024386 
L 264.28331 363.296115 
L 270.21949 363.548504 
L 276.15567 363.790328 
L 282.09185 364.020137 
L 288.02803 364.234213 
L 293.96421 364.436271 
L 299.90039 364.629084 
L 305.83657 364.811148 
L 311.77275 364.989263 
L 317.70893 365.158539 
L 323.64511 365.322793 
L 329.58129 365.479069 
L 335.51747 365.625279 
L 341.45365 365.764502 
L 347.38983 365.896022 
L 353.32601 366.024328 
L 359.26219 366.143718 
L 365.19837 366.261388 
L 371.13455 366.376844 
L 377.07073 366.482068 
L 383.00691 366.587222 
L 388.94309 366.689139 
L 394.87927 366.786761 
L 400.81545 366.876969 
L 406.75163 366.969125 
L 412.68781 367.053962 
L 418.62399 367.13965 
L 424.56017 367.220935 
L 430.49635 367.305085 
L 436.43253 367.382004 
L 442.36871 367.459379 
L 448.30489 367.537133 
L 454.24107 367.612162 
L 460.17725 367.686945 
L 466.11343 367.762528 
L 472.04961 367.834505 
L 477.98579 367.907266 
L 483.92197 367.973284 
L 489.85815 368.041084 
L 495.79433 368.107316 
L 501.73051 368.16993 
L 507.66669 368.235681 
L 513.60287 368.294595 
L 519.53905 368.358983 
L 525.47523 368.41595 
L 531.41141 368.476129 
L 537.34759 368.53445 
L 543.28377 368.591361 
L 549.219949 368.645557 
L 555.156129 368.698969 
L 561.092309 368.753989 
L 567.028489 368.806328 
L 572.964669 368.857943 
L 578.900849 368.91116 
L 584.837029 368.962239 
L 590.773209 369.01314 
L 596.709389 369.060537 
L 602.645569 369.111851 
L 608.581749 369.158913 
L 614.517929 369.20785 
L 620.454109 369.253952 
L 626.390289 369.302823 
L 632.326469 369.347419 
L 638.262649 369.393188 
L 644.198829 369.437311 
L 650.135009 369.482816 
L 656.071189 369.527455 
L 662.007369 369.571132 
L 667.943549 369.615904 
L 673.879729 369.654401 
L 679.815909 369.696989 
" style="fill:none;stroke:#ff0000;stroke-linecap:square;stroke-width:1.5;"/>
   </g>
   <g id="line2d_30">
    <path clip-path="url(#p71e9c8efc6)" d="M 92.134091 155.88707 
L 98.070271 322.8231 
L 104.006451 347.344571 
L 109.942631 353.94959 
L 115.878811 355.878557 
L 121.814991 358.661642 
L 127.751171 359.898882 
L 133.687351 361.003134 
L 139.623531 361.826681 
L 145.559711 362.546626 
L 151.495891 363.132178 
L 157.432071 363.60739 
L 163.368251 364.019061 
L 169.304431 364.36579 
L 175.240611 364.651699 
L 181.176791 364.904263 
L 187.112971 365.124324 
L 193.049151 365.312601 
L 198.985331 365.485451 
L 204.921511 365.626423 
L 210.857691 365.759933 
L 216.793871 365.880553 
L 222.730051 365.982194 
L 228.66623 366.078308 
L 234.60241 366.164653 
L 240.53859 366.23733 
L 246.47477 366.303816 
L 252.41095 366.368431 
L 258.34713 366.421054 
L 264.28331 366.461003 
L 270.21949 366.499919 
L 276.15567 366.527099 
L 282.09185 366.546159 
L 288.02803 366.565197 
L 293.96421 366.57929 
L 299.90039 366.589809 
L 305.83657 366.592501 
L 311.77275 366.604202 
L 317.70893 366.594083 
L 323.64511 366.618244 
L 329.58129 366.569879 
L 335.51747 366.559749 
L 341.45365 366.507116 
L 347.38983 366.478819 
L 353.32601 366.41612 
L 359.26219 366.386458 
L 365.19837 366.313116 
L 371.13455 366.266303 
L 377.07073 366.176148 
L 383.00691 366.116597 
L 388.94309 366.031105 
L 394.87927 365.972375 
L 400.81545 365.8857 
L 406.75163 365.824894 
L 412.68781 365.735875 
L 418.62399 365.680327 
L 424.56017 365.601443 
L 430.49635 365.563322 
L 436.43253 365.501083 
L 442.36871 365.482891 
L 448.30489 365.450804 
L 454.24107 365.465465 
L 460.17725 365.458287 
L 466.11343 365.498082 
L 472.04961 365.511472 
L 477.98579 365.569558 
L 483.92197 365.606288 
L 489.85815 365.689557 
L 495.79433 365.741195 
L 501.73051 365.83471 
L 507.66669 365.898982 
L 513.60287 365.999115 
L 519.53905 366.063885 
L 525.47523 366.161625 
L 531.41141 366.228152 
L 537.34759 366.325043 
L 543.28377 366.393803 
L 549.219949 366.493187 
L 555.156129 366.561917 
L 561.092309 366.65251 
L 567.028489 366.719236 
L 572.964669 366.803882 
L 578.900849 366.868894 
L 584.837029 366.948514 
L 590.773209 367.008968 
L 596.709389 367.087184 
L 602.645569 367.145468 
L 608.581749 367.220443 
L 614.517929 367.274888 
L 620.454109 367.348108 
L 626.390289 367.399917 
L 632.326469 367.472391 
L 638.262649 367.521805 
L 644.198829 367.589921 
L 650.135009 367.636277 
L 656.071189 367.700216 
L 662.007369 367.745624 
L 667.943549 367.803888 
L 673.879729 367.849652 
L 679.815909 367.903073 
" style="fill:none;stroke:#ffa500;stroke-linecap:square;stroke-width:1.5;"/>
   </g>
   <g id="line2d_31">
    <path clip-path="url(#p71e9c8efc6)" d="M 92.134091 174.836581 
L 98.070271 308.105876 
L 104.006451 313.729856 
L 109.942631 325.489834 
L 115.878811 338.611881 
L 121.814991 338.563619 
L 127.751171 340.805023 
L 133.687351 342.663814 
L 139.623531 344.155265 
L 145.559711 345.151179 
L 151.495891 346.390322 
L 157.432071 347.074144 
L 163.368251 347.747758 
L 169.304431 348.770485 
L 175.240611 349.245816 
L 181.176791 349.918581 
L 187.112971 350.529394 
L 193.049151 351.213064 
L 198.985331 351.111414 
L 204.921511 351.655489 
L 210.857691 352.278484 
L 216.793871 352.372548 
L 222.730051 352.795481 
L 228.66623 353.10441 
L 234.60241 353.277247 
L 240.53859 353.521498 
L 246.47477 353.874991 
L 252.41095 354.238119 
L 258.34713 354.291328 
L 264.28331 354.238075 
L 270.21949 354.690325 
L 276.15567 354.462489 
L 282.09185 355.18962 
L 288.02803 354.995274 
L 293.96421 355.232702 
L 299.90039 354.995393 
L 305.83657 355.606357 
L 311.77275 355.729705 
L 317.70893 355.686233 
L 323.64511 355.683552 
L 329.58129 355.73216 
L 335.51747 356.212476 
L 341.45365 356.553847 
L 347.38983 356.284756 
L 353.32601 356.470305 
L 359.26219 356.730447 
L 365.19837 356.425709 
L 371.13455 356.695481 
L 377.07073 356.732431 
L 383.00691 356.921787 
L 388.94309 356.986572 
L 394.87927 357.211369 
L 400.81545 356.851145 
L 406.75163 357.34585 
L 412.68781 357.287196 
L 418.62399 357.252316 
L 424.56017 357.324233 
L 430.49635 357.494345 
L 436.43253 357.655801 
L 442.36871 357.772119 
L 448.30489 357.506932 
L 454.24107 357.659321 
L 460.17725 357.856851 
L 466.11343 357.886984 
L 472.04961 358.183942 
L 477.98579 357.971878 
L 483.92197 358.097258 
L 489.85815 358.139448 
L 495.79433 358.154204 
L 501.73051 358.340899 
L 507.66669 358.114852 
L 513.60287 358.486161 
L 519.53905 358.324878 
L 525.47523 358.644167 
L 531.41141 358.67477 
L 537.34759 358.479732 
L 543.28377 358.423803 
L 549.219949 358.823459 
L 555.156129 358.679036 
L 561.092309 358.755608 
L 567.028489 358.978567 
L 572.964669 358.699549 
L 578.900849 358.983082 
L 584.837029 359.036156 
L 590.773209 359.23626 
L 596.709389 358.980946 
L 602.645569 359.069122 
L 608.581749 359.35173 
L 614.517929 359.163656 
L 620.454109 359.209372 
L 626.390289 359.214865 
L 632.326469 359.420874 
L 638.262649 359.689991 
L 644.198829 359.293514 
L 650.135009 359.466665 
L 656.071189 359.61656 
L 662.007369 359.61144 
L 667.943549 359.572894 
L 673.879729 359.740789 
L 679.815909 359.440317 
" style="fill:none;stroke:#008000;stroke-linecap:square;stroke-width:1.5;"/>
   </g>
   <g id="patch_3">
    <path d="M 62.75 385.72 
L 62.75 33.21375 
" style="fill:none;stroke:#ffffff;stroke-linecap:square;stroke-linejoin:miter;"/>
   </g>
   <g id="patch_4">
    <path d="M 709.2 385.72 
L 709.2 33.21375 
" style="fill:none;stroke:#ffffff;stroke-linecap:square;stroke-linejoin:miter;"/>
   </g>
   <g id="patch_5">
    <path d="M 62.75 385.72 
L 709.2 385.72 
" style="fill:none;stroke:#ffffff;stroke-linecap:square;stroke-linejoin:miter;"/>
   </g>
   <g id="patch_6">
    <path d="M 62.75 33.21375 
L 709.2 33.21375 
" style="fill:none;stroke:#ffffff;stroke-linecap:square;stroke-linejoin:miter;"/>
   </g>
   <g id="text_17">
    <!-- 训练损失 -->
    <defs>
     <path d="M 25.78125 51.5625 
Q 25.390625 42.578125 25.390625 34.765625 
L 25.390625 10.546875 
Q 30.46875 17.578125 32.03125 19.921875 
Q 33.984375 17.578125 36.71875 14.0625 
Q 31.640625 7.8125 28.125 3.3125 
Q 24.609375 -1.171875 20.703125 -6.640625 
Q 17.96875 -3.125 14.84375 -0.78125 
Q 17.96875 3.515625 17.96875 9.765625 
L 17.96875 44.921875 
L 15.234375 44.921875 
Q 9.375 44.921875 4.6875 44.53125 
L 4.6875 51.953125 
Q 9.375 51.5625 15.234375 51.5625 
z
M 53.515625 71.875 
Q 52.734375 67.96875 52.921875 52.53125 
Q 53.125 37.109375 52.140625 29.484375 
Q 51.171875 21.875 48.234375 13.078125 
Q 45.3125 4.296875 38.28125 -5.859375 
Q 34.765625 -3.125 30.859375 -1.953125 
Q 39.84375 7.8125 43.15625 21.28125 
Q 46.484375 34.765625 46.09375 52.140625 
Q 45.703125 69.53125 45.3125 73.046875 
Q 49.21875 72.265625 53.515625 71.875 
z
M 91.796875 73.4375 
Q 91.40625 70.3125 91.40625 62.109375 
L 91.40625 9.765625 
Q 91.40625 1.953125 91.796875 -6.25 
L 84.375 -6.25 
Q 84.765625 1.953125 84.765625 9.375 
L 84.765625 62.109375 
Q 84.765625 70.3125 84.375 73.4375 
L 91.796875 73.4375 
z
M 71.875 2.734375 
L 64.453125 2.734375 
Q 64.84375 11.328125 64.84375 17.96875 
L 64.84375 56.25 
Q 64.84375 63.28125 64.453125 67.96875 
L 71.875 67.96875 
z
M 15.625 80.46875 
Q 25.78125 71.875 32.8125 64.0625 
Q 29.296875 61.328125 27.34375 58.59375 
Q 16.40625 71.09375 10.9375 75 
Q 13.28125 77.34375 15.625 80.46875 
z
" id="SimHei-35757"/>
     <path d="M 51.5625 59.765625 
Q 46.09375 59.765625 37.5 59.375 
L 37.5 66.40625 
Q 46.09375 66.015625 51.953125 66.015625 
L 56.640625 66.015625 
Q 60.546875 77.34375 60.9375 80.859375 
Q 65.625 78.515625 69.53125 76.953125 
Q 67.96875 75.390625 66.59375 72.0625 
Q 65.234375 68.75 64.0625 66.015625 
L 78.515625 66.015625 
Q 84.765625 66.015625 92.1875 66.40625 
L 92.1875 59.375 
Q 86.71875 59.765625 78.515625 59.765625 
L 62.109375 59.765625 
Q 60.15625 55.078125 57.8125 49.21875 
L 73.046875 49.21875 
Q 72.65625 44.921875 72.65625 38.671875 
L 72.65625 30.859375 
L 77.734375 30.859375 
Q 83.59375 30.859375 90.625 31.25 
L 90.625 24.21875 
Q 83.59375 24.609375 77.734375 24.609375 
L 72.65625 24.609375 
L 72.65625 1.953125 
Q 72.65625 -4.6875 69.71875 -6.640625 
Q 66.796875 -8.59375 57.03125 -9.765625 
Q 56.640625 -5.859375 53.90625 -1.5625 
Q 63.671875 -1.953125 64.640625 -0.390625 
Q 65.625 1.171875 65.625 5.078125 
L 65.625 24.609375 
L 53.515625 24.609375 
Q 50.78125 24.609375 48.4375 24.40625 
Q 46.09375 24.21875 42.96875 23.046875 
Q 41.40625 26.953125 39.84375 30.46875 
Q 43.75 31.640625 48.828125 43.359375 
Q 46.09375 43.359375 38.28125 42.96875 
L 38.28125 49.609375 
Q 47.265625 49.21875 50.78125 49.21875 
Q 53.125 55.078125 54.6875 59.765625 
z
M 25.78125 46.09375 
Q 29.296875 51.5625 32.8125 60.9375 
Q 36.328125 58.203125 40.234375 56.25 
Q 36.328125 51.171875 31.640625 42.96875 
Q 26.953125 34.765625 16.796875 21.09375 
Q 20.3125 21.875 37.5 24.609375 
Q 36.71875 20.3125 37.109375 17.96875 
Q 28.515625 17.1875 10.15625 12.890625 
Q 8.203125 16.796875 6.25 19.921875 
Q 9.765625 21.875 13.859375 27.140625 
Q 17.96875 32.421875 22.65625 40.234375 
Q 20.3125 40.625 15.8125 40.03125 
Q 11.328125 39.453125 7.03125 38.28125 
Q 5.46875 41.796875 3.90625 45.703125 
Q 7.8125 48.046875 12.6875 58.203125 
Q 17.578125 68.359375 20.703125 78.125 
Q 25 75.390625 28.90625 74.21875 
Q 25 68.359375 21.671875 61.90625 
Q 18.359375 55.46875 12.5 45.703125 
Q 21.484375 45.703125 25.78125 46.09375 
z
M 37.890625 10.9375 
Q 37.5 6.640625 37.890625 3.90625 
Q 31.25 2.34375 22.84375 -0.390625 
Q 14.453125 -3.125 7.421875 -6.640625 
Q 6.25 -2.34375 4.6875 1.953125 
Q 14.84375 4.296875 18.546875 5.265625 
Q 22.265625 6.25 37.890625 10.9375 
z
M 58.203125 13.671875 
Q 57.03125 12.5 51.359375 6.25 
Q 45.703125 0 38.671875 -7.421875 
Q 35.9375 -3.90625 33.59375 -1.953125 
Q 37.890625 1.5625 42.96875 7.21875 
Q 48.046875 12.890625 51.953125 19.140625 
Q 54.296875 16.40625 58.203125 13.671875 
z
M 82.421875 19.140625 
Q 92.578125 5.859375 96.875 -1.5625 
Q 92.96875 -3.125 89.84375 -5.859375 
Q 85.546875 2.734375 76.5625 14.84375 
Q 79.296875 16.40625 82.421875 19.140625 
z
M 65.625 30.859375 
L 65.625 43.359375 
L 55.859375 43.359375 
Q 51.953125 35.15625 49.609375 30.859375 
z
" id="SimHei-32451"/>
     <path d="M 18.359375 71.875 
Q 18.359375 77.34375 17.96875 82.03125 
L 26.171875 82.03125 
Q 25.78125 77.734375 25.78125 71.875 
L 25.78125 63.671875 
Q 30.46875 63.671875 36.328125 64.0625 
L 36.328125 56.640625 
Q 30.46875 57.03125 25.78125 57.03125 
L 25.78125 39.0625 
Q 29.296875 39.84375 35.546875 42.96875 
Q 35.546875 39.84375 35.9375 35.9375 
Q 31.640625 34.375 25.78125 31.640625 
L 25.78125 2.734375 
Q 25.78125 -3.515625 22.265625 -5.078125 
Q 18.75 -6.640625 9.765625 -7.8125 
Q 9.375 -3.90625 7.03125 0.78125 
Q 12.5 0.390625 15.421875 0.578125 
Q 18.359375 0.78125 18.359375 5.46875 
L 18.359375 28.90625 
Q 10.546875 26.171875 6.25 23.4375 
Q 5.859375 28.125 3.90625 32.8125 
Q 9.375 33.59375 18.359375 36.71875 
L 18.359375 57.03125 
Q 10.15625 57.03125 5.078125 56.640625 
L 5.078125 64.0625 
Q 9.765625 63.671875 18.359375 63.671875 
z
M 86.71875 78.515625 
Q 86.328125 72.65625 86.328125 66.796875 
Q 86.328125 61.328125 86.71875 55.078125 
L 45.3125 55.078125 
Q 45.703125 61.328125 45.703125 66.796875 
Q 45.703125 72.65625 45.3125 78.515625 
L 86.71875 78.515625 
z
M 90.234375 48.046875 
Q 89.84375 42.578125 89.84375 36.71875 
L 89.84375 26.953125 
Q 89.84375 21.09375 90.234375 13.671875 
L 82.421875 13.671875 
L 82.421875 41.40625 
L 49.21875 41.40625 
L 49.21875 13.28125 
L 41.40625 13.28125 
Q 41.796875 19.921875 41.796875 26.5625 
L 41.796875 36.328125 
Q 41.796875 40.625 41.40625 48.046875 
L 90.234375 48.046875 
z
M 70.703125 34.375 
Q 69.140625 28.515625 68.15625 20.890625 
Q 67.1875 13.28125 64.453125 8.390625 
Q 61.71875 3.515625 56.25 -0.96875 
Q 50.78125 -5.46875 37.890625 -10.15625 
Q 36.328125 -7.03125 32.03125 -2.734375 
Q 42.96875 -0.78125 49.015625 3.125 
Q 55.078125 7.03125 57.8125 11.90625 
Q 60.546875 16.796875 60.9375 22.84375 
Q 61.328125 28.90625 61.328125 35.546875 
Q 66.015625 34.765625 70.703125 34.375 
z
M 79.6875 61.328125 
L 79.6875 72.65625 
L 52.734375 72.65625 
L 52.734375 61.328125 
z
M 73.046875 11.71875 
Q 77.734375 8.984375 84.5625 5.265625 
Q 91.40625 1.5625 96.484375 -1.953125 
Q 93.359375 -5.078125 91.40625 -8.59375 
Q 86.328125 -4.6875 81.25 -1.359375 
Q 76.171875 1.953125 68.359375 5.46875 
Q 71.09375 8.59375 73.046875 11.71875 
z
" id="SimHei-25439"/>
     <path d="M 32.03125 69.53125 
Q 30.078125 67.578125 26.171875 58.59375 
L 46.09375 58.59375 
Q 46.09375 72.65625 45.703125 79.6875 
Q 49.609375 79.296875 54.6875 78.90625 
Q 53.90625 73.4375 53.703125 69.140625 
Q 53.515625 64.84375 53.515625 58.59375 
L 71.875 58.59375 
Q 78.125 58.59375 84.765625 58.984375 
L 84.765625 51.5625 
Q 78.515625 51.953125 71.875 51.953125 
L 53.515625 51.953125 
Q 53.515625 43.359375 52.734375 34.375 
L 78.90625 34.375 
Q 84.765625 34.375 91.796875 34.765625 
L 91.796875 27.34375 
Q 84.765625 27.734375 78.90625 27.734375 
L 55.859375 27.734375 
Q 60.546875 17.1875 71.875 10.546875 
Q 83.203125 3.90625 94.140625 1.5625 
Q 91.015625 -2.34375 88.671875 -7.421875 
Q 77.34375 -3.125 66.40625 4.484375 
Q 55.46875 12.109375 50 23.046875 
Q 45.3125 12.890625 36.328125 4.6875 
Q 27.34375 -3.515625 12.109375 -10.15625 
Q 10.15625 -6.25 6.25 -2.734375 
Q 19.53125 0.78125 29.875 9.171875 
Q 40.234375 17.578125 43.359375 27.734375 
L 20.703125 27.734375 
Q 14.453125 27.734375 7.03125 27.34375 
L 7.03125 34.765625 
Q 14.453125 34.375 20.703125 34.375 
L 44.921875 34.375 
Q 46.09375 42.578125 46.09375 51.953125 
L 23.4375 51.953125 
Q 18.75 43.75 15.234375 38.28125 
Q 12.109375 40.234375 7.8125 41.796875 
Q 14.84375 50.390625 18.546875 58.59375 
Q 22.265625 66.796875 23.4375 73.046875 
Q 28.125 70.703125 32.03125 69.53125 
z
" id="SimHei-22833"/>
    </defs>
    <g transform="translate(345.975 27.21375)scale(0.2 -0.2)">
     <use xlink:href="#SimHei-35757"/>
     <use x="100" xlink:href="#SimHei-32451"/>
     <use x="200" xlink:href="#SimHei-25439"/>
     <use x="300" xlink:href="#SimHei-22833"/>
    </g>
   </g>
   <g id="legend_1">
    <g id="patch_7">
     <path d="M 570.2 81.041875 
L 702.2 81.041875 
Q 704.2 81.041875 704.2 79.041875 
L 704.2 40.21375 
Q 704.2 38.21375 702.2 38.21375 
L 570.2 38.21375 
Q 568.2 38.21375 568.2 40.21375 
L 568.2 79.041875 
Q 568.2 81.041875 570.2 81.041875 
z
" style="fill:#e5e5e5;opacity:0.8;stroke:#cccccc;stroke-linejoin:miter;stroke-width:0.5;"/>
    </g>
    <g id="line2d_32">
     <path d="M 572.2 45.71375 
L 592.2 45.71375 
" style="fill:none;stroke:#ff0000;stroke-linecap:square;stroke-width:1.5;"/>
    </g>
    <g id="line2d_33"/>
    <g id="text_18">
     <!-- MiniDeepST -->
     <defs>
      <path d="M 45.703125 1.953125 
L 37.890625 1.953125 
L 37.890625 49.609375 
L 37.109375 49.609375 
L 27.734375 1.953125 
L 21.484375 1.953125 
L 12.109375 49.609375 
L 11.328125 49.609375 
L 11.328125 1.953125 
L 3.515625 1.953125 
L 3.515625 68.75 
L 15.625 68.75 
L 24.21875 24.609375 
L 25 24.609375 
L 33.59375 68.75 
L 45.703125 68.75 
z
" id="SimHei-77"/>
      <path d="M 28.125 58.203125 
L 20.3125 58.203125 
L 20.3125 68.359375 
L 28.125 68.359375 
z
M 28.125 1.953125 
L 20.3125 1.953125 
L 20.3125 45.703125 
L 28.125 45.703125 
z
" id="SimHei-105"/>
      <path d="M 43.75 1.953125 
L 35.9375 1.953125 
L 35.9375 30.078125 
Q 35.9375 34.765625 33.59375 37.5 
Q 31.25 40.234375 27.34375 40.234375 
Q 22.265625 40.234375 17.765625 34.953125 
Q 13.28125 29.6875 13.28125 21.875 
L 13.28125 1.953125 
L 5.46875 1.953125 
L 5.46875 45.703125 
L 13.28125 45.703125 
L 13.28125 37.5 
Q 16.40625 41.796875 20.109375 44.140625 
Q 23.828125 46.484375 29.6875 46.484375 
Q 36.71875 46.484375 40.234375 42.578125 
Q 43.75 38.671875 43.75 32.8125 
z
" id="SimHei-110"/>
      <path d="M 45.703125 35.15625 
Q 45.703125 17.1875 38.078125 9.5625 
Q 30.46875 1.953125 17.578125 1.953125 
L 4.296875 1.953125 
L 4.296875 68.75 
L 17.578125 68.75 
Q 32.03125 68.75 38.859375 60.9375 
Q 45.703125 53.125 45.703125 35.15625 
z
M 36.328125 35.15625 
Q 36.328125 49.609375 31.640625 55.46875 
Q 26.953125 61.328125 17.578125 61.328125 
L 13.28125 61.328125 
L 13.28125 9.375 
L 17.578125 9.375 
Q 26.953125 9.375 31.640625 15.03125 
Q 36.328125 20.703125 36.328125 35.15625 
z
" id="SimHei-68"/>
      <path d="M 44.53125 16.796875 
Q 43.75 9.765625 38.28125 5.46875 
Q 32.8125 1.171875 25.390625 1.171875 
Q 16.015625 1.171875 9.953125 7.21875 
Q 3.90625 13.28125 3.90625 23.828125 
Q 3.90625 34.375 9.953125 40.421875 
Q 16.015625 46.484375 25.390625 46.484375 
Q 33.59375 46.484375 38.859375 41.203125 
Q 44.140625 35.9375 44.140625 23.828125 
L 12.5 23.828125 
Q 12.5 15.234375 16.203125 11.71875 
Q 19.921875 8.203125 25.390625 8.203125 
Q 29.6875 8.203125 32.421875 10.34375 
Q 35.15625 12.5 35.9375 16.796875 
z
M 35.15625 30.078125 
Q 34.375 35.546875 31.640625 37.6875 
Q 28.90625 39.84375 24.609375 39.84375 
Q 20.703125 39.84375 17.578125 37.6875 
Q 14.453125 35.546875 12.890625 30.078125 
z
" id="SimHei-101"/>
      <path d="M 45.3125 20.703125 
Q 45.3125 11.71875 39.640625 6.4375 
Q 33.984375 1.171875 24.21875 1.171875 
Q 14.453125 1.171875 8.984375 6.640625 
Q 3.515625 12.109375 3.515625 20.3125 
L 3.515625 23.046875 
L 12.5 23.046875 
L 12.5 20.703125 
Q 12.5 14.84375 16.015625 11.71875 
Q 19.53125 8.59375 24.21875 8.59375 
Q 30.46875 8.59375 33.390625 11.90625 
Q 36.328125 15.234375 36.328125 19.921875 
Q 36.328125 23.828125 32.8125 27.140625 
Q 29.296875 30.46875 22.65625 33.203125 
Q 13.28125 36.71875 9.171875 41.015625 
Q 5.078125 45.3125 5.078125 51.171875 
Q 5.078125 59.375 10.734375 64.453125 
Q 16.40625 69.53125 24.21875 69.53125 
Q 34.375 69.53125 38.859375 63.46875 
Q 43.359375 57.421875 43.359375 50.390625 
L 34.375 50.390625 
Q 34.765625 54.6875 32.03125 58.203125 
Q 29.296875 61.71875 24.21875 61.71875 
Q 19.53125 61.71875 16.796875 59.171875 
Q 14.0625 56.640625 14.0625 52.34375 
Q 14.0625 48.828125 16.203125 46.28125 
Q 18.359375 43.75 27.34375 40.234375 
Q 35.9375 36.71875 40.625 31.828125 
Q 45.3125 26.953125 45.3125 20.703125 
z
" id="SimHei-83"/>
      <path d="M 44.53125 61.328125 
L 28.90625 61.328125 
L 28.90625 1.953125 
L 19.921875 1.953125 
L 19.921875 61.328125 
L 4.296875 61.328125 
L 4.296875 68.75 
L 44.53125 68.75 
z
" id="SimHei-84"/>
     </defs>
     <g transform="translate(600.2 49.21375)scale(0.1 -0.1)">
      <use xlink:href="#SimHei-77"/>
      <use x="50" xlink:href="#SimHei-105"/>
      <use x="100" xlink:href="#SimHei-110"/>
      <use x="150" xlink:href="#SimHei-105"/>
      <use x="200" xlink:href="#SimHei-68"/>
      <use x="250" xlink:href="#SimHei-101"/>
      <use x="300" xlink:href="#SimHei-101"/>
      <use x="350" xlink:href="#SimHei-112"/>
      <use x="400" xlink:href="#SimHei-83"/>
      <use x="450" xlink:href="#SimHei-84"/>
     </g>
    </g>
    <g id="line2d_34">
     <path d="M 572.2 58.96375 
L 592.2 58.96375 
" style="fill:none;stroke:#ffa500;stroke-linecap:square;stroke-width:1.5;"/>
    </g>
    <g id="line2d_35"/>
    <g id="text_19">
     <!-- MiniSTResNet -->
     <defs>
      <path d="M 46.875 1.953125 
L 37.5 1.953125 
L 23.4375 30.859375 
L 13.28125 30.859375 
L 13.28125 1.953125 
L 4.296875 1.953125 
L 4.296875 68.75 
L 23.828125 68.75 
Q 33.203125 68.75 39.0625 64.25 
Q 44.921875 59.765625 44.921875 49.609375 
Q 44.921875 41.796875 41.015625 37.5 
Q 37.109375 33.203125 32.03125 32.03125 
z
M 35.9375 49.609375 
Q 35.9375 55.078125 32.609375 58.203125 
Q 29.296875 61.328125 21.875 61.328125 
L 13.28125 61.328125 
L 13.28125 38.28125 
L 24.21875 38.28125 
Q 28.90625 38.28125 32.421875 40.8125 
Q 35.9375 43.359375 35.9375 49.609375 
z
" id="SimHei-82"/>
      <path d="M 44.53125 1.953125 
L 34.765625 1.953125 
L 13.28125 50.390625 
L 12.890625 50.390625 
L 12.890625 1.953125 
L 3.90625 1.953125 
L 3.90625 68.75 
L 13.671875 68.75 
L 35.15625 20.3125 
L 35.546875 20.3125 
L 35.546875 68.75 
L 44.53125 68.75 
z
" id="SimHei-78"/>
      <path d="M 42.96875 3.125 
Q 41.015625 2.34375 38.46875 1.75 
Q 35.9375 1.171875 31.640625 1.171875 
Q 24.609375 1.171875 20.3125 5.078125 
Q 16.015625 8.984375 16.015625 16.015625 
L 16.015625 39.453125 
L 2.734375 39.453125 
L 2.734375 45.703125 
L 16.015625 45.703125 
L 16.015625 60.9375 
L 23.828125 60.9375 
L 23.828125 45.703125 
L 39.84375 45.703125 
L 39.84375 39.453125 
L 23.828125 39.453125 
L 23.828125 15.625 
Q 23.828125 12.5 25.390625 10.34375 
Q 26.953125 8.203125 31.25 8.203125 
Q 35.546875 8.203125 38.28125 8.984375 
Q 41.015625 9.765625 42.96875 10.9375 
z
" id="SimHei-116"/>
     </defs>
     <g transform="translate(600.2 62.46375)scale(0.1 -0.1)">
      <use xlink:href="#SimHei-77"/>
      <use x="50" xlink:href="#SimHei-105"/>
      <use x="100" xlink:href="#SimHei-110"/>
      <use x="150" xlink:href="#SimHei-105"/>
      <use x="200" xlink:href="#SimHei-83"/>
      <use x="250" xlink:href="#SimHei-84"/>
      <use x="300" xlink:href="#SimHei-82"/>
      <use x="350" xlink:href="#SimHei-101"/>
      <use x="400" xlink:href="#SimHei-115"/>
      <use x="450" xlink:href="#SimHei-78"/>
      <use x="500" xlink:href="#SimHei-101"/>
      <use x="550" xlink:href="#SimHei-116"/>
     </g>
    </g>
    <g id="line2d_36">
     <path d="M 572.2 72.21375 
L 592.2 72.21375 
" style="fill:none;stroke:#008000;stroke-linecap:square;stroke-width:1.5;"/>
    </g>
    <g id="line2d_37"/>
    <g id="text_20">
     <!-- MiniSTResNet_Dropout -->
     <defs>
      <path d="M 49.21875 -13.28125 
L 0 -13.28125 
L 0 -8.59375 
L 49.21875 -8.59375 
z
" id="SimHei-95"/>
      <path d="M 39.0625 37.890625 
Q 31.640625 39.0625 26.5625 35.734375 
Q 21.484375 32.421875 17.96875 24.21875 
L 17.96875 1.953125 
L 10.15625 1.953125 
L 10.15625 45.703125 
L 17.96875 45.703125 
L 17.96875 34.375 
Q 21.484375 40.625 26.75 43.546875 
Q 32.03125 46.484375 39.0625 46.484375 
z
" id="SimHei-114"/>
      <path d="M 43.75 1.953125 
L 35.9375 1.953125 
L 35.9375 10.15625 
Q 32.8125 5.859375 29.09375 3.515625 
Q 25.390625 1.171875 19.53125 1.171875 
Q 12.5 1.171875 8.984375 5.078125 
Q 5.46875 8.984375 5.46875 14.84375 
L 5.46875 45.703125 
L 13.28125 45.703125 
L 13.28125 17.578125 
Q 13.28125 12.890625 15.625 10.15625 
Q 17.96875 7.421875 21.875 7.421875 
Q 26.953125 7.421875 31.4375 12.6875 
Q 35.9375 17.96875 35.9375 25.78125 
L 35.9375 45.703125 
L 43.75 45.703125 
z
" id="SimHei-117"/>
     </defs>
     <g transform="translate(600.2 75.71375)scale(0.1 -0.1)">
      <use xlink:href="#SimHei-77"/>
      <use x="50" xlink:href="#SimHei-105"/>
      <use x="100" xlink:href="#SimHei-110"/>
      <use x="150" xlink:href="#SimHei-105"/>
      <use x="200" xlink:href="#SimHei-83"/>
      <use x="250" xlink:href="#SimHei-84"/>
      <use x="300" xlink:href="#SimHei-82"/>
      <use x="350" xlink:href="#SimHei-101"/>
      <use x="400" xlink:href="#SimHei-115"/>
      <use x="450" xlink:href="#SimHei-78"/>
      <use x="500" xlink:href="#SimHei-101"/>
      <use x="550" xlink:href="#SimHei-116"/>
      <use x="600" xlink:href="#SimHei-95"/>
      <use x="650" xlink:href="#SimHei-68"/>
      <use x="700" xlink:href="#SimHei-114"/>
      <use x="750" xlink:href="#SimHei-111"/>
      <use x="800" xlink:href="#SimHei-112"/>
      <use x="850" xlink:href="#SimHei-111"/>
      <use x="900" xlink:href="#SimHei-117"/>
      <use x="950" xlink:href="#SimHei-116"/>
     </g>
    </g>
   </g>
  </g>
 </g>
 <defs>
  <clipPath id="p71e9c8efc6">
   <rect height="352.50625" width="646.45" x="62.75" y="33.21375"/>
  </clipPath>
 </defs>
</svg>
